G04 Layer: BottomLayer*
G04 EasyEDA v6.4.25, 2021-10-04T21:21:11--4:00*
G04 2cf70da8eae2490c89e5189a04a06a47,96b9eb17c6bf4bf1aa34359f555252a9,10*
G04 Gerber Generator version 0.2*
G04 Scale: 100 percent, Rotated: No, Reflected: No *
G04 Dimensions in millimeters *
G04 leading zeros omitted , absolute positions ,4 integer and 5 decimal *
%FSLAX45Y45*%
%MOMM*%

%ADD10C,0.2540*%
%ADD11C,0.3000*%
%ADD12C,0.5000*%
%ADD13C,0.6096*%
%ADD14C,1.0000*%
%ADD29C,1.8000*%
%ADD30C,1.2000*%
%ADD31R,1.5748X1.5748*%
%ADD32C,1.5748*%
%ADD33C,0.6200*%

%LPD*%
D10*
X2739994Y-601273D02*
G01*
X2739994Y-589993D01*
X2590012Y-440009D01*
X1779925Y-1349964D02*
G01*
X1779925Y-1370030D01*
X1854855Y-1444960D01*
X2025035Y-1444960D01*
X2283861Y-1703786D01*
X2323993Y-1703786D01*
X1799993Y-1159997D02*
G01*
X1799993Y-1219987D01*
X1880011Y-1300002D01*
X2129988Y-1300002D01*
X2090008Y-2650012D02*
G01*
X2159525Y-2719529D01*
X2323993Y-2719529D01*
D12*
X2539994Y339999D02*
G01*
X2603654Y276339D01*
X2603654Y37754D01*
X2639992Y1414D01*
D11*
X869995Y-1089995D02*
G01*
X659991Y-1299999D01*
X129999Y-1299999D01*
X10002Y-1419999D01*
X-130591Y-1419999D01*
X-158094Y-1447502D01*
D10*
X2323993Y-2211532D02*
G01*
X2323993Y-2184100D01*
X2036465Y-1896572D01*
X1826661Y-1896572D01*
X1790085Y-1859996D01*
D11*
X780003Y-1019992D02*
G01*
X659998Y-1139997D01*
X110037Y-1139997D01*
X-69961Y-1319999D01*
X-229996Y-1319999D01*
X-357497Y-1447502D01*
X-412094Y-1447502D01*
D29*
G01*
X1080079Y390062D03*
G01*
X1080079Y-109910D03*
D30*
G01*
X-292003Y227451D03*
G01*
X-132008Y227451D03*
G01*
X-211993Y347822D03*
G01*
X-51998Y347822D03*
G01*
X27985Y227451D03*
D31*
G01*
X-158094Y-3733500D03*
D32*
G01*
X-412094Y-3733500D03*
G01*
X-158094Y-3479500D03*
G01*
X-412094Y-3479500D03*
G01*
X-158094Y-3225500D03*
G01*
X-412094Y-3225500D03*
G01*
X-158094Y-2971500D03*
G01*
X-412094Y-2971500D03*
G01*
X-158094Y-2717500D03*
G01*
X-412094Y-2717500D03*
G01*
X-158094Y-2463500D03*
G01*
X-412094Y-2463500D03*
G01*
X-158094Y-2209500D03*
G01*
X-412094Y-2209500D03*
G01*
X-158094Y-1955500D03*
G01*
X-412094Y-1955500D03*
G01*
X-158094Y-1701500D03*
G01*
X-412094Y-1701500D03*
G01*
X-158094Y-1447500D03*
G01*
X-412094Y-1447500D03*
G01*
X-158094Y-1193500D03*
G01*
X-412094Y-1193500D03*
G01*
X-158094Y-939500D03*
G01*
X-412094Y-939500D03*
D31*
G01*
X2324018Y-941405D03*
D32*
G01*
X2578018Y-941405D03*
G01*
X2324018Y-1195405D03*
G01*
X2578018Y-1195405D03*
G01*
X2324018Y-1449405D03*
G01*
X2578018Y-1449405D03*
G01*
X2324018Y-1703405D03*
G01*
X2578018Y-1703405D03*
G01*
X2324018Y-1957405D03*
G01*
X2578018Y-1957405D03*
G01*
X2324018Y-2211405D03*
G01*
X2578018Y-2211405D03*
G01*
X2324018Y-2465405D03*
G01*
X2578018Y-2465405D03*
G01*
X2324018Y-2719405D03*
G01*
X2578018Y-2719405D03*
G01*
X2324018Y-2973405D03*
G01*
X2578018Y-2973405D03*
G01*
X2324018Y-3227405D03*
G01*
X2578018Y-3227405D03*
G01*
X2324018Y-3481405D03*
G01*
X2578018Y-3481405D03*
G01*
X2324018Y-3735405D03*
G01*
X2578018Y-3735405D03*
D33*
G01*
X1274008Y-2515036D03*
G01*
X1123995Y-2515036D03*
G01*
X1048989Y-2440030D03*
G01*
X1048989Y-2290018D03*
G01*
X1123995Y-2215037D03*
G01*
X1274008Y-2215037D03*
G01*
X1274008Y-2365024D03*
G01*
X1123995Y-2365024D03*
G01*
X1199001Y-2445034D03*
G01*
X1199001Y-2289027D03*
G01*
X1349014Y-2442011D03*
G01*
X1348988Y-2289027D03*
D13*
G01*
X1120007Y-289996D03*
G01*
X1790009Y-1859996D03*
G01*
X-630001Y-3869999D03*
G01*
X2469992Y-2329997D03*
G01*
X2769991Y-1289994D03*
G01*
X99994Y-3320013D03*
G01*
X-270007Y-3120014D03*
G01*
X1663796Y-141102D03*
G01*
X2739994Y-601273D03*
G01*
X250007Y769995D03*
G01*
X1180002Y-3120014D03*
G01*
X999992Y-3120014D03*
G01*
X-992967Y-3950949D03*
G01*
X-994897Y-3746962D03*
G01*
X-1089995Y-3440003D03*
G01*
X3496457Y658261D03*
G01*
X99994Y-3520013D03*
G01*
X1402481Y-3397788D03*
G01*
X1057473Y-3397788D03*
G01*
X712490Y-3397788D03*
G01*
X2971439Y-21544D03*
G01*
X3153785Y628721D03*
G01*
X3073775Y628721D03*
G01*
X2993791Y628721D03*
G01*
X1960011Y-3450010D03*
G01*
X3050001Y-1319992D03*
G01*
X2970016Y-1319992D03*
G01*
X3260008Y-4020012D03*
G01*
X3260008Y-3940002D03*
G01*
X3260008Y-3660018D03*
G01*
X3260008Y-3580008D03*
G01*
X3260008Y-3310006D03*
G01*
X3260008Y-3229996D03*
G01*
X3260008Y-2870001D03*
G01*
X3260008Y-2950011D03*
G01*
X3260008Y-2599999D03*
G01*
X3260008Y-2520015D03*
G01*
X3260008Y-2249987D03*
G01*
X3260008Y-2170003D03*
G01*
X3260008Y-1900001D03*
G01*
X3260008Y-1819991D03*
G01*
X2129988Y-1300002D03*
G01*
X1780001Y-1349989D03*
G01*
X1799991Y-1159997D03*
G01*
X1920006Y-3370000D03*
G01*
X2000016Y-3289990D03*
G01*
X2090008Y-2650012D03*
G01*
X1090010Y-3120014D03*
G01*
X1920006Y-3289990D03*
G01*
X2000016Y-3370000D03*
G01*
X-1100002Y-1959996D03*
G01*
X2069993Y159989D03*
G01*
X-1170005Y-3440003D03*
G01*
X2891454Y-91546D03*
G01*
X-1010010Y-2180010D03*
G01*
X2779999Y-3110006D03*
G01*
X1869993Y-3729995D03*
G01*
X290012Y-3740002D03*
G01*
X884981Y-3397788D03*
G01*
X1229989Y-3397788D03*
G01*
X1653661Y-1121262D03*
G01*
X1070096Y-1531218D03*
G01*
X1585920Y-1527662D03*
G01*
X945078Y-1607469D03*
G01*
X1068903Y-1619255D03*
G01*
X1213810Y-1568734D03*
G01*
X2891454Y-21544D03*
G01*
X1709999Y-2319990D03*
G01*
X2590007Y-440009D03*
G01*
X1618889Y820008D03*
G01*
X1969993Y159989D03*
G01*
X2120005Y-859998D03*
G01*
X-30002Y-1049990D03*
G01*
X3496457Y458261D03*
G01*
X3496457Y258262D03*
G01*
X3200013Y-590021D03*
G01*
X3200013Y-670006D03*
G01*
X3200013Y-510011D03*
G01*
X48356Y812363D03*
G01*
X1618889Y729990D03*
G01*
X1790009Y574923D03*
G01*
X1199992Y-289996D03*
G01*
X554324Y-1522252D03*
G01*
X2909996Y-3610005D03*
G01*
X247213Y-723397D03*
G01*
X-670006Y-3540003D03*
G01*
X2779999Y-3840002D03*
G01*
X2139995Y-3850010D03*
G01*
X2460010Y-1810009D03*
G01*
X2309997Y-770006D03*
G01*
X29992Y-3859992D03*
G01*
X3496457Y558261D03*
G01*
X3496457Y358261D03*
G01*
X2890006Y-1480012D03*
G01*
X2890006Y-1570004D03*
G01*
X1663796Y-221112D03*
G01*
X1780001Y-330001D03*
G01*
X1620006Y-2319990D03*
G01*
X1709999Y-2410007D03*
G01*
X1620006Y-2410007D03*
G01*
X-1179987Y-2029998D03*
G01*
X-1170005Y-2829996D03*
G01*
X-630001Y780003D03*
G01*
X-630001Y690011D03*
G01*
X950005Y-289996D03*
G01*
X1029990Y-289996D03*
G01*
X-459999Y-459999D03*
G01*
X110002Y-3859992D03*
G01*
X2060011Y-3850010D03*
G01*
X-100004Y-3980007D03*
G01*
X-189997Y-3980007D03*
G01*
X-189997Y-4059991D03*
G01*
X-109987Y-4059991D03*
G01*
X2290008Y-3980007D03*
G01*
X2380000Y-3980007D03*
G01*
X2380000Y-4070024D03*
G01*
X2290008Y-4070024D03*
G01*
X-1179987Y-1959996D03*
G01*
X157271Y-724540D03*
G01*
X585972Y-1966523D03*
G01*
X1143172Y-1863653D03*
G01*
X1558462Y-1973026D03*
G01*
X999992Y-1859996D03*
G01*
X1790009Y484906D03*
G01*
X3539992Y-2019990D03*
G01*
X3530010Y-2359995D03*
G01*
X3530010Y-2720014D03*
G01*
X3539992Y-3450010D03*
G01*
X3539992Y-3059993D03*
G01*
X3350000Y-4159991D03*
G01*
X3439993Y-4159991D03*
G01*
X-1010010Y-2280010D03*
G01*
X3550000Y-3829994D03*
G01*
X-1100002Y-2029998D03*
D14*
G01*
X2539994Y339999D03*
G01*
X2639994Y1417D03*
D13*
G01*
X2821452Y-21544D03*
G01*
X-379989Y-459999D03*
G01*
X-143794Y458642D03*
G01*
X-866932Y-333761D03*
G01*
X-790707Y-332821D03*
G01*
X-1159997Y-3099998D03*
G01*
X-1059997Y-500004D03*
G01*
X-900003Y-959998D03*
G01*
X-630001Y590011D03*
G01*
X763036Y-2414605D03*
G01*
X673044Y-2414605D03*
G01*
X673044Y-2324587D03*
G01*
X763036Y-2324587D03*
G01*
X1750004Y-1519991D03*
G01*
X1750004Y-1610009D03*
G01*
X-377601Y120822D03*
G01*
X284932Y-426674D03*
G01*
X366212Y-425429D03*
G01*
X2534940Y-568507D03*
G01*
X2444922Y-568507D03*
G01*
X2020006Y-49992D03*
G01*
X1068014Y-1070640D03*
G01*
X-514304Y-2337719D03*
G01*
X-546994Y-2800228D03*
G01*
X621050Y380410D03*
G01*
X701034Y380410D03*
G01*
X620008Y291104D03*
G01*
X699993Y291104D03*
G01*
X-592079Y-640339D03*
G01*
X1869993Y-330001D03*
G01*
X780003Y-1019992D03*
G01*
X869995Y-1089995D03*
G01*
X199994Y29992D03*
G01*
X281274Y31236D03*
G01*
X-714989Y-1630253D03*
G01*
X2530012Y939998D03*
G01*
X2609997Y939998D03*
G01*
X2690007Y939998D03*
G01*
X2530012Y859988D03*
G01*
X2609997Y859988D03*
G01*
X2690007Y859988D03*
G01*
X429991Y-1059997D03*
G01*
X519958Y-1058880D03*
G01*
X-1049990Y-1219992D03*
G01*
X3200013Y-19994D03*
G01*
X3279998Y-19994D03*
D30*
X241980Y732627D02*
G01*
X241980Y852627D01*
X241980Y257622D02*
G01*
X241980Y377621D01*
X-502010Y257622D02*
G01*
X-502010Y377621D01*
X-502010Y732627D02*
G01*
X-502010Y852627D01*
M02*
