G04 Layer: TopSolderMaskLayer*
G04 EasyEDA v6.4.25, 2021-10-04T21:21:11--4:00*
G04 2cf70da8eae2490c89e5189a04a06a47,96b9eb17c6bf4bf1aa34359f555252a9,10*
G04 Gerber Generator version 0.2*
G04 Scale: 100 percent, Rotated: No, Reflected: No *
G04 Dimensions in millimeters *
G04 leading zeros omitted , absolute positions ,4 integer and 5 decimal *
%FSLAX45Y45*%
%MOMM*%

%ADD38C,1.3016*%
%ADD39C,2.0032*%
%ADD40R,0.9032X1.5032*%
%ADD47R,1.7780X1.7780*%
%ADD48C,1.7780*%
%ADD56C,0.8232*%

%LPD*%
D38*
X241980Y732627D02*
G01*
X241980Y852627D01*
X241980Y257622D02*
G01*
X241980Y377621D01*
X-502010Y257622D02*
G01*
X-502010Y377621D01*
X-502010Y732627D02*
G01*
X-502010Y852627D01*
D39*
G01*
X1080079Y390062D03*
G01*
X1080079Y-109910D03*
D40*
G01*
X-1165001Y-3559992D03*
G36*
X-1210162Y-3035254D02*
G01*
X-1210162Y-2884886D01*
X-1119738Y-2884886D01*
X-1119738Y-3035254D01*
G37*
G36*
X-840084Y-3635202D02*
G01*
X-840084Y-3484834D01*
X-749914Y-3484834D01*
X-749914Y-3635202D01*
G37*
G36*
X-840084Y-3035254D02*
G01*
X-840084Y-2884886D01*
X-749914Y-2884886D01*
X-749914Y-3035254D01*
G37*
D38*
G01*
X-292003Y227451D03*
G01*
X-132008Y227451D03*
G01*
X-211993Y347822D03*
G01*
X-51998Y347822D03*
G01*
X27985Y227451D03*
G36*
X-1215242Y589833D02*
G01*
X-1215242Y790239D01*
X-1044808Y790239D01*
X-1044808Y589833D01*
G37*
G36*
X-915268Y589833D02*
G01*
X-915268Y790239D01*
X-744834Y790239D01*
X-744834Y589833D01*
G37*
G36*
X-31856Y-232618D02*
G01*
X-31856Y-107396D01*
X73299Y-107396D01*
X73299Y-232618D01*
G37*
G36*
X306725Y-232618D02*
G01*
X306725Y-107396D01*
X411881Y-107396D01*
X411881Y-232618D01*
G37*
G36*
X-1173332Y-2700228D02*
G01*
X-1173332Y-2519888D01*
X-1042522Y-2519888D01*
X-1042522Y-2700228D01*
G37*
G36*
X-877676Y-2700228D02*
G01*
X-877676Y-2519888D01*
X-746612Y-2519888D01*
X-746612Y-2700228D01*
G37*
G36*
X2962295Y-1654002D02*
G01*
X2962295Y-1397462D01*
X3077611Y-1397462D01*
X3077611Y-1654002D01*
G37*
G36*
X3192419Y-1654002D02*
G01*
X3192419Y-1397462D01*
X3307481Y-1397462D01*
X3307481Y-1654002D01*
G37*
G36*
X3422543Y-1654002D02*
G01*
X3422543Y-1397462D01*
X3537605Y-1397462D01*
X3537605Y-1654002D01*
G37*
G36*
X3067959Y-1082502D02*
G01*
X3067959Y-825962D01*
X3432195Y-825962D01*
X3432195Y-1082502D01*
G37*
G36*
X-280268Y-255224D02*
G01*
X-280268Y-44912D01*
X-139806Y-44912D01*
X-139806Y-255224D01*
G37*
G36*
X-600054Y-255224D02*
G01*
X-600054Y-44912D01*
X-459846Y-44912D01*
X-459846Y-255224D01*
G37*
D47*
G01*
X-158094Y-3733500D03*
D48*
G01*
X-412094Y-3733500D03*
G01*
X-158094Y-3479500D03*
G01*
X-412094Y-3479500D03*
G01*
X-158094Y-3225500D03*
G01*
X-412094Y-3225500D03*
G01*
X-158094Y-2971500D03*
G01*
X-412094Y-2971500D03*
G01*
X-158094Y-2717500D03*
G01*
X-412094Y-2717500D03*
G01*
X-158094Y-2463500D03*
G01*
X-412094Y-2463500D03*
G01*
X-158094Y-2209500D03*
G01*
X-412094Y-2209500D03*
G01*
X-158094Y-1955500D03*
G01*
X-412094Y-1955500D03*
G01*
X-158094Y-1701500D03*
G01*
X-412094Y-1701500D03*
G01*
X-158094Y-1447500D03*
G01*
X-412094Y-1447500D03*
G01*
X-158094Y-1193500D03*
G01*
X-412094Y-1193500D03*
G01*
X-158094Y-939500D03*
G01*
X-412094Y-939500D03*
G36*
X2235093Y-1030432D02*
G01*
X2235093Y-852632D01*
X2412893Y-852632D01*
X2412893Y-1030432D01*
G37*
G01*
X2578018Y-941405D03*
G01*
X2324018Y-1195405D03*
G01*
X2578018Y-1195405D03*
G01*
X2324018Y-1449405D03*
G01*
X2578018Y-1449405D03*
G01*
X2324018Y-1703405D03*
G01*
X2578018Y-1703405D03*
G01*
X2324018Y-1957405D03*
G01*
X2578018Y-1957405D03*
G01*
X2324018Y-2211405D03*
G01*
X2578018Y-2211405D03*
G01*
X2324018Y-2465405D03*
G01*
X2578018Y-2465405D03*
G01*
X2324018Y-2719405D03*
G01*
X2578018Y-2719405D03*
G01*
X2324018Y-2973405D03*
G01*
X2578018Y-2973405D03*
G01*
X2324018Y-3227405D03*
G01*
X2578018Y-3227405D03*
G01*
X2324018Y-3481405D03*
G01*
X2578018Y-3481405D03*
G01*
X2324018Y-3735405D03*
G01*
X2578018Y-3735405D03*
G36*
X-1200256Y-1885142D02*
G01*
X-1200256Y-1734774D01*
X-1109832Y-1734774D01*
X-1109832Y-1885142D01*
G37*
G36*
X-1200256Y-1285194D02*
G01*
X-1200256Y-1134826D01*
X-1109832Y-1134826D01*
X-1109832Y-1285194D01*
G37*
G36*
X-830178Y-1885142D02*
G01*
X-830178Y-1734774D01*
X-739754Y-1734774D01*
X-739754Y-1885142D01*
G37*
G36*
X-830178Y-1285194D02*
G01*
X-830178Y-1134826D01*
X-739754Y-1134826D01*
X-739754Y-1285194D01*
G37*
G36*
X3319927Y-3378408D02*
G01*
X3319927Y-3168096D01*
X3460135Y-3168096D01*
X3460135Y-3378408D01*
G37*
G36*
X2999887Y-3378408D02*
G01*
X2999887Y-3168096D01*
X3140095Y-3168096D01*
X3140095Y-3378408D01*
G37*
G36*
X3319927Y-2318466D02*
G01*
X3319927Y-2108154D01*
X3460135Y-2108154D01*
X3460135Y-2318466D01*
G37*
G36*
X2999887Y-2318466D02*
G01*
X2999887Y-2108154D01*
X3140095Y-2108154D01*
X3140095Y-2318466D01*
G37*
G36*
X3319927Y-3025094D02*
G01*
X3319927Y-2814782D01*
X3460135Y-2814782D01*
X3460135Y-3025094D01*
G37*
G36*
X2999887Y-3025094D02*
G01*
X2999887Y-2814782D01*
X3140095Y-2814782D01*
X3140095Y-3025094D01*
G37*
G36*
X3319927Y-4085290D02*
G01*
X3319927Y-3874724D01*
X3460135Y-3874724D01*
X3460135Y-4085290D01*
G37*
G36*
X2999887Y-4085290D02*
G01*
X2999887Y-3874724D01*
X3140095Y-3874724D01*
X3140095Y-4085290D01*
G37*
G36*
X2999887Y-1965152D02*
G01*
X2999887Y-1754840D01*
X3140095Y-1754840D01*
X3140095Y-1965152D01*
G37*
G36*
X3319927Y-1965152D02*
G01*
X3319927Y-1754840D01*
X3460135Y-1754840D01*
X3460135Y-1965152D01*
G37*
G36*
X-1210162Y164891D02*
G01*
X-1210162Y375203D01*
X-1069954Y375203D01*
X-1069954Y164891D01*
G37*
G36*
X-890122Y164891D02*
G01*
X-890122Y375203D01*
X-749914Y375203D01*
X-749914Y164891D01*
G37*
G36*
X3319927Y-3731722D02*
G01*
X3319927Y-3521410D01*
X3460135Y-3521410D01*
X3460135Y-3731722D01*
G37*
G36*
X2999887Y-3731722D02*
G01*
X2999887Y-3521410D01*
X3140095Y-3521410D01*
X3140095Y-3731722D01*
G37*
G36*
X3319927Y-2671780D02*
G01*
X3319927Y-2461468D01*
X3460135Y-2461468D01*
X3460135Y-2671780D01*
G37*
G36*
X2999887Y-2671780D02*
G01*
X2999887Y-2461468D01*
X3140095Y-2461468D01*
X3140095Y-2671780D01*
G37*
G36*
X2261763Y-362920D02*
G01*
X2261763Y-182580D01*
X2352187Y-182580D01*
X2352187Y-362920D01*
G37*
G36*
X2371745Y-362920D02*
G01*
X2371745Y-182580D01*
X2462169Y-182580D01*
X2462169Y-362920D01*
G37*
G36*
X2481727Y-362920D02*
G01*
X2481727Y-182580D01*
X2572151Y-182580D01*
X2572151Y-362920D01*
G37*
G36*
X2591709Y-362920D02*
G01*
X2591709Y-182580D01*
X2682133Y-182580D01*
X2682133Y-362920D01*
G37*
G36*
X2701691Y-362920D02*
G01*
X2701691Y-182580D01*
X2792115Y-182580D01*
X2792115Y-362920D01*
G37*
G36*
X2811673Y-362920D02*
G01*
X2811673Y-182580D01*
X2902097Y-182580D01*
X2902097Y-362920D01*
G37*
G36*
X2921655Y-362920D02*
G01*
X2921655Y-182580D01*
X3012079Y-182580D01*
X3012079Y-362920D01*
G37*
G36*
X3031637Y-362920D02*
G01*
X3031637Y-182580D01*
X3122061Y-182580D01*
X3122061Y-362920D01*
G37*
G36*
X3141619Y-362920D02*
G01*
X3141619Y-182580D01*
X3232043Y-182580D01*
X3232043Y-362920D01*
G37*
G36*
X3241695Y-267416D02*
G01*
X3241695Y-107142D01*
X3422035Y-107142D01*
X3422035Y-267416D01*
G37*
G36*
X3231789Y652571D02*
G01*
X3231789Y892855D01*
X3392063Y892855D01*
X3392063Y652571D01*
G37*
G36*
X1736745Y-267416D02*
G01*
X1736745Y-107142D01*
X1937151Y-107142D01*
X1937151Y-267416D01*
G37*
G36*
X1671721Y652571D02*
G01*
X1671721Y892855D01*
X1831995Y892855D01*
X1831995Y652571D01*
G37*
G36*
X1869841Y-2325070D02*
G01*
X1869841Y-2214834D01*
X2040275Y-2214834D01*
X2040275Y-2325070D01*
G37*
G36*
X1869841Y-2175210D02*
G01*
X1869841Y-2064720D01*
X2040275Y-2064720D01*
X2040275Y-2175210D01*
G37*
G36*
X1869841Y-2025096D02*
G01*
X1869841Y-1914860D01*
X2040275Y-1914860D01*
X2040275Y-2025096D01*
G37*
G36*
X1869841Y-1875236D02*
G01*
X1869841Y-1764746D01*
X2040275Y-1764746D01*
X2040275Y-1875236D01*
G37*
G36*
X1869841Y-1725122D02*
G01*
X1869841Y-1614886D01*
X2040275Y-1614886D01*
X2040275Y-1725122D01*
G37*
G36*
X1869841Y-1575262D02*
G01*
X1869841Y-1464772D01*
X2040275Y-1464772D01*
X2040275Y-1575262D01*
G37*
G36*
X1869841Y-1425148D02*
G01*
X1869841Y-1314912D01*
X2040275Y-1314912D01*
X2040275Y-1425148D01*
G37*
G36*
X1869841Y-1275288D02*
G01*
X1869841Y-1164798D01*
X2040275Y-1164798D01*
X2040275Y-1275288D01*
G37*
G36*
X1869841Y-1125174D02*
G01*
X1869841Y-1014938D01*
X2040275Y-1014938D01*
X2040275Y-1125174D01*
G37*
G36*
X1869841Y-975060D02*
G01*
X1869841Y-864824D01*
X2040275Y-864824D01*
X2040275Y-975060D01*
G37*
G36*
X1869841Y-2475184D02*
G01*
X1869841Y-2364948D01*
X2040275Y-2364948D01*
X2040275Y-2475184D01*
G37*
G36*
X1869841Y-2625044D02*
G01*
X1869841Y-2514808D01*
X2040275Y-2514808D01*
X2040275Y-2625044D01*
G37*
G36*
X1869841Y-2775158D02*
G01*
X1869841Y-2664922D01*
X2040275Y-2664922D01*
X2040275Y-2775158D01*
G37*
G36*
X1869841Y-2925272D02*
G01*
X1869841Y-2814782D01*
X2040275Y-2814782D01*
X2040275Y-2925272D01*
G37*
G36*
X1869841Y-3075132D02*
G01*
X1869841Y-2964896D01*
X2040275Y-2964896D01*
X2040275Y-3075132D01*
G37*
G36*
X1869841Y-3225246D02*
G01*
X1869841Y-3114756D01*
X2040275Y-3114756D01*
X2040275Y-3225246D01*
G37*
G36*
X1699915Y-930102D02*
G01*
X1699915Y-759922D01*
X1810151Y-759922D01*
X1810151Y-930102D01*
G37*
G36*
X1549801Y-930102D02*
G01*
X1549801Y-759922D01*
X1660037Y-759922D01*
X1660037Y-930102D01*
G37*
G36*
X1399941Y-930102D02*
G01*
X1399941Y-759922D01*
X1510177Y-759922D01*
X1510177Y-930102D01*
G37*
G36*
X1249827Y-930102D02*
G01*
X1249827Y-759922D01*
X1360063Y-759922D01*
X1360063Y-930102D01*
G37*
G36*
X1099967Y-930102D02*
G01*
X1099967Y-759922D01*
X1210203Y-759922D01*
X1210203Y-930102D01*
G37*
G36*
X949853Y-930102D02*
G01*
X949853Y-759922D01*
X1060089Y-759922D01*
X1060089Y-930102D01*
G37*
G36*
X799739Y-930102D02*
G01*
X799739Y-759922D01*
X910229Y-759922D01*
X910229Y-930102D01*
G37*
G36*
X649879Y-930102D02*
G01*
X649879Y-759922D01*
X760115Y-759922D01*
X760115Y-930102D01*
G37*
G36*
X499765Y-930102D02*
G01*
X499765Y-759922D01*
X610255Y-759922D01*
X610255Y-930102D01*
G37*
G36*
X349905Y-930102D02*
G01*
X349905Y-759922D01*
X460141Y-759922D01*
X460141Y-930102D01*
G37*
G36*
X119781Y-975060D02*
G01*
X119781Y-864824D01*
X290215Y-864824D01*
X290215Y-975060D01*
G37*
G36*
X119781Y-1125174D02*
G01*
X119781Y-1014938D01*
X290215Y-1014938D01*
X290215Y-1125174D01*
G37*
G36*
X119781Y-1275288D02*
G01*
X119781Y-1164798D01*
X290215Y-1164798D01*
X290215Y-1275288D01*
G37*
G36*
X119781Y-1425148D02*
G01*
X119781Y-1314912D01*
X290215Y-1314912D01*
X290215Y-1425148D01*
G37*
G36*
X119781Y-1575262D02*
G01*
X119781Y-1464772D01*
X290215Y-1464772D01*
X290215Y-1575262D01*
G37*
G36*
X119781Y-1725122D02*
G01*
X119781Y-1614886D01*
X290215Y-1614886D01*
X290215Y-1725122D01*
G37*
G36*
X119781Y-1875236D02*
G01*
X119781Y-1764746D01*
X290215Y-1764746D01*
X290215Y-1875236D01*
G37*
G36*
X119781Y-2025096D02*
G01*
X119781Y-1914860D01*
X290215Y-1914860D01*
X290215Y-2025096D01*
G37*
G36*
X119781Y-2175210D02*
G01*
X119781Y-2064720D01*
X290215Y-2064720D01*
X290215Y-2175210D01*
G37*
G36*
X119781Y-2325070D02*
G01*
X119781Y-2214834D01*
X290215Y-2214834D01*
X290215Y-2325070D01*
G37*
G36*
X119781Y-2475184D02*
G01*
X119781Y-2364948D01*
X290215Y-2364948D01*
X290215Y-2475184D01*
G37*
G36*
X119781Y-2625044D02*
G01*
X119781Y-2514808D01*
X290215Y-2514808D01*
X290215Y-2625044D01*
G37*
G36*
X119781Y-2775158D02*
G01*
X119781Y-2664922D01*
X290215Y-2664922D01*
X290215Y-2775158D01*
G37*
G36*
X119781Y-2925272D02*
G01*
X119781Y-2814782D01*
X290215Y-2814782D01*
X290215Y-2925272D01*
G37*
G36*
X119781Y-3075132D02*
G01*
X119781Y-2964896D01*
X290215Y-2964896D01*
X290215Y-3075132D01*
G37*
G36*
X119781Y-3225246D02*
G01*
X119781Y-3114756D01*
X290215Y-3114756D01*
X290215Y-3225246D01*
G37*
G36*
X1286403Y-2577546D02*
G01*
X1286403Y-2452324D01*
X1411625Y-2452324D01*
X1411625Y-2577546D01*
G37*
G36*
X1136289Y-2577546D02*
G01*
X1136289Y-2452324D01*
X1261765Y-2452324D01*
X1261765Y-2577546D01*
G37*
G36*
X986429Y-2577546D02*
G01*
X986429Y-2452324D01*
X1111651Y-2452324D01*
X1111651Y-2577546D01*
G37*
G36*
X986429Y-2427686D02*
G01*
X986429Y-2302464D01*
X1111651Y-2302464D01*
X1111651Y-2427686D01*
G37*
G36*
X1136289Y-2427686D02*
G01*
X1136289Y-2302464D01*
X1261765Y-2302464D01*
X1261765Y-2427686D01*
G37*
G36*
X1286403Y-2427686D02*
G01*
X1286403Y-2302464D01*
X1411625Y-2302464D01*
X1411625Y-2427686D01*
G37*
G36*
X986429Y-2277572D02*
G01*
X986429Y-2152350D01*
X1111651Y-2152350D01*
X1111651Y-2277572D01*
G37*
G36*
X1136289Y-2277572D02*
G01*
X1136289Y-2152350D01*
X1261765Y-2152350D01*
X1261765Y-2277572D01*
G37*
G36*
X1286403Y-2277572D02*
G01*
X1286403Y-2152350D01*
X1411625Y-2152350D01*
X1411625Y-2277572D01*
G37*
D56*
G01*
X1274008Y-2515036D03*
G01*
X1123995Y-2515036D03*
G01*
X1048989Y-2440030D03*
G01*
X1048989Y-2290018D03*
G01*
X1123995Y-2215037D03*
G01*
X1274008Y-2215037D03*
G01*
X1274008Y-2365024D03*
G01*
X1123995Y-2365024D03*
G01*
X1199001Y-2445034D03*
G01*
X1199001Y-2289027D03*
G01*
X1349014Y-2442011D03*
G01*
X1348988Y-2289027D03*
G36*
X-900282Y-245064D02*
G01*
X-900282Y-34752D01*
X-759820Y-34752D01*
X-759820Y-245064D01*
G37*
G36*
X-1220068Y-245064D02*
G01*
X-1220068Y-34752D01*
X-1079860Y-34752D01*
X-1079860Y-245064D01*
G37*
G36*
X2999887Y-685246D02*
G01*
X2999887Y-474934D01*
X3140095Y-474934D01*
X3140095Y-685246D01*
G37*
G36*
X3319927Y-685246D02*
G01*
X3319927Y-474934D01*
X3460135Y-474934D01*
X3460135Y-685246D01*
G37*
G36*
X-880216Y-2335230D02*
G01*
X-880216Y-2124918D01*
X-739754Y-2124918D01*
X-739754Y-2335230D01*
G37*
G36*
X-1200256Y-2335230D02*
G01*
X-1200256Y-2124918D01*
X-1059794Y-2124918D01*
X-1059794Y-2335230D01*
G37*
M02*
