M48
METRIC,LZ,000.000
;FILE_FORMAT=3:3
;TYPE=PLATED
;Layer: Drill PTH
;EasyEDA v6.4.25, 2021-10-04T21:21:11--4:00
;2cf70da8eae2490c89e5189a04a06a47,96b9eb17c6bf4bf1aa34359f555252a9,10
;Gerber Generator version 0.2
;Holesize 1 = 0.305 mm
T01C0.305
;Holesize 2 = 0.320 mm
T02C0.320
;Holesize 3 = 0.501 mm
T03C0.501
;Holesize 4 = 0.800 mm
T04C0.800
;Holesize 5 = 0.889 mm
T05C0.889
;Holesize 6 = 1.000 mm
T06C1.000
%
G05
G90
T01
X011200Y-002900
X017900Y-018600
X-006300Y-038700
X024700Y-023300
X027700Y-012900
X001000Y-033200
X-002700Y-031200
X016638Y-001411
X027400Y-006013
X002500Y007700
X011800Y-031200
X010000Y-031200
X-009930Y-039509
X-009949Y-037470
X-010900Y-034400
X034965Y006583
X001000Y-035200
X014025Y-033978
X010575Y-033978
X007125Y-033978
X029714Y-000215
X031538Y006287
X030738Y006287
X029938Y006287
X019600Y-034500
X030500Y-013200
X029700Y-013200
X032600Y-040200
X032600Y-039400
X032600Y-036600
X032600Y-035800
X032600Y-033100
X032600Y-032300
X032600Y-028700
X032600Y-029500
X032600Y-026000
X032600Y-025200
X032600Y-022500
X032600Y-021700
X032600Y-019000
X032600Y-018200
X021300Y-013000
X017800Y-013500
X018000Y-011600
X019200Y-033700
X020000Y-032900
X020900Y-026500
X010900Y-031200
X019200Y-032900
X020000Y-033700
X-011000Y-019600
X020700Y001600
X-011700Y-034400
X028915Y-000915
X-010100Y-021800
X027800Y-031100
X018700Y-037300
X002900Y-037400
X008850Y-033978
X012300Y-033978
X016537Y-011213
X010701Y-015312
X015859Y-015277
X009451Y-016075
X010689Y-016193
X012138Y-015687
X028915Y-000215
X017100Y-023200
X025900Y-004400
X016189Y008200
X019700Y001600
X021200Y-008600
X-000300Y-010500
X034965Y004583
X034965Y002583
X032000Y-005900
X032000Y-006700
X032000Y-005100
X000484Y008124
X016189Y007300
X017900Y005749
X012000Y-002900
X005543Y-015223
X029100Y-036100
X002472Y-007234
X-006700Y-035400
X027800Y-038400
X021400Y-038500
X024600Y-018100
X023100Y-007700
X000300Y-038600
X034965Y005583
X034965Y003583
X028900Y-014800
X028900Y-015700
X016638Y-002211
X017800Y-003300
X016200Y-023200
X017100Y-024100
X016200Y-024100
X-011800Y-020300
X-011700Y-028300
X-006300Y007800
X-006300Y006900
X009500Y-002900
X010300Y-002900
X-004600Y-004600
X001100Y-038600
X020600Y-038500
X-001000Y-039800
X-001900Y-039800
X-001900Y-040600
X-001100Y-040600
X022900Y-039800
X023800Y-039800
X023800Y-040700
X022900Y-040700
X-011800Y-019600
X001573Y-007245
X005860Y-019665
X011432Y-018637
X015585Y-019730
X010000Y-018600
X017900Y004849
X035400Y-020200
X035300Y-023600
X035300Y-027200
X035400Y-034500
X035400Y-030600
X033500Y-041600
X034400Y-041600
X-010100Y-022800
X035500Y-038300
X-011000Y-020300
X028215Y-000215
X-003800Y-004600
X-001438Y004586
X-008669Y-003338
X-007907Y-003328
X-011600Y-031000
X-010600Y-005000
X-009000Y-009600
X-006300Y005900
X007630Y-024146
X006730Y-024146
X006730Y-023246
X007630Y-023246
X017500Y-015200
X017500Y-016100
X-003776Y001208
X002849Y-004267
X003662Y-004254
X025349Y-005685
X024449Y-005685
X020200Y-000500
X010680Y-010706
X-005143Y-023377
X-005470Y-028002
X006211Y003804
X007010Y003804
X006200Y002911
X007000Y002911
X-005921Y-006403
X018700Y-003300
X007800Y-010200
X008700Y-010900
X002000Y000300
X002813Y000312
X-007150Y-016303
X025300Y009400
X026100Y009400
X026900Y009400
X025300Y008600
X026100Y008600
X026900Y008600
X004300Y-010600
X005200Y-010589
X-010500Y-012200
X032000Y-000200
X032800Y-000200
T02
X012740Y-025150
X011240Y-025150
X010490Y-024400
X010490Y-022900
X011240Y-022150
X012740Y-022150
X012740Y-023650
X011240Y-023650
X011990Y-024450
X011990Y-022890
X013490Y-024420
X013490Y-022890
T03
X025400Y003400
X026400Y000014
T04
X002420Y007376G85X002420Y008476
X002420Y002626G85X002420Y003726
X-005020Y002626G85X-005020Y003726
X-002920Y002274
X-001320Y002274
X-002120Y003478
X-000520Y003478
X000280Y002274
X-005020Y007376G85X-005020Y008476
T05
X-001581Y-037335
X-004121Y-037335
X-001581Y-034795
X-004121Y-034795
X-001581Y-032255
X-004121Y-032255
X-001581Y-029715
X-004121Y-029715
X-001581Y-027175
X-004121Y-027175
X-001581Y-024635
X-004121Y-024635
X-001581Y-022095
X-004121Y-022095
X-001581Y-019555
X-004121Y-019555
X-001581Y-017015
X-004121Y-017015
X-001581Y-014475
X-004121Y-014475
X-001581Y-011935
X-004121Y-011935
X-001581Y-009395
X-004121Y-009395
X023240Y-009414
X025780Y-009414
X023240Y-011954
X025780Y-011954
X023240Y-014494
X025780Y-014494
X023240Y-017034
X025780Y-017034
X023240Y-019574
X025780Y-019574
X023240Y-022114
X025780Y-022114
X023240Y-024654
X025780Y-024654
X023240Y-027194
X025780Y-027194
X023240Y-029734
X025780Y-029734
X023240Y-032274
X025780Y-032274
X023240Y-034814
X025780Y-034814
X023240Y-037354
X025780Y-037354
T06
X010800Y003900
X010800Y-001100
M30
