G04 Layer: TopPasteMaskLayer*
G04 EasyEDA v6.4.25, 2021-10-04T21:21:11--4:00*
G04 2cf70da8eae2490c89e5189a04a06a47,96b9eb17c6bf4bf1aa34359f555252a9,10*
G04 Gerber Generator version 0.2*
G04 Scale: 100 percent, Rotated: No, Reflected: No *
G04 Dimensions in millimeters *
G04 leading zeros omitted , absolute positions ,4 integer and 5 decimal *
%FSLAX45Y45*%
%MOMM*%

%ADD15R,0.7000X1.3000*%
%ADD17R,0.9500X1.1500*%
%ADD19R,1.0500X2.4650*%
%ADD21R,1.2000X1.9000*%
%ADD22R,0.7010X1.6002*%
%ADD23R,1.6002X1.3995*%
%ADD24R,1.3995X2.1996*%
%ADD25R,1.8009X1.3995*%
%ADD26R,1.5000X0.9000*%
%ADD27R,0.9000X1.5000*%
%ADD28R,1.0500X1.0500*%

%LPD*%
G36*
X-1158240Y-2524963D02*
G01*
X-1168247Y-2534970D01*
X-1168247Y-2685034D01*
X-1158240Y-2695041D01*
X-1057503Y-2695041D01*
X-1047496Y-2685034D01*
X-1047496Y-2648915D01*
X-1057503Y-2638907D01*
X-1078534Y-2638907D01*
X-1088542Y-2628900D01*
X-1088542Y-2591104D01*
X-1078534Y-2581097D01*
X-1057503Y-2581097D01*
X-1047496Y-2571089D01*
X-1047496Y-2534970D01*
X-1057503Y-2524963D01*
G37*
G36*
X-862482Y-2524963D02*
G01*
X-872490Y-2534970D01*
X-872490Y-2571089D01*
X-862482Y-2581097D01*
X-841451Y-2581097D01*
X-831443Y-2591104D01*
X-831443Y-2628900D01*
X-841451Y-2638907D01*
X-862482Y-2638907D01*
X-872490Y-2648915D01*
X-872490Y-2685034D01*
X-862482Y-2695041D01*
X-761746Y-2695041D01*
X-751738Y-2685034D01*
X-751738Y-2534970D01*
X-761746Y-2524963D01*
G37*
D15*
G01*
X-1165001Y-3559992D03*
G01*
X-1165001Y-2960019D03*
G01*
X-794999Y-3559992D03*
G01*
X-794999Y-2960019D03*
G36*
X-1205001Y780000D02*
G01*
X-1054999Y780000D01*
X-1054999Y600001D01*
X-1205001Y600001D01*
G37*
G36*
X-905001Y780000D02*
G01*
X-754999Y780000D01*
X-754999Y600001D01*
X-905001Y600001D01*
G37*
D17*
G01*
X20772Y-170007D03*
G01*
X359252Y-170007D03*
D19*
G01*
X3020004Y-1525757D03*
G01*
X3250001Y-1525757D03*
G01*
X3479998Y-1525757D03*
G36*
X3427001Y-1077501D02*
G01*
X3073001Y-1077501D01*
X3073001Y-830999D01*
X3427001Y-830999D01*
G37*
G36*
X-269991Y-54998D02*
G01*
X-149992Y-54998D01*
X-149992Y-245000D01*
X-269991Y-245000D01*
G37*
G36*
X-590006Y-54998D02*
G01*
X-470006Y-54998D01*
X-470006Y-245000D01*
X-590006Y-245000D01*
G37*
D15*
G01*
X-1155019Y-1809983D03*
G01*
X-1155019Y-1210010D03*
G01*
X-784992Y-1809983D03*
G01*
X-784992Y-1210010D03*
D21*
G01*
X3390005Y-3273328D03*
G01*
X3069991Y-3273328D03*
G01*
X3390005Y-2213335D03*
G01*
X3069991Y-2213335D03*
G01*
X3390005Y-2919989D03*
G01*
X3069991Y-2919989D03*
G01*
X3390005Y-3980007D03*
G01*
X3069991Y-3980007D03*
G36*
X3009999Y-1765000D02*
G01*
X3129998Y-1765000D01*
X3129998Y-1955002D01*
X3009999Y-1955002D01*
G37*
G36*
X3330013Y-1765000D02*
G01*
X3450013Y-1765000D01*
X3450013Y-1955002D01*
X3330013Y-1955002D01*
G37*
G01*
X-1140007Y269996D03*
G01*
X-819993Y269996D03*
G01*
X3390005Y-3626667D03*
G01*
X3069991Y-3626667D03*
G01*
X3390005Y-2566675D03*
G01*
X3069991Y-2566675D03*
D22*
G01*
X2306899Y-272648D03*
G01*
X2416906Y-272648D03*
G01*
X2526913Y-272648D03*
G01*
X2636895Y-272648D03*
G01*
X2746903Y-272648D03*
G01*
X2856910Y-272648D03*
G01*
X2966892Y-272648D03*
G01*
X3076900Y-272648D03*
G01*
X3186907Y-272648D03*
D23*
G01*
X3331890Y-187355D03*
D24*
G01*
X3311900Y772637D03*
D25*
G01*
X1836846Y-187304D03*
D24*
G01*
X1751909Y772637D03*
D26*
G01*
X1955007Y-2270003D03*
G01*
X1955007Y-2119990D03*
G01*
X1955007Y-1970003D03*
G01*
X1955007Y-1819991D03*
G01*
X1955007Y-1670004D03*
G01*
X1955007Y-1519991D03*
G01*
X1955007Y-1370004D03*
G01*
X1955007Y-1219992D03*
G01*
X1955007Y-1070005D03*
G01*
X1955007Y-919993D03*
G01*
X1955007Y-2419990D03*
G01*
X1955007Y-2570002D03*
G01*
X1955007Y-2719989D03*
G01*
X1955007Y-2870001D03*
G01*
X1955007Y-3020014D03*
G01*
X1955007Y-3170001D03*
D27*
G01*
X1755007Y-845012D03*
G01*
X1604995Y-845012D03*
G01*
X1455008Y-845012D03*
G01*
X1304996Y-845012D03*
G01*
X1155009Y-845012D03*
G01*
X1004996Y-845012D03*
G01*
X855009Y-845012D03*
G01*
X704997Y-845012D03*
G01*
X555010Y-845012D03*
G01*
X404997Y-845012D03*
G36*
X129999Y-874999D02*
G01*
X280001Y-874999D01*
X280001Y-965001D01*
X129999Y-965001D01*
G37*
G36*
X129999Y-1024999D02*
G01*
X280001Y-1024999D01*
X280001Y-1115001D01*
X129999Y-1115001D01*
G37*
G36*
X129999Y-1174998D02*
G01*
X280001Y-1174998D01*
X280001Y-1265001D01*
X129999Y-1265001D01*
G37*
G36*
X129999Y-1324998D02*
G01*
X280001Y-1324998D01*
X280001Y-1415000D01*
X129999Y-1415000D01*
G37*
G36*
X129999Y-1474998D02*
G01*
X280001Y-1474998D01*
X280001Y-1565000D01*
X129999Y-1565000D01*
G37*
G36*
X129999Y-1624998D02*
G01*
X280001Y-1624998D01*
X280001Y-1715000D01*
X129999Y-1715000D01*
G37*
G36*
X129999Y-1775000D02*
G01*
X280001Y-1775000D01*
X280001Y-1865002D01*
X129999Y-1865002D01*
G37*
G36*
X129999Y-1924999D02*
G01*
X280001Y-1924999D01*
X280001Y-2015002D01*
X129999Y-2015002D01*
G37*
G36*
X129999Y-2074999D02*
G01*
X280001Y-2074999D01*
X280001Y-2165002D01*
X129999Y-2165002D01*
G37*
G36*
X129999Y-2224999D02*
G01*
X280001Y-2224999D01*
X280001Y-2315001D01*
X129999Y-2315001D01*
G37*
G36*
X129999Y-2374999D02*
G01*
X280001Y-2374999D01*
X280001Y-2465001D01*
X129999Y-2465001D01*
G37*
G36*
X129999Y-2524998D02*
G01*
X280001Y-2524998D01*
X280001Y-2615001D01*
X129999Y-2615001D01*
G37*
G36*
X129999Y-2674998D02*
G01*
X280001Y-2674998D01*
X280001Y-2765000D01*
X129999Y-2765000D01*
G37*
G36*
X129999Y-2824998D02*
G01*
X280001Y-2824998D01*
X280001Y-2915000D01*
X129999Y-2915000D01*
G37*
G36*
X129999Y-2975000D02*
G01*
X280001Y-2975000D01*
X280001Y-3065002D01*
X129999Y-3065002D01*
G37*
G36*
X129999Y-3125000D02*
G01*
X280001Y-3125000D01*
X280001Y-3215002D01*
X129999Y-3215002D01*
G37*
D28*
G01*
X1349014Y-2515011D03*
G01*
X1199001Y-2515011D03*
G01*
X1048989Y-2515011D03*
G01*
X1048989Y-2364999D03*
G01*
X1199001Y-2364999D03*
G01*
X1349014Y-2364999D03*
G01*
X1048989Y-2215012D03*
G01*
X1199001Y-2215012D03*
G01*
X1349014Y-2215012D03*
D21*
G01*
X-830000Y-140009D03*
G01*
X-1150015Y-140009D03*
G36*
X3010001Y-485000D02*
G01*
X3130001Y-485000D01*
X3130001Y-675002D01*
X3010001Y-675002D01*
G37*
G36*
X3330016Y-485000D02*
G01*
X3450015Y-485000D01*
X3450015Y-675002D01*
X3330016Y-675002D01*
G37*
G01*
X-810011Y-2229998D03*
G01*
X-1130025Y-2229998D03*
M02*
