G04 Layer: TopSilkLayer*
G04 EasyEDA v6.4.25, 2021-10-04T21:21:11--4:00*
G04 2cf70da8eae2490c89e5189a04a06a47,96b9eb17c6bf4bf1aa34359f555252a9,10*
G04 Gerber Generator version 0.2*
G04 Scale: 100 percent, Rotated: No, Reflected: No *
G04 Dimensions in millimeters *
G04 leading zeros omitted , absolute positions ,4 integer and 5 decimal *
%FSLAX45Y45*%
%MOMM*%

%ADD10C,0.2540*%
%ADD34C,0.1000*%
%ADD35C,0.1524*%
%ADD36C,0.2032*%
%ADD37C,0.2000*%

%LPD*%
G36*
X2779014Y-3446729D02*
G01*
X2772918Y-3447389D01*
X2767482Y-3449269D01*
X2762707Y-3452012D01*
X2758440Y-3455365D01*
X2763012Y-3460953D01*
X2766263Y-3458006D01*
X2769971Y-3455619D01*
X2774086Y-3454044D01*
X2778506Y-3453333D01*
X2783992Y-3454349D01*
X2788158Y-3456889D01*
X2790799Y-3460750D01*
X2791714Y-3465779D01*
X2790596Y-3471621D01*
X2786989Y-3476294D01*
X2780436Y-3479393D01*
X2770632Y-3480511D01*
X2770632Y-3486861D01*
X2781604Y-3487978D01*
X2788920Y-3491179D01*
X2792984Y-3496106D01*
X2794254Y-3502355D01*
X2793085Y-3508400D01*
X2789834Y-3512921D01*
X2784906Y-3515817D01*
X2778760Y-3516833D01*
X2772664Y-3516122D01*
X2767634Y-3514242D01*
X2763469Y-3511499D01*
X2759964Y-3508197D01*
X2755646Y-3513531D01*
X2759710Y-3517392D01*
X2764891Y-3520643D01*
X2771343Y-3522878D01*
X2779268Y-3523691D01*
X2783992Y-3523335D01*
X2788361Y-3522268D01*
X2792374Y-3520490D01*
X2795828Y-3518103D01*
X2798673Y-3515106D01*
X2800807Y-3511499D01*
X2802178Y-3507333D01*
X2802636Y-3502609D01*
X2801366Y-3495649D01*
X2797962Y-3490061D01*
X2792882Y-3485946D01*
X2786634Y-3483559D01*
X2786634Y-3483305D01*
X2792171Y-3480511D01*
X2796387Y-3476548D01*
X2799130Y-3471418D01*
X2800096Y-3465017D01*
X2798521Y-3457244D01*
X2794101Y-3451504D01*
X2787446Y-3447948D01*
G37*
G36*
X2779217Y-3182975D02*
G01*
X2773070Y-3183636D01*
X2767685Y-3185464D01*
X2762859Y-3188208D01*
X2758643Y-3191611D01*
X2763215Y-3197199D01*
X2766466Y-3194202D01*
X2770174Y-3191865D01*
X2774289Y-3190240D01*
X2778709Y-3189579D01*
X2784195Y-3190595D01*
X2788361Y-3193135D01*
X2790952Y-3196996D01*
X2791917Y-3202025D01*
X2790799Y-3207867D01*
X2787142Y-3212541D01*
X2780639Y-3215640D01*
X2770835Y-3216757D01*
X2770835Y-3223107D01*
X2781808Y-3224225D01*
X2789123Y-3227425D01*
X2793187Y-3232302D01*
X2794457Y-3238601D01*
X2793288Y-3244596D01*
X2790037Y-3249168D01*
X2785110Y-3252063D01*
X2778963Y-3253079D01*
X2772867Y-3252368D01*
X2767838Y-3250438D01*
X2763672Y-3247694D01*
X2760167Y-3244443D01*
X2755849Y-3249777D01*
X2759913Y-3253587D01*
X2765044Y-3256838D01*
X2771495Y-3259074D01*
X2779471Y-3259937D01*
X2784195Y-3259582D01*
X2788564Y-3258464D01*
X2792526Y-3256737D01*
X2795981Y-3254349D01*
X2798826Y-3251301D01*
X2801010Y-3247694D01*
X2802331Y-3243529D01*
X2802839Y-3238855D01*
X2801569Y-3231845D01*
X2798165Y-3226257D01*
X2793085Y-3222193D01*
X2786837Y-3219805D01*
X2786837Y-3219551D01*
X2792323Y-3216706D01*
X2796590Y-3212795D01*
X2799334Y-3207664D01*
X2800299Y-3201263D01*
X2798673Y-3193440D01*
X2794304Y-3187700D01*
X2787650Y-3184194D01*
G37*
G36*
X2808681Y-3184245D02*
G01*
X2832557Y-3258667D01*
X2842209Y-3258667D01*
X2866085Y-3184245D01*
X2857449Y-3184245D01*
X2837891Y-3250031D01*
X2837383Y-3250031D01*
X2817571Y-3184245D01*
G37*
G36*
X2768346Y-2929991D02*
G01*
X2766060Y-2964535D01*
X2770632Y-2967329D01*
X2773730Y-2965500D01*
X2776575Y-2964129D01*
X2779623Y-2963316D01*
X2783078Y-2963011D01*
X2789682Y-2964230D01*
X2794711Y-2967685D01*
X2797962Y-2973222D01*
X2799080Y-2980537D01*
X2797810Y-2988106D01*
X2794304Y-2993898D01*
X2789123Y-2997555D01*
X2782824Y-2998825D01*
X2776778Y-2998114D01*
X2771749Y-2996285D01*
X2767685Y-2993593D01*
X2764282Y-2990443D01*
X2759964Y-2995777D01*
X2764180Y-2999486D01*
X2769311Y-3002635D01*
X2775712Y-3004870D01*
X2783586Y-3005683D01*
X2788158Y-3005277D01*
X2792476Y-3004007D01*
X2796540Y-3001924D01*
X2800096Y-2999079D01*
X2803144Y-2995472D01*
X2805480Y-2991104D01*
X2806954Y-2986074D01*
X2807462Y-2980283D01*
X2807055Y-2974543D01*
X2805734Y-2969615D01*
X2803702Y-2965551D01*
X2800959Y-2962300D01*
X2797657Y-2959811D01*
X2793898Y-2958033D01*
X2789682Y-2957017D01*
X2785110Y-2956661D01*
X2781858Y-2956864D01*
X2778963Y-2957423D01*
X2776220Y-2958388D01*
X2773680Y-2959709D01*
X2775712Y-2937103D01*
X2803906Y-2937103D01*
X2803906Y-2929991D01*
G37*
G36*
X2764993Y-2682595D02*
G01*
X2764993Y-2689707D01*
X2801315Y-2689707D01*
X2797860Y-2694736D01*
X2794812Y-2699715D01*
X2792069Y-2704744D01*
X2789682Y-2709773D01*
X2787599Y-2714955D01*
X2785821Y-2720187D01*
X2784297Y-2725623D01*
X2783027Y-2731312D01*
X2781198Y-2743454D01*
X2780233Y-2757017D01*
X2788869Y-2757017D01*
X2789732Y-2743403D01*
X2791256Y-2731160D01*
X2792374Y-2725470D01*
X2793796Y-2719933D01*
X2795574Y-2714548D01*
X2797708Y-2709265D01*
X2800299Y-2703982D01*
X2803296Y-2698648D01*
X2806852Y-2693212D01*
X2810967Y-2687675D01*
X2810967Y-2682595D01*
G37*
G36*
X2796794Y-2425344D02*
G01*
X2792018Y-2425649D01*
X2787548Y-2426512D01*
X2783332Y-2427986D01*
X2779420Y-2430018D01*
X2775864Y-2432608D01*
X2772714Y-2435656D01*
X2769971Y-2439263D01*
X2767634Y-2443327D01*
X2765755Y-2447848D01*
X2764383Y-2452776D01*
X2763570Y-2458161D01*
X2763266Y-2463952D01*
X2763926Y-2472436D01*
X2765704Y-2480005D01*
X2768650Y-2486558D01*
X2772562Y-2492044D01*
X2777388Y-2496464D01*
X2782976Y-2499664D01*
X2789326Y-2501595D01*
X2796286Y-2502306D01*
X2803398Y-2501646D01*
X2809646Y-2499918D01*
X2814929Y-2497226D01*
X2819146Y-2493924D01*
X2819146Y-2462936D01*
X2795016Y-2462936D01*
X2795016Y-2470048D01*
X2811272Y-2470048D01*
X2811272Y-2490368D01*
X2808579Y-2492248D01*
X2805125Y-2493670D01*
X2801213Y-2494584D01*
X2797048Y-2494940D01*
X2791409Y-2494381D01*
X2786380Y-2492705D01*
X2782062Y-2490063D01*
X2778506Y-2486456D01*
X2775661Y-2481935D01*
X2773578Y-2476601D01*
X2772359Y-2470505D01*
X2771902Y-2463698D01*
X2772359Y-2456891D01*
X2773680Y-2450795D01*
X2775813Y-2445512D01*
X2778658Y-2441041D01*
X2782316Y-2437485D01*
X2786583Y-2434844D01*
X2791510Y-2433218D01*
X2797048Y-2432710D01*
X2802432Y-2433269D01*
X2806852Y-2434793D01*
X2810510Y-2437079D01*
X2813558Y-2439822D01*
X2818130Y-2434488D01*
X2814472Y-2431135D01*
X2809748Y-2428189D01*
X2803906Y-2426106D01*
G37*
G36*
X2791053Y-2166721D02*
G01*
X2783078Y-2168093D01*
X2776728Y-2171903D01*
X2772511Y-2177846D01*
X2770987Y-2185517D01*
X2778607Y-2185517D01*
X2779522Y-2180488D01*
X2782011Y-2176526D01*
X2785872Y-2173986D01*
X2790799Y-2173071D01*
X2796387Y-2174138D01*
X2800553Y-2177084D01*
X2803093Y-2181453D01*
X2804007Y-2186787D01*
X2803499Y-2190902D01*
X2801924Y-2194864D01*
X2799384Y-2198624D01*
X2795879Y-2202027D01*
X2789428Y-2199335D01*
X2783890Y-2195982D01*
X2780030Y-2191512D01*
X2778607Y-2185517D01*
X2770987Y-2185517D01*
X2771800Y-2191004D01*
X2773934Y-2195626D01*
X2777083Y-2199487D01*
X2780893Y-2202535D01*
X2780893Y-2203043D01*
X2775966Y-2206345D01*
X2771546Y-2210968D01*
X2768396Y-2216708D01*
X2767267Y-2223109D01*
X2774797Y-2223109D01*
X2775559Y-2217826D01*
X2777744Y-2213102D01*
X2781096Y-2208987D01*
X2785465Y-2205583D01*
X2793136Y-2208834D01*
X2799638Y-2212543D01*
X2804109Y-2217420D01*
X2805785Y-2224125D01*
X2804668Y-2229408D01*
X2801620Y-2233574D01*
X2796895Y-2236317D01*
X2790799Y-2237333D01*
X2784449Y-2236266D01*
X2779369Y-2233269D01*
X2776016Y-2228748D01*
X2774797Y-2223109D01*
X2767267Y-2223109D01*
X2767177Y-2223617D01*
X2767634Y-2227732D01*
X2768904Y-2231542D01*
X2771038Y-2234895D01*
X2773832Y-2237790D01*
X2777286Y-2240178D01*
X2781300Y-2241956D01*
X2785821Y-2243023D01*
X2790799Y-2243429D01*
X2800146Y-2241956D01*
X2807360Y-2237892D01*
X2811983Y-2231847D01*
X2813659Y-2224379D01*
X2812592Y-2217572D01*
X2809798Y-2212238D01*
X2805836Y-2208072D01*
X2801213Y-2204821D01*
X2801213Y-2204313D01*
X2804566Y-2201214D01*
X2807766Y-2196998D01*
X2810154Y-2191969D01*
X2811119Y-2186279D01*
X2809748Y-2178405D01*
X2805734Y-2172208D01*
X2799435Y-2168194D01*
G37*
G36*
X2831033Y-1912721D02*
G01*
X2825953Y-1913331D01*
X2821432Y-1915058D01*
X2817520Y-1918004D01*
X2814269Y-1922170D01*
X2811627Y-1927504D01*
X2809748Y-1934057D01*
X2808579Y-1941830D01*
X2808173Y-1950821D01*
X2816047Y-1950821D01*
X2816301Y-1943252D01*
X2817114Y-1936800D01*
X2818434Y-1931365D01*
X2820212Y-1926996D01*
X2822397Y-1923592D01*
X2824937Y-1921205D01*
X2827832Y-1919782D01*
X2831033Y-1919325D01*
X2834132Y-1919782D01*
X2836926Y-1921205D01*
X2839415Y-1923592D01*
X2841498Y-1926996D01*
X2843174Y-1931365D01*
X2844444Y-1936800D01*
X2845206Y-1943252D01*
X2845511Y-1950821D01*
X2845206Y-1958644D01*
X2844444Y-1965299D01*
X2843174Y-1970836D01*
X2841498Y-1975357D01*
X2839415Y-1978761D01*
X2836926Y-1981200D01*
X2834132Y-1982622D01*
X2831033Y-1983079D01*
X2827832Y-1982622D01*
X2824937Y-1981200D01*
X2822397Y-1978761D01*
X2820212Y-1975357D01*
X2818434Y-1970836D01*
X2817114Y-1965299D01*
X2816301Y-1958644D01*
X2816047Y-1950821D01*
X2808173Y-1950821D01*
X2808579Y-1960016D01*
X2809748Y-1967941D01*
X2811627Y-1974596D01*
X2814269Y-1980082D01*
X2817520Y-1984298D01*
X2821432Y-1987296D01*
X2825953Y-1989074D01*
X2831033Y-1989683D01*
X2835910Y-1989074D01*
X2840329Y-1987296D01*
X2844190Y-1984298D01*
X2847441Y-1980082D01*
X2850083Y-1974596D01*
X2852013Y-1967941D01*
X2853232Y-1960016D01*
X2853639Y-1950821D01*
X2853232Y-1941830D01*
X2852013Y-1934057D01*
X2850083Y-1927504D01*
X2847441Y-1922170D01*
X2844190Y-1918004D01*
X2840329Y-1915058D01*
X2835910Y-1913331D01*
G37*
G36*
X2774899Y-1913991D02*
G01*
X2771851Y-1915617D01*
X2768346Y-1916988D01*
X2764383Y-1918157D01*
X2759913Y-1919071D01*
X2759913Y-1924405D01*
X2772867Y-1924405D01*
X2772867Y-1981555D01*
X2756357Y-1981555D01*
X2756357Y-1988413D01*
X2796235Y-1988413D01*
X2796235Y-1981555D01*
X2781249Y-1981555D01*
X2781249Y-1913991D01*
G37*
G36*
X2786837Y-1410614D02*
G01*
X2782062Y-1410919D01*
X2777540Y-1411782D01*
X2773324Y-1413256D01*
X2769412Y-1415288D01*
X2765907Y-1417878D01*
X2762707Y-1420926D01*
X2759964Y-1424533D01*
X2757627Y-1428597D01*
X2755798Y-1433118D01*
X2754426Y-1438046D01*
X2753563Y-1443431D01*
X2753309Y-1449222D01*
X2753918Y-1457706D01*
X2755747Y-1465275D01*
X2758643Y-1471828D01*
X2762554Y-1477314D01*
X2767380Y-1481734D01*
X2773019Y-1484934D01*
X2779369Y-1486916D01*
X2786329Y-1487576D01*
X2793390Y-1486916D01*
X2799638Y-1485188D01*
X2804972Y-1482547D01*
X2809189Y-1479194D01*
X2809189Y-1448206D01*
X2785059Y-1448206D01*
X2785059Y-1455318D01*
X2801315Y-1455318D01*
X2801315Y-1475638D01*
X2798572Y-1477518D01*
X2795117Y-1478940D01*
X2791206Y-1479854D01*
X2787091Y-1480210D01*
X2781401Y-1479651D01*
X2776372Y-1477975D01*
X2772105Y-1475333D01*
X2768498Y-1471726D01*
X2765653Y-1467205D01*
X2763621Y-1461871D01*
X2762351Y-1455775D01*
X2761945Y-1448968D01*
X2762351Y-1442161D01*
X2763672Y-1436065D01*
X2765806Y-1430782D01*
X2768701Y-1426311D01*
X2772308Y-1422755D01*
X2776626Y-1420114D01*
X2781554Y-1418539D01*
X2787091Y-1417980D01*
X2792425Y-1418539D01*
X2796844Y-1420114D01*
X2800502Y-1422349D01*
X2803601Y-1425092D01*
X2808173Y-1419758D01*
X2804464Y-1416405D01*
X2799791Y-1413459D01*
X2793949Y-1411376D01*
G37*
G36*
X2804210Y-907999D02*
G01*
X2801670Y-942543D01*
X2806242Y-945337D01*
X2809341Y-943457D01*
X2812338Y-942136D01*
X2815437Y-941273D01*
X2818942Y-941019D01*
X2825546Y-942238D01*
X2830576Y-945692D01*
X2833827Y-951179D01*
X2834944Y-958545D01*
X2833674Y-966114D01*
X2830118Y-971854D01*
X2824886Y-975563D01*
X2818434Y-976833D01*
X2812542Y-976121D01*
X2807563Y-974242D01*
X2803398Y-971600D01*
X2799892Y-968451D01*
X2795828Y-973785D01*
X2799943Y-977493D01*
X2805074Y-980643D01*
X2811424Y-982878D01*
X2819196Y-983691D01*
X2823819Y-983284D01*
X2828239Y-982014D01*
X2832303Y-979932D01*
X2835960Y-977087D01*
X2839008Y-973480D01*
X2841345Y-969111D01*
X2842818Y-964031D01*
X2843326Y-958291D01*
X2842869Y-952550D01*
X2841548Y-947623D01*
X2839466Y-943559D01*
X2836722Y-940308D01*
X2833420Y-937768D01*
X2829610Y-936040D01*
X2825445Y-935024D01*
X2820974Y-934669D01*
X2817723Y-934872D01*
X2814777Y-935431D01*
X2811983Y-936396D01*
X2809290Y-937717D01*
X2811322Y-915111D01*
X2839770Y-915111D01*
X2839770Y-907999D01*
G37*
G36*
X2764840Y-907999D02*
G01*
X2761792Y-909624D01*
X2758338Y-910996D01*
X2754376Y-912164D01*
X2749854Y-913079D01*
X2749854Y-918413D01*
X2762808Y-918413D01*
X2762808Y-975563D01*
X2746298Y-975563D01*
X2746298Y-982421D01*
X2786176Y-982421D01*
X2786176Y-975563D01*
X2771190Y-975563D01*
X2771190Y-907999D01*
G37*
G36*
X2152345Y-3182975D02*
G01*
X2121678Y-3229965D01*
X2129485Y-3229965D01*
X2147519Y-3203549D01*
X2153361Y-3192627D01*
X2153869Y-3192627D01*
X2153361Y-3202787D01*
X2153361Y-3229965D01*
X2121678Y-3229965D01*
X2120849Y-3231235D01*
X2120849Y-3236569D01*
X2153361Y-3236569D01*
X2153361Y-3257397D01*
X2161235Y-3257397D01*
X2161235Y-3236569D01*
X2171395Y-3236569D01*
X2171395Y-3229965D01*
X2161235Y-3229965D01*
X2161235Y-3182975D01*
G37*
G36*
X2145690Y-2929991D02*
G01*
X2140915Y-2930296D01*
X2136444Y-2931210D01*
X2132228Y-2932684D01*
X2128316Y-2934716D01*
X2124760Y-2937256D01*
X2121611Y-2940354D01*
X2118868Y-2943910D01*
X2116531Y-2947974D01*
X2114651Y-2952496D01*
X2113280Y-2957474D01*
X2112467Y-2962808D01*
X2112162Y-2968599D01*
X2112822Y-2977083D01*
X2114600Y-2984652D01*
X2117547Y-2991205D01*
X2121458Y-2996742D01*
X2126284Y-3001111D01*
X2131872Y-3004312D01*
X2138222Y-3006293D01*
X2145182Y-3006953D01*
X2152243Y-3006344D01*
X2158542Y-3004566D01*
X2163826Y-3001924D01*
X2168042Y-2998571D01*
X2168042Y-2967583D01*
X2143912Y-2967583D01*
X2143912Y-2974695D01*
X2160168Y-2974695D01*
X2160168Y-2995015D01*
X2157476Y-2996895D01*
X2154021Y-2998368D01*
X2150110Y-2999282D01*
X2145944Y-2999587D01*
X2140305Y-2999028D01*
X2135276Y-2997403D01*
X2130958Y-2994710D01*
X2127402Y-2991104D01*
X2124557Y-2986582D01*
X2122474Y-2981248D01*
X2121255Y-2975152D01*
X2120798Y-2968345D01*
X2121255Y-2961538D01*
X2122576Y-2955493D01*
X2124659Y-2950159D01*
X2127554Y-2945688D01*
X2131212Y-2942132D01*
X2135479Y-2939542D01*
X2140407Y-2937916D01*
X2145944Y-2937357D01*
X2151329Y-2937916D01*
X2155748Y-2939491D01*
X2159406Y-2941777D01*
X2162454Y-2944469D01*
X2167026Y-2939135D01*
X2163368Y-2935782D01*
X2158644Y-2932836D01*
X2152802Y-2930804D01*
G37*
G36*
X2142439Y-2682595D02*
G01*
X2136089Y-2683357D01*
X2130501Y-2685542D01*
X2125522Y-2688996D01*
X2120849Y-2693517D01*
X2125675Y-2698089D01*
X2129129Y-2694635D01*
X2132939Y-2691790D01*
X2137105Y-2689910D01*
X2141677Y-2689199D01*
X2147925Y-2690368D01*
X2152294Y-2693568D01*
X2154834Y-2698496D01*
X2155647Y-2704693D01*
X2155139Y-2709621D01*
X2153666Y-2714802D01*
X2151075Y-2720289D01*
X2147468Y-2726080D01*
X2142693Y-2732227D01*
X2136800Y-2738729D01*
X2129688Y-2745740D01*
X2121357Y-2753207D01*
X2121357Y-2758287D01*
X2167331Y-2758287D01*
X2167331Y-2751175D01*
X2143048Y-2751175D01*
X2133803Y-2751683D01*
X2140356Y-2745384D01*
X2146198Y-2739186D01*
X2151329Y-2733192D01*
X2155647Y-2727299D01*
X2159101Y-2721457D01*
X2161641Y-2715717D01*
X2163216Y-2710078D01*
X2163775Y-2704439D01*
X2163419Y-2699664D01*
X2162302Y-2695448D01*
X2160524Y-2691688D01*
X2158034Y-2688539D01*
X2154986Y-2685999D01*
X2151329Y-2684119D01*
X2147163Y-2682951D01*
G37*
G36*
X2141829Y-2421686D02*
G01*
X2136546Y-2422194D01*
X2131568Y-2423871D01*
X2126945Y-2426716D01*
X2122881Y-2430830D01*
X2119477Y-2436368D01*
X2116886Y-2443327D01*
X2115210Y-2451862D01*
X2114651Y-2462072D01*
X2114939Y-2467406D01*
X2122525Y-2467406D01*
X2126488Y-2462885D01*
X2130552Y-2459786D01*
X2134565Y-2458059D01*
X2138273Y-2457500D01*
X2144522Y-2458720D01*
X2148840Y-2462225D01*
X2151380Y-2467559D01*
X2152243Y-2474518D01*
X2151227Y-2481630D01*
X2148484Y-2487168D01*
X2144420Y-2490774D01*
X2139289Y-2492044D01*
X2132634Y-2490419D01*
X2127554Y-2485644D01*
X2124151Y-2477922D01*
X2122525Y-2467406D01*
X2114939Y-2467406D01*
X2115108Y-2470556D01*
X2116429Y-2477973D01*
X2118614Y-2484272D01*
X2121509Y-2489403D01*
X2125116Y-2493467D01*
X2129332Y-2496312D01*
X2134057Y-2498090D01*
X2139289Y-2498648D01*
X2143353Y-2498191D01*
X2147214Y-2496921D01*
X2150770Y-2494838D01*
X2153869Y-2491994D01*
X2156460Y-2488539D01*
X2158390Y-2484424D01*
X2159660Y-2479700D01*
X2160117Y-2474518D01*
X2159711Y-2469134D01*
X2158644Y-2464460D01*
X2156917Y-2460498D01*
X2154580Y-2457246D01*
X2151634Y-2454706D01*
X2148078Y-2452878D01*
X2144064Y-2451760D01*
X2139543Y-2451404D01*
X2135022Y-2452014D01*
X2130552Y-2453741D01*
X2126284Y-2456535D01*
X2122525Y-2460294D01*
X2122982Y-2452166D01*
X2124202Y-2445359D01*
X2126081Y-2439873D01*
X2128469Y-2435555D01*
X2131364Y-2432354D01*
X2134666Y-2430170D01*
X2138222Y-2428951D01*
X2142083Y-2428544D01*
X2145436Y-2428951D01*
X2148586Y-2430119D01*
X2151481Y-2431999D01*
X2154021Y-2434386D01*
X2158847Y-2429052D01*
X2155545Y-2426106D01*
X2151634Y-2423769D01*
X2147112Y-2422245D01*
G37*
G36*
X2092452Y-2166721D02*
G01*
X2086051Y-2167483D01*
X2080514Y-2169718D01*
X2075484Y-2173173D01*
X2070862Y-2177643D01*
X2075688Y-2182215D01*
X2079091Y-2178812D01*
X2082901Y-2175967D01*
X2087118Y-2174036D01*
X2091689Y-2173325D01*
X2097938Y-2174494D01*
X2102307Y-2177745D01*
X2104847Y-2182672D01*
X2105660Y-2188819D01*
X2105152Y-2193798D01*
X2103628Y-2198979D01*
X2101088Y-2204415D01*
X2097481Y-2210206D01*
X2092706Y-2216353D01*
X2086813Y-2222906D01*
X2079701Y-2229866D01*
X2071370Y-2237333D01*
X2071370Y-2242413D01*
X2117344Y-2242413D01*
X2117344Y-2235301D01*
X2093061Y-2235352D01*
X2083816Y-2235809D01*
X2090318Y-2229510D01*
X2096211Y-2223363D01*
X2101342Y-2217318D01*
X2105660Y-2211425D01*
X2109114Y-2205634D01*
X2111654Y-2199894D01*
X2113229Y-2194204D01*
X2113788Y-2188565D01*
X2113381Y-2183841D01*
X2112314Y-2179574D01*
X2110486Y-2175865D01*
X2108047Y-2172716D01*
X2104999Y-2170125D01*
X2101342Y-2168296D01*
X2097125Y-2167128D01*
G37*
G36*
X2150110Y-2167991D02*
G01*
X2147062Y-2169617D01*
X2143556Y-2170988D01*
X2139594Y-2172157D01*
X2135124Y-2173071D01*
X2135124Y-2178405D01*
X2148332Y-2178405D01*
X2148332Y-2235555D01*
X2131568Y-2235555D01*
X2131568Y-2242413D01*
X2171700Y-2242413D01*
X2171700Y-2235555D01*
X2156460Y-2235555D01*
X2156460Y-2167991D01*
G37*
G36*
X2137613Y-1912721D02*
G01*
X2133498Y-1913178D01*
X2129637Y-1914448D01*
X2126081Y-1916531D01*
X2122982Y-1919325D01*
X2120392Y-1922780D01*
X2118461Y-1926894D01*
X2117191Y-1931517D01*
X2116785Y-1936597D01*
X2124659Y-1936597D01*
X2125624Y-1929638D01*
X2128367Y-1924151D01*
X2132482Y-1920595D01*
X2137613Y-1919325D01*
X2144369Y-1920951D01*
X2149500Y-1925624D01*
X2152853Y-1933244D01*
X2154377Y-1943709D01*
X2150567Y-1948281D01*
X2146554Y-1951482D01*
X2142439Y-1953310D01*
X2138375Y-1953869D01*
X2132330Y-1952650D01*
X2128062Y-1949145D01*
X2125472Y-1943709D01*
X2124659Y-1936597D01*
X2116785Y-1936597D01*
X2117140Y-1942033D01*
X2118207Y-1946808D01*
X2119934Y-1950821D01*
X2122271Y-1954072D01*
X2125167Y-1956663D01*
X2128672Y-1958492D01*
X2132634Y-1959610D01*
X2137105Y-1959965D01*
X2141931Y-1959305D01*
X2146503Y-1957476D01*
X2150770Y-1954530D01*
X2154631Y-1950567D01*
X2153970Y-1958898D01*
X2152650Y-1965807D01*
X2150770Y-1971395D01*
X2148433Y-1975764D01*
X2145639Y-1978964D01*
X2142490Y-1981200D01*
X2139137Y-1982419D01*
X2135581Y-1982825D01*
X2131872Y-1982470D01*
X2128469Y-1981352D01*
X2125421Y-1979523D01*
X2122881Y-1976983D01*
X2118309Y-1982317D01*
X2121611Y-1985314D01*
X2125573Y-1987600D01*
X2130196Y-1989124D01*
X2135581Y-1989683D01*
X2140712Y-1989124D01*
X2145639Y-1987448D01*
X2150211Y-1984451D01*
X2154275Y-1980184D01*
X2157628Y-1974443D01*
X2160219Y-1967179D01*
X2161895Y-1958339D01*
X2162505Y-1947773D01*
X2161997Y-1939543D01*
X2160625Y-1932432D01*
X2158441Y-1926437D01*
X2155444Y-1921510D01*
X2151837Y-1917649D01*
X2147570Y-1914906D01*
X2142794Y-1913280D01*
G37*
G36*
X2141778Y-1663344D02*
G01*
X2135428Y-1664106D01*
X2129840Y-1666341D01*
X2124862Y-1669745D01*
X2120188Y-1674266D01*
X2125014Y-1678838D01*
X2128469Y-1675384D01*
X2132279Y-1672589D01*
X2136444Y-1670659D01*
X2141016Y-1669948D01*
X2147265Y-1671116D01*
X2151634Y-1674368D01*
X2154174Y-1679244D01*
X2154986Y-1685442D01*
X2154478Y-1690420D01*
X2153005Y-1695602D01*
X2150465Y-1701038D01*
X2146808Y-1706829D01*
X2142032Y-1712975D01*
X2136140Y-1719529D01*
X2129028Y-1726488D01*
X2120696Y-1733956D01*
X2120696Y-1739036D01*
X2166670Y-1739036D01*
X2166670Y-1731924D01*
X2142490Y-1731975D01*
X2133142Y-1732432D01*
X2139696Y-1726133D01*
X2145538Y-1719986D01*
X2150668Y-1713941D01*
X2154986Y-1708048D01*
X2158441Y-1702206D01*
X2161032Y-1696516D01*
X2162606Y-1690827D01*
X2163114Y-1685188D01*
X2162759Y-1680464D01*
X2161641Y-1676196D01*
X2159863Y-1672488D01*
X2157425Y-1669288D01*
X2154326Y-1666748D01*
X2150719Y-1664919D01*
X2146503Y-1663750D01*
G37*
G36*
X2057196Y-1664614D02*
G01*
X2057196Y-1671472D01*
X2074722Y-1671472D01*
X2081072Y-1671980D01*
X2086559Y-1673504D01*
X2091182Y-1675993D01*
X2094941Y-1679397D01*
X2097887Y-1683715D01*
X2099970Y-1688846D01*
X2101240Y-1694738D01*
X2101646Y-1701444D01*
X2101240Y-1708251D01*
X2099970Y-1714296D01*
X2097887Y-1719529D01*
X2094941Y-1723948D01*
X2091182Y-1727454D01*
X2086559Y-1730044D01*
X2081072Y-1731619D01*
X2074722Y-1732178D01*
X2065578Y-1732178D01*
X2065578Y-1671472D01*
X2057196Y-1671472D01*
X2057196Y-1739036D01*
X2075738Y-1739036D01*
X2081174Y-1738731D01*
X2086152Y-1737868D01*
X2090674Y-1736445D01*
X2094738Y-1734464D01*
X2098344Y-1731975D01*
X2101494Y-1728978D01*
X2104186Y-1725523D01*
X2106371Y-1721561D01*
X2108098Y-1717192D01*
X2109317Y-1712315D01*
X2110028Y-1707083D01*
X2110282Y-1701444D01*
X2110028Y-1695805D01*
X2109317Y-1690573D01*
X2108047Y-1685848D01*
X2106371Y-1681480D01*
X2104136Y-1677670D01*
X2101443Y-1674266D01*
X2098294Y-1671370D01*
X2094687Y-1668983D01*
X2090572Y-1667052D01*
X2086000Y-1665732D01*
X2080971Y-1664868D01*
X2075484Y-1664614D01*
G37*
G36*
X2140915Y-1410614D02*
G01*
X2137867Y-1412240D01*
X2134362Y-1413611D01*
X2130399Y-1414780D01*
X2125929Y-1415694D01*
X2125929Y-1421028D01*
X2139137Y-1421028D01*
X2139137Y-1478178D01*
X2122373Y-1478178D01*
X2122373Y-1485036D01*
X2162505Y-1485036D01*
X2162505Y-1478178D01*
X2147265Y-1478178D01*
X2147265Y-1410614D01*
G37*
G36*
X2085289Y-1410614D02*
G01*
X2082241Y-1412240D01*
X2078736Y-1413611D01*
X2074773Y-1414780D01*
X2070303Y-1415694D01*
X2070303Y-1421028D01*
X2083257Y-1421028D01*
X2083257Y-1478178D01*
X2066747Y-1478178D01*
X2066747Y-1485036D01*
X2106625Y-1485036D01*
X2106625Y-1478178D01*
X2091639Y-1478178D01*
X2091639Y-1410614D01*
G37*
G36*
X2140813Y-907999D02*
G01*
X2109899Y-954989D01*
X2117902Y-954989D01*
X2135936Y-928573D01*
X2141829Y-917651D01*
X2142286Y-917651D01*
X2141829Y-927811D01*
X2141829Y-954989D01*
X2109899Y-954989D01*
X2109063Y-956259D01*
X2109063Y-961593D01*
X2141829Y-961593D01*
X2141829Y-982421D01*
X2149449Y-982421D01*
X2149449Y-961593D01*
X2159609Y-961593D01*
X2159609Y-954989D01*
X2149449Y-954989D01*
X2149449Y-907999D01*
G37*
G36*
X2079091Y-907999D02*
G01*
X2075992Y-909624D01*
X2072538Y-910996D01*
X2068575Y-912164D01*
X2064054Y-913079D01*
X2064054Y-918413D01*
X2077059Y-918413D01*
X2077059Y-975563D01*
X2060549Y-975563D01*
X2060549Y-982421D01*
X2100427Y-982421D01*
X2100427Y-975563D01*
X2085441Y-975563D01*
X2085441Y-907999D01*
G37*
G36*
X-663854Y-3694785D02*
G01*
X-669950Y-3695496D01*
X-675335Y-3697325D01*
X-680161Y-3700068D01*
X-684428Y-3703421D01*
X-679856Y-3709009D01*
X-676554Y-3706063D01*
X-672846Y-3703675D01*
X-668782Y-3702100D01*
X-664362Y-3701389D01*
X-658825Y-3702405D01*
X-654710Y-3704945D01*
X-652068Y-3708857D01*
X-651154Y-3713835D01*
X-652272Y-3719677D01*
X-655878Y-3724351D01*
X-662381Y-3727450D01*
X-672236Y-3728567D01*
X-672236Y-3734917D01*
X-661263Y-3736086D01*
X-653948Y-3739235D01*
X-649833Y-3744163D01*
X-648614Y-3750411D01*
X-649782Y-3756456D01*
X-652983Y-3761028D01*
X-657910Y-3763924D01*
X-664108Y-3764889D01*
X-670153Y-3764229D01*
X-675182Y-3762298D01*
X-679399Y-3759555D01*
X-682904Y-3756253D01*
X-687222Y-3761587D01*
X-683107Y-3765448D01*
X-677976Y-3768699D01*
X-671525Y-3770934D01*
X-663600Y-3771747D01*
X-658876Y-3771392D01*
X-654456Y-3770325D01*
X-650494Y-3768598D01*
X-647039Y-3766210D01*
X-644194Y-3763162D01*
X-642061Y-3759555D01*
X-640689Y-3755390D01*
X-640232Y-3750665D01*
X-641451Y-3743706D01*
X-644855Y-3738118D01*
X-649986Y-3734054D01*
X-656234Y-3731615D01*
X-656234Y-3731361D01*
X-650697Y-3728567D01*
X-646430Y-3724605D01*
X-643737Y-3719474D01*
X-642772Y-3713073D01*
X-644347Y-3705301D01*
X-648716Y-3699560D01*
X-655421Y-3696004D01*
G37*
G36*
X-634390Y-3696055D02*
G01*
X-610514Y-3770477D01*
X-600862Y-3770477D01*
X-576986Y-3696055D01*
X-585622Y-3696055D01*
X-605180Y-3761892D01*
X-605688Y-3761892D01*
X-611073Y-3743553D01*
X-625500Y-3696055D01*
G37*
G36*
X-616813Y-3442106D02*
G01*
X-621588Y-3442411D01*
X-626059Y-3443325D01*
X-630275Y-3444798D01*
X-634187Y-3446830D01*
X-637743Y-3449370D01*
X-640892Y-3452469D01*
X-643686Y-3456025D01*
X-645972Y-3460089D01*
X-647852Y-3464610D01*
X-649224Y-3469589D01*
X-650036Y-3474974D01*
X-650341Y-3480714D01*
X-649681Y-3489248D01*
X-647903Y-3496767D01*
X-644956Y-3503371D01*
X-641045Y-3508857D01*
X-636219Y-3513226D01*
X-630631Y-3516426D01*
X-624281Y-3518408D01*
X-617321Y-3519068D01*
X-610260Y-3518458D01*
X-603961Y-3516680D01*
X-598678Y-3514039D01*
X-594461Y-3510686D01*
X-594461Y-3479698D01*
X-618591Y-3479698D01*
X-618591Y-3486810D01*
X-602335Y-3486810D01*
X-602335Y-3507130D01*
X-605028Y-3509060D01*
X-608482Y-3510483D01*
X-612394Y-3511397D01*
X-616559Y-3511702D01*
X-622249Y-3511143D01*
X-627227Y-3509518D01*
X-631545Y-3506876D01*
X-635101Y-3503218D01*
X-637946Y-3498748D01*
X-640029Y-3493414D01*
X-641248Y-3487267D01*
X-641705Y-3480460D01*
X-641248Y-3473653D01*
X-639927Y-3467608D01*
X-637844Y-3462274D01*
X-634949Y-3457854D01*
X-631291Y-3454247D01*
X-627024Y-3451656D01*
X-622096Y-3450031D01*
X-616559Y-3449472D01*
X-611174Y-3450082D01*
X-606755Y-3451606D01*
X-603097Y-3453892D01*
X-600049Y-3456584D01*
X-595477Y-3451250D01*
X-599135Y-3447897D01*
X-603859Y-3444951D01*
X-609701Y-3442919D01*
G37*
G36*
X-631444Y-3141421D02*
G01*
X-631444Y-3148533D01*
X-608838Y-3148533D01*
X-608838Y-3215843D01*
X-600456Y-3215843D01*
X-600456Y-3148533D01*
X-577596Y-3148533D01*
X-577596Y-3141421D01*
G37*
G36*
X-686562Y-3141421D02*
G01*
X-686562Y-3148279D01*
X-665226Y-3148279D01*
X-657301Y-3148990D01*
X-651510Y-3151327D01*
X-647903Y-3155543D01*
X-646684Y-3161995D01*
X-647903Y-3168548D01*
X-651510Y-3173171D01*
X-657301Y-3175812D01*
X-665226Y-3176727D01*
X-678180Y-3176727D01*
X-678180Y-3148279D01*
X-686562Y-3148279D01*
X-686562Y-3215843D01*
X-678180Y-3215843D01*
X-678180Y-3183839D01*
X-664210Y-3183839D01*
X-645668Y-3215843D01*
X-636270Y-3215843D01*
X-655320Y-3182823D01*
X-648258Y-3180232D01*
X-642772Y-3175914D01*
X-639318Y-3169818D01*
X-638048Y-3161995D01*
X-638556Y-3156712D01*
X-639978Y-3152343D01*
X-642264Y-3148787D01*
X-645312Y-3145993D01*
X-649071Y-3143910D01*
X-653491Y-3142488D01*
X-658469Y-3141675D01*
X-663956Y-3141421D01*
G37*
G36*
X66598Y-901953D02*
G01*
X60655Y-902614D01*
X55270Y-904494D01*
X50444Y-907237D01*
X46024Y-910590D01*
X50596Y-916178D01*
X54051Y-913231D01*
X57810Y-910844D01*
X61925Y-909269D01*
X66344Y-908558D01*
X71780Y-909574D01*
X75895Y-912114D01*
X78435Y-915974D01*
X79298Y-921003D01*
X78232Y-926846D01*
X74726Y-931519D01*
X68275Y-934618D01*
X58470Y-935736D01*
X58470Y-942086D01*
X69443Y-943203D01*
X76758Y-946403D01*
X80822Y-951331D01*
X82092Y-957580D01*
X80924Y-963625D01*
X77673Y-968146D01*
X72694Y-971042D01*
X66344Y-972058D01*
X60401Y-971346D01*
X55422Y-969467D01*
X51206Y-966724D01*
X47548Y-963421D01*
X43484Y-968756D01*
X47447Y-972616D01*
X52628Y-975868D01*
X59029Y-978103D01*
X66852Y-978916D01*
X71678Y-978560D01*
X76098Y-977493D01*
X80060Y-975715D01*
X83515Y-973328D01*
X86309Y-970330D01*
X88442Y-966724D01*
X89763Y-962558D01*
X90220Y-957834D01*
X89001Y-950874D01*
X85598Y-945286D01*
X80568Y-941171D01*
X74472Y-938784D01*
X74472Y-938530D01*
X79857Y-935736D01*
X84023Y-931773D01*
X86715Y-926642D01*
X87680Y-920242D01*
X86106Y-912469D01*
X81737Y-906729D01*
X75031Y-903173D01*
G37*
G36*
X10972Y-901953D02*
G01*
X4876Y-902614D01*
X-558Y-904494D01*
X-5334Y-907237D01*
X-9601Y-910590D01*
X-5029Y-916178D01*
X-1727Y-913231D01*
X1981Y-910844D01*
X6045Y-909269D01*
X10464Y-908558D01*
X15951Y-909574D01*
X20116Y-912114D01*
X22758Y-915974D01*
X23672Y-921003D01*
X22555Y-926846D01*
X18948Y-931519D01*
X12446Y-934618D01*
X2590Y-935736D01*
X2590Y-942086D01*
X13563Y-943203D01*
X20878Y-946403D01*
X24942Y-951331D01*
X26212Y-957580D01*
X25044Y-963625D01*
X21793Y-968146D01*
X16916Y-971042D01*
X10718Y-972058D01*
X4622Y-971346D01*
X-406Y-969467D01*
X-4572Y-966724D01*
X-8077Y-963421D01*
X-12395Y-968756D01*
X-8280Y-972616D01*
X-3149Y-975868D01*
X3302Y-978103D01*
X11226Y-978916D01*
X15951Y-978560D01*
X20370Y-977493D01*
X24333Y-975715D01*
X27787Y-973328D01*
X30632Y-970330D01*
X32766Y-966724D01*
X34137Y-962558D01*
X34594Y-957834D01*
X33375Y-950874D01*
X29921Y-945286D01*
X24841Y-941171D01*
X18592Y-938784D01*
X18592Y-938530D01*
X24130Y-935736D01*
X28397Y-931773D01*
X31089Y-926642D01*
X32054Y-920242D01*
X30480Y-912469D01*
X26111Y-906729D01*
X19405Y-903173D01*
G37*
G36*
X-642670Y-1076807D02*
G01*
X-618794Y-1151229D01*
X-609142Y-1151229D01*
X-585520Y-1076807D01*
X-593902Y-1076807D01*
X-613714Y-1142593D01*
X-613968Y-1142593D01*
X-617829Y-1130249D01*
X-621334Y-1117955D01*
X-633780Y-1076807D01*
G37*
G36*
X-631748Y-989482D02*
G01*
X-634034Y-1024026D01*
X-629462Y-1026820D01*
X-626414Y-1024940D01*
X-623519Y-1023619D01*
X-620522Y-1022756D01*
X-617016Y-1022502D01*
X-610463Y-1023721D01*
X-605434Y-1027176D01*
X-602183Y-1032662D01*
X-601014Y-1040028D01*
X-602335Y-1047597D01*
X-605840Y-1053338D01*
X-610971Y-1057046D01*
X-617270Y-1058316D01*
X-623366Y-1057605D01*
X-628345Y-1055725D01*
X-632460Y-1053033D01*
X-635812Y-1049934D01*
X-640130Y-1055268D01*
X-635965Y-1058976D01*
X-630834Y-1062126D01*
X-624433Y-1064310D01*
X-616508Y-1065174D01*
X-611987Y-1064717D01*
X-607669Y-1063498D01*
X-603605Y-1061415D01*
X-599998Y-1058570D01*
X-597001Y-1054963D01*
X-594664Y-1050594D01*
X-593191Y-1045514D01*
X-592632Y-1039774D01*
X-593090Y-1034034D01*
X-594410Y-1029106D01*
X-596442Y-1025042D01*
X-599135Y-1021740D01*
X-602437Y-1019251D01*
X-606247Y-1017524D01*
X-610463Y-1016508D01*
X-614984Y-1016152D01*
X-618236Y-1016355D01*
X-621182Y-1016914D01*
X-623874Y-1017879D01*
X-626414Y-1019200D01*
X-624382Y-996594D01*
X-596188Y-996594D01*
X-596188Y-989482D01*
G37*
G36*
X-592378Y-2924606D02*
G01*
X-623293Y-2971596D01*
X-615238Y-2971596D01*
X-597204Y-2945180D01*
X-591362Y-2934258D01*
X-590854Y-2934258D01*
X-591362Y-2944418D01*
X-591362Y-2971596D01*
X-623293Y-2971596D01*
X-624128Y-2972866D01*
X-624128Y-2978200D01*
X-591362Y-2978200D01*
X-591362Y-2999028D01*
X-583742Y-2999028D01*
X-583742Y-2978200D01*
X-573582Y-2978200D01*
X-573582Y-2971596D01*
X-583742Y-2971596D01*
X-583742Y-2924606D01*
G37*
G36*
X-648258Y-2924606D02*
G01*
X-678925Y-2971596D01*
X-671118Y-2971596D01*
X-653084Y-2945180D01*
X-647242Y-2934258D01*
X-646734Y-2934258D01*
X-647242Y-2944418D01*
X-647242Y-2971596D01*
X-678925Y-2971596D01*
X-679754Y-2972866D01*
X-679754Y-2978200D01*
X-647242Y-2978200D01*
X-647242Y-2999028D01*
X-639368Y-2999028D01*
X-639368Y-2978200D01*
X-629208Y-2978200D01*
X-629208Y-2971596D01*
X-639368Y-2971596D01*
X-639368Y-2924606D01*
G37*
G36*
X-604367Y-2679344D02*
G01*
X-610362Y-2680004D01*
X-615696Y-2681833D01*
X-620572Y-2684576D01*
X-624941Y-2687980D01*
X-620369Y-2693568D01*
X-616966Y-2690571D01*
X-613156Y-2688234D01*
X-609041Y-2686659D01*
X-604621Y-2685948D01*
X-599186Y-2686964D01*
X-595122Y-2689504D01*
X-592582Y-2693365D01*
X-591667Y-2698394D01*
X-592785Y-2704236D01*
X-596290Y-2708910D01*
X-602742Y-2712008D01*
X-612495Y-2713126D01*
X-612495Y-2719476D01*
X-601522Y-2720594D01*
X-594207Y-2723794D01*
X-590143Y-2728671D01*
X-588873Y-2734970D01*
X-590042Y-2740964D01*
X-593344Y-2745536D01*
X-598322Y-2748432D01*
X-604621Y-2749448D01*
X-610565Y-2748737D01*
X-615543Y-2746857D01*
X-619760Y-2744063D01*
X-623417Y-2740812D01*
X-627481Y-2746146D01*
X-623519Y-2749956D01*
X-618388Y-2753207D01*
X-611936Y-2755442D01*
X-604113Y-2756306D01*
X-599338Y-2755950D01*
X-594918Y-2754884D01*
X-590956Y-2753106D01*
X-587502Y-2750718D01*
X-584657Y-2747721D01*
X-582574Y-2744063D01*
X-581202Y-2739898D01*
X-580745Y-2735224D01*
X-582015Y-2728264D01*
X-585419Y-2722626D01*
X-590397Y-2718562D01*
X-596493Y-2716174D01*
X-596493Y-2715920D01*
X-591108Y-2713075D01*
X-586943Y-2709164D01*
X-584250Y-2704033D01*
X-583285Y-2697632D01*
X-584860Y-2689860D01*
X-589280Y-2684119D01*
X-595934Y-2680563D01*
G37*
G36*
X-652881Y-2680614D02*
G01*
X-683548Y-2727604D01*
X-675741Y-2727604D01*
X-657707Y-2701188D01*
X-651865Y-2690266D01*
X-651357Y-2690266D01*
X-651865Y-2703474D01*
X-651865Y-2727604D01*
X-683548Y-2727604D01*
X-684377Y-2728874D01*
X-684377Y-2734208D01*
X-651865Y-2734208D01*
X-651865Y-2755036D01*
X-643991Y-2755036D01*
X-643991Y-2734208D01*
X-633831Y-2734208D01*
X-633831Y-2727604D01*
X-643991Y-2727604D01*
X-643991Y-2680614D01*
G37*
G36*
X-602335Y-2415489D02*
G01*
X-605383Y-2417064D01*
X-608888Y-2418486D01*
X-612851Y-2419654D01*
X-617321Y-2420569D01*
X-617321Y-2425903D01*
X-604113Y-2425903D01*
X-604113Y-2483053D01*
X-620877Y-2483053D01*
X-620877Y-2489911D01*
X-580745Y-2489911D01*
X-580745Y-2483053D01*
X-595985Y-2483053D01*
X-595985Y-2415489D01*
G37*
G36*
X-652119Y-2415489D02*
G01*
X-682786Y-2462479D01*
X-674979Y-2462479D01*
X-656945Y-2436063D01*
X-651103Y-2425141D01*
X-650595Y-2425141D01*
X-651103Y-2438349D01*
X-651103Y-2462479D01*
X-682786Y-2462479D01*
X-683615Y-2463749D01*
X-683615Y-2469083D01*
X-651103Y-2469083D01*
X-651103Y-2489911D01*
X-643229Y-2489911D01*
X-643229Y-2469083D01*
X-633069Y-2469083D01*
X-633069Y-2462479D01*
X-643229Y-2462479D01*
X-643229Y-2415489D01*
G37*
G36*
X-957021Y-1850389D02*
G01*
X-957021Y-1924812D01*
X-948893Y-1924812D01*
X-948893Y-1884172D01*
X-949909Y-1861312D01*
X-949401Y-1861312D01*
X-941273Y-1876552D01*
X-913333Y-1924812D01*
X-904697Y-1924812D01*
X-904697Y-1850389D01*
X-912825Y-1850389D01*
X-912723Y-1896567D01*
X-911555Y-1913889D01*
X-912063Y-1913889D01*
X-920191Y-1898650D01*
X-948385Y-1850389D01*
G37*
G36*
X-1016203Y-1850389D02*
G01*
X-1016203Y-1924812D01*
X-972769Y-1924812D01*
X-972769Y-1917700D01*
X-1007821Y-1917700D01*
X-1007821Y-1889252D01*
X-979373Y-1889252D01*
X-979373Y-1882139D01*
X-1007821Y-1882139D01*
X-1007821Y-1857502D01*
X-973785Y-1857502D01*
X-973785Y-1850389D01*
G37*
G36*
X11277Y-1144422D02*
G01*
X5181Y-1145082D01*
X-254Y-1146911D01*
X-5029Y-1149654D01*
X-9296Y-1153058D01*
X-4724Y-1158646D01*
X-1422Y-1155649D01*
X2286Y-1153312D01*
X6350Y-1151686D01*
X10769Y-1151026D01*
X16256Y-1152042D01*
X20421Y-1154582D01*
X23063Y-1158443D01*
X23977Y-1163472D01*
X22860Y-1169314D01*
X19253Y-1173988D01*
X12750Y-1177086D01*
X2895Y-1178204D01*
X2895Y-1184554D01*
X13868Y-1185672D01*
X21183Y-1188872D01*
X25247Y-1193749D01*
X26517Y-1200048D01*
X25349Y-1206042D01*
X22098Y-1210614D01*
X17221Y-1213510D01*
X11023Y-1214526D01*
X4978Y-1213815D01*
X-101Y-1211884D01*
X-4267Y-1209141D01*
X-7772Y-1205890D01*
X-12090Y-1211224D01*
X-7975Y-1215034D01*
X-2844Y-1218285D01*
X3606Y-1220520D01*
X11531Y-1221384D01*
X16256Y-1221028D01*
X20675Y-1219911D01*
X24638Y-1218184D01*
X28092Y-1215796D01*
X30937Y-1212748D01*
X33070Y-1209141D01*
X34442Y-1204976D01*
X34899Y-1200302D01*
X33680Y-1193292D01*
X30226Y-1187704D01*
X25146Y-1183640D01*
X18897Y-1181252D01*
X18897Y-1180998D01*
X24434Y-1178153D01*
X28702Y-1174242D01*
X31394Y-1169111D01*
X32359Y-1162710D01*
X30784Y-1154887D01*
X26416Y-1149146D01*
X19710Y-1145641D01*
G37*
G36*
X74269Y-1145692D02*
G01*
X43355Y-1192682D01*
X51409Y-1192682D01*
X69443Y-1166266D01*
X75285Y-1155344D01*
X75793Y-1155344D01*
X75285Y-1168552D01*
X75285Y-1192682D01*
X43355Y-1192682D01*
X42519Y-1193952D01*
X42519Y-1199286D01*
X75285Y-1199286D01*
X75285Y-1220114D01*
X82905Y-1220114D01*
X82905Y-1199286D01*
X93065Y-1199286D01*
X93065Y-1192682D01*
X82905Y-1192682D01*
X82905Y-1145692D01*
G37*
G36*
X-8737Y-1415999D02*
G01*
X-8737Y-1460195D01*
X-8229Y-1468323D01*
X-6705Y-1475079D01*
X-4267Y-1480566D01*
X-1066Y-1484782D01*
X2794Y-1487982D01*
X7213Y-1490116D01*
X12141Y-1491335D01*
X17424Y-1491691D01*
X22809Y-1491335D01*
X27736Y-1490116D01*
X32258Y-1487982D01*
X36169Y-1484782D01*
X39370Y-1480566D01*
X41757Y-1475079D01*
X43281Y-1468323D01*
X43840Y-1460195D01*
X43840Y-1415999D01*
X35712Y-1415999D01*
X35712Y-1460449D01*
X35356Y-1466748D01*
X34290Y-1471879D01*
X32613Y-1476044D01*
X30378Y-1479245D01*
X27686Y-1481582D01*
X24587Y-1483156D01*
X21132Y-1484071D01*
X17424Y-1484325D01*
X10464Y-1483156D01*
X4826Y-1479245D01*
X1016Y-1471879D01*
X-355Y-1460449D01*
X-355Y-1415999D01*
G37*
G36*
X78587Y-1664817D02*
G01*
X73304Y-1665376D01*
X68326Y-1667002D01*
X63652Y-1669846D01*
X59537Y-1673961D01*
X56083Y-1679498D01*
X53441Y-1686458D01*
X51765Y-1695043D01*
X51155Y-1705203D01*
X51441Y-1710537D01*
X59283Y-1710537D01*
X63195Y-1706016D01*
X67259Y-1702917D01*
X71272Y-1701190D01*
X75031Y-1700631D01*
X81178Y-1701850D01*
X85547Y-1705356D01*
X88138Y-1710689D01*
X89001Y-1717649D01*
X87985Y-1724812D01*
X85140Y-1730349D01*
X80975Y-1733905D01*
X75793Y-1735175D01*
X69189Y-1733550D01*
X64211Y-1728774D01*
X60909Y-1721053D01*
X59283Y-1710537D01*
X51441Y-1710537D01*
X51612Y-1713738D01*
X52984Y-1721104D01*
X55219Y-1727403D01*
X58166Y-1732534D01*
X61772Y-1736598D01*
X65938Y-1739442D01*
X70662Y-1741220D01*
X75793Y-1741779D01*
X79959Y-1741322D01*
X83921Y-1740052D01*
X87477Y-1737969D01*
X90627Y-1735175D01*
X93218Y-1731670D01*
X95199Y-1727555D01*
X96418Y-1722831D01*
X96875Y-1717649D01*
X96520Y-1712315D01*
X95402Y-1707642D01*
X93675Y-1703628D01*
X91236Y-1700377D01*
X88290Y-1697837D01*
X84785Y-1696008D01*
X80772Y-1694891D01*
X76301Y-1694535D01*
X71729Y-1695145D01*
X67208Y-1696872D01*
X62890Y-1699666D01*
X59029Y-1703425D01*
X59588Y-1695297D01*
X60858Y-1688490D01*
X62788Y-1683004D01*
X65227Y-1678686D01*
X68122Y-1675485D01*
X71424Y-1673301D01*
X75031Y-1672082D01*
X78841Y-1671675D01*
X82092Y-1672082D01*
X85293Y-1673250D01*
X88239Y-1675130D01*
X90779Y-1677517D01*
X95351Y-1672183D01*
X92049Y-1669237D01*
X88188Y-1666900D01*
X83769Y-1665376D01*
G37*
G36*
X16103Y-1664817D02*
G01*
X10007Y-1665478D01*
X4572Y-1667357D01*
X-203Y-1670100D01*
X-4470Y-1673453D01*
X101Y-1679041D01*
X3403Y-1676095D01*
X7112Y-1673707D01*
X11176Y-1672132D01*
X15595Y-1671421D01*
X21082Y-1672437D01*
X25247Y-1674977D01*
X27889Y-1678838D01*
X28803Y-1683867D01*
X27686Y-1689709D01*
X24079Y-1694383D01*
X17576Y-1697482D01*
X7721Y-1698599D01*
X7721Y-1704949D01*
X18694Y-1706118D01*
X26009Y-1709267D01*
X30073Y-1714195D01*
X31343Y-1720443D01*
X30175Y-1726488D01*
X26924Y-1731010D01*
X22047Y-1733905D01*
X15849Y-1734921D01*
X9753Y-1734210D01*
X4724Y-1732330D01*
X558Y-1729587D01*
X-2946Y-1726285D01*
X-7264Y-1731619D01*
X-3200Y-1735480D01*
X1981Y-1738731D01*
X8432Y-1740966D01*
X16357Y-1741779D01*
X21082Y-1741424D01*
X25501Y-1740357D01*
X29464Y-1738579D01*
X32918Y-1736191D01*
X35763Y-1733194D01*
X37896Y-1729587D01*
X39268Y-1725422D01*
X39725Y-1720697D01*
X38455Y-1713738D01*
X35052Y-1708150D01*
X29971Y-1704086D01*
X23723Y-1701647D01*
X23723Y-1701393D01*
X29260Y-1698599D01*
X33528Y-1694637D01*
X36220Y-1689506D01*
X37185Y-1683105D01*
X35610Y-1675333D01*
X31242Y-1669592D01*
X24536Y-1666036D01*
G37*
G36*
X15341Y-1910638D02*
G01*
X9194Y-1911299D01*
X3810Y-1913128D01*
X-1016Y-1915871D01*
X-5232Y-1919274D01*
X-660Y-1924862D01*
X2590Y-1921916D01*
X6299Y-1919528D01*
X10414Y-1917954D01*
X14833Y-1917242D01*
X20320Y-1918258D01*
X24485Y-1920798D01*
X27127Y-1924659D01*
X28041Y-1929688D01*
X26924Y-1935530D01*
X23317Y-1940204D01*
X16764Y-1943303D01*
X6959Y-1944420D01*
X6959Y-1950770D01*
X17932Y-1951888D01*
X25247Y-1955088D01*
X29311Y-1960016D01*
X30581Y-1966264D01*
X29413Y-1972259D01*
X26162Y-1976831D01*
X21234Y-1979726D01*
X15087Y-1980742D01*
X8991Y-1980031D01*
X3962Y-1978152D01*
X-203Y-1975408D01*
X-3708Y-1972106D01*
X-8026Y-1977440D01*
X-3962Y-1981301D01*
X1219Y-1984502D01*
X7620Y-1986788D01*
X15595Y-1987600D01*
X20320Y-1987245D01*
X24688Y-1986178D01*
X28651Y-1984400D01*
X32105Y-1982012D01*
X34950Y-1979015D01*
X37134Y-1975408D01*
X38455Y-1971243D01*
X38963Y-1966518D01*
X37693Y-1959559D01*
X34290Y-1953971D01*
X29209Y-1949856D01*
X22961Y-1947468D01*
X22961Y-1947214D01*
X28498Y-1944420D01*
X32715Y-1940458D01*
X35458Y-1935327D01*
X36423Y-1928926D01*
X34848Y-1921154D01*
X30429Y-1915414D01*
X23774Y-1911857D01*
G37*
G36*
X72999Y-1910892D02*
G01*
X65024Y-1912264D01*
X58674Y-1916125D01*
X54457Y-1922018D01*
X52933Y-1929688D01*
X60553Y-1929688D01*
X61467Y-1924659D01*
X64109Y-1920697D01*
X68021Y-1918157D01*
X72999Y-1917242D01*
X78536Y-1918309D01*
X82600Y-1921256D01*
X85090Y-1925624D01*
X85953Y-1930958D01*
X85394Y-1935073D01*
X83870Y-1939036D01*
X81330Y-1942795D01*
X77825Y-1946198D01*
X71475Y-1943506D01*
X65938Y-1940153D01*
X62026Y-1935683D01*
X60553Y-1929688D01*
X52933Y-1929688D01*
X53746Y-1935175D01*
X55981Y-1939798D01*
X59232Y-1943658D01*
X63093Y-1946706D01*
X63093Y-1947214D01*
X58064Y-1950516D01*
X53644Y-1955139D01*
X50546Y-1960880D01*
X49463Y-1967280D01*
X56743Y-1967280D01*
X57556Y-1961997D01*
X59791Y-1957273D01*
X63246Y-1953158D01*
X67665Y-1949754D01*
X75336Y-1953006D01*
X81788Y-1956765D01*
X86309Y-1961642D01*
X87985Y-1968296D01*
X86868Y-1973580D01*
X83820Y-1977745D01*
X79095Y-1980539D01*
X72999Y-1981504D01*
X66497Y-1980438D01*
X61315Y-1977440D01*
X57962Y-1972919D01*
X56743Y-1967280D01*
X49463Y-1967280D01*
X49377Y-1967788D01*
X51104Y-1975713D01*
X55981Y-1981962D01*
X63398Y-1986127D01*
X72745Y-1987600D01*
X82143Y-1986127D01*
X89408Y-1982063D01*
X94183Y-1976018D01*
X95859Y-1968550D01*
X94792Y-1961743D01*
X91948Y-1956409D01*
X87934Y-1952243D01*
X83159Y-1948992D01*
X83159Y-1948484D01*
X86563Y-1945386D01*
X89865Y-1941169D01*
X92303Y-1936140D01*
X93319Y-1930450D01*
X91897Y-1922576D01*
X87884Y-1916379D01*
X81534Y-1912366D01*
G37*
G36*
X74015Y-2157018D02*
G01*
X68935Y-2157577D01*
X64465Y-2159355D01*
X60553Y-2162302D01*
X57251Y-2166416D01*
X54660Y-2171801D01*
X52730Y-2178354D01*
X51562Y-2186127D01*
X51155Y-2195118D01*
X59029Y-2195118D01*
X59283Y-2187549D01*
X60096Y-2181098D01*
X61417Y-2175662D01*
X63195Y-2171242D01*
X65379Y-2167890D01*
X67919Y-2165502D01*
X70815Y-2164080D01*
X74015Y-2163622D01*
X77114Y-2164080D01*
X79908Y-2165502D01*
X82397Y-2167890D01*
X84480Y-2171242D01*
X86207Y-2175662D01*
X87426Y-2181098D01*
X88239Y-2187549D01*
X88493Y-2195118D01*
X88239Y-2202891D01*
X87426Y-2209596D01*
X86207Y-2215134D01*
X84480Y-2219604D01*
X82397Y-2223058D01*
X79908Y-2225446D01*
X77114Y-2226919D01*
X74015Y-2227376D01*
X70815Y-2226919D01*
X67919Y-2225446D01*
X65379Y-2223058D01*
X63195Y-2219604D01*
X61417Y-2215134D01*
X60096Y-2209596D01*
X59283Y-2202891D01*
X59029Y-2195118D01*
X51155Y-2195118D01*
X51562Y-2204262D01*
X52730Y-2212238D01*
X54660Y-2218893D01*
X57251Y-2224328D01*
X60553Y-2228545D01*
X64465Y-2231593D01*
X68935Y-2233371D01*
X74015Y-2233980D01*
X78943Y-2233371D01*
X83312Y-2231593D01*
X87172Y-2228545D01*
X90474Y-2224328D01*
X93065Y-2218893D01*
X94996Y-2212238D01*
X96215Y-2204262D01*
X96621Y-2195118D01*
X96215Y-2186127D01*
X94996Y-2178354D01*
X93065Y-2171801D01*
X90474Y-2166416D01*
X87172Y-2162302D01*
X83312Y-2159355D01*
X78943Y-2157577D01*
G37*
G36*
X23723Y-2158288D02*
G01*
X-6943Y-2205278D01*
X863Y-2205278D01*
X18897Y-2178862D01*
X24739Y-2167940D01*
X25247Y-2167940D01*
X24739Y-2181148D01*
X24739Y-2205278D01*
X-6943Y-2205278D01*
X-7772Y-2206548D01*
X-7772Y-2211882D01*
X24739Y-2211882D01*
X24739Y-2232710D01*
X32613Y-2232710D01*
X32613Y-2211882D01*
X42773Y-2211882D01*
X42773Y-2205278D01*
X32613Y-2205278D01*
X32613Y-2158288D01*
G37*
G36*
X64008Y-2415286D02*
G01*
X57454Y-2416098D01*
X51866Y-2418283D01*
X46888Y-2421737D01*
X42418Y-2426208D01*
X47244Y-2430780D01*
X50647Y-2427376D01*
X54406Y-2424531D01*
X58521Y-2422601D01*
X62991Y-2421890D01*
X69240Y-2423058D01*
X73710Y-2426309D01*
X76352Y-2431237D01*
X77216Y-2437384D01*
X76708Y-2442362D01*
X75133Y-2447544D01*
X72593Y-2453030D01*
X68884Y-2458770D01*
X64109Y-2464917D01*
X58216Y-2471470D01*
X51155Y-2478430D01*
X42926Y-2485898D01*
X42926Y-2490978D01*
X88900Y-2490978D01*
X88900Y-2483866D01*
X64566Y-2483916D01*
X55372Y-2484374D01*
X61823Y-2478074D01*
X67665Y-2471928D01*
X72745Y-2465933D01*
X77114Y-2459990D01*
X80568Y-2454198D01*
X83159Y-2448458D01*
X84785Y-2442768D01*
X85344Y-2437130D01*
X84937Y-2432405D01*
X83820Y-2428138D01*
X82042Y-2424430D01*
X79603Y-2421280D01*
X76555Y-2418740D01*
X72898Y-2416860D01*
X68681Y-2415692D01*
G37*
G36*
X16002Y-2416556D02*
G01*
X-14665Y-2463546D01*
X-6858Y-2463546D01*
X11176Y-2437130D01*
X17018Y-2426208D01*
X17526Y-2426208D01*
X17018Y-2436418D01*
X17018Y-2463546D01*
X-14665Y-2463546D01*
X-15494Y-2464816D01*
X-15494Y-2470150D01*
X17018Y-2470150D01*
X17018Y-2490978D01*
X24892Y-2490978D01*
X24892Y-2470150D01*
X35052Y-2470150D01*
X35052Y-2463546D01*
X24892Y-2463546D01*
X24892Y-2416556D01*
G37*
G36*
X40284Y-2678531D02*
G01*
X35509Y-2678836D01*
X31038Y-2679700D01*
X26822Y-2681173D01*
X22910Y-2683205D01*
X19354Y-2685796D01*
X16205Y-2688844D01*
X13411Y-2692450D01*
X11125Y-2696514D01*
X9245Y-2701036D01*
X7873Y-2705963D01*
X7061Y-2711348D01*
X6756Y-2717139D01*
X7366Y-2725623D01*
X9194Y-2733192D01*
X12141Y-2739745D01*
X16052Y-2745232D01*
X20828Y-2749651D01*
X26466Y-2752852D01*
X32816Y-2754833D01*
X39776Y-2755493D01*
X46837Y-2754833D01*
X53136Y-2753106D01*
X58419Y-2750464D01*
X62636Y-2747111D01*
X62636Y-2716123D01*
X38506Y-2716123D01*
X38506Y-2723235D01*
X54762Y-2723235D01*
X54762Y-2743555D01*
X52069Y-2745435D01*
X48615Y-2746857D01*
X44704Y-2747772D01*
X40538Y-2748127D01*
X34848Y-2747568D01*
X29870Y-2745892D01*
X25552Y-2743250D01*
X21945Y-2739644D01*
X19151Y-2735122D01*
X17068Y-2729788D01*
X15798Y-2723692D01*
X15392Y-2716885D01*
X15849Y-2710078D01*
X17170Y-2703982D01*
X19253Y-2698699D01*
X22148Y-2694228D01*
X25755Y-2690672D01*
X30073Y-2688031D01*
X35001Y-2686456D01*
X40538Y-2685897D01*
X45923Y-2686456D01*
X50342Y-2688031D01*
X53949Y-2690266D01*
X57048Y-2693009D01*
X61620Y-2687675D01*
X57912Y-2684322D01*
X53238Y-2681376D01*
X47396Y-2679293D01*
G37*
G36*
X57607Y-2929483D02*
G01*
X55067Y-2964027D01*
X59639Y-2966821D01*
X62687Y-2964942D01*
X65684Y-2963621D01*
X68783Y-2962757D01*
X72339Y-2962503D01*
X78892Y-2963672D01*
X83921Y-2967177D01*
X87172Y-2972663D01*
X88341Y-2980029D01*
X87020Y-2987598D01*
X83515Y-2993339D01*
X78232Y-2996996D01*
X71831Y-2998317D01*
X65887Y-2997606D01*
X60909Y-2995726D01*
X56794Y-2993034D01*
X53289Y-2989935D01*
X49225Y-2995269D01*
X53289Y-2998927D01*
X58419Y-3002127D01*
X64769Y-3004312D01*
X72593Y-3005175D01*
X77165Y-3004718D01*
X81584Y-3003499D01*
X85699Y-3001416D01*
X89306Y-2998571D01*
X92354Y-2994964D01*
X94691Y-2990596D01*
X96164Y-2985516D01*
X96723Y-2979775D01*
X96215Y-2973984D01*
X94945Y-2969107D01*
X92862Y-2965043D01*
X90119Y-2961741D01*
X86766Y-2959252D01*
X83007Y-2957525D01*
X78790Y-2956458D01*
X74371Y-2956153D01*
X71069Y-2956306D01*
X68122Y-2956915D01*
X65328Y-2957830D01*
X62687Y-2959201D01*
X64719Y-2936595D01*
X93167Y-2936595D01*
X93167Y-2929483D01*
G37*
G36*
X24079Y-2929483D02*
G01*
X-6587Y-2976473D01*
X1219Y-2976473D01*
X19253Y-2950057D01*
X25095Y-2939135D01*
X25603Y-2939135D01*
X25095Y-2949295D01*
X25095Y-2976473D01*
X-6587Y-2976473D01*
X-7416Y-2977743D01*
X-7416Y-2983077D01*
X25095Y-2983077D01*
X25095Y-3003905D01*
X32969Y-3003905D01*
X32969Y-2983077D01*
X43129Y-2983077D01*
X43129Y-2976473D01*
X32969Y-2976473D01*
X32969Y-2929483D01*
G37*
G36*
X73507Y-3176625D02*
G01*
X68275Y-3177133D01*
X63246Y-3178810D01*
X58572Y-3181654D01*
X54457Y-3185769D01*
X51003Y-3191306D01*
X48361Y-3198266D01*
X46685Y-3206800D01*
X46075Y-3217011D01*
X46363Y-3222345D01*
X54203Y-3222345D01*
X58115Y-3217773D01*
X62179Y-3214725D01*
X66192Y-3212998D01*
X69951Y-3212439D01*
X76098Y-3213658D01*
X80467Y-3217113D01*
X83058Y-3222498D01*
X83921Y-3229457D01*
X82905Y-3236569D01*
X80060Y-3242106D01*
X75895Y-3245713D01*
X70713Y-3246983D01*
X64109Y-3245358D01*
X59131Y-3240582D01*
X55829Y-3232861D01*
X54203Y-3222345D01*
X46363Y-3222345D01*
X46532Y-3225495D01*
X47955Y-3232912D01*
X50139Y-3239211D01*
X53086Y-3244342D01*
X56692Y-3248355D01*
X60858Y-3251250D01*
X65582Y-3253028D01*
X70713Y-3253587D01*
X74930Y-3253130D01*
X78841Y-3251860D01*
X82397Y-3249777D01*
X85547Y-3246932D01*
X88138Y-3243478D01*
X90119Y-3239312D01*
X91338Y-3234639D01*
X91795Y-3229457D01*
X91440Y-3224072D01*
X90322Y-3219399D01*
X88595Y-3215436D01*
X86156Y-3212185D01*
X83210Y-3209645D01*
X79705Y-3207816D01*
X75692Y-3206699D01*
X71221Y-3206343D01*
X66649Y-3206953D01*
X62128Y-3208680D01*
X57810Y-3211474D01*
X53949Y-3215233D01*
X54508Y-3207105D01*
X55778Y-3200298D01*
X57708Y-3194812D01*
X60147Y-3190494D01*
X63042Y-3187293D01*
X66344Y-3185109D01*
X69951Y-3183890D01*
X73761Y-3183483D01*
X77012Y-3183890D01*
X80213Y-3185058D01*
X83159Y-3186887D01*
X85699Y-3189325D01*
X90271Y-3183991D01*
X86969Y-3180994D01*
X83108Y-3178708D01*
X78689Y-3177184D01*
G37*
G36*
X18135Y-3177895D02*
G01*
X-12531Y-3224885D01*
X-4724Y-3224885D01*
X13309Y-3198469D01*
X19151Y-3187547D01*
X19659Y-3187547D01*
X19151Y-3200755D01*
X19151Y-3224885D01*
X-12531Y-3224885D01*
X-13360Y-3226155D01*
X-13360Y-3231489D01*
X19151Y-3231489D01*
X19151Y-3252317D01*
X27025Y-3252317D01*
X27025Y-3231489D01*
X37185Y-3231489D01*
X37185Y-3224885D01*
X27025Y-3224885D01*
X27025Y-3177895D01*
G37*
G36*
X21945Y-3442106D02*
G01*
X16916Y-3442715D01*
X12446Y-3444494D01*
X8534Y-3447440D01*
X5283Y-3451555D01*
X2641Y-3456889D01*
X660Y-3463442D01*
X-508Y-3471214D01*
X-914Y-3480206D01*
X7213Y-3480206D01*
X7467Y-3472687D01*
X8229Y-3466185D01*
X9499Y-3460750D01*
X11226Y-3456381D01*
X13360Y-3452977D01*
X15900Y-3450590D01*
X18745Y-3449218D01*
X21945Y-3448710D01*
X25044Y-3449218D01*
X27889Y-3450590D01*
X30378Y-3452977D01*
X32512Y-3456381D01*
X34290Y-3460750D01*
X35560Y-3466185D01*
X36372Y-3472687D01*
X36677Y-3480206D01*
X36372Y-3488029D01*
X35560Y-3494684D01*
X34290Y-3500272D01*
X32512Y-3504742D01*
X30378Y-3508146D01*
X27889Y-3510584D01*
X25044Y-3512007D01*
X21945Y-3512464D01*
X18745Y-3512007D01*
X15900Y-3510584D01*
X13360Y-3508146D01*
X11226Y-3504742D01*
X9499Y-3500272D01*
X8229Y-3494684D01*
X7467Y-3488029D01*
X7213Y-3480206D01*
X-914Y-3480206D01*
X-508Y-3489401D01*
X660Y-3497326D01*
X2641Y-3504031D01*
X5283Y-3509467D01*
X8534Y-3513683D01*
X12446Y-3516680D01*
X16916Y-3518509D01*
X21945Y-3519068D01*
X26924Y-3518509D01*
X31343Y-3516680D01*
X35204Y-3513683D01*
X38455Y-3509467D01*
X41046Y-3504031D01*
X42976Y-3497326D01*
X44145Y-3489401D01*
X44551Y-3480206D01*
X44145Y-3471214D01*
X42976Y-3463442D01*
X41046Y-3456889D01*
X38455Y-3451555D01*
X35204Y-3447440D01*
X31343Y-3444494D01*
X26924Y-3442715D01*
G37*
G36*
X22301Y-3694785D02*
G01*
X16205Y-3695496D01*
X10769Y-3697325D01*
X5994Y-3700068D01*
X1727Y-3703421D01*
X6299Y-3709009D01*
X9550Y-3706063D01*
X13258Y-3703675D01*
X17373Y-3702100D01*
X21793Y-3701389D01*
X27279Y-3702405D01*
X31445Y-3704945D01*
X34086Y-3708857D01*
X35001Y-3713835D01*
X33883Y-3719677D01*
X30276Y-3724351D01*
X23723Y-3727450D01*
X13919Y-3728567D01*
X13919Y-3734917D01*
X24892Y-3736086D01*
X32207Y-3739235D01*
X36271Y-3744163D01*
X37541Y-3750411D01*
X36372Y-3756456D01*
X33121Y-3761028D01*
X28194Y-3763924D01*
X22047Y-3764889D01*
X15951Y-3764229D01*
X10922Y-3762298D01*
X6756Y-3759555D01*
X3251Y-3756253D01*
X-1066Y-3761587D01*
X2997Y-3765448D01*
X8178Y-3768699D01*
X14630Y-3770934D01*
X22555Y-3771747D01*
X27279Y-3771392D01*
X31648Y-3770325D01*
X35661Y-3768598D01*
X39116Y-3766210D01*
X41960Y-3763162D01*
X44094Y-3759555D01*
X45466Y-3755390D01*
X45923Y-3750665D01*
X44653Y-3743706D01*
X41249Y-3738118D01*
X36169Y-3734054D01*
X29921Y-3731615D01*
X29921Y-3731361D01*
X35458Y-3728567D01*
X39674Y-3724605D01*
X42418Y-3719474D01*
X43383Y-3713073D01*
X41808Y-3705301D01*
X37388Y-3699560D01*
X30733Y-3696004D01*
G37*
G36*
X51765Y-3696055D02*
G01*
X75641Y-3770477D01*
X85293Y-3770477D01*
X109169Y-3696055D01*
X100533Y-3696055D01*
X80975Y-3761892D01*
X80467Y-3761892D01*
X60655Y-3696055D01*
G37*
G36*
X-681634Y-1405026D02*
G01*
X-681634Y-1449222D01*
X-681126Y-1457350D01*
X-679602Y-1464106D01*
X-677214Y-1469542D01*
X-674014Y-1473809D01*
X-670153Y-1476959D01*
X-665683Y-1479092D01*
X-660755Y-1480312D01*
X-655472Y-1480718D01*
X-650138Y-1480312D01*
X-645160Y-1479092D01*
X-640638Y-1476959D01*
X-636778Y-1473809D01*
X-633526Y-1469542D01*
X-631139Y-1464106D01*
X-629615Y-1457350D01*
X-629056Y-1449222D01*
X-629056Y-1405026D01*
X-637184Y-1405026D01*
X-637184Y-1449476D01*
X-637590Y-1455724D01*
X-638606Y-1460906D01*
X-640334Y-1465072D01*
X-642518Y-1468272D01*
X-645261Y-1470609D01*
X-648360Y-1472184D01*
X-651764Y-1473047D01*
X-655472Y-1473352D01*
X-662432Y-1472184D01*
X-668070Y-1468272D01*
X-671880Y-1460906D01*
X-673252Y-1449476D01*
X-673252Y-1405026D01*
G37*
G36*
X-594512Y-1416710D02*
G01*
X-594512Y-1438808D01*
X-615086Y-1438808D01*
X-615086Y-1445158D01*
X-594512Y-1445158D01*
X-594512Y-1467510D01*
X-587654Y-1467510D01*
X-587654Y-1445158D01*
X-567080Y-1445158D01*
X-567080Y-1438808D01*
X-587654Y-1438808D01*
X-587654Y-1416710D01*
G37*
G36*
X-659434Y-1664817D02*
G01*
X-665581Y-1665478D01*
X-670966Y-1667357D01*
X-675792Y-1670100D01*
X-680008Y-1673453D01*
X-675436Y-1679041D01*
X-672185Y-1676095D01*
X-668477Y-1673707D01*
X-664362Y-1672132D01*
X-659942Y-1671421D01*
X-654456Y-1672437D01*
X-650290Y-1674977D01*
X-647700Y-1678889D01*
X-646734Y-1683867D01*
X-647852Y-1689709D01*
X-651510Y-1694383D01*
X-658012Y-1697482D01*
X-667816Y-1698599D01*
X-667816Y-1704949D01*
X-656844Y-1706118D01*
X-649528Y-1709267D01*
X-645464Y-1714195D01*
X-644194Y-1720443D01*
X-645363Y-1726488D01*
X-648614Y-1731010D01*
X-653542Y-1733905D01*
X-659688Y-1734921D01*
X-665784Y-1734210D01*
X-670814Y-1732330D01*
X-674979Y-1729587D01*
X-678484Y-1726285D01*
X-682802Y-1731619D01*
X-678738Y-1735480D01*
X-673608Y-1738731D01*
X-667156Y-1740966D01*
X-659180Y-1741779D01*
X-654456Y-1741424D01*
X-650087Y-1740357D01*
X-646125Y-1738579D01*
X-642670Y-1736191D01*
X-639826Y-1733194D01*
X-637641Y-1729587D01*
X-636320Y-1725422D01*
X-635812Y-1720697D01*
X-637082Y-1713738D01*
X-640486Y-1708150D01*
X-645566Y-1704086D01*
X-651814Y-1701647D01*
X-651814Y-1701393D01*
X-646277Y-1698599D01*
X-642061Y-1694637D01*
X-639318Y-1689506D01*
X-638352Y-1683105D01*
X-639927Y-1675333D01*
X-644347Y-1669592D01*
X-651002Y-1666036D01*
G37*
G36*
X-618794Y-1666087D02*
G01*
X-621334Y-1700631D01*
X-616762Y-1703425D01*
X-613714Y-1701596D01*
X-610717Y-1700225D01*
X-607618Y-1699412D01*
X-604062Y-1699107D01*
X-597509Y-1700326D01*
X-592480Y-1703781D01*
X-589229Y-1709318D01*
X-588060Y-1716633D01*
X-589381Y-1724202D01*
X-592886Y-1729993D01*
X-598170Y-1733651D01*
X-604570Y-1734921D01*
X-610514Y-1734210D01*
X-615492Y-1732381D01*
X-619607Y-1729689D01*
X-623112Y-1726539D01*
X-627176Y-1731873D01*
X-623112Y-1735582D01*
X-617982Y-1738731D01*
X-611632Y-1740966D01*
X-603808Y-1741779D01*
X-599236Y-1741373D01*
X-594817Y-1740103D01*
X-590702Y-1738020D01*
X-587095Y-1735175D01*
X-584047Y-1731568D01*
X-581710Y-1727200D01*
X-580237Y-1722170D01*
X-579678Y-1716379D01*
X-580136Y-1710639D01*
X-581456Y-1705711D01*
X-583539Y-1701647D01*
X-586282Y-1698396D01*
X-589635Y-1695907D01*
X-593394Y-1694129D01*
X-597611Y-1693113D01*
X-602030Y-1692757D01*
X-605282Y-1692960D01*
X-608279Y-1693519D01*
X-611073Y-1694484D01*
X-613714Y-1695805D01*
X-611682Y-1673199D01*
X-583234Y-1673199D01*
X-583234Y-1666087D01*
G37*
G36*
X-660095Y-1910638D02*
G01*
X-666191Y-1911299D01*
X-671626Y-1913128D01*
X-676402Y-1915871D01*
X-680669Y-1919274D01*
X-676097Y-1924862D01*
X-672795Y-1921916D01*
X-669086Y-1919528D01*
X-665022Y-1917954D01*
X-660603Y-1917242D01*
X-655116Y-1918258D01*
X-650951Y-1920798D01*
X-648309Y-1924659D01*
X-647395Y-1929688D01*
X-648512Y-1935530D01*
X-652119Y-1940204D01*
X-658622Y-1943303D01*
X-668477Y-1944420D01*
X-668477Y-1950770D01*
X-657504Y-1951888D01*
X-650189Y-1955088D01*
X-646125Y-1960016D01*
X-644855Y-1966264D01*
X-646023Y-1972259D01*
X-649274Y-1976831D01*
X-654151Y-1979726D01*
X-660349Y-1980742D01*
X-666445Y-1980031D01*
X-671474Y-1978152D01*
X-675640Y-1975408D01*
X-679145Y-1972106D01*
X-683463Y-1977440D01*
X-679399Y-1981301D01*
X-674217Y-1984502D01*
X-667766Y-1986788D01*
X-659841Y-1987600D01*
X-655116Y-1987245D01*
X-650697Y-1986178D01*
X-646734Y-1984400D01*
X-643280Y-1982012D01*
X-640435Y-1979015D01*
X-638302Y-1975408D01*
X-636930Y-1971243D01*
X-636473Y-1966518D01*
X-637743Y-1959559D01*
X-641146Y-1953971D01*
X-646226Y-1949856D01*
X-652475Y-1947468D01*
X-652475Y-1947214D01*
X-646938Y-1944420D01*
X-642670Y-1940458D01*
X-639978Y-1935327D01*
X-639013Y-1928926D01*
X-640588Y-1921154D01*
X-644956Y-1915414D01*
X-651662Y-1911857D01*
G37*
G36*
X-625805Y-1911908D02*
G01*
X-625805Y-1919020D01*
X-589229Y-1919020D01*
X-592734Y-1924050D01*
X-595833Y-1929079D01*
X-598576Y-1934057D01*
X-601014Y-1939137D01*
X-603097Y-1944268D01*
X-604926Y-1949551D01*
X-607669Y-1960625D01*
X-609396Y-1972818D01*
X-610311Y-1986330D01*
X-601675Y-1986330D01*
X-600913Y-1972716D01*
X-600303Y-1966468D01*
X-599440Y-1960524D01*
X-598322Y-1954784D01*
X-596950Y-1949297D01*
X-595172Y-1943912D01*
X-593039Y-1938578D01*
X-590499Y-1933295D01*
X-587451Y-1927961D01*
X-583895Y-1922576D01*
X-579831Y-1916988D01*
X-579831Y-1911908D01*
G37*
G36*
X-608838Y-2158238D02*
G01*
X-613003Y-2158695D01*
X-616915Y-2160016D01*
X-620420Y-2162048D01*
X-623519Y-2164842D01*
X-626059Y-2168347D01*
X-627989Y-2172411D01*
X-629208Y-2177034D01*
X-629666Y-2182164D01*
X-621792Y-2182164D01*
X-620776Y-2175154D01*
X-618083Y-2169718D01*
X-613968Y-2166162D01*
X-608838Y-2164842D01*
X-602081Y-2166467D01*
X-597001Y-2171141D01*
X-593699Y-2178812D01*
X-592074Y-2189226D01*
X-595985Y-2193848D01*
X-600049Y-2196998D01*
X-604113Y-2198827D01*
X-608076Y-2199386D01*
X-614172Y-2198166D01*
X-618439Y-2194661D01*
X-620979Y-2189226D01*
X-621792Y-2182164D01*
X-629666Y-2182164D01*
X-629310Y-2187600D01*
X-628243Y-2192324D01*
X-626516Y-2196338D01*
X-624179Y-2199640D01*
X-621233Y-2202180D01*
X-617778Y-2204059D01*
X-613765Y-2205126D01*
X-609346Y-2205482D01*
X-604621Y-2204872D01*
X-600049Y-2202992D01*
X-595782Y-2200046D01*
X-592074Y-2196084D01*
X-592632Y-2204415D01*
X-593852Y-2211324D01*
X-595680Y-2216912D01*
X-598068Y-2221280D01*
X-600862Y-2224532D01*
X-604012Y-2226716D01*
X-607466Y-2227986D01*
X-611124Y-2228342D01*
X-614680Y-2227986D01*
X-617982Y-2226868D01*
X-621030Y-2225040D01*
X-623570Y-2222500D01*
X-628396Y-2227834D01*
X-625043Y-2230831D01*
X-621030Y-2233168D01*
X-616356Y-2234692D01*
X-610870Y-2235200D01*
X-605790Y-2234692D01*
X-600913Y-2232964D01*
X-596392Y-2230018D01*
X-592378Y-2225700D01*
X-589026Y-2219960D01*
X-586435Y-2212746D01*
X-584758Y-2203856D01*
X-584200Y-2193290D01*
X-584657Y-2185111D01*
X-586028Y-2177999D01*
X-588213Y-2171954D01*
X-591159Y-2167026D01*
X-594766Y-2163216D01*
X-598982Y-2160473D01*
X-603707Y-2158796D01*
G37*
G36*
X-663702Y-2158238D02*
G01*
X-669798Y-2158949D01*
X-675233Y-2160778D01*
X-680008Y-2163521D01*
X-684276Y-2166874D01*
X-679704Y-2172462D01*
X-676402Y-2169515D01*
X-672693Y-2167128D01*
X-668629Y-2165553D01*
X-664210Y-2164842D01*
X-658723Y-2165858D01*
X-654558Y-2168448D01*
X-651916Y-2172309D01*
X-651002Y-2177288D01*
X-652119Y-2183130D01*
X-655726Y-2187803D01*
X-662228Y-2190902D01*
X-672084Y-2192020D01*
X-672084Y-2198370D01*
X-661111Y-2199538D01*
X-653796Y-2202688D01*
X-649732Y-2207615D01*
X-648462Y-2213914D01*
X-649630Y-2219909D01*
X-652881Y-2224481D01*
X-657758Y-2227376D01*
X-663956Y-2228342D01*
X-670001Y-2227681D01*
X-675030Y-2225751D01*
X-679246Y-2223008D01*
X-682752Y-2219706D01*
X-687070Y-2225040D01*
X-682955Y-2228900D01*
X-677824Y-2232152D01*
X-671372Y-2234387D01*
X-663448Y-2235200D01*
X-658723Y-2234844D01*
X-654304Y-2233777D01*
X-650341Y-2232050D01*
X-646887Y-2229612D01*
X-644042Y-2226614D01*
X-641908Y-2223008D01*
X-640537Y-2218842D01*
X-640080Y-2214118D01*
X-641299Y-2207158D01*
X-644753Y-2201570D01*
X-649833Y-2197506D01*
X-656082Y-2195068D01*
X-656082Y-2194864D01*
X-650544Y-2192020D01*
X-646277Y-2188057D01*
X-643585Y-2182926D01*
X-642620Y-2176526D01*
X-644194Y-2168753D01*
X-648563Y-2163013D01*
X-655269Y-2159457D01*
G37*
G36*
X2138324Y-1150721D02*
G01*
X2131822Y-1151534D01*
X2126183Y-1153718D01*
X2121255Y-1157173D01*
X2116734Y-1161643D01*
X2121560Y-1166215D01*
X2124964Y-1162812D01*
X2128774Y-1159967D01*
X2132888Y-1158036D01*
X2137308Y-1157325D01*
X2143607Y-1158494D01*
X2148027Y-1161745D01*
X2150668Y-1166672D01*
X2151532Y-1172819D01*
X2151024Y-1177798D01*
X2149500Y-1182979D01*
X2146909Y-1188466D01*
X2143252Y-1194206D01*
X2138476Y-1200353D01*
X2132584Y-1206906D01*
X2125472Y-1213866D01*
X2117242Y-1221333D01*
X2117242Y-1226413D01*
X2163216Y-1226413D01*
X2163216Y-1219301D01*
X2138883Y-1219352D01*
X2129688Y-1219809D01*
X2136140Y-1213510D01*
X2141982Y-1207363D01*
X2147112Y-1201369D01*
X2151430Y-1195425D01*
X2154936Y-1189634D01*
X2157526Y-1183894D01*
X2159101Y-1178204D01*
X2159660Y-1172565D01*
X2159304Y-1167841D01*
X2158187Y-1163574D01*
X2156409Y-1159865D01*
X2153920Y-1156716D01*
X2150872Y-1154176D01*
X2147214Y-1152296D01*
X2143048Y-1151128D01*
G37*
G36*
X2084476Y-1151991D02*
G01*
X2081428Y-1153617D01*
X2077923Y-1155039D01*
X2073960Y-1156208D01*
X2069490Y-1157071D01*
X2069490Y-1162405D01*
X2082444Y-1162405D01*
X2082444Y-1219555D01*
X2065934Y-1219555D01*
X2065934Y-1226413D01*
X2105812Y-1226413D01*
X2105812Y-1219555D01*
X2090826Y-1219555D01*
X2090826Y-1151991D01*
G37*
G36*
X2140661Y-3446729D02*
G01*
X2137613Y-3448354D01*
X2134158Y-3449726D01*
X2130196Y-3450894D01*
X2125675Y-3451809D01*
X2125675Y-3457143D01*
X2138629Y-3457143D01*
X2138629Y-3514293D01*
X2122119Y-3514293D01*
X2122119Y-3521151D01*
X2161997Y-3521151D01*
X2161997Y-3514293D01*
X2147011Y-3514293D01*
X2147011Y-3446729D01*
G37*
G36*
X2074011Y-3695344D02*
G01*
X2067915Y-3696004D01*
X2062480Y-3697833D01*
X2057704Y-3700576D01*
X2053437Y-3703980D01*
X2058009Y-3709568D01*
X2061260Y-3706571D01*
X2064969Y-3704234D01*
X2069084Y-3702608D01*
X2073503Y-3701948D01*
X2078989Y-3702964D01*
X2083155Y-3705504D01*
X2085797Y-3709365D01*
X2086711Y-3714394D01*
X2085593Y-3720236D01*
X2081987Y-3724910D01*
X2075434Y-3728008D01*
X2065629Y-3729126D01*
X2065629Y-3735476D01*
X2076602Y-3736594D01*
X2083917Y-3739794D01*
X2087981Y-3744671D01*
X2089251Y-3750970D01*
X2088083Y-3756964D01*
X2084832Y-3761536D01*
X2079904Y-3764432D01*
X2073757Y-3765448D01*
X2067661Y-3764737D01*
X2062632Y-3762806D01*
X2058466Y-3760063D01*
X2054961Y-3756812D01*
X2050643Y-3762146D01*
X2054707Y-3765956D01*
X2059889Y-3769207D01*
X2066340Y-3771442D01*
X2074265Y-3772306D01*
X2078989Y-3771950D01*
X2083358Y-3770833D01*
X2087372Y-3769106D01*
X2090826Y-3766718D01*
X2093671Y-3763670D01*
X2095804Y-3760063D01*
X2097176Y-3755898D01*
X2097633Y-3751224D01*
X2096363Y-3744214D01*
X2092960Y-3738626D01*
X2087880Y-3734562D01*
X2081631Y-3732174D01*
X2081631Y-3731920D01*
X2087168Y-3729075D01*
X2091385Y-3725164D01*
X2094128Y-3720033D01*
X2095093Y-3713632D01*
X2093518Y-3705809D01*
X2089099Y-3700068D01*
X2082444Y-3696563D01*
G37*
G36*
X2103475Y-3696614D02*
G01*
X2127351Y-3771036D01*
X2137003Y-3771036D01*
X2160879Y-3696614D01*
X2152243Y-3696614D01*
X2132685Y-3762400D01*
X2132177Y-3762400D01*
X2112365Y-3696614D01*
G37*
G36*
X2839567Y-1664563D02*
G01*
X2836519Y-1666189D01*
X2833065Y-1667611D01*
X2829102Y-1668780D01*
X2824581Y-1669643D01*
X2824581Y-1674977D01*
X2837535Y-1674977D01*
X2837535Y-1732127D01*
X2821025Y-1732127D01*
X2821025Y-1738985D01*
X2860903Y-1738985D01*
X2860903Y-1732127D01*
X2845917Y-1732127D01*
X2845917Y-1664563D01*
G37*
G36*
X2752953Y-1664563D02*
G01*
X2752953Y-1671421D01*
X2770479Y-1671421D01*
X2776829Y-1671980D01*
X2782316Y-1673504D01*
X2786938Y-1675942D01*
X2790698Y-1679397D01*
X2793644Y-1683664D01*
X2795727Y-1688795D01*
X2796997Y-1694738D01*
X2797403Y-1701393D01*
X2796997Y-1708200D01*
X2795727Y-1714246D01*
X2793644Y-1719529D01*
X2790698Y-1723898D01*
X2786938Y-1727454D01*
X2782316Y-1730044D01*
X2776829Y-1731619D01*
X2770479Y-1732127D01*
X2761335Y-1732127D01*
X2761335Y-1671421D01*
X2752953Y-1671421D01*
X2752953Y-1738985D01*
X2771495Y-1738985D01*
X2776931Y-1738731D01*
X2781909Y-1737817D01*
X2786430Y-1736394D01*
X2790494Y-1734464D01*
X2794101Y-1731975D01*
X2797251Y-1728978D01*
X2799943Y-1725472D01*
X2802128Y-1721561D01*
X2803855Y-1717141D01*
X2805074Y-1712315D01*
X2805785Y-1707083D01*
X2806039Y-1701393D01*
X2805785Y-1695754D01*
X2805074Y-1690573D01*
X2803855Y-1685798D01*
X2802128Y-1681480D01*
X2799892Y-1677619D01*
X2797251Y-1674215D01*
X2794050Y-1671320D01*
X2790444Y-1668932D01*
X2786329Y-1667052D01*
X2781757Y-1665681D01*
X2776728Y-1664868D01*
X2771241Y-1664563D01*
G37*
G36*
X2819196Y-1149908D02*
G01*
X2813253Y-1150620D01*
X2807868Y-1152448D01*
X2803042Y-1155192D01*
X2798622Y-1158544D01*
X2803194Y-1164132D01*
X2806649Y-1161186D01*
X2810408Y-1158849D01*
X2814523Y-1157224D01*
X2818942Y-1156512D01*
X2824429Y-1157528D01*
X2828493Y-1160068D01*
X2831033Y-1163980D01*
X2831896Y-1168958D01*
X2830830Y-1174800D01*
X2827324Y-1179474D01*
X2820873Y-1182573D01*
X2811068Y-1183690D01*
X2811068Y-1190040D01*
X2822041Y-1191209D01*
X2829356Y-1194358D01*
X2833420Y-1199286D01*
X2834690Y-1205534D01*
X2833522Y-1211580D01*
X2830271Y-1216152D01*
X2825292Y-1219047D01*
X2818942Y-1220012D01*
X2812999Y-1219352D01*
X2808020Y-1217422D01*
X2803804Y-1214678D01*
X2800146Y-1211376D01*
X2796082Y-1216710D01*
X2800045Y-1220571D01*
X2805226Y-1223822D01*
X2811627Y-1226058D01*
X2819450Y-1226870D01*
X2824276Y-1226515D01*
X2828696Y-1225448D01*
X2832658Y-1223721D01*
X2836113Y-1221282D01*
X2838907Y-1218285D01*
X2841040Y-1214678D01*
X2842361Y-1210513D01*
X2842818Y-1205788D01*
X2841599Y-1198829D01*
X2838196Y-1193241D01*
X2833166Y-1189177D01*
X2827070Y-1186738D01*
X2827070Y-1186484D01*
X2832455Y-1183690D01*
X2836621Y-1179728D01*
X2839313Y-1174597D01*
X2840278Y-1168196D01*
X2838704Y-1160424D01*
X2834335Y-1154684D01*
X2827629Y-1151128D01*
G37*
G36*
X2764840Y-1151178D02*
G01*
X2761792Y-1152804D01*
X2758338Y-1154226D01*
X2754376Y-1155395D01*
X2749854Y-1156258D01*
X2749854Y-1161592D01*
X2762808Y-1161592D01*
X2762808Y-1218742D01*
X2746298Y-1218742D01*
X2746298Y-1225600D01*
X2786176Y-1225600D01*
X2786176Y-1218742D01*
X2771190Y-1218742D01*
X2771190Y-1151178D01*
G37*
G36*
X2779166Y-3697224D02*
G01*
X2773070Y-3697884D01*
X2767634Y-3699713D01*
X2762859Y-3702456D01*
X2758592Y-3705860D01*
X2763164Y-3711448D01*
X2766466Y-3708450D01*
X2770174Y-3706114D01*
X2774238Y-3704488D01*
X2778658Y-3703828D01*
X2784144Y-3704844D01*
X2788310Y-3707384D01*
X2790952Y-3711244D01*
X2791866Y-3716274D01*
X2790748Y-3722115D01*
X2787142Y-3726789D01*
X2780639Y-3729888D01*
X2770784Y-3731006D01*
X2770784Y-3737356D01*
X2781757Y-3738473D01*
X2789072Y-3741674D01*
X2793136Y-3746550D01*
X2794406Y-3752850D01*
X2793238Y-3758844D01*
X2789986Y-3763416D01*
X2785110Y-3766312D01*
X2778912Y-3767328D01*
X2772867Y-3766616D01*
X2767838Y-3764686D01*
X2763621Y-3761943D01*
X2760116Y-3758692D01*
X2755798Y-3764026D01*
X2759913Y-3767836D01*
X2765044Y-3771087D01*
X2771495Y-3773322D01*
X2779420Y-3774186D01*
X2784144Y-3773830D01*
X2788564Y-3772712D01*
X2792526Y-3770985D01*
X2795981Y-3768598D01*
X2798826Y-3765550D01*
X2800959Y-3761943D01*
X2802331Y-3757777D01*
X2802788Y-3753104D01*
X2801569Y-3746093D01*
X2798114Y-3740505D01*
X2793034Y-3736441D01*
X2786786Y-3734054D01*
X2786786Y-3733800D01*
X2792323Y-3730955D01*
X2796590Y-3727043D01*
X2799283Y-3721912D01*
X2800248Y-3715512D01*
X2798673Y-3707688D01*
X2794304Y-3701948D01*
X2787599Y-3698443D01*
G37*
G36*
X2808630Y-3698494D02*
G01*
X2832506Y-3772915D01*
X2842158Y-3772915D01*
X2866034Y-3698494D01*
X2857398Y-3698494D01*
X2837840Y-3764279D01*
X2837332Y-3764279D01*
X2817520Y-3698494D01*
G37*
G36*
X-634441Y-3247034D02*
G01*
X-634441Y-3321456D01*
X-626313Y-3321456D01*
X-626414Y-3274974D01*
X-627329Y-3257956D01*
X-626821Y-3257956D01*
X-618693Y-3273196D01*
X-590753Y-3321456D01*
X-582117Y-3321456D01*
X-582117Y-3247034D01*
X-590245Y-3247034D01*
X-590245Y-3287420D01*
X-589788Y-3299053D01*
X-588975Y-3310534D01*
X-589483Y-3310534D01*
X-597611Y-3295294D01*
X-625805Y-3247034D01*
G37*
G36*
X-693623Y-3247034D02*
G01*
X-693623Y-3321456D01*
X-650189Y-3321456D01*
X-650189Y-3314344D01*
X-685241Y-3314344D01*
X-685241Y-3285896D01*
X-656793Y-3285896D01*
X-656793Y-3278784D01*
X-685241Y-3278784D01*
X-685241Y-3254146D01*
X-651205Y-3254146D01*
X-651205Y-3247034D01*
G37*
G36*
X2091283Y-272542D02*
G01*
X2082139Y-273964D01*
X2074875Y-277977D01*
X2070150Y-284073D01*
X2068423Y-291846D01*
X2069795Y-298958D01*
X2073351Y-304292D01*
X2078177Y-308152D01*
X2083409Y-310896D01*
X2099310Y-318008D01*
X2103323Y-320649D01*
X2106015Y-324256D01*
X2107031Y-329438D01*
X2105863Y-334619D01*
X2102561Y-338632D01*
X2097379Y-341223D01*
X2090521Y-342138D01*
X2084679Y-341477D01*
X2079142Y-339598D01*
X2074062Y-336651D01*
X2069693Y-332740D01*
X2064613Y-338582D01*
X2069846Y-343052D01*
X2075942Y-346506D01*
X2082850Y-348691D01*
X2090521Y-349504D01*
X2095957Y-349046D01*
X2100834Y-347878D01*
X2105101Y-345948D01*
X2108657Y-343458D01*
X2111552Y-340360D01*
X2113635Y-336854D01*
X2114956Y-332892D01*
X2115413Y-328676D01*
X2114194Y-321462D01*
X2110892Y-316077D01*
X2105964Y-312013D01*
X2099919Y-308864D01*
X2084933Y-302260D01*
X2080920Y-299720D01*
X2077974Y-296214D01*
X2076805Y-291338D01*
X2077821Y-286512D01*
X2080818Y-282956D01*
X2085390Y-280670D01*
X2091283Y-279908D01*
X2096312Y-280365D01*
X2100884Y-281838D01*
X2104898Y-284073D01*
X2108555Y-287020D01*
X2112873Y-281686D01*
X2108606Y-277977D01*
X2103475Y-275082D01*
X2097684Y-273202D01*
G37*
G36*
X2130399Y-273812D02*
G01*
X2130399Y-280670D01*
X2147925Y-280670D01*
X2154224Y-281178D01*
X2159711Y-282702D01*
X2164283Y-285191D01*
X2167991Y-288594D01*
X2170887Y-292862D01*
X2172970Y-297992D01*
X2174189Y-303936D01*
X2174595Y-310642D01*
X2174189Y-317398D01*
X2172970Y-323443D01*
X2170887Y-328726D01*
X2167991Y-333146D01*
X2164283Y-336651D01*
X2159711Y-339242D01*
X2154224Y-340817D01*
X2147925Y-341376D01*
X2138781Y-341376D01*
X2138781Y-280670D01*
X2130399Y-280670D01*
X2130399Y-348234D01*
X2148941Y-348234D01*
X2154377Y-347929D01*
X2159304Y-347065D01*
X2163826Y-345643D01*
X2167890Y-343662D01*
X2171446Y-341172D01*
X2174544Y-338175D01*
X2177186Y-334721D01*
X2179370Y-330758D01*
X2181047Y-326339D01*
X2182266Y-321513D01*
X2182977Y-316280D01*
X2183231Y-310642D01*
X2182977Y-305003D01*
X2182266Y-299770D01*
X2181047Y-294995D01*
X2179370Y-290677D01*
X2177186Y-286816D01*
X2174544Y-283464D01*
X2171395Y-280568D01*
X2167788Y-278130D01*
X2163724Y-276250D01*
X2159152Y-274878D01*
X2154174Y-274066D01*
X2148687Y-273812D01*
G37*
G36*
X-929944Y-3592322D02*
G01*
X-935024Y-3592880D01*
X-939546Y-3594658D01*
X-943457Y-3597605D01*
X-946708Y-3601770D01*
X-949350Y-3607104D01*
X-951230Y-3613658D01*
X-952398Y-3621430D01*
X-952804Y-3630422D01*
X-944930Y-3630422D01*
X-944676Y-3622852D01*
X-943864Y-3616401D01*
X-942543Y-3610965D01*
X-940765Y-3606596D01*
X-938631Y-3603193D01*
X-936040Y-3600805D01*
X-933145Y-3599383D01*
X-929944Y-3598926D01*
X-926846Y-3599383D01*
X-924052Y-3600805D01*
X-921562Y-3603193D01*
X-919480Y-3606596D01*
X-917803Y-3610965D01*
X-916533Y-3616401D01*
X-915771Y-3622852D01*
X-915466Y-3630422D01*
X-915771Y-3638245D01*
X-916533Y-3644900D01*
X-917803Y-3650437D01*
X-919480Y-3654907D01*
X-921562Y-3658362D01*
X-924052Y-3660800D01*
X-926846Y-3662222D01*
X-929944Y-3662679D01*
X-933145Y-3662222D01*
X-936040Y-3660800D01*
X-938631Y-3658362D01*
X-940765Y-3654907D01*
X-942543Y-3650437D01*
X-943864Y-3644900D01*
X-944676Y-3638245D01*
X-944930Y-3630422D01*
X-952804Y-3630422D01*
X-952398Y-3639616D01*
X-951230Y-3647541D01*
X-949350Y-3654196D01*
X-946708Y-3659682D01*
X-943457Y-3663899D01*
X-939546Y-3666896D01*
X-935024Y-3668674D01*
X-929944Y-3669284D01*
X-925068Y-3668674D01*
X-920648Y-3666896D01*
X-916787Y-3663899D01*
X-913536Y-3659682D01*
X-910894Y-3654196D01*
X-908964Y-3647541D01*
X-907745Y-3639616D01*
X-907338Y-3630422D01*
X-907745Y-3621430D01*
X-908964Y-3613658D01*
X-910894Y-3607104D01*
X-913536Y-3601770D01*
X-916787Y-3597605D01*
X-920648Y-3594658D01*
X-925068Y-3592880D01*
G37*
G36*
X-995476Y-3592322D02*
G01*
X-1002080Y-3592982D01*
X-1008126Y-3594963D01*
X-1013510Y-3598164D01*
X-1018082Y-3602532D01*
X-1021842Y-3607968D01*
X-1024636Y-3614521D01*
X-1026363Y-3621989D01*
X-1026972Y-3630422D01*
X-1018336Y-3630422D01*
X-1017930Y-3623716D01*
X-1016711Y-3617671D01*
X-1014730Y-3612438D01*
X-1012088Y-3608019D01*
X-1008735Y-3604463D01*
X-1004874Y-3601821D01*
X-1000404Y-3600246D01*
X-995476Y-3599687D01*
X-990549Y-3600246D01*
X-986129Y-3601821D01*
X-982218Y-3604463D01*
X-978916Y-3608019D01*
X-976223Y-3612438D01*
X-974293Y-3617671D01*
X-973074Y-3623716D01*
X-972616Y-3630422D01*
X-973074Y-3637330D01*
X-974293Y-3643477D01*
X-976223Y-3648862D01*
X-978916Y-3653383D01*
X-982218Y-3657041D01*
X-986129Y-3659733D01*
X-990549Y-3661359D01*
X-995476Y-3661918D01*
X-1000404Y-3661359D01*
X-1004874Y-3659733D01*
X-1008735Y-3657041D01*
X-1012088Y-3653383D01*
X-1014730Y-3648862D01*
X-1016711Y-3643477D01*
X-1017930Y-3637330D01*
X-1018336Y-3630422D01*
X-1026972Y-3630422D01*
X-1026363Y-3638956D01*
X-1024636Y-3646576D01*
X-1021842Y-3653231D01*
X-1018082Y-3658819D01*
X-1013510Y-3663289D01*
X-1008126Y-3666591D01*
X-1002080Y-3668572D01*
X-995476Y-3669284D01*
X-988821Y-3668572D01*
X-982726Y-3666591D01*
X-977392Y-3663289D01*
X-972769Y-3658819D01*
X-969060Y-3653231D01*
X-966317Y-3646576D01*
X-964590Y-3638956D01*
X-963980Y-3630422D01*
X-964590Y-3621989D01*
X-966317Y-3614521D01*
X-969060Y-3607968D01*
X-972769Y-3602532D01*
X-977392Y-3598164D01*
X-982726Y-3594963D01*
X-988821Y-3592982D01*
G37*
G36*
X-1051610Y-3593592D02*
G01*
X-1051610Y-3668014D01*
X-1043228Y-3668014D01*
X-1043228Y-3593592D01*
G37*
G36*
X155651Y-147574D02*
G01*
X155651Y-154940D01*
X180289Y-163830D01*
X195275Y-169672D01*
X195275Y-170180D01*
X155651Y-184912D01*
X155651Y-192278D01*
X203657Y-173482D01*
X203657Y-166370D01*
G37*
G36*
X-187553Y-633933D02*
G01*
X-187553Y-642823D01*
X-159105Y-642823D01*
X-159105Y-726897D01*
X-148437Y-726897D01*
X-148437Y-642823D01*
X-120243Y-642823D01*
X-120243Y-633933D01*
G37*
G36*
X-248005Y-633933D02*
G01*
X-248005Y-726897D01*
X-237337Y-726897D01*
X-237337Y-684479D01*
X-201777Y-684479D01*
X-201777Y-675589D01*
X-237337Y-675589D01*
X-237337Y-642823D01*
X-195173Y-642823D01*
X-195173Y-633933D01*
G37*
G36*
X-322173Y-633933D02*
G01*
X-322173Y-726897D01*
X-267817Y-726897D01*
X-267817Y-718007D01*
X-311505Y-718007D01*
X-311505Y-682193D01*
X-275945Y-682193D01*
X-275945Y-673303D01*
X-311505Y-673303D01*
X-311505Y-642823D01*
X-269341Y-642823D01*
X-269341Y-633933D01*
G37*
G36*
X-390245Y-633933D02*
G01*
X-390245Y-726897D01*
X-338429Y-726897D01*
X-338429Y-718007D01*
X-379577Y-718007D01*
X-379577Y-633933D01*
G37*
G36*
X2446629Y-633933D02*
G01*
X2440635Y-634288D01*
X2434945Y-635406D01*
X2429662Y-637235D01*
X2424785Y-639724D01*
X2420315Y-642874D01*
X2416302Y-646684D01*
X2412847Y-651154D01*
X2409952Y-656183D01*
X2407615Y-661822D01*
X2405888Y-667969D01*
X2404821Y-674725D01*
X2404465Y-681939D01*
X2404821Y-689254D01*
X2405837Y-696010D01*
X2407513Y-702259D01*
X2409799Y-707898D01*
X2412644Y-712978D01*
X2416048Y-717397D01*
X2419959Y-721258D01*
X2424328Y-724408D01*
X2429154Y-726897D01*
X2434336Y-728726D01*
X2439924Y-729843D01*
X2445867Y-730199D01*
X2454706Y-729386D01*
X2462479Y-727100D01*
X2469083Y-723646D01*
X2474315Y-719277D01*
X2474315Y-680923D01*
X2444343Y-680923D01*
X2444343Y-689559D01*
X2464409Y-689559D01*
X2464409Y-714959D01*
X2461056Y-717397D01*
X2456789Y-719226D01*
X2452014Y-720394D01*
X2446883Y-720801D01*
X2439720Y-720090D01*
X2433370Y-718108D01*
X2427935Y-714806D01*
X2423414Y-710285D01*
X2419858Y-704646D01*
X2417267Y-697992D01*
X2415692Y-690321D01*
X2415133Y-681685D01*
X2415743Y-673201D01*
X2417419Y-665581D01*
X2420112Y-658977D01*
X2423769Y-653440D01*
X2428392Y-649020D01*
X2433777Y-645769D01*
X2439974Y-643737D01*
X2446883Y-643077D01*
X2453487Y-643788D01*
X2458974Y-645718D01*
X2463495Y-648563D01*
X2467203Y-651967D01*
X2473045Y-645109D01*
X2468473Y-641096D01*
X2462631Y-637540D01*
X2455367Y-634949D01*
G37*
G36*
X2579471Y-635457D02*
G01*
X2579471Y-644347D01*
X2607919Y-644347D01*
X2607919Y-728421D01*
X2618587Y-728421D01*
X2618587Y-644347D01*
X2646781Y-644347D01*
X2646781Y-635457D01*
G37*
G36*
X2496667Y-635457D02*
G01*
X2496667Y-728421D01*
X2507335Y-728421D01*
X2507335Y-683971D01*
X2552039Y-683971D01*
X2552039Y-728421D01*
X2562707Y-728421D01*
X2562707Y-635457D01*
X2552039Y-635457D01*
X2552039Y-674827D01*
X2507335Y-674827D01*
X2507335Y-635457D01*
G37*
G36*
X2373477Y-635457D02*
G01*
X2373477Y-728421D01*
X2383891Y-728421D01*
X2383891Y-635457D01*
G37*
G36*
X2293721Y-635457D02*
G01*
X2293721Y-644093D01*
X2320391Y-644093D01*
X2330399Y-645007D01*
X2337714Y-647954D01*
X2342235Y-653338D01*
X2343759Y-661365D01*
X2342235Y-669391D01*
X2337714Y-675081D01*
X2330399Y-678535D01*
X2320391Y-679653D01*
X2304389Y-679653D01*
X2304389Y-644093D01*
X2293721Y-644093D01*
X2293721Y-728421D01*
X2304389Y-728421D01*
X2304389Y-688289D01*
X2321661Y-688289D01*
X2344775Y-728421D01*
X2356713Y-728421D01*
X2332837Y-687273D01*
X2337511Y-685901D01*
X2341676Y-683971D01*
X2345385Y-681583D01*
X2348484Y-678586D01*
X2351024Y-675132D01*
X2352903Y-671118D01*
X2354072Y-666496D01*
X2354427Y-661365D01*
X2353818Y-654812D01*
X2352090Y-649274D01*
X2349246Y-644804D01*
X2345436Y-641248D01*
X2340762Y-638657D01*
X2335276Y-636828D01*
X2329027Y-635812D01*
X2322169Y-635457D01*
G37*
G36*
X-976223Y759917D02*
G01*
X-976223Y752551D01*
X-951585Y743661D01*
X-936599Y737819D01*
X-936599Y737311D01*
X-976223Y722579D01*
X-976223Y715213D01*
X-928217Y734009D01*
X-928217Y741121D01*
G37*
G36*
X-158597Y133858D02*
G01*
X-164541Y133400D01*
X-170027Y132029D01*
X-174904Y129895D01*
X-179120Y127050D01*
X-182575Y123494D01*
X-185115Y119380D01*
X-186740Y114757D01*
X-187299Y109728D01*
X-185521Y100888D01*
X-181000Y94284D01*
X-174853Y89509D01*
X-168249Y86106D01*
X-154787Y80264D01*
X-148539Y77216D01*
X-143560Y73812D01*
X-140258Y69291D01*
X-139039Y62991D01*
X-140411Y56438D01*
X-144424Y51358D01*
X-150825Y48107D01*
X-159359Y46990D01*
X-166624Y47802D01*
X-173583Y50139D01*
X-179933Y53848D01*
X-185521Y58674D01*
X-191871Y51562D01*
X-185267Y45720D01*
X-177647Y41351D01*
X-169062Y38557D01*
X-159613Y37592D01*
X-152704Y38100D01*
X-146558Y39624D01*
X-141224Y42062D01*
X-136753Y45262D01*
X-133146Y49123D01*
X-130505Y53543D01*
X-128930Y58470D01*
X-128371Y63754D01*
X-129895Y72898D01*
X-134010Y79705D01*
X-140157Y84785D01*
X-147675Y88646D01*
X-161137Y94234D01*
X-166522Y96723D01*
X-171551Y99974D01*
X-175209Y104394D01*
X-176631Y110489D01*
X-175310Y116332D01*
X-171602Y120853D01*
X-165912Y123698D01*
X-158597Y124714D01*
X-152298Y124053D01*
X-146659Y122275D01*
X-141579Y119481D01*
X-137007Y115824D01*
X-131419Y122682D01*
X-136753Y127203D01*
X-143205Y130759D01*
X-150520Y133045D01*
G37*
G36*
X-109829Y132334D02*
G01*
X-109829Y123952D01*
X-84429Y123952D01*
X-74422Y123088D01*
X-67259Y120396D01*
X-62991Y115570D01*
X-61569Y108458D01*
X-62839Y101752D01*
X-66954Y96723D01*
X-74218Y93573D01*
X-84937Y92456D01*
X-99161Y92456D01*
X-99161Y123952D01*
X-109829Y123952D01*
X-109829Y84328D01*
X-82397Y84328D01*
X-76454Y84074D01*
X-71170Y83261D01*
X-66649Y81940D01*
X-62890Y80060D01*
X-59893Y77673D01*
X-57759Y74676D01*
X-56438Y71170D01*
X-55981Y67056D01*
X-56438Y62433D01*
X-57759Y58470D01*
X-59994Y55117D01*
X-62991Y52425D01*
X-66751Y50393D01*
X-71272Y48920D01*
X-76504Y48056D01*
X-82397Y47752D01*
X-99161Y47752D01*
X-99161Y84328D01*
X-109829Y84328D01*
X-109829Y39370D01*
X-80873Y39370D01*
X-73355Y39776D01*
X-66548Y41097D01*
X-60553Y43230D01*
X-55372Y46177D01*
X-51257Y50038D01*
X-48158Y54711D01*
X-46228Y60198D01*
X-45567Y66548D01*
X-46939Y75082D01*
X-50901Y81635D01*
X-56997Y86207D01*
X-64871Y88900D01*
X-64871Y89408D01*
X-58978Y92557D01*
X-54660Y97129D01*
X-52019Y102920D01*
X-51155Y109474D01*
X-51714Y115112D01*
X-53441Y119887D01*
X-56184Y123850D01*
X-59893Y127000D01*
X-64465Y129387D01*
X-69900Y131064D01*
X-76047Y132029D01*
X-82905Y132334D01*
G37*
G36*
X-274929Y132334D02*
G01*
X-274929Y77216D01*
X-274624Y70205D01*
X-273761Y63957D01*
X-272338Y58470D01*
X-270408Y53746D01*
X-268071Y49682D01*
X-265277Y46278D01*
X-262077Y43484D01*
X-258571Y41249D01*
X-254762Y39624D01*
X-250698Y38455D01*
X-246379Y37795D01*
X-241909Y37592D01*
X-237388Y37795D01*
X-233121Y38455D01*
X-229057Y39624D01*
X-225298Y41249D01*
X-221792Y43484D01*
X-218643Y46278D01*
X-215900Y49682D01*
X-213563Y53746D01*
X-211683Y58470D01*
X-210312Y63957D01*
X-209448Y70205D01*
X-209143Y77216D01*
X-209143Y132334D01*
X-219049Y132334D01*
X-219049Y76962D01*
X-219506Y69088D01*
X-220878Y62636D01*
X-223012Y57404D01*
X-225806Y53390D01*
X-229209Y50444D01*
X-233070Y48463D01*
X-237337Y47345D01*
X-241909Y46990D01*
X-246430Y47345D01*
X-250647Y48463D01*
X-254457Y50444D01*
X-257759Y53390D01*
X-260451Y57404D01*
X-262483Y62636D01*
X-263804Y69088D01*
X-264261Y76962D01*
X-264261Y132334D01*
G37*
G36*
X1271981Y432968D02*
G01*
X1271981Y382930D01*
X1225499Y382930D01*
X1225499Y368706D01*
X1271981Y368706D01*
X1271981Y318414D01*
X1287221Y318414D01*
X1287221Y368706D01*
X1333703Y368706D01*
X1333703Y382930D01*
X1287221Y382930D01*
X1287221Y432968D01*
G37*
G36*
X-971397Y-2857195D02*
G01*
X-971397Y-2864307D01*
X-948791Y-2864307D01*
X-948791Y-2931617D01*
X-940155Y-2931617D01*
X-940155Y-2864307D01*
X-917295Y-2864307D01*
X-917295Y-2857195D01*
G37*
G36*
X-1027785Y-2857195D02*
G01*
X-1027785Y-2864053D01*
X-1007465Y-2864053D01*
X-999591Y-2864713D01*
X-993851Y-2866847D01*
X-990396Y-2870708D01*
X-989177Y-2876499D01*
X-990244Y-2881833D01*
X-993546Y-2885795D01*
X-999388Y-2888335D01*
X-1007973Y-2889199D01*
X-1019403Y-2889199D01*
X-1019403Y-2864053D01*
X-1027785Y-2864053D01*
X-1027785Y-2895549D01*
X-1005941Y-2895549D01*
X-997000Y-2896412D01*
X-990396Y-2899003D01*
X-986282Y-2903372D01*
X-984859Y-2909519D01*
X-986332Y-2916478D01*
X-990447Y-2921304D01*
X-997102Y-2924098D01*
X-1005941Y-2925013D01*
X-1019403Y-2925013D01*
X-1019403Y-2895549D01*
X-1027785Y-2895549D01*
X-1027785Y-2931617D01*
X-1004671Y-2931617D01*
X-998677Y-2931312D01*
X-993241Y-2930296D01*
X-988415Y-2928620D01*
X-984300Y-2926232D01*
X-980998Y-2923184D01*
X-978560Y-2919425D01*
X-977036Y-2914954D01*
X-976477Y-2909773D01*
X-977646Y-2902966D01*
X-980795Y-2897733D01*
X-985723Y-2894126D01*
X-991971Y-2891993D01*
X-991971Y-2891485D01*
X-987247Y-2889097D01*
X-983742Y-2885389D01*
X-981557Y-2880766D01*
X-980795Y-2875483D01*
X-981303Y-2871012D01*
X-982675Y-2867202D01*
X-984910Y-2864002D01*
X-987907Y-2861513D01*
X-991616Y-2859582D01*
X-995934Y-2858262D01*
X-1000810Y-2857449D01*
X-1006195Y-2857195D01*
G37*
G36*
X-893927Y519836D02*
G01*
X-893927Y445414D01*
X-885545Y445414D01*
X-885545Y469290D01*
X-872083Y485038D01*
X-849223Y445414D01*
X-840079Y445414D01*
X-866749Y491642D01*
X-843381Y519836D01*
X-853033Y519836D01*
X-885291Y481482D01*
X-885545Y481482D01*
X-885545Y519836D01*
G37*
G36*
X-966825Y519836D02*
G01*
X-966825Y445414D01*
X-958951Y445414D01*
X-959053Y491845D01*
X-959967Y508914D01*
X-959459Y508914D01*
X-951331Y493674D01*
X-923391Y445414D01*
X-914755Y445414D01*
X-914755Y519836D01*
X-922629Y519836D01*
X-922528Y473659D01*
X-921613Y456336D01*
X-922121Y456336D01*
X-929995Y471576D01*
X-958189Y519836D01*
G37*
G36*
X-996035Y519836D02*
G01*
X-996035Y445414D01*
X-987653Y445414D01*
X-987653Y519836D01*
G37*
G36*
X-1050391Y519836D02*
G01*
X-1050391Y445414D01*
X-1009243Y445414D01*
X-1009243Y452526D01*
X-1042009Y452526D01*
X-1042009Y519836D01*
G37*
G36*
X-1116685Y519836D02*
G01*
X-1116685Y512978D01*
X-1096365Y512978D01*
X-1088491Y512318D01*
X-1082751Y510184D01*
X-1079246Y506323D01*
X-1078077Y500532D01*
X-1079093Y495198D01*
X-1082446Y491235D01*
X-1088237Y488696D01*
X-1096873Y487832D01*
X-1108303Y487832D01*
X-1108303Y512978D01*
X-1116685Y512978D01*
X-1116685Y481482D01*
X-1094841Y481482D01*
X-1085850Y480618D01*
X-1079246Y478028D01*
X-1075131Y473659D01*
X-1073759Y467512D01*
X-1075182Y460552D01*
X-1079347Y455726D01*
X-1085951Y452932D01*
X-1094841Y452018D01*
X-1108303Y452018D01*
X-1108303Y481482D01*
X-1116685Y481482D01*
X-1116685Y445414D01*
X-1093571Y445414D01*
X-1087526Y445719D01*
X-1082090Y446735D01*
X-1077264Y448411D01*
X-1073200Y450799D01*
X-1069848Y453847D01*
X-1067409Y457606D01*
X-1065885Y462076D01*
X-1065377Y467258D01*
X-1066495Y474065D01*
X-1069695Y479298D01*
X-1074572Y482904D01*
X-1080871Y485038D01*
X-1080871Y485546D01*
X-1076096Y487984D01*
X-1072591Y491642D01*
X-1070457Y496265D01*
X-1069695Y501548D01*
X-1070152Y506018D01*
X-1071575Y509879D01*
X-1073759Y513029D01*
X-1076756Y515518D01*
X-1080465Y517448D01*
X-1084783Y518769D01*
X-1089710Y519582D01*
X-1095095Y519836D01*
G37*
G36*
X215595Y-291388D02*
G01*
X212547Y-293014D01*
X209042Y-294386D01*
X205079Y-295554D01*
X200609Y-296468D01*
X200609Y-301802D01*
X213563Y-301802D01*
X213563Y-358952D01*
X197053Y-358952D01*
X197053Y-365810D01*
X236931Y-365810D01*
X236931Y-358952D01*
X221945Y-358952D01*
X221945Y-291388D01*
G37*
G36*
X128981Y-291388D02*
G01*
X128981Y-298246D01*
X146507Y-298246D01*
X152857Y-298754D01*
X158343Y-300278D01*
X162966Y-302768D01*
X166725Y-306171D01*
X169672Y-310489D01*
X171754Y-315620D01*
X173024Y-321513D01*
X173431Y-328218D01*
X173024Y-335026D01*
X171754Y-341071D01*
X169672Y-346303D01*
X166725Y-350723D01*
X162966Y-354279D01*
X158343Y-356819D01*
X152857Y-358394D01*
X146507Y-358952D01*
X137363Y-358952D01*
X137363Y-298246D01*
X128981Y-298246D01*
X128981Y-365810D01*
X147523Y-365810D01*
X152958Y-365506D01*
X157937Y-364642D01*
X162458Y-363220D01*
X166522Y-361238D01*
X170129Y-358749D01*
X173278Y-355803D01*
X175971Y-352298D01*
X178155Y-348335D01*
X179832Y-343966D01*
X181102Y-339140D01*
X181813Y-333857D01*
X182067Y-328218D01*
X181813Y-322580D01*
X181102Y-317398D01*
X179832Y-312623D01*
X178155Y-308305D01*
X175920Y-304444D01*
X173228Y-301040D01*
X170078Y-298145D01*
X166471Y-295757D01*
X162356Y-293878D01*
X157784Y-292506D01*
X152755Y-291693D01*
X147269Y-291388D01*
G37*
G36*
X-905408Y-2380488D02*
G01*
X-911758Y-2381300D01*
X-917346Y-2383485D01*
X-922324Y-2386939D01*
X-926998Y-2391410D01*
X-922172Y-2395982D01*
X-918718Y-2392476D01*
X-914908Y-2389682D01*
X-910742Y-2387803D01*
X-906170Y-2387092D01*
X-899921Y-2388311D01*
X-895553Y-2391511D01*
X-893013Y-2396439D01*
X-892200Y-2402586D01*
X-892708Y-2407513D01*
X-894181Y-2412644D01*
X-896721Y-2418130D01*
X-900379Y-2423922D01*
X-905154Y-2430068D01*
X-911047Y-2436672D01*
X-918159Y-2443632D01*
X-926490Y-2451100D01*
X-926490Y-2456230D01*
X-880516Y-2456230D01*
X-880516Y-2449068D01*
X-904697Y-2449118D01*
X-914044Y-2449576D01*
X-907491Y-2443276D01*
X-901649Y-2437130D01*
X-896518Y-2431135D01*
X-892200Y-2425192D01*
X-888746Y-2419350D01*
X-886155Y-2413558D01*
X-884580Y-2407818D01*
X-884072Y-2402078D01*
X-885545Y-2393137D01*
X-889762Y-2386380D01*
X-896518Y-2382012D01*
G37*
G36*
X-959256Y-2381758D02*
G01*
X-962304Y-2383383D01*
X-965809Y-2384806D01*
X-969771Y-2385974D01*
X-974242Y-2386838D01*
X-974242Y-2392222D01*
X-961034Y-2392222D01*
X-961034Y-2449372D01*
X-977798Y-2449372D01*
X-977798Y-2456230D01*
X-937666Y-2456230D01*
X-937666Y-2449372D01*
X-952906Y-2449372D01*
X-952906Y-2381758D01*
G37*
G36*
X-1040028Y-2381758D02*
G01*
X-1040028Y-2388616D01*
X-1018692Y-2388616D01*
X-1010767Y-2389378D01*
X-1004925Y-2391714D01*
X-1001369Y-2395931D01*
X-1000150Y-2402332D01*
X-1001369Y-2408834D01*
X-1004925Y-2413457D01*
X-1010767Y-2416200D01*
X-1018692Y-2417114D01*
X-1031646Y-2417114D01*
X-1031646Y-2388616D01*
X-1040028Y-2388616D01*
X-1040028Y-2456230D01*
X-1031646Y-2456230D01*
X-1031646Y-2423972D01*
X-1017676Y-2423972D01*
X-999134Y-2456230D01*
X-989736Y-2456230D01*
X-1009040Y-2423160D01*
X-1001826Y-2420620D01*
X-996391Y-2416302D01*
X-992936Y-2410206D01*
X-991768Y-2402332D01*
X-992225Y-2397099D01*
X-993648Y-2392730D01*
X-995883Y-2389174D01*
X-998880Y-2386330D01*
X-1002588Y-2384298D01*
X-1006957Y-2382875D01*
X-1011936Y-2382062D01*
X-1017422Y-2381758D01*
G37*
G36*
X3244850Y-732993D02*
G01*
X3244850Y-739851D01*
X3266186Y-739851D01*
X3274110Y-740562D01*
X3279952Y-742899D01*
X3283508Y-747166D01*
X3284728Y-753567D01*
X3283508Y-760171D01*
X3279952Y-764743D01*
X3274110Y-767435D01*
X3266186Y-768299D01*
X3253232Y-768299D01*
X3253232Y-739851D01*
X3244850Y-739851D01*
X3244850Y-807415D01*
X3253232Y-807415D01*
X3253232Y-775411D01*
X3267202Y-775411D01*
X3285744Y-807415D01*
X3295142Y-807415D01*
X3275838Y-774395D01*
X3283051Y-771855D01*
X3288487Y-767537D01*
X3291890Y-761441D01*
X3293110Y-753567D01*
X3292652Y-748334D01*
X3291230Y-743966D01*
X3288995Y-740359D01*
X3285998Y-737565D01*
X3282289Y-735482D01*
X3277920Y-734060D01*
X3272942Y-733247D01*
X3267456Y-732993D01*
G37*
G36*
X3177032Y-732993D02*
G01*
X3200908Y-807415D01*
X3210560Y-807415D01*
X3234182Y-732993D01*
X3225800Y-732993D01*
X3205988Y-798779D01*
X3205734Y-798779D01*
X3201873Y-786485D01*
X3198368Y-774141D01*
X3185922Y-732993D01*
G37*
G36*
X-334721Y-297789D02*
G01*
X-340664Y-298399D01*
X-345998Y-300177D01*
X-350774Y-302920D01*
X-355041Y-306425D01*
X-350469Y-311759D01*
X-347167Y-308762D01*
X-343458Y-306425D01*
X-339394Y-304901D01*
X-334975Y-304393D01*
X-329488Y-305308D01*
X-325424Y-307797D01*
X-322884Y-311658D01*
X-322021Y-316585D01*
X-323088Y-322427D01*
X-326593Y-327101D01*
X-333044Y-330200D01*
X-342849Y-331317D01*
X-342849Y-337921D01*
X-331876Y-338988D01*
X-324561Y-342087D01*
X-320446Y-346913D01*
X-319227Y-353161D01*
X-320395Y-359308D01*
X-323596Y-363931D01*
X-328523Y-366877D01*
X-334721Y-367893D01*
X-340766Y-367131D01*
X-345795Y-365201D01*
X-350012Y-362407D01*
X-353517Y-359257D01*
X-357835Y-364591D01*
X-353720Y-368300D01*
X-348589Y-371551D01*
X-342138Y-373888D01*
X-334213Y-374751D01*
X-329488Y-374396D01*
X-325069Y-373278D01*
X-321106Y-371551D01*
X-317652Y-369163D01*
X-314807Y-366115D01*
X-312674Y-362508D01*
X-311302Y-358343D01*
X-310845Y-353669D01*
X-312064Y-346557D01*
X-315468Y-340969D01*
X-320598Y-336956D01*
X-326847Y-334619D01*
X-326847Y-334111D01*
X-321411Y-331368D01*
X-317144Y-327456D01*
X-314350Y-322326D01*
X-313385Y-316077D01*
X-314960Y-308254D01*
X-319481Y-302564D01*
X-326237Y-299008D01*
G37*
G36*
X-414223Y-299059D02*
G01*
X-414223Y-305917D01*
X-392887Y-305917D01*
X-384911Y-306628D01*
X-379120Y-308965D01*
X-375564Y-313182D01*
X-374345Y-319633D01*
X-375564Y-326085D01*
X-379120Y-330708D01*
X-384911Y-333451D01*
X-392887Y-334365D01*
X-405841Y-334365D01*
X-405841Y-305917D01*
X-414223Y-305917D01*
X-414223Y-373481D01*
X-405841Y-373481D01*
X-405841Y-341223D01*
X-391871Y-341223D01*
X-373329Y-373481D01*
X-363931Y-373481D01*
X-382981Y-340461D01*
X-375869Y-337870D01*
X-370433Y-333552D01*
X-366928Y-327507D01*
X-365709Y-319633D01*
X-366166Y-314350D01*
X-367588Y-309981D01*
X-369874Y-306425D01*
X-372922Y-303631D01*
X-376682Y-301548D01*
X-381101Y-300126D01*
X-386130Y-299313D01*
X-391617Y-299059D01*
G37*
G36*
X-960678Y-1111300D02*
G01*
X-969873Y-1112723D01*
X-977188Y-1116736D01*
X-982014Y-1122883D01*
X-983792Y-1130604D01*
X-982370Y-1137767D01*
X-978712Y-1143050D01*
X-973836Y-1146911D01*
X-968552Y-1149654D01*
X-952906Y-1156766D01*
X-948842Y-1159408D01*
X-946150Y-1163066D01*
X-945184Y-1168196D01*
X-946302Y-1173378D01*
X-949502Y-1177391D01*
X-954582Y-1179982D01*
X-961440Y-1180896D01*
X-967232Y-1180236D01*
X-972819Y-1178356D01*
X-977849Y-1175410D01*
X-982268Y-1171498D01*
X-987348Y-1177340D01*
X-982116Y-1181811D01*
X-976020Y-1185265D01*
X-969111Y-1187450D01*
X-961440Y-1188262D01*
X-956005Y-1187856D01*
X-951128Y-1186637D01*
X-946861Y-1184757D01*
X-943254Y-1182217D01*
X-940409Y-1179169D01*
X-938276Y-1175613D01*
X-937006Y-1171651D01*
X-936548Y-1167434D01*
X-937768Y-1160272D01*
X-941069Y-1154836D01*
X-945946Y-1150772D01*
X-952042Y-1147622D01*
X-967130Y-1141018D01*
X-971092Y-1138478D01*
X-974039Y-1134973D01*
X-975156Y-1130096D01*
X-974090Y-1125321D01*
X-971143Y-1121714D01*
X-966571Y-1119428D01*
X-960678Y-1118666D01*
X-955649Y-1119174D01*
X-951230Y-1120597D01*
X-947216Y-1122832D01*
X-943660Y-1125778D01*
X-939088Y-1120444D01*
X-943356Y-1116736D01*
X-948436Y-1113840D01*
X-954278Y-1111961D01*
G37*
G36*
X-930960Y-1112570D02*
G01*
X-930960Y-1119682D01*
X-908354Y-1119682D01*
X-908354Y-1186992D01*
X-899972Y-1186992D01*
X-899972Y-1119682D01*
X-877112Y-1119682D01*
X-877112Y-1112570D01*
G37*
G36*
X-1043990Y-1112570D02*
G01*
X-1043990Y-1119428D01*
X-1022654Y-1119428D01*
X-1014730Y-1120140D01*
X-1008887Y-1122476D01*
X-1005332Y-1126693D01*
X-1004112Y-1133144D01*
X-1005332Y-1139698D01*
X-1008887Y-1144320D01*
X-1014730Y-1147013D01*
X-1022654Y-1147876D01*
X-1035608Y-1147876D01*
X-1035608Y-1119428D01*
X-1043990Y-1119428D01*
X-1043990Y-1186992D01*
X-1035608Y-1186992D01*
X-1035608Y-1154988D01*
X-1021638Y-1154988D01*
X-1003096Y-1186992D01*
X-993698Y-1186992D01*
X-1012748Y-1153972D01*
X-1005636Y-1151382D01*
X-1000201Y-1147064D01*
X-996696Y-1141018D01*
X-995476Y-1133144D01*
X-995934Y-1127861D01*
X-997356Y-1123492D01*
X-999642Y-1119936D01*
X-1002690Y-1117142D01*
X-1006500Y-1115060D01*
X-1010919Y-1113637D01*
X-1015898Y-1112824D01*
X-1021384Y-1112570D01*
G37*
G36*
X3543554Y-3194659D02*
G01*
X3534562Y-3195066D01*
X3526790Y-3196234D01*
X3520236Y-3198114D01*
X3514902Y-3200704D01*
X3510737Y-3203956D01*
X3507790Y-3207816D01*
X3506063Y-3212287D01*
X3505454Y-3217265D01*
X3512058Y-3217265D01*
X3512565Y-3214065D01*
X3513937Y-3211220D01*
X3516325Y-3208680D01*
X3519728Y-3206546D01*
X3524097Y-3204870D01*
X3529533Y-3203600D01*
X3536035Y-3202787D01*
X3543554Y-3202533D01*
X3551377Y-3202787D01*
X3558032Y-3203600D01*
X3563620Y-3204870D01*
X3568090Y-3206546D01*
X3571494Y-3208680D01*
X3573932Y-3211220D01*
X3575354Y-3214065D01*
X3575812Y-3217265D01*
X3575354Y-3220466D01*
X3573932Y-3223310D01*
X3571494Y-3225850D01*
X3568090Y-3227984D01*
X3563620Y-3229660D01*
X3558032Y-3230930D01*
X3551377Y-3231743D01*
X3543554Y-3231997D01*
X3536035Y-3231743D01*
X3529533Y-3230930D01*
X3524097Y-3229660D01*
X3519728Y-3227984D01*
X3516325Y-3225850D01*
X3513937Y-3223310D01*
X3512565Y-3220466D01*
X3512058Y-3217265D01*
X3505454Y-3217265D01*
X3506063Y-3222244D01*
X3507790Y-3226714D01*
X3510737Y-3230626D01*
X3514902Y-3233928D01*
X3520236Y-3236569D01*
X3526790Y-3238500D01*
X3534562Y-3239719D01*
X3543554Y-3240125D01*
X3552748Y-3239719D01*
X3560673Y-3238500D01*
X3567379Y-3236569D01*
X3572814Y-3233928D01*
X3577031Y-3230626D01*
X3580028Y-3226714D01*
X3581857Y-3222244D01*
X3582415Y-3217265D01*
X3581857Y-3212287D01*
X3580028Y-3207816D01*
X3577031Y-3203956D01*
X3572814Y-3200704D01*
X3567379Y-3198114D01*
X3560673Y-3196234D01*
X3552748Y-3195066D01*
G37*
G36*
X3574287Y-3251809D02*
G01*
X3574287Y-3267049D01*
X3506724Y-3267049D01*
X3506724Y-3273399D01*
X3508349Y-3276447D01*
X3509772Y-3279952D01*
X3510940Y-3283915D01*
X3511804Y-3288385D01*
X3517137Y-3288385D01*
X3517137Y-3275177D01*
X3574287Y-3275177D01*
X3574287Y-3291941D01*
X3581146Y-3291941D01*
X3581146Y-3251809D01*
G37*
G36*
X3571748Y-3304641D02*
G01*
X3566414Y-3309467D01*
X3570122Y-3313226D01*
X3572865Y-3317290D01*
X3574491Y-3321812D01*
X3575050Y-3326993D01*
X3574491Y-3332175D01*
X3572865Y-3336798D01*
X3570224Y-3340811D01*
X3566566Y-3344214D01*
X3562096Y-3346958D01*
X3556762Y-3348939D01*
X3550615Y-3350209D01*
X3543808Y-3350615D01*
X3537000Y-3350158D01*
X3530955Y-3348939D01*
X3525621Y-3346856D01*
X3521201Y-3344113D01*
X3517595Y-3340658D01*
X3515004Y-3336594D01*
X3513378Y-3331921D01*
X3512820Y-3326739D01*
X3513328Y-3322065D01*
X3514750Y-3317951D01*
X3517036Y-3314344D01*
X3519932Y-3311245D01*
X3514598Y-3306419D01*
X3511143Y-3310128D01*
X3508248Y-3314750D01*
X3506215Y-3320287D01*
X3505454Y-3326739D01*
X3506165Y-3333546D01*
X3508146Y-3339744D01*
X3511397Y-3345281D01*
X3515817Y-3350056D01*
X3521354Y-3353917D01*
X3527958Y-3356813D01*
X3535578Y-3358642D01*
X3544062Y-3359251D01*
X3552596Y-3358642D01*
X3560165Y-3356864D01*
X3566718Y-3354019D01*
X3572205Y-3350209D01*
X3576574Y-3345535D01*
X3579774Y-3340049D01*
X3581755Y-3333953D01*
X3582415Y-3327247D01*
X3581704Y-3320440D01*
X3579672Y-3314496D01*
X3576320Y-3309264D01*
G37*
G36*
X3569157Y-2157882D02*
G01*
X3569208Y-2182215D01*
X3569563Y-2188464D01*
X3569919Y-2191410D01*
X3563518Y-2184958D01*
X3557320Y-2179116D01*
X3551224Y-2174036D01*
X3545281Y-2169668D01*
X3539439Y-2166162D01*
X3533698Y-2163622D01*
X3528060Y-2161997D01*
X3522421Y-2161438D01*
X3517696Y-2161844D01*
X3513429Y-2162911D01*
X3509670Y-2164740D01*
X3506520Y-2167178D01*
X3503980Y-2170226D01*
X3502101Y-2173884D01*
X3500932Y-2178100D01*
X3500577Y-2182774D01*
X3501339Y-2189327D01*
X3503523Y-2194915D01*
X3506978Y-2199843D01*
X3511499Y-2204364D01*
X3516071Y-2199538D01*
X3512667Y-2196134D01*
X3509924Y-2192324D01*
X3508095Y-2188210D01*
X3507435Y-2183790D01*
X3508603Y-2177491D01*
X3511804Y-2173071D01*
X3516629Y-2170430D01*
X3522675Y-2169566D01*
X3527602Y-2170074D01*
X3532835Y-2171598D01*
X3538270Y-2174189D01*
X3544112Y-2177846D01*
X3550259Y-2182622D01*
X3556863Y-2188565D01*
X3563874Y-2195626D01*
X3571443Y-2203856D01*
X3576269Y-2203856D01*
X3576269Y-2157882D01*
G37*
G36*
X3566871Y-2212238D02*
G01*
X3561791Y-2217064D01*
X3565347Y-2220823D01*
X3567988Y-2224887D01*
X3569614Y-2229459D01*
X3570173Y-2234590D01*
X3569614Y-2239772D01*
X3567988Y-2244394D01*
X3565347Y-2248458D01*
X3561791Y-2251862D01*
X3557270Y-2254554D01*
X3551936Y-2256586D01*
X3545789Y-2257806D01*
X3538931Y-2258212D01*
X3532124Y-2257806D01*
X3526028Y-2256536D01*
X3520744Y-2254504D01*
X3516274Y-2251710D01*
X3512718Y-2248255D01*
X3510076Y-2244191D01*
X3508451Y-2239518D01*
X3507943Y-2234336D01*
X3508451Y-2229662D01*
X3509975Y-2225548D01*
X3512210Y-2221941D01*
X3515055Y-2218842D01*
X3509721Y-2214016D01*
X3506215Y-2217724D01*
X3503320Y-2222398D01*
X3501288Y-2227935D01*
X3500577Y-2234336D01*
X3501237Y-2241143D01*
X3503218Y-2247341D01*
X3506470Y-2252878D01*
X3510889Y-2257653D01*
X3516477Y-2261514D01*
X3523081Y-2264410D01*
X3530650Y-2266238D01*
X3539185Y-2266848D01*
X3547719Y-2266238D01*
X3555339Y-2264460D01*
X3561892Y-2261616D01*
X3567379Y-2257806D01*
X3571748Y-2253132D01*
X3574897Y-2247696D01*
X3576878Y-2241550D01*
X3577539Y-2234844D01*
X3576828Y-2228088D01*
X3574745Y-2222144D01*
X3571392Y-2216912D01*
G37*
G36*
X3557066Y-2865678D02*
G01*
X3551326Y-2866136D01*
X3546398Y-2867406D01*
X3542334Y-2869438D01*
X3539083Y-2872130D01*
X3536594Y-2875432D01*
X3534816Y-2879191D01*
X3533800Y-2883306D01*
X3533444Y-2887776D01*
X3533648Y-2891129D01*
X3534206Y-2894076D01*
X3535172Y-2896819D01*
X3536492Y-2899460D01*
X3513886Y-2897428D01*
X3513886Y-2869234D01*
X3506774Y-2869234D01*
X3506774Y-2904794D01*
X3541318Y-2907080D01*
X3544112Y-2902508D01*
X3542284Y-2899410D01*
X3540912Y-2896412D01*
X3540099Y-2893314D01*
X3539794Y-2889808D01*
X3541014Y-2883204D01*
X3544468Y-2878175D01*
X3550005Y-2874924D01*
X3557320Y-2873806D01*
X3564890Y-2875127D01*
X3570681Y-2878734D01*
X3574338Y-2883966D01*
X3575608Y-2890316D01*
X3574897Y-2896362D01*
X3573068Y-2901289D01*
X3570376Y-2905353D01*
X3567226Y-2908858D01*
X3572560Y-2912922D01*
X3576269Y-2908858D01*
X3579418Y-2903778D01*
X3581654Y-2897428D01*
X3582466Y-2889554D01*
X3582060Y-2885033D01*
X3580790Y-2880664D01*
X3578707Y-2876651D01*
X3575862Y-2873044D01*
X3572256Y-2869996D01*
X3567887Y-2867660D01*
X3562858Y-2866186D01*
G37*
G36*
X3571798Y-2919526D02*
G01*
X3566464Y-2924352D01*
X3570173Y-2928112D01*
X3572865Y-2932226D01*
X3574542Y-2936798D01*
X3575100Y-2941878D01*
X3574542Y-2947111D01*
X3572916Y-2951835D01*
X3570274Y-2955899D01*
X3566617Y-2959303D01*
X3562146Y-2962097D01*
X3556812Y-2964078D01*
X3550665Y-2965297D01*
X3543858Y-2965754D01*
X3537051Y-2965297D01*
X3531006Y-2964027D01*
X3525672Y-2961944D01*
X3521252Y-2959100D01*
X3517646Y-2955594D01*
X3515055Y-2951480D01*
X3513429Y-2946806D01*
X3512870Y-2941624D01*
X3513378Y-2936951D01*
X3514801Y-2932836D01*
X3517087Y-2929229D01*
X3519982Y-2926130D01*
X3514648Y-2921558D01*
X3511194Y-2925165D01*
X3508298Y-2929788D01*
X3506266Y-2935274D01*
X3505504Y-2941624D01*
X3506215Y-2948432D01*
X3508197Y-2954680D01*
X3511448Y-2960217D01*
X3515868Y-2965043D01*
X3521405Y-2968955D01*
X3528009Y-2971901D01*
X3535629Y-2973730D01*
X3544112Y-2974390D01*
X3552647Y-2973730D01*
X3560165Y-2971952D01*
X3566769Y-2969056D01*
X3572256Y-2965246D01*
X3576624Y-2960522D01*
X3579825Y-2955086D01*
X3581806Y-2948990D01*
X3582466Y-2942386D01*
X3581755Y-2935528D01*
X3579723Y-2929534D01*
X3576370Y-2924200D01*
G37*
G36*
X3553764Y-3897629D02*
G01*
X3553764Y-3907790D01*
X3506774Y-3907790D01*
X3506774Y-3914901D01*
X3516426Y-3914901D01*
X3523132Y-3915460D01*
X3529634Y-3915664D01*
X3553764Y-3915664D01*
X3553764Y-3939286D01*
X3527348Y-3921506D01*
X3516426Y-3915410D01*
X3516426Y-3914901D01*
X3506774Y-3914901D01*
X3506774Y-3916679D01*
X3555034Y-3948176D01*
X3560368Y-3948176D01*
X3560368Y-3915664D01*
X3581196Y-3915664D01*
X3581196Y-3907790D01*
X3560368Y-3907790D01*
X3560368Y-3897629D01*
G37*
G36*
X3574338Y-3956812D02*
G01*
X3574338Y-3972051D01*
X3506774Y-3972051D01*
X3506774Y-3978401D01*
X3508400Y-3981450D01*
X3509772Y-3984955D01*
X3510940Y-3988917D01*
X3511854Y-3993387D01*
X3517188Y-3993387D01*
X3517188Y-3980179D01*
X3574338Y-3980179D01*
X3574338Y-3996944D01*
X3581196Y-3996944D01*
X3581196Y-3956812D01*
G37*
G36*
X3571798Y-4009644D02*
G01*
X3566464Y-4014470D01*
X3570173Y-4018178D01*
X3572865Y-4022293D01*
X3574542Y-4026814D01*
X3575100Y-4031996D01*
X3574542Y-4037177D01*
X3572916Y-4041800D01*
X3570224Y-4045813D01*
X3566617Y-4049217D01*
X3562096Y-4051960D01*
X3556762Y-4053941D01*
X3550665Y-4055211D01*
X3543858Y-4055618D01*
X3537051Y-4055160D01*
X3530955Y-4053941D01*
X3525672Y-4051858D01*
X3521201Y-4049115D01*
X3517646Y-4045661D01*
X3515055Y-4041597D01*
X3513429Y-4036923D01*
X3512870Y-4031742D01*
X3513378Y-4027068D01*
X3514801Y-4022953D01*
X3517036Y-4019346D01*
X3519982Y-4016248D01*
X3514648Y-4011422D01*
X3511194Y-4015130D01*
X3508248Y-4019753D01*
X3506266Y-4025290D01*
X3505504Y-4031742D01*
X3506165Y-4038549D01*
X3508197Y-4044746D01*
X3511397Y-4050284D01*
X3515868Y-4055059D01*
X3521405Y-4058920D01*
X3528009Y-4061815D01*
X3535578Y-4063644D01*
X3544112Y-4064254D01*
X3552596Y-4063644D01*
X3560165Y-4061866D01*
X3566718Y-4059021D01*
X3572256Y-4055211D01*
X3576624Y-4050537D01*
X3579825Y-4045051D01*
X3581806Y-4038955D01*
X3582466Y-4032250D01*
X3581755Y-4025442D01*
X3579723Y-4019499D01*
X3576370Y-4014266D01*
G37*
G36*
X3551428Y-1803400D02*
G01*
X3551428Y-1813560D01*
X3504437Y-1813560D01*
X3504437Y-1820672D01*
X3514090Y-1820672D01*
X3527298Y-1821434D01*
X3551428Y-1821434D01*
X3551428Y-1845056D01*
X3524758Y-1827022D01*
X3514090Y-1821180D01*
X3514090Y-1820672D01*
X3504437Y-1820672D01*
X3504437Y-1822450D01*
X3552698Y-1853946D01*
X3558032Y-1853946D01*
X3558032Y-1821434D01*
X3578860Y-1821434D01*
X3578860Y-1813560D01*
X3558032Y-1813560D01*
X3558032Y-1803400D01*
G37*
G36*
X3569462Y-1859534D02*
G01*
X3564128Y-1864360D01*
X3567836Y-1868119D01*
X3570528Y-1872234D01*
X3572205Y-1876806D01*
X3572764Y-1881886D01*
X3572205Y-1887118D01*
X3570528Y-1891842D01*
X3567887Y-1895906D01*
X3564280Y-1899361D01*
X3559759Y-1902104D01*
X3554425Y-1904085D01*
X3548329Y-1905304D01*
X3541522Y-1905762D01*
X3534613Y-1905304D01*
X3528517Y-1904034D01*
X3523234Y-1901952D01*
X3518763Y-1899107D01*
X3515207Y-1895602D01*
X3512667Y-1891487D01*
X3511042Y-1886813D01*
X3510534Y-1881632D01*
X3511042Y-1876958D01*
X3512464Y-1872843D01*
X3514699Y-1869236D01*
X3517646Y-1866138D01*
X3512058Y-1861566D01*
X3508705Y-1865172D01*
X3505860Y-1869795D01*
X3503879Y-1875332D01*
X3503168Y-1881632D01*
X3503828Y-1888439D01*
X3505809Y-1894687D01*
X3509010Y-1900224D01*
X3513378Y-1905050D01*
X3518865Y-1908962D01*
X3525418Y-1911908D01*
X3532987Y-1913737D01*
X3541522Y-1914398D01*
X3550107Y-1913737D01*
X3557727Y-1911959D01*
X3564331Y-1909064D01*
X3569868Y-1905254D01*
X3574237Y-1900529D01*
X3577488Y-1895093D01*
X3579418Y-1888998D01*
X3580129Y-1882393D01*
X3579418Y-1875586D01*
X3577336Y-1869541D01*
X3573983Y-1864207D01*
G37*
G36*
X-950874Y115620D02*
G01*
X-955040Y115214D01*
X-958951Y113893D01*
X-962507Y111810D01*
X-965555Y109016D01*
X-968146Y105562D01*
X-970076Y101498D01*
X-971296Y96875D01*
X-971702Y91744D01*
X-963828Y91744D01*
X-962863Y98755D01*
X-960119Y104190D01*
X-956005Y107746D01*
X-950874Y109016D01*
X-944067Y107442D01*
X-938987Y102768D01*
X-935634Y95097D01*
X-934110Y84632D01*
X-937920Y80060D01*
X-942035Y76911D01*
X-946150Y75082D01*
X-950112Y74472D01*
X-956106Y75742D01*
X-960374Y79197D01*
X-962964Y84683D01*
X-963828Y91744D01*
X-971702Y91744D01*
X-971346Y86309D01*
X-970280Y81584D01*
X-968552Y77571D01*
X-966216Y74269D01*
X-963269Y71678D01*
X-959815Y69850D01*
X-955852Y68783D01*
X-951382Y68376D01*
X-946658Y69037D01*
X-942035Y70916D01*
X-937717Y73863D01*
X-933856Y77774D01*
X-934516Y69494D01*
X-935786Y62585D01*
X-937666Y56997D01*
X-940053Y52628D01*
X-942898Y49377D01*
X-946048Y47193D01*
X-949502Y45923D01*
X-953160Y45516D01*
X-956716Y45923D01*
X-960069Y47040D01*
X-963066Y48869D01*
X-965606Y51358D01*
X-970432Y46024D01*
X-967079Y43078D01*
X-963117Y40741D01*
X-958392Y39217D01*
X-952906Y38658D01*
X-947724Y39217D01*
X-942848Y40944D01*
X-938326Y43891D01*
X-934313Y48209D01*
X-931011Y53949D01*
X-928420Y61163D01*
X-926795Y70053D01*
X-926236Y80568D01*
X-926693Y88798D01*
X-928065Y95910D01*
X-930198Y101955D01*
X-933145Y106883D01*
X-936701Y110693D01*
X-940917Y113436D01*
X-945642Y115112D01*
G37*
G36*
X-1029614Y114350D02*
G01*
X-1029614Y107492D01*
X-1008278Y107492D01*
X-1000353Y106781D01*
X-994511Y104444D01*
X-990955Y100228D01*
X-989736Y93776D01*
X-990955Y87223D01*
X-994511Y82600D01*
X-1000353Y79908D01*
X-1008278Y79044D01*
X-1021232Y79044D01*
X-1021232Y107492D01*
X-1029614Y107492D01*
X-1029614Y39928D01*
X-1021232Y39928D01*
X-1021232Y71932D01*
X-1007262Y71932D01*
X-988720Y39928D01*
X-979322Y39928D01*
X-998372Y72948D01*
X-991260Y75539D01*
X-985824Y79857D01*
X-982319Y85953D01*
X-981100Y93776D01*
X-981608Y99060D01*
X-982980Y103428D01*
X-985266Y106984D01*
X-988364Y109778D01*
X-992124Y111861D01*
X-996543Y113283D01*
X-1001521Y114096D01*
X-1007008Y114350D01*
G37*
G36*
X3540506Y-3565093D02*
G01*
X3532276Y-3565601D01*
X3525164Y-3566972D01*
X3519170Y-3569157D01*
X3514242Y-3572103D01*
X3510381Y-3575710D01*
X3507638Y-3579876D01*
X3506012Y-3584600D01*
X3505454Y-3589731D01*
X3512058Y-3589731D01*
X3513683Y-3582974D01*
X3518357Y-3577945D01*
X3525977Y-3574592D01*
X3536442Y-3572967D01*
X3541014Y-3576929D01*
X3544214Y-3580993D01*
X3546043Y-3585057D01*
X3546601Y-3588969D01*
X3545382Y-3595115D01*
X3541877Y-3599383D01*
X3536442Y-3601872D01*
X3529329Y-3602685D01*
X3522370Y-3601720D01*
X3516884Y-3598976D01*
X3513328Y-3594862D01*
X3512058Y-3589731D01*
X3505454Y-3589731D01*
X3505911Y-3593947D01*
X3507181Y-3597808D01*
X3509264Y-3601364D01*
X3512058Y-3604463D01*
X3515512Y-3607003D01*
X3519627Y-3608933D01*
X3524250Y-3610152D01*
X3529329Y-3610559D01*
X3534765Y-3610203D01*
X3539540Y-3609136D01*
X3543554Y-3607409D01*
X3546856Y-3605072D01*
X3549396Y-3602177D01*
X3551224Y-3598672D01*
X3552342Y-3594709D01*
X3552698Y-3590239D01*
X3552037Y-3585514D01*
X3550208Y-3580942D01*
X3547262Y-3576726D01*
X3543300Y-3572967D01*
X3551631Y-3573526D01*
X3558540Y-3574796D01*
X3564128Y-3576624D01*
X3568496Y-3578961D01*
X3571697Y-3581806D01*
X3573932Y-3584956D01*
X3575151Y-3588410D01*
X3575558Y-3592017D01*
X3575202Y-3595573D01*
X3574084Y-3598926D01*
X3572256Y-3601923D01*
X3569715Y-3604463D01*
X3575050Y-3609289D01*
X3578047Y-3605936D01*
X3580384Y-3601974D01*
X3581857Y-3597249D01*
X3582415Y-3591763D01*
X3581857Y-3586683D01*
X3580180Y-3581806D01*
X3577183Y-3577336D01*
X3572916Y-3573322D01*
X3567176Y-3569919D01*
X3559911Y-3567328D01*
X3551072Y-3565702D01*
G37*
G36*
X3571748Y-3618941D02*
G01*
X3566414Y-3623767D01*
X3570122Y-3627526D01*
X3572814Y-3631590D01*
X3574491Y-3636162D01*
X3575050Y-3641293D01*
X3574491Y-3646474D01*
X3572865Y-3651097D01*
X3570173Y-3655161D01*
X3566566Y-3658565D01*
X3562096Y-3661257D01*
X3556711Y-3663289D01*
X3550615Y-3664508D01*
X3543808Y-3664915D01*
X3537000Y-3664508D01*
X3530955Y-3663238D01*
X3525621Y-3661206D01*
X3521201Y-3658412D01*
X3517595Y-3654958D01*
X3515004Y-3650894D01*
X3513378Y-3646220D01*
X3512820Y-3641039D01*
X3513328Y-3636365D01*
X3514750Y-3632250D01*
X3516985Y-3628644D01*
X3519932Y-3625545D01*
X3514598Y-3620719D01*
X3511143Y-3624427D01*
X3508248Y-3629101D01*
X3506215Y-3634638D01*
X3505454Y-3641039D01*
X3506165Y-3647846D01*
X3508146Y-3654044D01*
X3511397Y-3659581D01*
X3515817Y-3664356D01*
X3521354Y-3668217D01*
X3527958Y-3671112D01*
X3535578Y-3672941D01*
X3544062Y-3673551D01*
X3552596Y-3672941D01*
X3560114Y-3671163D01*
X3566718Y-3668318D01*
X3572205Y-3664508D01*
X3576574Y-3659835D01*
X3579774Y-3654399D01*
X3581755Y-3648252D01*
X3582415Y-3641547D01*
X3581704Y-3634790D01*
X3579672Y-3628847D01*
X3576320Y-3623614D01*
G37*
G36*
X3563416Y-2514041D02*
G01*
X3556609Y-2515108D01*
X3551275Y-2517902D01*
X3547110Y-2521966D01*
X3543858Y-2526741D01*
X3543350Y-2526741D01*
X3540251Y-2523337D01*
X3536086Y-2520035D01*
X3531006Y-2517546D01*
X3525316Y-2516581D01*
X3517442Y-2517952D01*
X3511296Y-2521966D01*
X3507232Y-2528366D01*
X3505758Y-2536901D01*
X3512108Y-2536901D01*
X3513175Y-2531364D01*
X3516122Y-2527300D01*
X3520490Y-2524810D01*
X3525824Y-2523947D01*
X3529990Y-2524455D01*
X3533952Y-2526030D01*
X3537661Y-2528570D01*
X3541064Y-2532075D01*
X3538423Y-2538425D01*
X3536081Y-2542235D01*
X3544620Y-2542235D01*
X3547872Y-2534564D01*
X3551631Y-2528062D01*
X3556508Y-2523591D01*
X3563162Y-2521915D01*
X3568446Y-2522982D01*
X3572662Y-2526080D01*
X3575405Y-2530805D01*
X3576370Y-2536901D01*
X3575304Y-2543403D01*
X3572306Y-2548534D01*
X3567836Y-2551938D01*
X3562146Y-2553157D01*
X3556914Y-2552344D01*
X3552190Y-2550058D01*
X3548075Y-2546604D01*
X3544620Y-2542235D01*
X3536081Y-2542235D01*
X3535019Y-2543962D01*
X3530549Y-2547874D01*
X3524554Y-2549347D01*
X3519525Y-2548382D01*
X3515614Y-2545791D01*
X3513023Y-2541828D01*
X3512108Y-2536901D01*
X3505758Y-2536901D01*
X3507130Y-2544876D01*
X3510991Y-2551226D01*
X3516934Y-2555443D01*
X3524554Y-2556967D01*
X3530041Y-2556154D01*
X3534714Y-2553868D01*
X3538524Y-2550668D01*
X3541572Y-2546807D01*
X3542080Y-2546807D01*
X3545433Y-2551836D01*
X3550005Y-2556256D01*
X3555796Y-2559354D01*
X3562654Y-2560523D01*
X3570579Y-2558745D01*
X3576878Y-2553868D01*
X3580993Y-2546502D01*
X3582466Y-2537155D01*
X3580993Y-2527757D01*
X3576980Y-2520442D01*
X3570935Y-2515717D01*
G37*
G36*
X3571798Y-2568905D02*
G01*
X3566464Y-2573731D01*
X3570173Y-2577490D01*
X3572916Y-2581554D01*
X3574542Y-2586075D01*
X3575100Y-2591257D01*
X3574542Y-2596438D01*
X3572916Y-2601061D01*
X3570274Y-2605074D01*
X3566668Y-2608478D01*
X3562146Y-2611221D01*
X3556812Y-2613202D01*
X3550665Y-2614472D01*
X3543858Y-2614879D01*
X3537102Y-2614422D01*
X3531006Y-2613202D01*
X3525723Y-2611120D01*
X3521252Y-2608376D01*
X3517696Y-2604922D01*
X3515055Y-2600858D01*
X3513429Y-2596184D01*
X3512870Y-2591003D01*
X3513378Y-2586329D01*
X3514851Y-2582214D01*
X3517087Y-2578608D01*
X3519982Y-2575509D01*
X3514648Y-2570683D01*
X3511194Y-2574391D01*
X3508298Y-2579014D01*
X3506266Y-2584602D01*
X3505504Y-2591003D01*
X3506215Y-2597810D01*
X3508197Y-2604008D01*
X3511448Y-2609545D01*
X3515868Y-2614320D01*
X3521405Y-2618181D01*
X3528009Y-2621076D01*
X3535629Y-2622905D01*
X3544112Y-2623515D01*
X3552647Y-2622905D01*
X3560216Y-2621127D01*
X3566769Y-2618282D01*
X3572256Y-2614472D01*
X3576624Y-2609799D01*
X3579876Y-2604312D01*
X3581806Y-2598216D01*
X3582466Y-2591511D01*
X3581806Y-2584704D01*
X3579723Y-2578760D01*
X3576370Y-2573528D01*
G37*
G36*
X-942898Y-294386D02*
G01*
X-948842Y-295046D01*
X-954176Y-296824D01*
X-958951Y-299567D01*
X-963218Y-303072D01*
X-958646Y-308356D01*
X-955344Y-305409D01*
X-951636Y-303072D01*
X-947572Y-301548D01*
X-943152Y-300990D01*
X-937717Y-301904D01*
X-933602Y-304444D01*
X-931062Y-308305D01*
X-930198Y-313182D01*
X-931265Y-319024D01*
X-934770Y-323697D01*
X-941222Y-326796D01*
X-951026Y-327964D01*
X-951026Y-334518D01*
X-940053Y-335635D01*
X-932738Y-338734D01*
X-928674Y-343560D01*
X-927404Y-349758D01*
X-928573Y-355955D01*
X-931824Y-360578D01*
X-936701Y-363474D01*
X-942898Y-364490D01*
X-948994Y-363778D01*
X-954024Y-361797D01*
X-958189Y-359054D01*
X-961694Y-355854D01*
X-966012Y-361238D01*
X-961898Y-364947D01*
X-956767Y-368198D01*
X-950315Y-370484D01*
X-942390Y-371348D01*
X-937666Y-370992D01*
X-933246Y-369925D01*
X-929284Y-368198D01*
X-925830Y-365760D01*
X-922985Y-362762D01*
X-920851Y-359156D01*
X-919480Y-354990D01*
X-919022Y-350266D01*
X-920242Y-343204D01*
X-923696Y-337616D01*
X-928776Y-333603D01*
X-935024Y-331216D01*
X-935024Y-330708D01*
X-929589Y-328015D01*
X-925321Y-324104D01*
X-922528Y-318973D01*
X-921562Y-312674D01*
X-923188Y-304901D01*
X-927658Y-299161D01*
X-934415Y-295605D01*
G37*
G36*
X-1050594Y-294386D02*
G01*
X-1057402Y-295097D01*
X-1063650Y-297027D01*
X-1069238Y-300228D01*
X-1074013Y-304647D01*
X-1077925Y-310134D01*
X-1080871Y-316687D01*
X-1082700Y-324256D01*
X-1083360Y-332740D01*
X-1082751Y-341376D01*
X-1080922Y-348996D01*
X-1078026Y-355600D01*
X-1074216Y-361137D01*
X-1069492Y-365506D01*
X-1064056Y-368757D01*
X-1057960Y-370687D01*
X-1051356Y-371348D01*
X-1044549Y-370687D01*
X-1038504Y-368604D01*
X-1033271Y-365252D01*
X-1028750Y-360730D01*
X-1033322Y-355346D01*
X-1037082Y-359054D01*
X-1041196Y-361797D01*
X-1045768Y-363423D01*
X-1050848Y-363982D01*
X-1056081Y-363423D01*
X-1060805Y-361797D01*
X-1064869Y-359156D01*
X-1068324Y-355498D01*
X-1071067Y-350977D01*
X-1073048Y-345592D01*
X-1074318Y-339394D01*
X-1074724Y-332486D01*
X-1074267Y-325729D01*
X-1072997Y-319684D01*
X-1070914Y-314401D01*
X-1068070Y-309981D01*
X-1064564Y-306476D01*
X-1060450Y-303885D01*
X-1055776Y-302310D01*
X-1050594Y-301752D01*
X-1045921Y-302260D01*
X-1041806Y-303733D01*
X-1038199Y-305968D01*
X-1035100Y-308914D01*
X-1030528Y-303276D01*
X-1034237Y-299974D01*
X-1038860Y-297129D01*
X-1044295Y-295148D01*
G37*
G36*
X-997254Y-295656D02*
G01*
X-1000302Y-297281D01*
X-1003808Y-298602D01*
X-1007770Y-299770D01*
X-1012240Y-300736D01*
X-1012240Y-306070D01*
X-999286Y-306070D01*
X-999286Y-362966D01*
X-1015796Y-362966D01*
X-1015796Y-370078D01*
X-975918Y-370078D01*
X-975918Y-362966D01*
X-990904Y-362966D01*
X-990904Y-295656D01*
G37*
G36*
X2917799Y-540512D02*
G01*
X2911805Y-541172D01*
X2906420Y-543052D01*
X2901594Y-545846D01*
X2897225Y-549402D01*
X2901797Y-554736D01*
X2905201Y-551738D01*
X2908960Y-549402D01*
X2913075Y-547878D01*
X2917545Y-547370D01*
X2922981Y-548233D01*
X2927045Y-550672D01*
X2929585Y-554532D01*
X2930499Y-559562D01*
X2929382Y-565353D01*
X2925876Y-570026D01*
X2919425Y-573125D01*
X2909620Y-574294D01*
X2909620Y-580898D01*
X2920644Y-581964D01*
X2927959Y-585063D01*
X2932023Y-589889D01*
X2933293Y-596138D01*
X2932074Y-602132D01*
X2928823Y-606704D01*
X2923844Y-609600D01*
X2917545Y-610616D01*
X2911602Y-609904D01*
X2906623Y-607974D01*
X2902356Y-605231D01*
X2898749Y-601980D01*
X2894634Y-607314D01*
X2898648Y-611124D01*
X2903778Y-614375D01*
X2910179Y-616610D01*
X2918002Y-617474D01*
X2922828Y-617067D01*
X2927248Y-616000D01*
X2931210Y-614273D01*
X2934665Y-611886D01*
X2937510Y-608838D01*
X2939592Y-605231D01*
X2940913Y-601065D01*
X2941370Y-596392D01*
X2940151Y-589381D01*
X2936748Y-583793D01*
X2931769Y-579729D01*
X2925673Y-577342D01*
X2925673Y-577088D01*
X2931058Y-574344D01*
X2935224Y-570433D01*
X2937916Y-565302D01*
X2938881Y-559054D01*
X2937256Y-551180D01*
X2932887Y-545388D01*
X2926232Y-541731D01*
G37*
G36*
X2865729Y-540512D02*
G01*
X2858922Y-541172D01*
X2852674Y-543153D01*
X2847136Y-546404D01*
X2842412Y-550824D01*
X2838500Y-556412D01*
X2835605Y-563016D01*
X2833827Y-570585D01*
X2833217Y-579120D01*
X2833827Y-587654D01*
X2835605Y-595274D01*
X2838450Y-601827D01*
X2842260Y-607314D01*
X2846933Y-611682D01*
X2852369Y-614832D01*
X2858516Y-616813D01*
X2865170Y-617474D01*
X2871978Y-616762D01*
X2877921Y-614680D01*
X2883154Y-611327D01*
X2887827Y-606806D01*
X2883001Y-601726D01*
X2879242Y-605282D01*
X2875178Y-607872D01*
X2870606Y-609549D01*
X2865475Y-610108D01*
X2860294Y-609549D01*
X2855671Y-607923D01*
X2851607Y-605282D01*
X2848203Y-601726D01*
X2845460Y-597204D01*
X2843479Y-591870D01*
X2842260Y-585724D01*
X2841802Y-578866D01*
X2842260Y-572058D01*
X2843530Y-565962D01*
X2845562Y-560679D01*
X2848356Y-556209D01*
X2851810Y-552653D01*
X2855874Y-550011D01*
X2860497Y-548386D01*
X2865729Y-547878D01*
X2870352Y-548386D01*
X2874518Y-549910D01*
X2878074Y-552145D01*
X2881223Y-554990D01*
X2886049Y-549656D01*
X2882290Y-546150D01*
X2877667Y-543255D01*
X2872130Y-541223D01*
G37*
G36*
X-984808Y-2011375D02*
G01*
X-991616Y-2012035D01*
X-997813Y-2014067D01*
X-1003350Y-2017268D01*
X-1008126Y-2021738D01*
X-1011986Y-2027275D01*
X-1014882Y-2033879D01*
X-1016711Y-2041448D01*
X-1017320Y-2049983D01*
X-1016711Y-2058466D01*
X-1014933Y-2066036D01*
X-1012088Y-2072589D01*
X-1008278Y-2078126D01*
X-1003604Y-2082495D01*
X-998169Y-2085695D01*
X-992022Y-2087676D01*
X-985316Y-2088337D01*
X-978560Y-2087625D01*
X-972566Y-2085543D01*
X-967333Y-2082241D01*
X-962710Y-2077669D01*
X-967536Y-2072335D01*
X-971296Y-2076043D01*
X-975360Y-2078736D01*
X-979881Y-2080412D01*
X-985062Y-2080971D01*
X-990244Y-2080412D01*
X-994867Y-2078736D01*
X-998880Y-2076094D01*
X-1002284Y-2072487D01*
X-1005027Y-2067966D01*
X-1007059Y-2062632D01*
X-1008278Y-2056536D01*
X-1008684Y-2049729D01*
X-1008278Y-2042922D01*
X-1007008Y-2036825D01*
X-1004976Y-2031542D01*
X-1002182Y-2027072D01*
X-998728Y-2023516D01*
X-994664Y-2020874D01*
X-989990Y-2019300D01*
X-984808Y-2018741D01*
X-980135Y-2019249D01*
X-976020Y-2020671D01*
X-972413Y-2022906D01*
X-969314Y-2025853D01*
X-964488Y-2020519D01*
X-968197Y-2017064D01*
X-972819Y-2014118D01*
X-978408Y-2012137D01*
G37*
G36*
X-931468Y-2012645D02*
G01*
X-934516Y-2014270D01*
X-938021Y-2015642D01*
X-941984Y-2016810D01*
X-946454Y-2017725D01*
X-946454Y-2023059D01*
X-933246Y-2023059D01*
X-933246Y-2080209D01*
X-950010Y-2080209D01*
X-950010Y-2087067D01*
X-909878Y-2087067D01*
X-909878Y-2080209D01*
X-925118Y-2080209D01*
X-925118Y-2012645D01*
G37*
G36*
X-1010005Y770026D02*
G01*
X-1010005Y610006D01*
X-989990Y610006D01*
X-989990Y770026D01*
G37*
G36*
X-999998Y700024D02*
G01*
X-999998Y680008D01*
X-940003Y680008D01*
X-940003Y700024D01*
G37*
G36*
X322986Y-234746D02*
G01*
X322986Y-264261D01*
X353466Y-264261D01*
X353466Y-234746D01*
G37*
G36*
X322986Y-75742D02*
G01*
X322986Y-105257D01*
X353466Y-105257D01*
X353466Y-75742D01*
G37*
D34*
X-610003Y-1190002D02*
G01*
X-610003Y-1269997D01*
X-589998Y-1269997D01*
X-620001Y-960000D02*
G01*
X-620001Y-879998D01*
X-600001Y-879998D01*
X84729Y-1454612D02*
G01*
X62885Y-1454711D01*
X40015Y-2360010D02*
G01*
X40010Y-2340010D01*
X30076Y-2359985D02*
G01*
X24234Y-2348301D01*
X19911Y-2339919D01*
X50012Y-2360010D02*
G01*
X60015Y-2340010D01*
D10*
X-1234998Y-3514999D02*
G01*
X-1234998Y-3005000D01*
X-725002Y-3005002D02*
G01*
X-724999Y-3514999D01*
X-1234998Y-3514999D02*
G01*
X-1223124Y-3514999D01*
X-1106893Y-3514999D02*
G01*
X-853107Y-3514999D01*
X-736876Y-3514999D02*
G01*
X-724999Y-3514999D01*
X-1234998Y-3005000D02*
G01*
X-1223124Y-3005000D01*
X-1106893Y-3005000D02*
G01*
X-853107Y-3005000D01*
X-736876Y-3005000D02*
G01*
X-725002Y-3005000D01*
X-1180000Y-3360000D02*
G01*
X-1180000Y-3160001D01*
X-1180000Y-3160001D01*
X-1080000Y-3060001D01*
X-880000Y-3060001D01*
X-780000Y-3160001D01*
X-780000Y-3360000D01*
X-880000Y-3460000D01*
X-1080000Y-3460000D01*
X-1080000Y-3460000D01*
X-1180000Y-3360000D01*
X255381Y1012273D02*
G01*
X-3698Y1012273D01*
X-29098Y986873D01*
X-29098Y875113D01*
X-51958Y852253D01*
X-239918Y852253D01*
X-275478Y887813D01*
X-275478Y981793D01*
X-298338Y1004653D01*
X-523199Y1004653D01*
X-163718Y1136733D02*
G01*
X-163718Y1073233D01*
X-148478Y1057993D01*
X-102758Y1057993D01*
X-92598Y1047833D01*
X-92598Y964013D01*
X-102758Y953853D01*
X-138318Y953853D01*
X-158638Y933533D01*
X-158638Y925913D01*
X-158638Y852253D01*
X169359Y217253D02*
G01*
X110490Y217253D01*
X-374477Y217253D02*
G01*
X-429359Y217253D01*
X259262Y458878D02*
G01*
X259262Y651294D01*
X259262Y933884D02*
G01*
X259262Y1152253D01*
X-523199Y457939D02*
G01*
X-523199Y652233D01*
X-523199Y932944D02*
G01*
X-523199Y1152253D01*
X259262Y1152253D02*
G01*
X-523199Y1152253D01*
X-1069990Y570001D02*
G01*
X-1229987Y570001D01*
X-1069990Y810000D02*
G01*
X-1229987Y810000D01*
X-889988Y570001D02*
G01*
X-739988Y570001D01*
X-889988Y810000D02*
G01*
X-739988Y810000D01*
X-1229987Y570001D02*
G01*
X-1229987Y810000D01*
X-699990Y620001D02*
G01*
X-699988Y760001D01*
X-699990Y620001D02*
G01*
X-699990Y609998D01*
X-739988Y570001D01*
X-699988Y760001D02*
G01*
X-699988Y770001D01*
X-739988Y810000D01*
D35*
X330619Y-256618D02*
G01*
X49380Y-256618D01*
X49380Y-256618D02*
G01*
X49380Y-239819D01*
X330619Y-83380D02*
G01*
X49380Y-83380D01*
X49380Y-83380D02*
G01*
X49380Y-100180D01*
X294929Y-256618D02*
G01*
X294929Y-83380D01*
X-1055121Y-2502093D02*
G01*
X-1191112Y-2502093D01*
X-1191112Y-2717911D01*
X-1055121Y-2717911D01*
X-864880Y-2502093D02*
G01*
X-728888Y-2502093D01*
X-728888Y-2717911D01*
X-864880Y-2717911D01*
X2909879Y-1100361D02*
G01*
X3590122Y-1100361D01*
X3590122Y-1379639D01*
X2909879Y-1379639D01*
X2909879Y-1100361D01*
D10*
X-620003Y-29999D02*
G01*
X-620003Y-269999D01*
X-270004Y-269999D02*
G01*
X-120004Y-269999D01*
X-270004Y-29999D02*
G01*
X-120004Y-29999D01*
X-470004Y-269999D02*
G01*
X-620003Y-269999D01*
X-470004Y-29999D02*
G01*
X-620003Y-29999D01*
X-120004Y-29999D02*
G01*
X-120004Y-269999D01*
D36*
X-539094Y-3860500D02*
G01*
X-31094Y-3860500D01*
X-31094Y-812500D01*
X-539094Y-812500D01*
X-539094Y-3860500D01*
X2705021Y-814407D02*
G01*
X2197021Y-814407D01*
X2197021Y-3862407D01*
X2705021Y-3862407D01*
X2705021Y-814407D01*
D10*
X-1224998Y-1765000D02*
G01*
X-1224998Y-1255001D01*
X-715002Y-1255003D02*
G01*
X-714999Y-1765000D01*
X-1224998Y-1765000D02*
G01*
X-1213124Y-1765000D01*
X-1096893Y-1765000D02*
G01*
X-843107Y-1765000D01*
X-726876Y-1765000D02*
G01*
X-714999Y-1765000D01*
X-1224998Y-1255001D02*
G01*
X-1213124Y-1255001D01*
X-1096893Y-1255001D02*
G01*
X-843107Y-1255001D01*
X-726876Y-1255001D02*
G01*
X-715002Y-1255001D01*
X-1170000Y-1610001D02*
G01*
X-1170000Y-1410002D01*
X-1170000Y-1410002D01*
X-1070000Y-1310002D01*
X-870000Y-1310002D01*
X-770001Y-1410002D01*
X-770001Y-1610001D01*
X-870000Y-1710001D01*
X-1070000Y-1710001D01*
X-1070000Y-1710001D01*
X-1170000Y-1610001D01*
X2980006Y-3373330D02*
G01*
X2980006Y-3173331D01*
X3330008Y-3393330D02*
G01*
X3450008Y-3393330D01*
X3330008Y-3153331D02*
G01*
X3450008Y-3153331D01*
X3130006Y-3393330D02*
G01*
X3010009Y-3393330D01*
X3130006Y-3153331D02*
G01*
X3010009Y-3153331D01*
X3480008Y-3373330D02*
G01*
X3480008Y-3173331D01*
X3460008Y-3393330D02*
G01*
X3450008Y-3393330D01*
X3460008Y-3153331D02*
G01*
X3450008Y-3153331D01*
X3000006Y-3393330D02*
G01*
X3010009Y-3393330D01*
X3000006Y-3153331D02*
G01*
X3010009Y-3153331D01*
X2980006Y-2313332D02*
G01*
X2980006Y-2113333D01*
X3330008Y-2333332D02*
G01*
X3450008Y-2333332D01*
X3330008Y-2093333D02*
G01*
X3450008Y-2093333D01*
X3130006Y-2333332D02*
G01*
X3010009Y-2333332D01*
X3130006Y-2093333D02*
G01*
X3010009Y-2093333D01*
X3480008Y-2313332D02*
G01*
X3480008Y-2113333D01*
X3460008Y-2333332D02*
G01*
X3450008Y-2333332D01*
X3460008Y-2093333D02*
G01*
X3450008Y-2093333D01*
X3000006Y-2333332D02*
G01*
X3010009Y-2333332D01*
X3000006Y-2093333D02*
G01*
X3010009Y-2093333D01*
X2980006Y-3019996D02*
G01*
X2980006Y-2819996D01*
X3330008Y-3039996D02*
G01*
X3450008Y-3039996D01*
X3330008Y-2799996D02*
G01*
X3450008Y-2799996D01*
X3130006Y-3039996D02*
G01*
X3010009Y-3039996D01*
X3130006Y-2799996D02*
G01*
X3010009Y-2799996D01*
X3480008Y-3019996D02*
G01*
X3480008Y-2819996D01*
X3460008Y-3039996D02*
G01*
X3450008Y-3039996D01*
X3460008Y-2799996D02*
G01*
X3450008Y-2799996D01*
X3000006Y-3039996D02*
G01*
X3010009Y-3039996D01*
X3000006Y-2799996D02*
G01*
X3010009Y-2799996D01*
X2979999Y-4080001D02*
G01*
X2979999Y-3880002D01*
X3330000Y-4100001D02*
G01*
X3450000Y-4100001D01*
X3330000Y-3860002D02*
G01*
X3450000Y-3860002D01*
X3129998Y-4100001D02*
G01*
X3010001Y-4100001D01*
X3129998Y-3860002D02*
G01*
X3010001Y-3860002D01*
X3480000Y-4080001D02*
G01*
X3480000Y-3880002D01*
X3460000Y-4100001D02*
G01*
X3450000Y-4100001D01*
X3460000Y-3860002D02*
G01*
X3450000Y-3860002D01*
X2999999Y-4100001D02*
G01*
X3010001Y-4100001D01*
X2999999Y-3860002D02*
G01*
X3010001Y-3860002D01*
X3480000Y-1760001D02*
G01*
X3480000Y-1960001D01*
X3129998Y-1740001D02*
G01*
X3009999Y-1740001D01*
X3129998Y-1980001D02*
G01*
X3009999Y-1980001D01*
X3330000Y-1740001D02*
G01*
X3449998Y-1740001D01*
X3330000Y-1980001D02*
G01*
X3449998Y-1980001D01*
X2979999Y-1760001D02*
G01*
X2979999Y-1960001D01*
X2999999Y-1740001D02*
G01*
X3009999Y-1740001D01*
X2999999Y-1980001D02*
G01*
X3009999Y-1980001D01*
X3460000Y-1740001D02*
G01*
X3449998Y-1740001D01*
X3460000Y-1980001D02*
G01*
X3449998Y-1980001D01*
X-729995Y149999D02*
G01*
X-729995Y389999D01*
X-1079995Y389999D02*
G01*
X-1229994Y389999D01*
X-1079995Y149999D02*
G01*
X-1229994Y149999D01*
X-879995Y389999D02*
G01*
X-729995Y389999D01*
X-879995Y149999D02*
G01*
X-729995Y149999D01*
X-1229994Y149999D02*
G01*
X-1229994Y389999D01*
X2979999Y-3726667D02*
G01*
X2979999Y-3526668D01*
X3330000Y-3746667D02*
G01*
X3450000Y-3746667D01*
X3330000Y-3506668D02*
G01*
X3450000Y-3506668D01*
X3129998Y-3746667D02*
G01*
X3010001Y-3746667D01*
X3129998Y-3506668D02*
G01*
X3010001Y-3506668D01*
X3480000Y-3726667D02*
G01*
X3480000Y-3526668D01*
X3460000Y-3746667D02*
G01*
X3450000Y-3746667D01*
X3460000Y-3506668D02*
G01*
X3450000Y-3506668D01*
X2999999Y-3746667D02*
G01*
X3010001Y-3746667D01*
X2999999Y-3506668D02*
G01*
X3010001Y-3506668D01*
X2980006Y-2666664D02*
G01*
X2980006Y-2466665D01*
X3330008Y-2686664D02*
G01*
X3450008Y-2686664D01*
X3330008Y-2446665D02*
G01*
X3450008Y-2446665D01*
X3130006Y-2686664D02*
G01*
X3010009Y-2686664D01*
X3130006Y-2446665D02*
G01*
X3010009Y-2446665D01*
X3480008Y-2666664D02*
G01*
X3480008Y-2466665D01*
X3460008Y-2686664D02*
G01*
X3450008Y-2686664D01*
X3460008Y-2446665D02*
G01*
X3450008Y-2446665D01*
X3000006Y-2686664D02*
G01*
X3010009Y-2686664D01*
X3000006Y-2446665D02*
G01*
X3010009Y-2446665D01*
X1790222Y1260487D02*
G01*
X2041682Y1260487D01*
X2595402Y1158887D02*
G01*
X3288822Y1158887D01*
X3288822Y902347D01*
X1787682Y1263027D02*
G01*
X1787682Y902347D01*
X1787682Y640727D02*
G01*
X1787682Y-98412D01*
X1942622Y-238112D02*
G01*
X2252502Y-238112D01*
X3288822Y-78092D02*
G01*
X3288822Y640727D01*
X1979998Y-3920009D02*
G01*
X180002Y-3920009D01*
X180002Y-820016D01*
X1979998Y-820016D01*
X1979998Y-3920009D01*
X1979998Y-3920009D02*
G01*
X180002Y-3920009D01*
X180002Y-3290013D01*
X1979998Y-3290013D01*
X1979998Y-3920009D01*
X-1240002Y-239999D02*
G01*
X-1240002Y-39999D01*
X-890000Y-259999D02*
G01*
X-770001Y-259999D01*
X-890000Y-19999D02*
G01*
X-770001Y-19999D01*
X-1090002Y-259999D02*
G01*
X-1210000Y-259999D01*
X-1090002Y-19999D02*
G01*
X-1210000Y-19999D01*
X-740001Y-239999D02*
G01*
X-740001Y-39999D01*
X-760001Y-259999D02*
G01*
X-770001Y-259999D01*
X-760001Y-19999D02*
G01*
X-770001Y-19999D01*
X-1220002Y-259999D02*
G01*
X-1210000Y-259999D01*
X-1220002Y-19999D02*
G01*
X-1210000Y-19999D01*
X3480003Y-480001D02*
G01*
X3480003Y-680001D01*
X3130001Y-460001D02*
G01*
X3010001Y-460001D01*
X3130001Y-700001D02*
G01*
X3010001Y-700001D01*
X3330003Y-460001D02*
G01*
X3450000Y-460001D01*
X3330003Y-700001D02*
G01*
X3450000Y-700001D01*
X2980001Y-480001D02*
G01*
X2980001Y-680001D01*
X3000001Y-460001D02*
G01*
X3010001Y-460001D01*
X3000001Y-700001D02*
G01*
X3010001Y-700001D01*
X3460003Y-460001D02*
G01*
X3450000Y-460001D01*
X3460003Y-700001D02*
G01*
X3450000Y-700001D01*
X-1220002Y-2330000D02*
G01*
X-1220002Y-2130000D01*
X-870000Y-2350000D02*
G01*
X-750001Y-2350000D01*
X-870000Y-2110000D02*
G01*
X-750001Y-2110000D01*
X-1070002Y-2350000D02*
G01*
X-1190000Y-2350000D01*
X-1070002Y-2110000D02*
G01*
X-1190000Y-2110000D01*
X-720001Y-2330000D02*
G01*
X-720001Y-2130000D01*
X-740001Y-2350000D02*
G01*
X-750001Y-2350000D01*
X-740001Y-2110000D02*
G01*
X-750001Y-2110000D01*
X-1200002Y-2350000D02*
G01*
X-1190000Y-2350000D01*
X-1200002Y-2110000D02*
G01*
X-1190000Y-2110000D01*
G75*
G01*
X3480008Y-3373331D02*
G02*
X3460008Y-3393331I-20000J0D01*
G75*
G01*
X3480008Y-3173331D02*
G03*
X3460008Y-3153331I-20000J0D01*
G75*
G01*
X2980007Y-3373331D02*
G03*
X3000007Y-3393331I20000J0D01*
G75*
G01*
X2980007Y-3173331D02*
G02*
X3000007Y-3153331I20000J0D01*
G75*
G01*
X3480008Y-2313333D02*
G02*
X3460008Y-2333333I-20000J0D01*
G75*
G01*
X3480008Y-2113333D02*
G03*
X3460008Y-2093333I-20000J0D01*
G75*
G01*
X2980007Y-2313333D02*
G03*
X3000007Y-2333333I20000J0D01*
G75*
G01*
X2980007Y-2113333D02*
G02*
X3000007Y-2093333I20000J0D01*
G75*
G01*
X3480008Y-3019997D02*
G02*
X3460008Y-3039996I-20000J0D01*
G75*
G01*
X3480008Y-2819997D02*
G03*
X3460008Y-2799997I-20000J0D01*
G75*
G01*
X2980007Y-3019997D02*
G03*
X3000007Y-3039996I20000J0D01*
G75*
G01*
X2980007Y-2819997D02*
G02*
X3000007Y-2799997I20000J0D01*
G75*
G01*
X3480001Y-4080002D02*
G02*
X3460001Y-4100002I-20000J0D01*
G75*
G01*
X3480001Y-3880002D02*
G03*
X3460001Y-3860002I-20000J0D01*
G75*
G01*
X2979999Y-4080002D02*
G03*
X2999999Y-4100002I20000J0D01*
G75*
G01*
X2979999Y-3880002D02*
G02*
X2999999Y-3860002I20000J0D01*
G75*
G01*
X2979999Y-1760002D02*
G02*
X2999999Y-1740002I20000J0D01*
G75*
G01*
X2979999Y-1960001D02*
G03*
X2999999Y-1980001I20000J0D01*
G75*
G01*
X3480001Y-1760002D02*
G03*
X3460001Y-1740002I-20000J0D01*
G75*
G01*
X3480001Y-1960001D02*
G02*
X3460001Y-1980001I-20000J0D01*
G75*
G01*
X3480001Y-3726668D02*
G02*
X3460001Y-3746668I-20000J0D01*
G75*
G01*
X3480001Y-3526668D02*
G03*
X3460001Y-3506668I-20000J0D01*
G75*
G01*
X2979999Y-3726668D02*
G03*
X2999999Y-3746668I20000J0D01*
G75*
G01*
X2979999Y-3526668D02*
G02*
X2999999Y-3506668I20000J0D01*
G75*
G01*
X3480008Y-2666665D02*
G02*
X3460008Y-2686665I-20000J0D01*
G75*
G01*
X3480008Y-2466665D02*
G03*
X3460008Y-2446665I-20000J0D01*
G75*
G01*
X2980007Y-2666665D02*
G03*
X3000007Y-2686665I20000J0D01*
G75*
G01*
X2980007Y-2466665D02*
G02*
X3000007Y-2446665I20000J0D01*
G75*
G01*
X2042114Y1260485D02*
G02*
X2142104Y1242085I7J-280848D01*
G75*
G01*
X2142104Y1242085D02*
G03*
X2594211Y1158885I452113J1186800D01*
G75*
G01*
X-740001Y-240000D02*
G02*
X-760001Y-259999I-20000J0D01*
G75*
G01*
X-740001Y-40000D02*
G03*
X-760001Y-20000I-20000J0D01*
G75*
G01*
X-1240003Y-240000D02*
G03*
X-1220003Y-259999I20000J0D01*
G75*
G01*
X-1240003Y-40000D02*
G02*
X-1220003Y-20000I20000J0D01*
G75*
G01*
X2980002Y-480002D02*
G02*
X3000002Y-460002I20000J0D01*
G75*
G01*
X2980002Y-680001D02*
G03*
X3000002Y-700001I20000J0D01*
G75*
G01*
X3480003Y-480002D02*
G03*
X3460003Y-460002I-20000J0D01*
G75*
G01*
X3480003Y-680001D02*
G02*
X3460003Y-700001I-20000J0D01*
G75*
G01*
X-720001Y-2330000D02*
G02*
X-740001Y-2350000I-20000J0D01*
G75*
G01*
X-720001Y-2130001D02*
G03*
X-740001Y-2110001I-20000J0D01*
G75*
G01*
X-1220003Y-2330000D02*
G03*
X-1200003Y-2350000I20000J0D01*
G75*
G01*
X-1220003Y-2130001D02*
G02*
X-1200003Y-2110001I20000J0D01*
D34*
G75*
G01
X59990Y-2380010D02*
G03X59990Y-2380010I-19990J0D01*
D37*
G75*
G01
X3579998Y-3740003D02*
G03X3579998Y-3740003I-19990J0D01*
G75*
G01
X3579998Y-941405D02*
G03X3579998Y-941405I-19990J0D01*
G75*
G01
X-389997Y-4220012D02*
G03X-389997Y-4220012I-19990J0D01*
G75*
G01
X1662933Y-372775D02*
G03X1662933Y-372775I-47295J0D01*
G75*
G01
X1632428Y-372090D02*
G03X1632428Y-372090I-16104J0D01*
D10*
G75*
G01
X1730091Y140051D02*
G03X1730091Y140051I-650011J0D01*
G75*
G01
X1207079Y140051D02*
G03X1207079Y140051I-127000J0D01*
G75*
G01
X-859998Y-3260019D02*
G03X-859998Y-3260019I-119990J0D01*
G75*
G01
X-909249Y-3260019D02*
G03X-909249Y-3260019I-70714J0D01*
G75*
G01
X-850016Y-1510010D02*
G03X-850016Y-1510010I-119990J0D01*
G75*
G01
X-899292Y-1510010D02*
G03X-899292Y-1510010I-70714J0D01*
M02*
