G04 Layer: BottomSolderMaskLayer*
G04 EasyEDA v6.4.25, 2021-10-04T21:21:11--4:00*
G04 2cf70da8eae2490c89e5189a04a06a47,96b9eb17c6bf4bf1aa34359f555252a9,10*
G04 Gerber Generator version 0.2*
G04 Scale: 100 percent, Rotated: No, Reflected: No *
G04 Dimensions in millimeters *
G04 leading zeros omitted , absolute positions ,4 integer and 5 decimal *
%FSLAX45Y45*%
%MOMM*%

%ADD38C,1.3016*%
%ADD39C,2.0032*%
%ADD47R,1.7780X1.7780*%
%ADD48C,1.7780*%
%ADD56C,0.8232*%

%LPD*%
D38*
X241980Y732627D02*
G01*
X241980Y852627D01*
X241980Y257622D02*
G01*
X241980Y377621D01*
X-502010Y257622D02*
G01*
X-502010Y377621D01*
X-502010Y732627D02*
G01*
X-502010Y852627D01*
D39*
G01*
X1080079Y390062D03*
G01*
X1080079Y-109910D03*
D38*
G01*
X-292003Y227451D03*
G01*
X-132008Y227451D03*
G01*
X-211993Y347822D03*
G01*
X-51998Y347822D03*
G01*
X27985Y227451D03*
D47*
G01*
X-158094Y-3733500D03*
D48*
G01*
X-412094Y-3733500D03*
G01*
X-158094Y-3479500D03*
G01*
X-412094Y-3479500D03*
G01*
X-158094Y-3225500D03*
G01*
X-412094Y-3225500D03*
G01*
X-158094Y-2971500D03*
G01*
X-412094Y-2971500D03*
G01*
X-158094Y-2717500D03*
G01*
X-412094Y-2717500D03*
G01*
X-158094Y-2463500D03*
G01*
X-412094Y-2463500D03*
G01*
X-158094Y-2209500D03*
G01*
X-412094Y-2209500D03*
G01*
X-158094Y-1955500D03*
G01*
X-412094Y-1955500D03*
G01*
X-158094Y-1701500D03*
G01*
X-412094Y-1701500D03*
G01*
X-158094Y-1447500D03*
G01*
X-412094Y-1447500D03*
G01*
X-158094Y-1193500D03*
G01*
X-412094Y-1193500D03*
G01*
X-158094Y-939500D03*
G01*
X-412094Y-939500D03*
G36*
X2235093Y-1030432D02*
G01*
X2235093Y-852632D01*
X2412893Y-852632D01*
X2412893Y-1030432D01*
G37*
G01*
X2578018Y-941405D03*
G01*
X2324018Y-1195405D03*
G01*
X2578018Y-1195405D03*
G01*
X2324018Y-1449405D03*
G01*
X2578018Y-1449405D03*
G01*
X2324018Y-1703405D03*
G01*
X2578018Y-1703405D03*
G01*
X2324018Y-1957405D03*
G01*
X2578018Y-1957405D03*
G01*
X2324018Y-2211405D03*
G01*
X2578018Y-2211405D03*
G01*
X2324018Y-2465405D03*
G01*
X2578018Y-2465405D03*
G01*
X2324018Y-2719405D03*
G01*
X2578018Y-2719405D03*
G01*
X2324018Y-2973405D03*
G01*
X2578018Y-2973405D03*
G01*
X2324018Y-3227405D03*
G01*
X2578018Y-3227405D03*
G01*
X2324018Y-3481405D03*
G01*
X2578018Y-3481405D03*
G01*
X2324018Y-3735405D03*
G01*
X2578018Y-3735405D03*
D56*
G01*
X1274008Y-2515036D03*
G01*
X1123995Y-2515036D03*
G01*
X1048989Y-2440030D03*
G01*
X1048989Y-2290018D03*
G01*
X1123995Y-2215037D03*
G01*
X1274008Y-2215037D03*
G01*
X1274008Y-2365024D03*
G01*
X1123995Y-2365024D03*
G01*
X1199001Y-2445034D03*
G01*
X1199001Y-2289027D03*
G01*
X1349014Y-2442011D03*
G01*
X1348988Y-2289027D03*
M02*
