G04 Layer: BottomSolderMaskLayer*
G04 EasyEDA v6.4.25, 2021-10-04T21:02:54--4:00*
G04 e5a6d802368343aa863876e234e9a9e8,96b9eb17c6bf4bf1aa34359f555252a9,10*
G04 Gerber Generator version 0.2*
G04 Scale: 100 percent, Rotated: No, Reflected: No *
G04 Dimensions in millimeters *
G04 leading zeros omitted , absolute positions ,4 integer and 5 decimal *
%FSLAX45Y45*%
%MOMM*%

%ADD47C,1.3016*%
%ADD48C,2.0032*%
%ADD58C,1.9016*%
%ADD61R,1.7780X1.7780*%
%ADD62C,1.7780*%
%ADD70C,0.8232*%

%LPD*%
D47*
X461995Y702630D02*
G01*
X461995Y822629D01*
X461995Y227624D02*
G01*
X461995Y347624D01*
X-281995Y227624D02*
G01*
X-281995Y347624D01*
X-281995Y702630D02*
G01*
X-281995Y822629D01*
G36*
X-642472Y-120096D02*
G01*
X-642472Y-20020D01*
X-462386Y-20020D01*
X-462386Y-120096D01*
G37*
G36*
X-642472Y-319994D02*
G01*
X-642472Y-219918D01*
X-462386Y-219918D01*
X-462386Y-319994D01*
G37*
G36*
X-1342496Y110027D02*
G01*
X-1342496Y200197D01*
X-1032362Y200197D01*
X-1032362Y110027D01*
G37*
G36*
X-1342496Y-539958D02*
G01*
X-1342496Y-449788D01*
X-1032362Y-449788D01*
X-1032362Y-539958D01*
G37*
D48*
G01*
X1740072Y59964D03*
G01*
X1740072Y559937D03*
D47*
G01*
X-71988Y197454D03*
G01*
X88005Y197454D03*
G01*
X8021Y317825D03*
G01*
X168015Y317825D03*
G01*
X248000Y197454D03*
D58*
G01*
X-510011Y854019D03*
G01*
X-510011Y600019D03*
G01*
X-510011Y346019D03*
G01*
X-850016Y854019D03*
G01*
X-850016Y600019D03*
G01*
X-850016Y346019D03*
D61*
G01*
X-158094Y-3733500D03*
D62*
G01*
X-412094Y-3733500D03*
G01*
X-158094Y-3479500D03*
G01*
X-412094Y-3479500D03*
G01*
X-158094Y-3225500D03*
G01*
X-412094Y-3225500D03*
G01*
X-158094Y-2971500D03*
G01*
X-412094Y-2971500D03*
G01*
X-158094Y-2717500D03*
G01*
X-412094Y-2717500D03*
G01*
X-158094Y-2463500D03*
G01*
X-412094Y-2463500D03*
G01*
X-158094Y-2209500D03*
G01*
X-412094Y-2209500D03*
G01*
X-158094Y-1955500D03*
G01*
X-412094Y-1955500D03*
G01*
X-158094Y-1701500D03*
G01*
X-412094Y-1701500D03*
G01*
X-158094Y-1447500D03*
G01*
X-412094Y-1447500D03*
G01*
X-158094Y-1193500D03*
G01*
X-412094Y-1193500D03*
G01*
X-158094Y-939500D03*
G01*
X-412094Y-939500D03*
G36*
X2235093Y-1030432D02*
G01*
X2235093Y-852632D01*
X2412893Y-852632D01*
X2412893Y-1030432D01*
G37*
G01*
X2578018Y-941405D03*
G01*
X2324018Y-1195405D03*
G01*
X2578018Y-1195405D03*
G01*
X2324018Y-1449405D03*
G01*
X2578018Y-1449405D03*
G01*
X2324018Y-1703405D03*
G01*
X2578018Y-1703405D03*
G01*
X2324018Y-1957405D03*
G01*
X2578018Y-1957405D03*
G01*
X2324018Y-2211405D03*
G01*
X2578018Y-2211405D03*
G01*
X2324018Y-2465405D03*
G01*
X2578018Y-2465405D03*
G01*
X2324018Y-2719405D03*
G01*
X2578018Y-2719405D03*
G01*
X2324018Y-2973405D03*
G01*
X2578018Y-2973405D03*
G01*
X2324018Y-3227405D03*
G01*
X2578018Y-3227405D03*
G01*
X2324018Y-3481405D03*
G01*
X2578018Y-3481405D03*
G01*
X2324018Y-3735405D03*
G01*
X2578018Y-3735405D03*
D70*
G01*
X1274008Y-2515036D03*
G01*
X1123995Y-2515036D03*
G01*
X1048989Y-2440030D03*
G01*
X1048989Y-2290018D03*
G01*
X1123995Y-2215037D03*
G01*
X1274008Y-2215037D03*
G01*
X1274008Y-2365024D03*
G01*
X1123995Y-2365024D03*
G01*
X1199001Y-2445034D03*
G01*
X1199001Y-2289027D03*
G01*
X1349014Y-2442011D03*
G01*
X1348988Y-2289027D03*
M02*
