G04 Layer: BottomSilkLayer*
G04 EasyEDA v6.4.25, 2021-10-04T21:02:54--4:00*
G04 e5a6d802368343aa863876e234e9a9e8,96b9eb17c6bf4bf1aa34359f555252a9,10*
G04 Gerber Generator version 0.2*
G04 Scale: 100 percent, Rotated: No, Reflected: No *
G04 Dimensions in millimeters *
G04 leading zeros omitted , absolute positions ,4 integer and 5 decimal *
%FSLAX45Y45*%
%MOMM*%

%ADD10C,0.2540*%
%ADD42C,0.1000*%

%LPD*%
G36*
X-392684Y-36322D02*
G01*
X-399796Y-37134D01*
X-405638Y-39166D01*
X-410311Y-42113D01*
X-414020Y-45466D01*
X-409194Y-50800D01*
X-406196Y-48107D01*
X-402590Y-45821D01*
X-398170Y-44297D01*
X-392938Y-43688D01*
X-387400Y-44246D01*
X-382422Y-45872D01*
X-378104Y-48463D01*
X-374396Y-52069D01*
X-371500Y-56489D01*
X-369316Y-61823D01*
X-367995Y-67868D01*
X-367538Y-74676D01*
X-367944Y-81483D01*
X-369214Y-87579D01*
X-371297Y-92964D01*
X-374142Y-97434D01*
X-377748Y-101041D01*
X-382117Y-103733D01*
X-387146Y-105359D01*
X-392938Y-105918D01*
X-397052Y-105613D01*
X-400964Y-104698D01*
X-404418Y-103225D01*
X-407162Y-101346D01*
X-407162Y-81026D01*
X-390906Y-81026D01*
X-390906Y-73914D01*
X-414782Y-73914D01*
X-414782Y-104902D01*
X-410718Y-108254D01*
X-405485Y-110896D01*
X-399237Y-112674D01*
X-392176Y-113283D01*
X-385114Y-112623D01*
X-378714Y-110642D01*
X-373024Y-107442D01*
X-368198Y-103073D01*
X-364236Y-97586D01*
X-361340Y-90982D01*
X-359511Y-83464D01*
X-358902Y-74930D01*
X-359156Y-69189D01*
X-360019Y-63804D01*
X-361442Y-58826D01*
X-363321Y-54305D01*
X-365658Y-50241D01*
X-368452Y-46685D01*
X-371652Y-43586D01*
X-375208Y-41046D01*
X-379120Y-39014D01*
X-383387Y-37541D01*
X-387908Y-36626D01*
G37*
G36*
X793394Y364032D02*
G01*
X786790Y363372D01*
X780796Y361391D01*
X775411Y358241D01*
X770788Y353872D01*
X767080Y348386D01*
X764286Y341884D01*
X762508Y334365D01*
X761898Y325932D01*
X770534Y325932D01*
X770991Y332638D01*
X772210Y338683D01*
X774141Y343916D01*
X776833Y348335D01*
X780135Y351891D01*
X784047Y354533D01*
X788466Y356108D01*
X793394Y356666D01*
X798322Y356108D01*
X802741Y354533D01*
X806653Y351891D01*
X810006Y348335D01*
X812647Y343916D01*
X814628Y338683D01*
X815848Y332638D01*
X816254Y325932D01*
X815848Y319074D01*
X814628Y312877D01*
X812647Y307492D01*
X810006Y302971D01*
X806653Y299313D01*
X802741Y296672D01*
X798322Y294995D01*
X793394Y294436D01*
X788466Y294995D01*
X784047Y296672D01*
X780135Y299313D01*
X776833Y302971D01*
X774141Y307492D01*
X772210Y312877D01*
X770991Y319074D01*
X770534Y325932D01*
X761898Y325932D01*
X762508Y317398D01*
X764286Y309778D01*
X767080Y303174D01*
X770788Y297586D01*
X775411Y293065D01*
X780796Y289814D01*
X786790Y287782D01*
X793394Y287070D01*
X800100Y287782D01*
X806145Y289814D01*
X811530Y293065D01*
X816102Y297586D01*
X819810Y303174D01*
X822604Y309778D01*
X824331Y317398D01*
X824890Y325932D01*
X824331Y334365D01*
X822604Y341884D01*
X819810Y348386D01*
X816102Y353872D01*
X811530Y358241D01*
X806145Y361391D01*
X800100Y363372D01*
G37*
G36*
X834034Y362762D02*
G01*
X834034Y357682D01*
X874166Y295452D01*
X833526Y295452D01*
X833526Y288340D01*
X884580Y288340D01*
X884580Y293420D01*
X844448Y355650D01*
X880770Y355650D01*
X880770Y362762D01*
G37*
G36*
X896264Y362762D02*
G01*
X896264Y355650D01*
X930300Y355650D01*
X930300Y331012D01*
X901598Y331012D01*
X901598Y323900D01*
X930300Y323900D01*
X930300Y295452D01*
X895248Y295452D01*
X895248Y288340D01*
X938682Y288340D01*
X938682Y362762D01*
G37*
G36*
X959510Y362762D02*
G01*
X959510Y288340D01*
X967892Y288340D01*
X967892Y362762D01*
G37*
G36*
X1010818Y362762D02*
G01*
X1004824Y362508D01*
X999439Y361645D01*
X994714Y360172D01*
X990701Y357987D01*
X987501Y355041D01*
X985113Y351332D01*
X983640Y346710D01*
X983132Y341172D01*
X991514Y341172D01*
X992835Y348183D01*
X996696Y352755D01*
X1003096Y355193D01*
X1012088Y355904D01*
X1023010Y355904D01*
X1023010Y325424D01*
X1011580Y325424D01*
X1002792Y326339D01*
X996492Y329133D01*
X992784Y334010D01*
X991514Y341172D01*
X983132Y341172D01*
X983640Y335737D01*
X985113Y331063D01*
X987450Y327152D01*
X990650Y323951D01*
X994562Y321462D01*
X999236Y319735D01*
X1004468Y318668D01*
X1010310Y318312D01*
X1023010Y318312D01*
X1023010Y288340D01*
X1031392Y288340D01*
X1031392Y362762D01*
G37*
G36*
X2147874Y-3697935D02*
G01*
X2139442Y-3699154D01*
X2132736Y-3702710D01*
X2128367Y-3708450D01*
X2126792Y-3716223D01*
X2127758Y-3722624D01*
X2130450Y-3727754D01*
X2134616Y-3731717D01*
X2140000Y-3734511D01*
X2140000Y-3734765D01*
X2133904Y-3737152D01*
X2128875Y-3741267D01*
X2125472Y-3746855D01*
X2124252Y-3753815D01*
X2124710Y-3758539D01*
X2126081Y-3762705D01*
X2128215Y-3766312D01*
X2131060Y-3769309D01*
X2134514Y-3771696D01*
X2138476Y-3773474D01*
X2142896Y-3774541D01*
X2147620Y-3774897D01*
X2155545Y-3774084D01*
X2161997Y-3771798D01*
X2167128Y-3768598D01*
X2171242Y-3764737D01*
X2166924Y-3759403D01*
X2163419Y-3762705D01*
X2159254Y-3765448D01*
X2154174Y-3767328D01*
X2148128Y-3768039D01*
X2141829Y-3767023D01*
X2136952Y-3764127D01*
X2133752Y-3759555D01*
X2132634Y-3753561D01*
X2133904Y-3747262D01*
X2137968Y-3742385D01*
X2145284Y-3739184D01*
X2156256Y-3738067D01*
X2156256Y-3731717D01*
X2146300Y-3730599D01*
X2139797Y-3727500D01*
X2136241Y-3722827D01*
X2135174Y-3716985D01*
X2136089Y-3711956D01*
X2138680Y-3708095D01*
X2142794Y-3705555D01*
X2148128Y-3704539D01*
X2152599Y-3705250D01*
X2156764Y-3706825D01*
X2160524Y-3709162D01*
X2163876Y-3712159D01*
X2168448Y-3706571D01*
X2164080Y-3703167D01*
X2159304Y-3700424D01*
X2153920Y-3698595D01*
G37*
G36*
X2061006Y-3699205D02*
G01*
X2084628Y-3773627D01*
X2094280Y-3773627D01*
X2118156Y-3699205D01*
X2109520Y-3699205D01*
X2096820Y-3740353D01*
X2089708Y-3764991D01*
X2089200Y-3764991D01*
X2069388Y-3699205D01*
G37*
G36*
X2137664Y-3447999D02*
G01*
X2137664Y-3515563D01*
X2122678Y-3515563D01*
X2122678Y-3522421D01*
X2162556Y-3522421D01*
X2162556Y-3515563D01*
X2146046Y-3515563D01*
X2146046Y-3458413D01*
X2159000Y-3458413D01*
X2159000Y-3453079D01*
X2154478Y-3452215D01*
X2150516Y-3451047D01*
X2147062Y-3449624D01*
X2144014Y-3447999D01*
G37*
G36*
X2124862Y-3185769D02*
G01*
X2124862Y-3195421D01*
X2132482Y-3195421D01*
X2138578Y-3206343D01*
X2156358Y-3232759D01*
X2132736Y-3232759D01*
X2132685Y-3205632D01*
X2132330Y-3198622D01*
X2131974Y-3195421D01*
X2124862Y-3195421D01*
X2124862Y-3232759D01*
X2114702Y-3232759D01*
X2114702Y-3239363D01*
X2124862Y-3239363D01*
X2124862Y-3260191D01*
X2132736Y-3260191D01*
X2132736Y-3239363D01*
X2165248Y-3239363D01*
X2165248Y-3234029D01*
X2133752Y-3185769D01*
G37*
G36*
X2830880Y-3187242D02*
G01*
X2822448Y-3188462D01*
X2815793Y-3191967D01*
X2811373Y-3197707D01*
X2809798Y-3205530D01*
X2810764Y-3211880D01*
X2813456Y-3217011D01*
X2817622Y-3220974D01*
X2823006Y-3223818D01*
X2823006Y-3224072D01*
X2816910Y-3226460D01*
X2811881Y-3230524D01*
X2808528Y-3236112D01*
X2807258Y-3243122D01*
X2807766Y-3247796D01*
X2809087Y-3251962D01*
X2811272Y-3255568D01*
X2814116Y-3258616D01*
X2817571Y-3261004D01*
X2821533Y-3262731D01*
X2825902Y-3263798D01*
X2830626Y-3264204D01*
X2838602Y-3263341D01*
X2845003Y-3261106D01*
X2850184Y-3257854D01*
X2854248Y-3254044D01*
X2849930Y-3248710D01*
X2846425Y-3251962D01*
X2842260Y-3254705D01*
X2837230Y-3256635D01*
X2831134Y-3257346D01*
X2824886Y-3256330D01*
X2819958Y-3253435D01*
X2816809Y-3248863D01*
X2815640Y-3242868D01*
X2816910Y-3236569D01*
X2820974Y-3231692D01*
X2828290Y-3228492D01*
X2839262Y-3227374D01*
X2839262Y-3221024D01*
X2829356Y-3219856D01*
X2822803Y-3216757D01*
X2819247Y-3212134D01*
X2818180Y-3206292D01*
X2819095Y-3201263D01*
X2821736Y-3197402D01*
X2825800Y-3194862D01*
X2831134Y-3193846D01*
X2835605Y-3194507D01*
X2839770Y-3196132D01*
X2843580Y-3198469D01*
X2846882Y-3201466D01*
X2851454Y-3195878D01*
X2847086Y-3192475D01*
X2842310Y-3189732D01*
X2836976Y-3187903D01*
G37*
G36*
X2744012Y-3188512D02*
G01*
X2767634Y-3262934D01*
X2777286Y-3262934D01*
X2801162Y-3188512D01*
X2792526Y-3188512D01*
X2779826Y-3229660D01*
X2772714Y-3254298D01*
X2772206Y-3254298D01*
X2752394Y-3188512D01*
G37*
G36*
X2775712Y-3446729D02*
G01*
X2767279Y-3447948D01*
X2760573Y-3451504D01*
X2756204Y-3457244D01*
X2754630Y-3465017D01*
X2755595Y-3471418D01*
X2758287Y-3476548D01*
X2762453Y-3480511D01*
X2767838Y-3483305D01*
X2767838Y-3483559D01*
X2761742Y-3485997D01*
X2756712Y-3490061D01*
X2753309Y-3495649D01*
X2752090Y-3502609D01*
X2752547Y-3507333D01*
X2753918Y-3511499D01*
X2756052Y-3515106D01*
X2758897Y-3518103D01*
X2762351Y-3520490D01*
X2766314Y-3522268D01*
X2770733Y-3523335D01*
X2775458Y-3523691D01*
X2783281Y-3522878D01*
X2789732Y-3520643D01*
X2794965Y-3517392D01*
X2799080Y-3513531D01*
X2794762Y-3508197D01*
X2791256Y-3511499D01*
X2787091Y-3514242D01*
X2782011Y-3516122D01*
X2775966Y-3516833D01*
X2769666Y-3515817D01*
X2764790Y-3512921D01*
X2761589Y-3508400D01*
X2760472Y-3502355D01*
X2761691Y-3496106D01*
X2765653Y-3491179D01*
X2772867Y-3488029D01*
X2783840Y-3486861D01*
X2783840Y-3480511D01*
X2774035Y-3479393D01*
X2767584Y-3476294D01*
X2764078Y-3471621D01*
X2763012Y-3465779D01*
X2763926Y-3460750D01*
X2766517Y-3456889D01*
X2770632Y-3454349D01*
X2775966Y-3453333D01*
X2780385Y-3454044D01*
X2784500Y-3455619D01*
X2788259Y-3458006D01*
X2791714Y-3460953D01*
X2796286Y-3455365D01*
X2791917Y-3452012D01*
X2787142Y-3449269D01*
X2781757Y-3447389D01*
G37*
G36*
X2830830Y-3694531D02*
G01*
X2822397Y-3695700D01*
X2815742Y-3699256D01*
X2811322Y-3704996D01*
X2809748Y-3712819D01*
X2810713Y-3719169D01*
X2813456Y-3724300D01*
X2817672Y-3728262D01*
X2823210Y-3731107D01*
X2823210Y-3731361D01*
X2816961Y-3733749D01*
X2811881Y-3737813D01*
X2808478Y-3743401D01*
X2807208Y-3750411D01*
X2807665Y-3755085D01*
X2809036Y-3759250D01*
X2811170Y-3762857D01*
X2814066Y-3765905D01*
X2817520Y-3768293D01*
X2821482Y-3770020D01*
X2825851Y-3771087D01*
X2830576Y-3771493D01*
X2838500Y-3770629D01*
X2844952Y-3768394D01*
X2850134Y-3765143D01*
X2854198Y-3761333D01*
X2849880Y-3755999D01*
X2846374Y-3759250D01*
X2842209Y-3761994D01*
X2837180Y-3763924D01*
X2831084Y-3764635D01*
X2824937Y-3763619D01*
X2820009Y-3760724D01*
X2816758Y-3756151D01*
X2815590Y-3750157D01*
X2816860Y-3743858D01*
X2820924Y-3738981D01*
X2828239Y-3735781D01*
X2839212Y-3734663D01*
X2839212Y-3728313D01*
X2829407Y-3727145D01*
X2822854Y-3724046D01*
X2819247Y-3719372D01*
X2818130Y-3713581D01*
X2819044Y-3708552D01*
X2821686Y-3704691D01*
X2825851Y-3702151D01*
X2831338Y-3701135D01*
X2835757Y-3701796D01*
X2839872Y-3703421D01*
X2843580Y-3705758D01*
X2846832Y-3708755D01*
X2851404Y-3703167D01*
X2847136Y-3699764D01*
X2842361Y-3697020D01*
X2836926Y-3695192D01*
G37*
G36*
X2743962Y-3695801D02*
G01*
X2767838Y-3770223D01*
X2777490Y-3770223D01*
X2801366Y-3695801D01*
X2792476Y-3695801D01*
X2772664Y-3761587D01*
X2772156Y-3761587D01*
X2752598Y-3695801D01*
G37*
G36*
X2767076Y-2937205D02*
G01*
X2767076Y-2944317D01*
X2795270Y-2944317D01*
X2797302Y-2966923D01*
X2794762Y-2965551D01*
X2792069Y-2964637D01*
X2789123Y-2964027D01*
X2785872Y-2963875D01*
X2781350Y-2964180D01*
X2777134Y-2965246D01*
X2773375Y-2966974D01*
X2770073Y-2969463D01*
X2767330Y-2972765D01*
X2765298Y-2976829D01*
X2763977Y-2981706D01*
X2763520Y-2987497D01*
X2764078Y-2993237D01*
X2765552Y-2998317D01*
X2767888Y-3002635D01*
X2770886Y-3006293D01*
X2774492Y-3009138D01*
X2778556Y-3011170D01*
X2782874Y-3012440D01*
X2787396Y-3012897D01*
X2795320Y-3012033D01*
X2801721Y-3009849D01*
X2806852Y-3006648D01*
X2811018Y-3002991D01*
X2806700Y-2997657D01*
X2803347Y-3000756D01*
X2799283Y-3003448D01*
X2794254Y-3005328D01*
X2788158Y-3006039D01*
X2781909Y-3004718D01*
X2776728Y-3001060D01*
X2773222Y-2995320D01*
X2771902Y-2987751D01*
X2773070Y-2980385D01*
X2776321Y-2974848D01*
X2781350Y-2971393D01*
X2787904Y-2970225D01*
X2791409Y-2970479D01*
X2794457Y-2971292D01*
X2797302Y-2972663D01*
X2800350Y-2974543D01*
X2804922Y-2971749D01*
X2802636Y-2937205D01*
G37*
G36*
X2134717Y-2934512D02*
G01*
X2127758Y-2935325D01*
X2121966Y-2937357D01*
X2117344Y-2940304D01*
X2113635Y-2943656D01*
X2118207Y-2948990D01*
X2121306Y-2946298D01*
X2124964Y-2944012D01*
X2129332Y-2942488D01*
X2134717Y-2941878D01*
X2140153Y-2942437D01*
X2145080Y-2944063D01*
X2149398Y-2946654D01*
X2153005Y-2950260D01*
X2155952Y-2954680D01*
X2158085Y-2960014D01*
X2159406Y-2966059D01*
X2159863Y-2972866D01*
X2159457Y-2979674D01*
X2158187Y-2985770D01*
X2156104Y-2991154D01*
X2153310Y-2995625D01*
X2149703Y-2999232D01*
X2145385Y-3001924D01*
X2140407Y-3003550D01*
X2134717Y-3004108D01*
X2130552Y-3003804D01*
X2126640Y-3002889D01*
X2123236Y-3001416D01*
X2120493Y-2999536D01*
X2120493Y-2979216D01*
X2136749Y-2979216D01*
X2136749Y-2972104D01*
X2112619Y-2972104D01*
X2112619Y-3003092D01*
X2116836Y-3006445D01*
X2122170Y-3009087D01*
X2128418Y-3010865D01*
X2135479Y-3011474D01*
X2142439Y-3010814D01*
X2148789Y-3008833D01*
X2154428Y-3005632D01*
X2159254Y-3001264D01*
X2163165Y-2995777D01*
X2166061Y-2989173D01*
X2167890Y-2981655D01*
X2168499Y-2973120D01*
X2168194Y-2967380D01*
X2167382Y-2961995D01*
X2166010Y-2957017D01*
X2164130Y-2952496D01*
X2161794Y-2948432D01*
X2159050Y-2944876D01*
X2155850Y-2941777D01*
X2152294Y-2939237D01*
X2148332Y-2937205D01*
X2144115Y-2935732D01*
X2139543Y-2934817D01*
G37*
G36*
X2141372Y-2684729D02*
G01*
X2136648Y-2685135D01*
X2132482Y-2686304D01*
X2128824Y-2688183D01*
X2125726Y-2690723D01*
X2123287Y-2693873D01*
X2121509Y-2697581D01*
X2120392Y-2701848D01*
X2120036Y-2706573D01*
X2120544Y-2712212D01*
X2122119Y-2717901D01*
X2124710Y-2723642D01*
X2128164Y-2729433D01*
X2132482Y-2735326D01*
X2137613Y-2741371D01*
X2143455Y-2747518D01*
X2150008Y-2753817D01*
X2137816Y-2753309D01*
X2116480Y-2753309D01*
X2116480Y-2760421D01*
X2162454Y-2760421D01*
X2162454Y-2755341D01*
X2154123Y-2747873D01*
X2147011Y-2740914D01*
X2141118Y-2734360D01*
X2136343Y-2728214D01*
X2132736Y-2722473D01*
X2130145Y-2716987D01*
X2128672Y-2711805D01*
X2128164Y-2706827D01*
X2128977Y-2700680D01*
X2131517Y-2695752D01*
X2135886Y-2692501D01*
X2142134Y-2691333D01*
X2146706Y-2692044D01*
X2150872Y-2693974D01*
X2154682Y-2696819D01*
X2158136Y-2700223D01*
X2162962Y-2695651D01*
X2158288Y-2691180D01*
X2153310Y-2687726D01*
X2147722Y-2685491D01*
G37*
G36*
X2763570Y-2678480D02*
G01*
X2763570Y-2683560D01*
X2767634Y-2689148D01*
X2771190Y-2694533D01*
X2774238Y-2699867D01*
X2776778Y-2705150D01*
X2778912Y-2710484D01*
X2780690Y-2715869D01*
X2782112Y-2721406D01*
X2784144Y-2733040D01*
X2785262Y-2745892D01*
X2785668Y-2752902D01*
X2794304Y-2752902D01*
X2793288Y-2739390D01*
X2791460Y-2727248D01*
X2790190Y-2721559D01*
X2788716Y-2716123D01*
X2786888Y-2710840D01*
X2784805Y-2705709D01*
X2782417Y-2700680D01*
X2779725Y-2695651D01*
X2773222Y-2685592D01*
X2809544Y-2685592D01*
X2809544Y-2678480D01*
G37*
G36*
X2776016Y-2420721D02*
G01*
X2769006Y-2421483D01*
X2763266Y-2423566D01*
X2758592Y-2426512D01*
X2754934Y-2429865D01*
X2759506Y-2435199D01*
X2762554Y-2432456D01*
X2766212Y-2430221D01*
X2770632Y-2428646D01*
X2776016Y-2428087D01*
X2781452Y-2428646D01*
X2786329Y-2430272D01*
X2790647Y-2432862D01*
X2794304Y-2436418D01*
X2797200Y-2440889D01*
X2799334Y-2446172D01*
X2800705Y-2452268D01*
X2801112Y-2459075D01*
X2800705Y-2465882D01*
X2799435Y-2471978D01*
X2797403Y-2477312D01*
X2794558Y-2481834D01*
X2791002Y-2485440D01*
X2786684Y-2488133D01*
X2781655Y-2489758D01*
X2776016Y-2490317D01*
X2771851Y-2490012D01*
X2767939Y-2489098D01*
X2764485Y-2487625D01*
X2761742Y-2485745D01*
X2761742Y-2465425D01*
X2778048Y-2465425D01*
X2778048Y-2458313D01*
X2753918Y-2458313D01*
X2753918Y-2489301D01*
X2758084Y-2492654D01*
X2763418Y-2495296D01*
X2769666Y-2497074D01*
X2776728Y-2497683D01*
X2783738Y-2497023D01*
X2790037Y-2495042D01*
X2795676Y-2491841D01*
X2800502Y-2487472D01*
X2804414Y-2481935D01*
X2807309Y-2475382D01*
X2809138Y-2467813D01*
X2809798Y-2459329D01*
X2809494Y-2453538D01*
X2808630Y-2448204D01*
X2807258Y-2443226D01*
X2805430Y-2438704D01*
X2803093Y-2434640D01*
X2800299Y-2431084D01*
X2797149Y-2427986D01*
X2793542Y-2425446D01*
X2789631Y-2423414D01*
X2785364Y-2421940D01*
X2780842Y-2421026D01*
G37*
G36*
X2131568Y-2424531D02*
G01*
X2126284Y-2425039D01*
X2121712Y-2426563D01*
X2117852Y-2428900D01*
X2114550Y-2431897D01*
X2119122Y-2437231D01*
X2121662Y-2434793D01*
X2124659Y-2432964D01*
X2127910Y-2431796D01*
X2131314Y-2431389D01*
X2135124Y-2431796D01*
X2138730Y-2433015D01*
X2142032Y-2435199D01*
X2144877Y-2438400D01*
X2147316Y-2442718D01*
X2149195Y-2448204D01*
X2150364Y-2454960D01*
X2150872Y-2463139D01*
X2147112Y-2459380D01*
X2142845Y-2456586D01*
X2138324Y-2454859D01*
X2133854Y-2454249D01*
X2129332Y-2454605D01*
X2125268Y-2455722D01*
X2121763Y-2457551D01*
X2118817Y-2460091D01*
X2116429Y-2463342D01*
X2114702Y-2467305D01*
X2113635Y-2471978D01*
X2113280Y-2477363D01*
X2121154Y-2477363D01*
X2121966Y-2470404D01*
X2124506Y-2465019D01*
X2128875Y-2461564D01*
X2135124Y-2460345D01*
X2138781Y-2460904D01*
X2142693Y-2462631D01*
X2146706Y-2465679D01*
X2150618Y-2470251D01*
X2148992Y-2480716D01*
X2145690Y-2488438D01*
X2140712Y-2493264D01*
X2134108Y-2494889D01*
X2128977Y-2493619D01*
X2124862Y-2490012D01*
X2122119Y-2484475D01*
X2121154Y-2477363D01*
X2113280Y-2477363D01*
X2113737Y-2482545D01*
X2114956Y-2487218D01*
X2116937Y-2491333D01*
X2119477Y-2494838D01*
X2122627Y-2497683D01*
X2126132Y-2499766D01*
X2129993Y-2501036D01*
X2134108Y-2501493D01*
X2139340Y-2500884D01*
X2144064Y-2499156D01*
X2148281Y-2496261D01*
X2151837Y-2492248D01*
X2154783Y-2487066D01*
X2156917Y-2480818D01*
X2158288Y-2473401D01*
X2158746Y-2464917D01*
X2158136Y-2454706D01*
X2156510Y-2446172D01*
X2153920Y-2439162D01*
X2150465Y-2433675D01*
X2146401Y-2429510D01*
X2141829Y-2426665D01*
X2136800Y-2425039D01*
G37*
G36*
X2141372Y-2171293D02*
G01*
X2136648Y-2171700D01*
X2132431Y-2172868D01*
X2128824Y-2174748D01*
X2125726Y-2177288D01*
X2123287Y-2180437D01*
X2121509Y-2184196D01*
X2120392Y-2188413D01*
X2120036Y-2193137D01*
X2120544Y-2198776D01*
X2122119Y-2204466D01*
X2124710Y-2210206D01*
X2128164Y-2215997D01*
X2132482Y-2221941D01*
X2137613Y-2227935D01*
X2143455Y-2234082D01*
X2150008Y-2240381D01*
X2140762Y-2239924D01*
X2116480Y-2239873D01*
X2116480Y-2246985D01*
X2162454Y-2246985D01*
X2162454Y-2241905D01*
X2154123Y-2234488D01*
X2147011Y-2227478D01*
X2141118Y-2220976D01*
X2136343Y-2214829D01*
X2132685Y-2209038D01*
X2130145Y-2203551D01*
X2128672Y-2198370D01*
X2128164Y-2193391D01*
X2128977Y-2187244D01*
X2131517Y-2182317D01*
X2135886Y-2179066D01*
X2142134Y-2177897D01*
X2146706Y-2178608D01*
X2150872Y-2180539D01*
X2154682Y-2183384D01*
X2158136Y-2186787D01*
X2162962Y-2182215D01*
X2158288Y-2177745D01*
X2153310Y-2174290D01*
X2147722Y-2172106D01*
G37*
G36*
X2077364Y-2172563D02*
G01*
X2077364Y-2240127D01*
X2062124Y-2240127D01*
X2062124Y-2246985D01*
X2102256Y-2246985D01*
X2102256Y-2240127D01*
X2085492Y-2240127D01*
X2085492Y-2182977D01*
X2098700Y-2182977D01*
X2098700Y-2177643D01*
X2094230Y-2176780D01*
X2090267Y-2175611D01*
X2086762Y-2174189D01*
X2083714Y-2172563D01*
G37*
G36*
X2778201Y-2171598D02*
G01*
X2769819Y-2173020D01*
X2763520Y-2177084D01*
X2759557Y-2183231D01*
X2758135Y-2191156D01*
X2758222Y-2191664D01*
X2765247Y-2191664D01*
X2766161Y-2186279D01*
X2768701Y-2181910D01*
X2772867Y-2179015D01*
X2778455Y-2177948D01*
X2783382Y-2178812D01*
X2787243Y-2181402D01*
X2789732Y-2185314D01*
X2790647Y-2190394D01*
X2789224Y-2196338D01*
X2785364Y-2200808D01*
X2779826Y-2204212D01*
X2773375Y-2206904D01*
X2769870Y-2203450D01*
X2767330Y-2199741D01*
X2765806Y-2195779D01*
X2765247Y-2191664D01*
X2758222Y-2191664D01*
X2759100Y-2196795D01*
X2761488Y-2201875D01*
X2764688Y-2206040D01*
X2768041Y-2209190D01*
X2768041Y-2209698D01*
X2763418Y-2212898D01*
X2759456Y-2217064D01*
X2756662Y-2222449D01*
X2755635Y-2229002D01*
X2763469Y-2229002D01*
X2765145Y-2222296D01*
X2769565Y-2217420D01*
X2776016Y-2213711D01*
X2783789Y-2210460D01*
X2788158Y-2213864D01*
X2791510Y-2217978D01*
X2793695Y-2222703D01*
X2794457Y-2227986D01*
X2793238Y-2233625D01*
X2789885Y-2238146D01*
X2784805Y-2241092D01*
X2778455Y-2242210D01*
X2772257Y-2241194D01*
X2767533Y-2238451D01*
X2764536Y-2234234D01*
X2763469Y-2229002D01*
X2755635Y-2229002D01*
X2757271Y-2236724D01*
X2761894Y-2242769D01*
X2769108Y-2246782D01*
X2778455Y-2248306D01*
X2783433Y-2247900D01*
X2787954Y-2246782D01*
X2791968Y-2245004D01*
X2795422Y-2242667D01*
X2798216Y-2239772D01*
X2800350Y-2236368D01*
X2801620Y-2232609D01*
X2802077Y-2228494D01*
X2800858Y-2221585D01*
X2797657Y-2215794D01*
X2793187Y-2211222D01*
X2788107Y-2207920D01*
X2788107Y-2207412D01*
X2792069Y-2204313D01*
X2795320Y-2200503D01*
X2797505Y-2195830D01*
X2798267Y-2190394D01*
X2796743Y-2182723D01*
X2792526Y-2176780D01*
X2786176Y-2172919D01*
G37*
G36*
X2773019Y-1912721D02*
G01*
X2767990Y-1913280D01*
X2763520Y-1915058D01*
X2759608Y-1918004D01*
X2756357Y-1922170D01*
X2753715Y-1927504D01*
X2751734Y-1934057D01*
X2750566Y-1941830D01*
X2750159Y-1950821D01*
X2758287Y-1950821D01*
X2758541Y-1943252D01*
X2759303Y-1936800D01*
X2760573Y-1931365D01*
X2762300Y-1926996D01*
X2764434Y-1923592D01*
X2766974Y-1921205D01*
X2769819Y-1919782D01*
X2773019Y-1919325D01*
X2776118Y-1919782D01*
X2778963Y-1921205D01*
X2781452Y-1923592D01*
X2783586Y-1926996D01*
X2785364Y-1931365D01*
X2786634Y-1936800D01*
X2787446Y-1943252D01*
X2787751Y-1950821D01*
X2787446Y-1958644D01*
X2786634Y-1965299D01*
X2785364Y-1970836D01*
X2783586Y-1975307D01*
X2781452Y-1978761D01*
X2778963Y-1981200D01*
X2776118Y-1982622D01*
X2773019Y-1983079D01*
X2769819Y-1982622D01*
X2766974Y-1981200D01*
X2764434Y-1978761D01*
X2762300Y-1975307D01*
X2760573Y-1970836D01*
X2759303Y-1965299D01*
X2758541Y-1958644D01*
X2758287Y-1950821D01*
X2750159Y-1950821D01*
X2750566Y-1960016D01*
X2751734Y-1967941D01*
X2753715Y-1974596D01*
X2756357Y-1980082D01*
X2759608Y-1984298D01*
X2763520Y-1987296D01*
X2767990Y-1989074D01*
X2773019Y-1989683D01*
X2777998Y-1989074D01*
X2782468Y-1987296D01*
X2786380Y-1984298D01*
X2789682Y-1980082D01*
X2792323Y-1974596D01*
X2794254Y-1967941D01*
X2795473Y-1960016D01*
X2795879Y-1950821D01*
X2795473Y-1941830D01*
X2794254Y-1934057D01*
X2792323Y-1927504D01*
X2789682Y-1922170D01*
X2786380Y-1918004D01*
X2782468Y-1915058D01*
X2777998Y-1913280D01*
G37*
G36*
X2822803Y-1913991D02*
G01*
X2822803Y-1981555D01*
X2807563Y-1981555D01*
X2807563Y-1988413D01*
X2847695Y-1988413D01*
X2847695Y-1981555D01*
X2830931Y-1981555D01*
X2830931Y-1924405D01*
X2844139Y-1924405D01*
X2844139Y-1919071D01*
X2839516Y-1918157D01*
X2835554Y-1916988D01*
X2832049Y-1915617D01*
X2828899Y-1913991D01*
G37*
G36*
X2141626Y-1914499D02*
G01*
X2136495Y-1915058D01*
X2131771Y-1916734D01*
X2127605Y-1919427D01*
X2123998Y-1923288D01*
X2121052Y-1928215D01*
X2118868Y-1934260D01*
X2117496Y-1941372D01*
X2117240Y-1945487D01*
X2124862Y-1945487D01*
X2126538Y-1935073D01*
X2129942Y-1927402D01*
X2134971Y-1922729D01*
X2141626Y-1921103D01*
X2146909Y-1922373D01*
X2151126Y-1925929D01*
X2153869Y-1931416D01*
X2154834Y-1938375D01*
X2153970Y-1945487D01*
X2151430Y-1950923D01*
X2147112Y-1954428D01*
X2141118Y-1955647D01*
X2137054Y-1955088D01*
X2132888Y-1953260D01*
X2128824Y-1950110D01*
X2124862Y-1945487D01*
X2117240Y-1945487D01*
X2116988Y-1949551D01*
X2117598Y-1960118D01*
X2119223Y-1968957D01*
X2121814Y-1976221D01*
X2125218Y-1981962D01*
X2129231Y-1986280D01*
X2133701Y-1989226D01*
X2138578Y-1990953D01*
X2143658Y-1991461D01*
X2149144Y-1990953D01*
X2153869Y-1989429D01*
X2157831Y-1987092D01*
X2161184Y-1984095D01*
X2156612Y-1978761D01*
X2153920Y-1981301D01*
X2150872Y-1983130D01*
X2147468Y-1984248D01*
X2143912Y-1984603D01*
X2140356Y-1984248D01*
X2137003Y-1982978D01*
X2133854Y-1980793D01*
X2131060Y-1977542D01*
X2128672Y-1973173D01*
X2126843Y-1967585D01*
X2125522Y-1960676D01*
X2124862Y-1952345D01*
X2128621Y-1956307D01*
X2132888Y-1959254D01*
X2137511Y-1961134D01*
X2142388Y-1961743D01*
X2146858Y-1961388D01*
X2150821Y-1960270D01*
X2154326Y-1958441D01*
X2157222Y-1955901D01*
X2159558Y-1952599D01*
X2161286Y-1948586D01*
X2162352Y-1943862D01*
X2162708Y-1938375D01*
X2162302Y-1933295D01*
X2161032Y-1928672D01*
X2159050Y-1924608D01*
X2156460Y-1921103D01*
X2153361Y-1918309D01*
X2149754Y-1916277D01*
X2145842Y-1914956D01*
G37*
G36*
X1938578Y-1663344D02*
G01*
X1933854Y-1663700D01*
X1929688Y-1664868D01*
X1926031Y-1666748D01*
X1922932Y-1669288D01*
X1920493Y-1672437D01*
X1918716Y-1676196D01*
X1917598Y-1680413D01*
X1917242Y-1685188D01*
X1917801Y-1690776D01*
X1919376Y-1696466D01*
X1921967Y-1702206D01*
X1925472Y-1708048D01*
X1929790Y-1713941D01*
X1934921Y-1719935D01*
X1940763Y-1726133D01*
X1947214Y-1732432D01*
X1937969Y-1731924D01*
X1913686Y-1731924D01*
X1913686Y-1739036D01*
X1959914Y-1739036D01*
X1959914Y-1733956D01*
X1951583Y-1726488D01*
X1944420Y-1719478D01*
X1938477Y-1712975D01*
X1933702Y-1706829D01*
X1929993Y-1701038D01*
X1927402Y-1695551D01*
X1925878Y-1690370D01*
X1925370Y-1685442D01*
X1926234Y-1679244D01*
X1928875Y-1674317D01*
X1933295Y-1671116D01*
X1939594Y-1669948D01*
X1944065Y-1670659D01*
X1948230Y-1672539D01*
X1952040Y-1675384D01*
X1955342Y-1678838D01*
X1960422Y-1674266D01*
X1955749Y-1669745D01*
X1950720Y-1666290D01*
X1945081Y-1664106D01*
G37*
G36*
X1990140Y-1663344D02*
G01*
X1983841Y-1664055D01*
X1978304Y-1666087D01*
X1973681Y-1668983D01*
X1970074Y-1672488D01*
X1974646Y-1677822D01*
X1977745Y-1674875D01*
X1981352Y-1672640D01*
X1985467Y-1671167D01*
X1990140Y-1670710D01*
X1995322Y-1671218D01*
X1999996Y-1672843D01*
X2004110Y-1675485D01*
X2007616Y-1679041D01*
X2010460Y-1683512D01*
X2012543Y-1688795D01*
X2013813Y-1694891D01*
X2014270Y-1701698D01*
X2013864Y-1708505D01*
X2012594Y-1714601D01*
X2010613Y-1719935D01*
X2007870Y-1724456D01*
X2004415Y-1728063D01*
X2000351Y-1730705D01*
X1995627Y-1732381D01*
X1990394Y-1732940D01*
X1985314Y-1732330D01*
X1980742Y-1730705D01*
X1976628Y-1728012D01*
X1972868Y-1724304D01*
X1968042Y-1729638D01*
X1972716Y-1734159D01*
X1978050Y-1737512D01*
X1984095Y-1739595D01*
X1990902Y-1740306D01*
X1997506Y-1739595D01*
X2003602Y-1737664D01*
X2009038Y-1734464D01*
X2013762Y-1730044D01*
X2017572Y-1724558D01*
X2020468Y-1718005D01*
X2022297Y-1710436D01*
X2022906Y-1701952D01*
X2022246Y-1693418D01*
X2020417Y-1685848D01*
X2017471Y-1679244D01*
X2013559Y-1673656D01*
X2008784Y-1669237D01*
X2003196Y-1665986D01*
X1996948Y-1664004D01*
G37*
G36*
X2053640Y-1664614D02*
G01*
X2038318Y-1709064D01*
X2046528Y-1709064D01*
X2058212Y-1671726D01*
X2058466Y-1671726D01*
X2066086Y-1696872D01*
X2070150Y-1709064D01*
X2038318Y-1709064D01*
X2027986Y-1739036D01*
X2037130Y-1739036D01*
X2044496Y-1715668D01*
X2072182Y-1715668D01*
X2079802Y-1739036D01*
X2088184Y-1739036D01*
X2062784Y-1664614D01*
G37*
G36*
X2128316Y-1664614D02*
G01*
X2122830Y-1664868D01*
X2117801Y-1665681D01*
X2113229Y-1667052D01*
X2109114Y-1668932D01*
X2105507Y-1671370D01*
X2102358Y-1674266D01*
X2099665Y-1677619D01*
X2097430Y-1681480D01*
X2095754Y-1685798D01*
X2094484Y-1690573D01*
X2093772Y-1695805D01*
X2093518Y-1701444D01*
X2102154Y-1701444D01*
X2102561Y-1694738D01*
X2103831Y-1688795D01*
X2105914Y-1683664D01*
X2108860Y-1679397D01*
X2112619Y-1675993D01*
X2117242Y-1673504D01*
X2122728Y-1671980D01*
X2129078Y-1671472D01*
X2138222Y-1671472D01*
X2138222Y-1732178D01*
X2129078Y-1732178D01*
X2122728Y-1731619D01*
X2117242Y-1730044D01*
X2112619Y-1727454D01*
X2108860Y-1723948D01*
X2105914Y-1719529D01*
X2103831Y-1714246D01*
X2102561Y-1708200D01*
X2102154Y-1701444D01*
X2093518Y-1701444D01*
X2093772Y-1707083D01*
X2094484Y-1712315D01*
X2095754Y-1717141D01*
X2097430Y-1721561D01*
X2099614Y-1725523D01*
X2102307Y-1728978D01*
X2105456Y-1731975D01*
X2109063Y-1734464D01*
X2113127Y-1736445D01*
X2117648Y-1737868D01*
X2122627Y-1738731D01*
X2128062Y-1739036D01*
X2146604Y-1739036D01*
X2146604Y-1664614D01*
G37*
G36*
X2824327Y-1663344D02*
G01*
X2818028Y-1664055D01*
X2812491Y-1666087D01*
X2807868Y-1668983D01*
X2804261Y-1672488D01*
X2808833Y-1677822D01*
X2811932Y-1674875D01*
X2815539Y-1672640D01*
X2819654Y-1671218D01*
X2824327Y-1670710D01*
X2829509Y-1671269D01*
X2834182Y-1672843D01*
X2838297Y-1675485D01*
X2841802Y-1679041D01*
X2844647Y-1683512D01*
X2846730Y-1688795D01*
X2848000Y-1694891D01*
X2848457Y-1701698D01*
X2848051Y-1708505D01*
X2846781Y-1714601D01*
X2844800Y-1719935D01*
X2842056Y-1724456D01*
X2838602Y-1728063D01*
X2834538Y-1730705D01*
X2829814Y-1732381D01*
X2824581Y-1732940D01*
X2819501Y-1732381D01*
X2814980Y-1730705D01*
X2810814Y-1728012D01*
X2807055Y-1724304D01*
X2802229Y-1729638D01*
X2806903Y-1734159D01*
X2812237Y-1737512D01*
X2818282Y-1739595D01*
X2825089Y-1740306D01*
X2831693Y-1739646D01*
X2837789Y-1737664D01*
X2843225Y-1734464D01*
X2847949Y-1730044D01*
X2851810Y-1724558D01*
X2854655Y-1718005D01*
X2856484Y-1710436D01*
X2857093Y-1701952D01*
X2856433Y-1693418D01*
X2854604Y-1685848D01*
X2851658Y-1679244D01*
X2847746Y-1673656D01*
X2842971Y-1669237D01*
X2837383Y-1665986D01*
X2831134Y-1664004D01*
G37*
G36*
X2764637Y-1664614D02*
G01*
X2764637Y-1732178D01*
X2749397Y-1732178D01*
X2749397Y-1739036D01*
X2789529Y-1739036D01*
X2789529Y-1732178D01*
X2772765Y-1732178D01*
X2772765Y-1675028D01*
X2785973Y-1675028D01*
X2785973Y-1669694D01*
X2781503Y-1668780D01*
X2777540Y-1667611D01*
X2774035Y-1666189D01*
X2770987Y-1664614D01*
G37*
G36*
X2887827Y-1664614D02*
G01*
X2872505Y-1709064D01*
X2880715Y-1709064D01*
X2892399Y-1671726D01*
X2892653Y-1671726D01*
X2900273Y-1696872D01*
X2904337Y-1709064D01*
X2872505Y-1709064D01*
X2862173Y-1739036D01*
X2871317Y-1739036D01*
X2878683Y-1715668D01*
X2906369Y-1715668D01*
X2913989Y-1739036D01*
X2922371Y-1739036D01*
X2896971Y-1664614D01*
G37*
G36*
X2962503Y-1664614D02*
G01*
X2957017Y-1664868D01*
X2951988Y-1665681D01*
X2947416Y-1667052D01*
X2943301Y-1668932D01*
X2939694Y-1671370D01*
X2936544Y-1674266D01*
X2933852Y-1677619D01*
X2931668Y-1681480D01*
X2929940Y-1685798D01*
X2928670Y-1690573D01*
X2927959Y-1695805D01*
X2927705Y-1701444D01*
X2936341Y-1701444D01*
X2936748Y-1694738D01*
X2938018Y-1688795D01*
X2940100Y-1683664D01*
X2943047Y-1679397D01*
X2946806Y-1675993D01*
X2951429Y-1673504D01*
X2956915Y-1671980D01*
X2963265Y-1671472D01*
X2972409Y-1671472D01*
X2972409Y-1732178D01*
X2963265Y-1732178D01*
X2956915Y-1731619D01*
X2951429Y-1730044D01*
X2946806Y-1727454D01*
X2943047Y-1723948D01*
X2940100Y-1719529D01*
X2938018Y-1714246D01*
X2936748Y-1708200D01*
X2936341Y-1701444D01*
X2927705Y-1701444D01*
X2927959Y-1707083D01*
X2928670Y-1712315D01*
X2929940Y-1717141D01*
X2931617Y-1721561D01*
X2933852Y-1725523D01*
X2936494Y-1728978D01*
X2939643Y-1731975D01*
X2943250Y-1734464D01*
X2947314Y-1736445D01*
X2951835Y-1737868D01*
X2956814Y-1738731D01*
X2962249Y-1739036D01*
X2980791Y-1739036D01*
X2980791Y-1664614D01*
G37*
G36*
X2777439Y-1424533D02*
G01*
X2770428Y-1425295D01*
X2764688Y-1427378D01*
X2760014Y-1430324D01*
X2756357Y-1433677D01*
X2760929Y-1439011D01*
X2763977Y-1436268D01*
X2767634Y-1434033D01*
X2772054Y-1432458D01*
X2777439Y-1431899D01*
X2782874Y-1432458D01*
X2787802Y-1434033D01*
X2792069Y-1436674D01*
X2795727Y-1440230D01*
X2798622Y-1444701D01*
X2800756Y-1449984D01*
X2802128Y-1456080D01*
X2802585Y-1462887D01*
X2802128Y-1469694D01*
X2800908Y-1475790D01*
X2798826Y-1481124D01*
X2795981Y-1485646D01*
X2792425Y-1489252D01*
X2788107Y-1491894D01*
X2783078Y-1493570D01*
X2777439Y-1494129D01*
X2773273Y-1493774D01*
X2769362Y-1492859D01*
X2765907Y-1491437D01*
X2763215Y-1489557D01*
X2763215Y-1469237D01*
X2779471Y-1469237D01*
X2779471Y-1462125D01*
X2755341Y-1462125D01*
X2755341Y-1493113D01*
X2759557Y-1496466D01*
X2764840Y-1499108D01*
X2771089Y-1500835D01*
X2778201Y-1501495D01*
X2785160Y-1500835D01*
X2791510Y-1498854D01*
X2797098Y-1495653D01*
X2801924Y-1491284D01*
X2805836Y-1485747D01*
X2808782Y-1479194D01*
X2810560Y-1471625D01*
X2811221Y-1463141D01*
X2810916Y-1457350D01*
X2810052Y-1451965D01*
X2808732Y-1447038D01*
X2806852Y-1442516D01*
X2804515Y-1438452D01*
X2801721Y-1434896D01*
X2798572Y-1431798D01*
X2794965Y-1429207D01*
X2791053Y-1427175D01*
X2786786Y-1425702D01*
X2782265Y-1424838D01*
G37*
G36*
X2077618Y-1408480D02*
G01*
X2077618Y-1476044D01*
X2062378Y-1476044D01*
X2062378Y-1482902D01*
X2102510Y-1482902D01*
X2102510Y-1476044D01*
X2085746Y-1476044D01*
X2085746Y-1418894D01*
X2098954Y-1418894D01*
X2098954Y-1413560D01*
X2094382Y-1412646D01*
X2090420Y-1411528D01*
X2086914Y-1410106D01*
X2083714Y-1408480D01*
G37*
G36*
X2133244Y-1408480D02*
G01*
X2133244Y-1476044D01*
X2118258Y-1476044D01*
X2118258Y-1482902D01*
X2158136Y-1482902D01*
X2158136Y-1476044D01*
X2141626Y-1476044D01*
X2141626Y-1418894D01*
X2154580Y-1418894D01*
X2154580Y-1413560D01*
X2150110Y-1412646D01*
X2146147Y-1411528D01*
X2142693Y-1410106D01*
X2139594Y-1408480D01*
G37*
G36*
X2085492Y-1155344D02*
G01*
X2080768Y-1155750D01*
X2076602Y-1156868D01*
X2072944Y-1158748D01*
X2069846Y-1161288D01*
X2067407Y-1164437D01*
X2065629Y-1168196D01*
X2064512Y-1172464D01*
X2064156Y-1177188D01*
X2064715Y-1182827D01*
X2066289Y-1188466D01*
X2068880Y-1194206D01*
X2072386Y-1200048D01*
X2076704Y-1205941D01*
X2081834Y-1211986D01*
X2087676Y-1218133D01*
X2094128Y-1224432D01*
X2081936Y-1223924D01*
X2060600Y-1223924D01*
X2060600Y-1231036D01*
X2106574Y-1231036D01*
X2106574Y-1225956D01*
X2098294Y-1218488D01*
X2091232Y-1211529D01*
X2085339Y-1204976D01*
X2080564Y-1198829D01*
X2076907Y-1193038D01*
X2074316Y-1187602D01*
X2072792Y-1182370D01*
X2072284Y-1177442D01*
X2073148Y-1171244D01*
X2075789Y-1166368D01*
X2080209Y-1163116D01*
X2086508Y-1161948D01*
X2090928Y-1162659D01*
X2095042Y-1164590D01*
X2098802Y-1167384D01*
X2102256Y-1170838D01*
X2107082Y-1166266D01*
X2102561Y-1161745D01*
X2097633Y-1158341D01*
X2091994Y-1156106D01*
G37*
G36*
X2132990Y-1156614D02*
G01*
X2132990Y-1224178D01*
X2118004Y-1224178D01*
X2118004Y-1231036D01*
X2157882Y-1231036D01*
X2157882Y-1224178D01*
X2141372Y-1224178D01*
X2141372Y-1167028D01*
X2154326Y-1167028D01*
X2154326Y-1161694D01*
X2149856Y-1160780D01*
X2145893Y-1159611D01*
X2142388Y-1158240D01*
X2139340Y-1156614D01*
G37*
G36*
X2759202Y-907999D02*
G01*
X2759202Y-915111D01*
X2787650Y-915111D01*
X2789682Y-937717D01*
X2786989Y-936396D01*
X2784195Y-935431D01*
X2781249Y-934872D01*
X2777998Y-934669D01*
X2773527Y-935024D01*
X2769362Y-936040D01*
X2765552Y-937818D01*
X2762250Y-940308D01*
X2759506Y-943559D01*
X2757424Y-947623D01*
X2756103Y-952550D01*
X2755646Y-958291D01*
X2756154Y-964082D01*
X2757678Y-969111D01*
X2760014Y-973480D01*
X2763062Y-977087D01*
X2766669Y-979932D01*
X2770733Y-982014D01*
X2775153Y-983284D01*
X2779776Y-983691D01*
X2787548Y-982878D01*
X2793949Y-980643D01*
X2799080Y-977493D01*
X2803144Y-973785D01*
X2799080Y-968451D01*
X2795574Y-971600D01*
X2791409Y-974293D01*
X2786481Y-976121D01*
X2780538Y-976833D01*
X2774086Y-975563D01*
X2768854Y-971905D01*
X2765298Y-966114D01*
X2764028Y-958545D01*
X2765145Y-951230D01*
X2768396Y-945692D01*
X2773476Y-942238D01*
X2780030Y-941019D01*
X2783535Y-941324D01*
X2786684Y-942136D01*
X2789631Y-943508D01*
X2792730Y-945337D01*
X2797302Y-942543D01*
X2794762Y-907999D01*
G37*
G36*
X2827782Y-907999D02*
G01*
X2827782Y-975563D01*
X2812796Y-975563D01*
X2812796Y-982421D01*
X2852674Y-982421D01*
X2852674Y-975563D01*
X2836164Y-975563D01*
X2836164Y-918413D01*
X2849118Y-918413D01*
X2849118Y-913079D01*
X2844647Y-912164D01*
X2840685Y-911047D01*
X2837180Y-909624D01*
X2834132Y-907999D01*
G37*
G36*
X2063496Y-907999D02*
G01*
X2063496Y-917651D01*
X2071166Y-917651D01*
X2076957Y-928573D01*
X2094992Y-954989D01*
X2071420Y-954989D01*
X2071319Y-927811D01*
X2070607Y-917651D01*
X2063496Y-917651D01*
X2063496Y-954989D01*
X2053386Y-954989D01*
X2053386Y-961593D01*
X2063496Y-961593D01*
X2063496Y-982421D01*
X2071420Y-982421D01*
X2071420Y-961593D01*
X2103932Y-961593D01*
X2103932Y-956259D01*
X2072436Y-907999D01*
G37*
G36*
X2127758Y-907999D02*
G01*
X2127758Y-975563D01*
X2112568Y-975563D01*
X2112568Y-982421D01*
X2152700Y-982421D01*
X2152700Y-975563D01*
X2135936Y-975563D01*
X2135936Y-918413D01*
X2149094Y-918413D01*
X2149094Y-913079D01*
X2144522Y-912164D01*
X2140559Y-910996D01*
X2137054Y-909624D01*
X2133904Y-907999D01*
G37*
G36*
X-633780Y-989482D02*
G01*
X-633780Y-996594D01*
X-605586Y-996594D01*
X-603554Y-1019200D01*
X-606094Y-1017879D01*
X-608787Y-1016914D01*
X-611733Y-1016355D01*
X-614984Y-1016152D01*
X-619506Y-1016508D01*
X-623722Y-1017524D01*
X-627532Y-1019302D01*
X-630834Y-1021791D01*
X-633577Y-1025042D01*
X-635609Y-1029106D01*
X-636879Y-1034034D01*
X-637336Y-1039774D01*
X-636828Y-1045565D01*
X-635355Y-1050594D01*
X-633018Y-1054963D01*
X-629970Y-1058570D01*
X-626364Y-1061415D01*
X-622350Y-1063498D01*
X-617982Y-1064768D01*
X-613460Y-1065174D01*
X-605586Y-1064361D01*
X-599186Y-1062126D01*
X-594055Y-1058976D01*
X-589838Y-1055268D01*
X-594156Y-1049934D01*
X-597509Y-1053084D01*
X-601624Y-1055776D01*
X-606653Y-1057605D01*
X-612698Y-1058316D01*
X-618998Y-1057046D01*
X-624179Y-1053388D01*
X-627684Y-1047597D01*
X-628954Y-1040028D01*
X-627837Y-1032713D01*
X-624586Y-1027176D01*
X-619556Y-1023721D01*
X-612952Y-1022502D01*
X-609498Y-1022807D01*
X-606450Y-1023619D01*
X-603554Y-1024991D01*
X-600506Y-1026820D01*
X-595934Y-1024026D01*
X-598220Y-989482D01*
G37*
G36*
X-644448Y-1076807D02*
G01*
X-620826Y-1151229D01*
X-611174Y-1151229D01*
X-587298Y-1076807D01*
X-596188Y-1076807D01*
X-613918Y-1136243D01*
X-616000Y-1142593D01*
X-616254Y-1142593D01*
X-636066Y-1076807D01*
G37*
G36*
X-627837Y-1405026D02*
G01*
X-627837Y-1449222D01*
X-627278Y-1457350D01*
X-625754Y-1464106D01*
X-623366Y-1469542D01*
X-620166Y-1473809D01*
X-616305Y-1476959D01*
X-611886Y-1479092D01*
X-606958Y-1480312D01*
X-601675Y-1480718D01*
X-596290Y-1480312D01*
X-591312Y-1479092D01*
X-586841Y-1476959D01*
X-582930Y-1473809D01*
X-579729Y-1469542D01*
X-577291Y-1464106D01*
X-575767Y-1457350D01*
X-575259Y-1449222D01*
X-575259Y-1405026D01*
X-583641Y-1405026D01*
X-583641Y-1449476D01*
X-585063Y-1460906D01*
X-588924Y-1468272D01*
X-594664Y-1472184D01*
X-601675Y-1473352D01*
X-605282Y-1473047D01*
X-608685Y-1472184D01*
X-611784Y-1470609D01*
X-614527Y-1468272D01*
X-616762Y-1465072D01*
X-618490Y-1460906D01*
X-619556Y-1455724D01*
X-619963Y-1449476D01*
X-619963Y-1405026D01*
G37*
G36*
X-669239Y-1416710D02*
G01*
X-669239Y-1438808D01*
X-689813Y-1438808D01*
X-689813Y-1445158D01*
X-669239Y-1445158D01*
X-669239Y-1467510D01*
X-662381Y-1467510D01*
X-662381Y-1445158D01*
X-641807Y-1445158D01*
X-641807Y-1438808D01*
X-662381Y-1438808D01*
X-662381Y-1416710D01*
G37*
G36*
X41808Y-1415999D02*
G01*
X41808Y-1460195D01*
X42316Y-1468323D01*
X43840Y-1475079D01*
X46278Y-1480566D01*
X49479Y-1484782D01*
X53340Y-1487982D01*
X57759Y-1490116D01*
X62687Y-1491335D01*
X67970Y-1491691D01*
X73355Y-1491335D01*
X78282Y-1490116D01*
X82804Y-1487982D01*
X86715Y-1484782D01*
X89916Y-1480566D01*
X92303Y-1475079D01*
X93827Y-1468323D01*
X94386Y-1460195D01*
X94386Y-1415999D01*
X86004Y-1415999D01*
X86004Y-1460449D01*
X84582Y-1471879D01*
X80721Y-1479245D01*
X74980Y-1483156D01*
X67970Y-1484325D01*
X64312Y-1484071D01*
X60909Y-1483156D01*
X57810Y-1481582D01*
X55117Y-1479245D01*
X52832Y-1476044D01*
X51155Y-1471879D01*
X50038Y-1466748D01*
X49682Y-1460449D01*
X49682Y-1415999D01*
G37*
G36*
X8382Y-1664512D02*
G01*
X3200Y-1665071D01*
X-1371Y-1666595D01*
X-5283Y-1668881D01*
X-8636Y-1671878D01*
X-3810Y-1677212D01*
X-1270Y-1674774D01*
X1574Y-1672945D01*
X4775Y-1671777D01*
X8128Y-1671370D01*
X11938Y-1671777D01*
X15544Y-1672996D01*
X18846Y-1675180D01*
X21742Y-1678381D01*
X24180Y-1682699D01*
X26111Y-1688185D01*
X27381Y-1694992D01*
X27940Y-1703120D01*
X24079Y-1699361D01*
X19812Y-1696567D01*
X15290Y-1694840D01*
X10668Y-1694230D01*
X6146Y-1694586D01*
X2082Y-1695704D01*
X-1422Y-1697532D01*
X-4368Y-1700072D01*
X-6756Y-1703324D01*
X-8483Y-1707286D01*
X-9550Y-1711960D01*
X-9906Y-1717344D01*
X-2032Y-1717344D01*
X-1168Y-1710385D01*
X1422Y-1705000D01*
X5791Y-1701546D01*
X11938Y-1700326D01*
X15747Y-1700885D01*
X19710Y-1702612D01*
X23774Y-1705660D01*
X27686Y-1710232D01*
X26060Y-1720748D01*
X22656Y-1728470D01*
X17678Y-1733245D01*
X11176Y-1734870D01*
X5892Y-1733600D01*
X1727Y-1729993D01*
X-1016Y-1724456D01*
X-2032Y-1717344D01*
X-9906Y-1717344D01*
X-9448Y-1722526D01*
X-8229Y-1727200D01*
X-6248Y-1731314D01*
X-3657Y-1734820D01*
X-508Y-1737664D01*
X3048Y-1739747D01*
X7010Y-1741017D01*
X11176Y-1741474D01*
X16306Y-1740865D01*
X20980Y-1739138D01*
X25146Y-1736242D01*
X28702Y-1732229D01*
X31597Y-1727098D01*
X33782Y-1720799D01*
X35102Y-1713382D01*
X35560Y-1704898D01*
X35001Y-1694688D01*
X33324Y-1686153D01*
X30733Y-1679193D01*
X27330Y-1673656D01*
X23266Y-1669542D01*
X18643Y-1666697D01*
X13665Y-1665020D01*
G37*
G36*
X70866Y-1664512D02*
G01*
X62433Y-1665732D01*
X55778Y-1669288D01*
X51358Y-1675028D01*
X49784Y-1682800D01*
X50749Y-1689201D01*
X53441Y-1694332D01*
X57607Y-1698243D01*
X62991Y-1701088D01*
X62991Y-1701342D01*
X56896Y-1703730D01*
X51866Y-1707794D01*
X48514Y-1713433D01*
X47244Y-1720392D01*
X47752Y-1725066D01*
X49072Y-1729232D01*
X51257Y-1732889D01*
X54102Y-1735886D01*
X57556Y-1738274D01*
X61518Y-1740052D01*
X65887Y-1741119D01*
X70612Y-1741474D01*
X78587Y-1740611D01*
X84988Y-1738375D01*
X90170Y-1735124D01*
X94234Y-1731314D01*
X89916Y-1725980D01*
X86410Y-1729232D01*
X82245Y-1732025D01*
X77216Y-1733905D01*
X71120Y-1734616D01*
X64871Y-1733600D01*
X59943Y-1730705D01*
X56794Y-1726133D01*
X55626Y-1720138D01*
X56896Y-1713839D01*
X60960Y-1708962D01*
X68275Y-1705762D01*
X79248Y-1704644D01*
X79248Y-1698294D01*
X69342Y-1697177D01*
X62788Y-1694078D01*
X59232Y-1689404D01*
X58166Y-1683562D01*
X59080Y-1678533D01*
X61722Y-1674672D01*
X65786Y-1672132D01*
X71120Y-1671116D01*
X75590Y-1671828D01*
X79756Y-1673402D01*
X83566Y-1675739D01*
X86868Y-1678736D01*
X91440Y-1673148D01*
X87071Y-1669745D01*
X82296Y-1667002D01*
X76962Y-1665173D01*
G37*
G36*
X-589127Y-1664512D02*
G01*
X-597560Y-1665732D01*
X-604266Y-1669288D01*
X-608634Y-1675028D01*
X-610209Y-1682800D01*
X-609244Y-1689201D01*
X-606552Y-1694332D01*
X-602386Y-1698243D01*
X-597001Y-1701088D01*
X-597001Y-1701342D01*
X-603097Y-1703730D01*
X-608126Y-1707794D01*
X-611530Y-1713433D01*
X-612749Y-1720392D01*
X-612292Y-1725066D01*
X-610920Y-1729232D01*
X-608787Y-1732889D01*
X-605942Y-1735886D01*
X-602488Y-1738274D01*
X-598525Y-1740052D01*
X-594106Y-1741119D01*
X-589381Y-1741474D01*
X-581456Y-1740611D01*
X-575005Y-1738375D01*
X-569823Y-1735124D01*
X-565759Y-1731314D01*
X-570077Y-1725980D01*
X-573582Y-1729232D01*
X-577748Y-1732025D01*
X-582777Y-1733905D01*
X-588873Y-1734616D01*
X-595172Y-1733600D01*
X-600049Y-1730705D01*
X-603250Y-1726133D01*
X-604367Y-1720138D01*
X-603097Y-1713839D01*
X-599033Y-1708962D01*
X-591718Y-1705762D01*
X-580745Y-1704644D01*
X-580745Y-1698294D01*
X-590702Y-1697177D01*
X-597204Y-1694078D01*
X-600760Y-1689404D01*
X-601827Y-1683562D01*
X-600913Y-1678533D01*
X-598322Y-1674672D01*
X-594207Y-1672132D01*
X-588873Y-1671116D01*
X-584403Y-1671828D01*
X-580237Y-1673402D01*
X-576427Y-1675739D01*
X-573125Y-1678736D01*
X-568553Y-1673148D01*
X-572922Y-1669745D01*
X-577697Y-1667002D01*
X-583082Y-1665173D01*
G37*
G36*
X-665327Y-1665782D02*
G01*
X-665327Y-1672894D01*
X-637133Y-1672894D01*
X-635101Y-1695500D01*
X-637641Y-1694180D01*
X-640334Y-1693214D01*
X-643280Y-1692656D01*
X-646531Y-1692452D01*
X-651052Y-1692808D01*
X-655269Y-1693824D01*
X-659079Y-1695551D01*
X-662381Y-1698091D01*
X-665073Y-1701342D01*
X-667156Y-1705406D01*
X-668426Y-1710334D01*
X-668883Y-1716074D01*
X-668375Y-1721815D01*
X-666851Y-1726895D01*
X-664514Y-1731264D01*
X-661466Y-1734870D01*
X-657860Y-1737715D01*
X-653796Y-1739798D01*
X-649376Y-1741068D01*
X-644753Y-1741474D01*
X-636981Y-1740662D01*
X-630682Y-1738426D01*
X-625602Y-1735277D01*
X-621385Y-1731568D01*
X-625449Y-1726234D01*
X-628954Y-1729384D01*
X-633120Y-1732025D01*
X-638149Y-1733905D01*
X-644245Y-1734616D01*
X-650544Y-1733346D01*
X-655726Y-1729638D01*
X-659231Y-1723898D01*
X-660501Y-1716328D01*
X-659384Y-1708962D01*
X-656132Y-1703476D01*
X-651052Y-1700022D01*
X-644499Y-1698802D01*
X-640994Y-1699056D01*
X-637895Y-1699920D01*
X-635000Y-1701241D01*
X-632053Y-1703120D01*
X-627481Y-1700326D01*
X-629767Y-1665782D01*
G37*
G36*
X-589127Y-1917242D02*
G01*
X-597560Y-1918462D01*
X-604266Y-1921967D01*
X-608634Y-1927707D01*
X-610209Y-1935530D01*
X-609244Y-1941931D01*
X-606552Y-1947062D01*
X-602386Y-1950974D01*
X-597001Y-1953818D01*
X-597001Y-1954072D01*
X-603097Y-1956460D01*
X-608126Y-1960524D01*
X-611530Y-1966112D01*
X-612749Y-1973122D01*
X-612292Y-1977796D01*
X-610920Y-1981962D01*
X-608787Y-1985568D01*
X-605942Y-1988616D01*
X-602488Y-1991004D01*
X-598525Y-1992731D01*
X-594106Y-1993798D01*
X-589381Y-1994204D01*
X-581456Y-1993341D01*
X-575005Y-1991106D01*
X-569823Y-1987854D01*
X-565759Y-1984044D01*
X-570077Y-1978710D01*
X-573582Y-1981962D01*
X-577748Y-1984705D01*
X-582777Y-1986635D01*
X-588873Y-1987346D01*
X-595172Y-1986330D01*
X-600049Y-1983435D01*
X-603250Y-1978863D01*
X-604367Y-1972868D01*
X-603097Y-1966569D01*
X-599033Y-1961692D01*
X-591718Y-1958492D01*
X-580745Y-1957374D01*
X-580745Y-1951024D01*
X-590702Y-1949907D01*
X-597204Y-1946808D01*
X-600760Y-1942134D01*
X-601827Y-1936292D01*
X-600913Y-1931263D01*
X-598322Y-1927402D01*
X-594207Y-1924862D01*
X-588873Y-1923846D01*
X-584403Y-1924507D01*
X-580237Y-1926132D01*
X-576427Y-1928469D01*
X-573125Y-1931466D01*
X-568553Y-1925878D01*
X-572922Y-1922475D01*
X-577697Y-1919732D01*
X-583082Y-1917903D01*
G37*
G36*
X-669645Y-1918512D02*
G01*
X-669645Y-1923592D01*
X-665480Y-1929130D01*
X-661924Y-1934565D01*
X-658876Y-1939899D01*
X-656285Y-1945182D01*
X-654151Y-1950466D01*
X-652424Y-1955850D01*
X-651002Y-1961388D01*
X-649884Y-1967077D01*
X-649020Y-1973021D01*
X-647903Y-1985924D01*
X-647547Y-1992934D01*
X-638911Y-1992934D01*
X-639876Y-1979371D01*
X-641654Y-1967230D01*
X-642924Y-1961540D01*
X-644398Y-1956104D01*
X-646176Y-1950872D01*
X-648258Y-1945690D01*
X-650646Y-1940661D01*
X-653389Y-1935632D01*
X-656488Y-1930654D01*
X-659993Y-1925624D01*
X-623417Y-1925624D01*
X-623417Y-1918512D01*
G37*
G36*
X70866Y-1914499D02*
G01*
X62433Y-1915718D01*
X55778Y-1919274D01*
X51358Y-1925015D01*
X49784Y-1932787D01*
X50749Y-1939188D01*
X53441Y-1944319D01*
X57607Y-1948281D01*
X62991Y-1951075D01*
X62991Y-1951329D01*
X56896Y-1953768D01*
X51866Y-1957832D01*
X48514Y-1963420D01*
X47244Y-1970379D01*
X47752Y-1975104D01*
X49072Y-1979269D01*
X51257Y-1982876D01*
X54102Y-1985873D01*
X57556Y-1988312D01*
X61518Y-1990039D01*
X65887Y-1991106D01*
X70612Y-1991461D01*
X78587Y-1990648D01*
X84988Y-1988413D01*
X90170Y-1985162D01*
X94234Y-1981301D01*
X89916Y-1975967D01*
X86410Y-1979269D01*
X82245Y-1982012D01*
X77216Y-1983943D01*
X71120Y-1984603D01*
X64871Y-1983638D01*
X59943Y-1980742D01*
X56794Y-1976170D01*
X55626Y-1970125D01*
X56896Y-1963877D01*
X60960Y-1958949D01*
X68275Y-1955800D01*
X79248Y-1954631D01*
X79248Y-1948281D01*
X69342Y-1947164D01*
X62788Y-1944065D01*
X59232Y-1939391D01*
X58166Y-1933549D01*
X59080Y-1928571D01*
X61722Y-1924659D01*
X65786Y-1922119D01*
X71120Y-1921103D01*
X75590Y-1921814D01*
X79756Y-1923389D01*
X83566Y-1925777D01*
X86868Y-1928723D01*
X91440Y-1923135D01*
X87071Y-1919782D01*
X82296Y-1917039D01*
X76962Y-1915210D01*
G37*
G36*
X13208Y-1914753D02*
G01*
X4673Y-1916226D01*
X-1727Y-1920290D01*
X-5689Y-1926437D01*
X-7112Y-1934311D01*
X-7025Y-1934819D01*
X0Y-1934819D01*
X914Y-1929485D01*
X3454Y-1925116D01*
X7620Y-1922221D01*
X13208Y-1921103D01*
X18135Y-1922018D01*
X21996Y-1924608D01*
X24485Y-1928520D01*
X25400Y-1933549D01*
X23977Y-1939543D01*
X20116Y-1944014D01*
X14579Y-1947418D01*
X8128Y-1950059D01*
X4724Y-1946656D01*
X2184Y-1942947D01*
X558Y-1938985D01*
X0Y-1934819D01*
X-7025Y-1934819D01*
X-6146Y-1940001D01*
X-3759Y-1945081D01*
X-457Y-1949246D01*
X3048Y-1952345D01*
X3048Y-1952853D01*
X-1727Y-1956104D01*
X-5791Y-1960270D01*
X-8585Y-1965604D01*
X-9612Y-1972157D01*
X-1778Y-1972157D01*
X-101Y-1965502D01*
X4368Y-1960625D01*
X10871Y-1956917D01*
X18542Y-1953615D01*
X22961Y-1957070D01*
X26416Y-1961184D01*
X28651Y-1965909D01*
X29464Y-1971141D01*
X28244Y-1976831D01*
X24790Y-1981301D01*
X19608Y-1984298D01*
X13208Y-1985365D01*
X7112Y-1984400D01*
X2387Y-1981657D01*
X-660Y-1977440D01*
X-1778Y-1972157D01*
X-9612Y-1972157D01*
X-7975Y-1979930D01*
X-3352Y-1985975D01*
X3860Y-1989988D01*
X13208Y-1991461D01*
X18186Y-1991106D01*
X22707Y-1989988D01*
X26720Y-1988210D01*
X30175Y-1985873D01*
X32969Y-1982978D01*
X35102Y-1979574D01*
X36372Y-1975815D01*
X36830Y-1971649D01*
X35661Y-1964791D01*
X32562Y-1959000D01*
X28143Y-1954428D01*
X23114Y-1951075D01*
X23114Y-1950567D01*
X26924Y-1947519D01*
X30073Y-1943709D01*
X32207Y-1939036D01*
X33020Y-1933549D01*
X31495Y-1925929D01*
X27330Y-1919986D01*
X21031Y-1916125D01*
G37*
G36*
X20777Y-2164537D02*
G01*
X15798Y-2165096D01*
X11328Y-2166874D01*
X7467Y-2169820D01*
X4216Y-2173935D01*
X1625Y-2179269D01*
X-254Y-2185822D01*
X-1422Y-2193594D01*
X-1828Y-2202637D01*
X6299Y-2202637D01*
X6553Y-2195068D01*
X7366Y-2188616D01*
X8585Y-2183180D01*
X10312Y-2178761D01*
X12395Y-2175408D01*
X14884Y-2173020D01*
X17678Y-2171598D01*
X20777Y-2171141D01*
X23977Y-2171598D01*
X26873Y-2173020D01*
X29413Y-2175408D01*
X31597Y-2178761D01*
X33375Y-2183180D01*
X34696Y-2188616D01*
X35509Y-2195068D01*
X35763Y-2202637D01*
X35509Y-2210409D01*
X34696Y-2217115D01*
X33375Y-2222652D01*
X31597Y-2227122D01*
X29413Y-2230577D01*
X26873Y-2232964D01*
X23977Y-2234387D01*
X20777Y-2234895D01*
X17678Y-2234387D01*
X14884Y-2232964D01*
X12395Y-2230577D01*
X10312Y-2227122D01*
X8585Y-2222652D01*
X7366Y-2217115D01*
X6553Y-2210409D01*
X6299Y-2202637D01*
X-1828Y-2202637D01*
X-1422Y-2211781D01*
X-254Y-2219706D01*
X1625Y-2226411D01*
X4216Y-2231847D01*
X7467Y-2236063D01*
X11328Y-2239111D01*
X15798Y-2240889D01*
X20777Y-2241499D01*
X25755Y-2240889D01*
X30226Y-2239111D01*
X34137Y-2236063D01*
X37439Y-2231847D01*
X40081Y-2226411D01*
X42011Y-2219706D01*
X43230Y-2211781D01*
X43637Y-2202637D01*
X43230Y-2193594D01*
X42011Y-2185822D01*
X40081Y-2179269D01*
X37439Y-2173935D01*
X34137Y-2169820D01*
X30226Y-2166874D01*
X25755Y-2165096D01*
G37*
G36*
X62179Y-2165807D02*
G01*
X62179Y-2175459D01*
X69799Y-2175459D01*
X75895Y-2186381D01*
X93675Y-2212797D01*
X70053Y-2212797D01*
X70002Y-2185619D01*
X69646Y-2178608D01*
X69291Y-2175459D01*
X62179Y-2175459D01*
X62179Y-2212797D01*
X52019Y-2212797D01*
X52019Y-2219401D01*
X62179Y-2219401D01*
X62179Y-2240229D01*
X70053Y-2240229D01*
X70053Y-2219401D01*
X102565Y-2219401D01*
X102565Y-2214067D01*
X71069Y-2165807D01*
G37*
G36*
X-643991Y-2164537D02*
G01*
X-649224Y-2165096D01*
X-653948Y-2166721D01*
X-658164Y-2169464D01*
X-661720Y-2173274D01*
X-664667Y-2178202D01*
X-666800Y-2184247D01*
X-668172Y-2191359D01*
X-668403Y-2195525D01*
X-660755Y-2195525D01*
X-659231Y-2185060D01*
X-655878Y-2177440D01*
X-650798Y-2172716D01*
X-643991Y-2171141D01*
X-638860Y-2172411D01*
X-634746Y-2175967D01*
X-632002Y-2181402D01*
X-631037Y-2188413D01*
X-631901Y-2195474D01*
X-634441Y-2200960D01*
X-638759Y-2204415D01*
X-644753Y-2205685D01*
X-648716Y-2205075D01*
X-652830Y-2203246D01*
X-656945Y-2200097D01*
X-660755Y-2195525D01*
X-668403Y-2195525D01*
X-668629Y-2199589D01*
X-668070Y-2210104D01*
X-666394Y-2218994D01*
X-663854Y-2226208D01*
X-660501Y-2231948D01*
X-656539Y-2236266D01*
X-652018Y-2239213D01*
X-647090Y-2240940D01*
X-641959Y-2241499D01*
X-636473Y-2240940D01*
X-631748Y-2239416D01*
X-627786Y-2237079D01*
X-624433Y-2234133D01*
X-629259Y-2228799D01*
X-631799Y-2231288D01*
X-634796Y-2233117D01*
X-638149Y-2234234D01*
X-641705Y-2234641D01*
X-645363Y-2234234D01*
X-648766Y-2232964D01*
X-651967Y-2230780D01*
X-654761Y-2227529D01*
X-657148Y-2223160D01*
X-659079Y-2217572D01*
X-660349Y-2210663D01*
X-661009Y-2202383D01*
X-657098Y-2206294D01*
X-652830Y-2209241D01*
X-648208Y-2211120D01*
X-643483Y-2211781D01*
X-639013Y-2211374D01*
X-635050Y-2210308D01*
X-631596Y-2208479D01*
X-628650Y-2205888D01*
X-626313Y-2202586D01*
X-624586Y-2198573D01*
X-623519Y-2193848D01*
X-623163Y-2188413D01*
X-623570Y-2183282D01*
X-624789Y-2178659D01*
X-626719Y-2174595D01*
X-629259Y-2171141D01*
X-632358Y-2168347D01*
X-635914Y-2166264D01*
X-639826Y-2164943D01*
G37*
G36*
X-589127Y-2164537D02*
G01*
X-597560Y-2165756D01*
X-604215Y-2169261D01*
X-608634Y-2175002D01*
X-610209Y-2182825D01*
X-609244Y-2189226D01*
X-606552Y-2194356D01*
X-602386Y-2198268D01*
X-597001Y-2201113D01*
X-597001Y-2201367D01*
X-603097Y-2203754D01*
X-608126Y-2207818D01*
X-611479Y-2213406D01*
X-612749Y-2220417D01*
X-612292Y-2225090D01*
X-610920Y-2229256D01*
X-608787Y-2232863D01*
X-605891Y-2235911D01*
X-602437Y-2238298D01*
X-598474Y-2240026D01*
X-594106Y-2241143D01*
X-589381Y-2241499D01*
X-581456Y-2240635D01*
X-575005Y-2238400D01*
X-569823Y-2235149D01*
X-565759Y-2231339D01*
X-570077Y-2226005D01*
X-573582Y-2229256D01*
X-577748Y-2231999D01*
X-582777Y-2233930D01*
X-588873Y-2234641D01*
X-595122Y-2233625D01*
X-600049Y-2230729D01*
X-603250Y-2226157D01*
X-604367Y-2220163D01*
X-603097Y-2213864D01*
X-599033Y-2208987D01*
X-591718Y-2205786D01*
X-580745Y-2204669D01*
X-580745Y-2198319D01*
X-590651Y-2197201D01*
X-597204Y-2194102D01*
X-600760Y-2189429D01*
X-601827Y-2183587D01*
X-600913Y-2178558D01*
X-598271Y-2174697D01*
X-594207Y-2172157D01*
X-588873Y-2171141D01*
X-584403Y-2171801D01*
X-580237Y-2173427D01*
X-576427Y-2175764D01*
X-573125Y-2178761D01*
X-568553Y-2173173D01*
X-572922Y-2169769D01*
X-577697Y-2167026D01*
X-583031Y-2165197D01*
G37*
G36*
X-652373Y-2428494D02*
G01*
X-652373Y-2496058D01*
X-667613Y-2496058D01*
X-667613Y-2502916D01*
X-627481Y-2502916D01*
X-627481Y-2496058D01*
X-644245Y-2496058D01*
X-644245Y-2438908D01*
X-631037Y-2438908D01*
X-631037Y-2433574D01*
X-635660Y-2432659D01*
X-639622Y-2431491D01*
X-643128Y-2430119D01*
X-646277Y-2428494D01*
G37*
G36*
X-605129Y-2428494D02*
G01*
X-605129Y-2438146D01*
X-597509Y-2438146D01*
X-591413Y-2449068D01*
X-573633Y-2475484D01*
X-597255Y-2475484D01*
X-597306Y-2448306D01*
X-598017Y-2438146D01*
X-605129Y-2438146D01*
X-605129Y-2475484D01*
X-615289Y-2475484D01*
X-615289Y-2482088D01*
X-605129Y-2482088D01*
X-605129Y-2502916D01*
X-597255Y-2502916D01*
X-597255Y-2482088D01*
X-564743Y-2482088D01*
X-564743Y-2476754D01*
X-596239Y-2428494D01*
G37*
G36*
X25755Y-2424531D02*
G01*
X21031Y-2424938D01*
X16865Y-2426055D01*
X13208Y-2427935D01*
X10109Y-2430475D01*
X7670Y-2433624D01*
X5892Y-2437384D01*
X4775Y-2441651D01*
X4419Y-2446375D01*
X4927Y-2452014D01*
X6502Y-2457653D01*
X9093Y-2463393D01*
X12547Y-2469235D01*
X16865Y-2475128D01*
X21996Y-2481173D01*
X27838Y-2487320D01*
X34391Y-2493619D01*
X22199Y-2493111D01*
X863Y-2493111D01*
X863Y-2500223D01*
X46837Y-2500223D01*
X46837Y-2495143D01*
X38557Y-2487676D01*
X31495Y-2480716D01*
X25603Y-2474163D01*
X20828Y-2468016D01*
X17170Y-2462225D01*
X14579Y-2456789D01*
X13055Y-2451557D01*
X12547Y-2446629D01*
X13411Y-2440432D01*
X16052Y-2435555D01*
X20472Y-2432304D01*
X26771Y-2431135D01*
X31191Y-2431846D01*
X35306Y-2433777D01*
X39065Y-2436571D01*
X42519Y-2440025D01*
X47345Y-2435453D01*
X42773Y-2430932D01*
X37795Y-2427478D01*
X32156Y-2425293D01*
G37*
G36*
X64871Y-2425801D02*
G01*
X64871Y-2435453D01*
X72491Y-2435453D01*
X78587Y-2446375D01*
X96367Y-2472791D01*
X72745Y-2472791D01*
X72694Y-2445613D01*
X71983Y-2435453D01*
X64871Y-2435453D01*
X64871Y-2472791D01*
X54711Y-2472791D01*
X54711Y-2479395D01*
X64871Y-2479395D01*
X64871Y-2500223D01*
X72745Y-2500223D01*
X72745Y-2479395D01*
X105257Y-2479395D01*
X105257Y-2474061D01*
X73761Y-2425801D01*
G37*
G36*
X44754Y-2674721D02*
G01*
X37592Y-2675534D01*
X31800Y-2677566D01*
X27076Y-2680512D01*
X23418Y-2683865D01*
X28244Y-2689199D01*
X31191Y-2686507D01*
X34848Y-2684221D01*
X39217Y-2682697D01*
X44500Y-2682087D01*
X50038Y-2682646D01*
X54965Y-2684272D01*
X59334Y-2686862D01*
X62991Y-2690469D01*
X65938Y-2694889D01*
X68072Y-2700223D01*
X69443Y-2706268D01*
X69900Y-2713075D01*
X69443Y-2719882D01*
X68173Y-2726029D01*
X66141Y-2731363D01*
X63296Y-2735834D01*
X59639Y-2739491D01*
X55321Y-2742133D01*
X50241Y-2743758D01*
X44500Y-2744317D01*
X40335Y-2744012D01*
X36423Y-2743098D01*
X32969Y-2741676D01*
X30276Y-2739745D01*
X30276Y-2719425D01*
X46532Y-2719425D01*
X46532Y-2712313D01*
X22656Y-2712313D01*
X22656Y-2743301D01*
X26720Y-2746654D01*
X31953Y-2749296D01*
X38150Y-2751074D01*
X45262Y-2751683D01*
X52273Y-2751023D01*
X58674Y-2749042D01*
X64363Y-2745841D01*
X69189Y-2741472D01*
X73152Y-2735986D01*
X76047Y-2729382D01*
X77876Y-2721864D01*
X78536Y-2713329D01*
X78232Y-2707589D01*
X77368Y-2702204D01*
X75996Y-2697226D01*
X74117Y-2692704D01*
X71729Y-2688640D01*
X68935Y-2685084D01*
X65786Y-2681986D01*
X62179Y-2679446D01*
X58267Y-2677414D01*
X54051Y-2675940D01*
X49530Y-2675026D01*
G37*
G36*
X-647344Y-2679344D02*
G01*
X-655777Y-2680563D01*
X-662432Y-2684119D01*
X-666851Y-2689860D01*
X-668426Y-2697632D01*
X-667461Y-2704033D01*
X-664768Y-2709164D01*
X-660603Y-2713075D01*
X-655218Y-2715920D01*
X-655218Y-2716174D01*
X-661314Y-2718562D01*
X-666292Y-2722626D01*
X-669696Y-2728264D01*
X-670966Y-2735224D01*
X-670458Y-2739898D01*
X-669137Y-2744063D01*
X-666953Y-2747721D01*
X-664108Y-2750718D01*
X-660654Y-2753106D01*
X-656691Y-2754884D01*
X-652322Y-2755950D01*
X-647598Y-2756306D01*
X-639622Y-2755442D01*
X-633222Y-2753207D01*
X-628040Y-2749956D01*
X-623976Y-2746146D01*
X-628294Y-2740812D01*
X-631799Y-2744063D01*
X-635965Y-2746857D01*
X-640994Y-2748737D01*
X-647090Y-2749448D01*
X-653338Y-2748432D01*
X-658266Y-2745536D01*
X-661416Y-2740964D01*
X-662584Y-2734970D01*
X-661314Y-2728671D01*
X-657250Y-2723794D01*
X-649935Y-2720594D01*
X-638962Y-2719476D01*
X-638962Y-2713126D01*
X-648868Y-2712008D01*
X-655370Y-2708910D01*
X-658926Y-2704236D01*
X-660044Y-2698394D01*
X-659130Y-2693365D01*
X-656488Y-2689504D01*
X-652424Y-2686964D01*
X-647090Y-2685948D01*
X-642620Y-2686659D01*
X-638454Y-2688234D01*
X-634644Y-2690571D01*
X-631342Y-2693568D01*
X-626770Y-2687980D01*
X-631088Y-2684576D01*
X-635914Y-2681833D01*
X-641248Y-2680004D01*
G37*
G36*
X-607466Y-2680614D02*
G01*
X-607466Y-2690266D01*
X-599846Y-2690266D01*
X-594004Y-2701188D01*
X-575970Y-2727604D01*
X-599846Y-2727604D01*
X-599897Y-2700426D01*
X-600354Y-2690266D01*
X-607466Y-2690266D01*
X-607466Y-2727604D01*
X-617626Y-2727604D01*
X-617626Y-2734208D01*
X-607466Y-2734208D01*
X-607466Y-2755036D01*
X-599846Y-2755036D01*
X-599846Y-2734208D01*
X-567080Y-2734208D01*
X-567080Y-2728874D01*
X-598830Y-2680614D01*
G37*
G36*
X-663194Y-2924606D02*
G01*
X-663194Y-2934258D01*
X-655574Y-2934258D01*
X-649732Y-2945180D01*
X-631698Y-2971596D01*
X-655574Y-2971596D01*
X-655624Y-2944418D01*
X-656082Y-2934258D01*
X-663194Y-2934258D01*
X-663194Y-2971596D01*
X-673354Y-2971596D01*
X-673354Y-2978200D01*
X-663194Y-2978200D01*
X-663194Y-2999028D01*
X-655574Y-2999028D01*
X-655574Y-2978200D01*
X-622808Y-2978200D01*
X-622808Y-2972866D01*
X-654558Y-2924606D01*
G37*
G36*
X-607568Y-2924606D02*
G01*
X-607568Y-2934258D01*
X-599694Y-2934258D01*
X-593852Y-2945180D01*
X-575818Y-2971596D01*
X-599694Y-2971596D01*
X-599744Y-2944418D01*
X-600202Y-2934258D01*
X-607568Y-2934258D01*
X-607568Y-2971596D01*
X-617728Y-2971596D01*
X-617728Y-2978200D01*
X-607568Y-2978200D01*
X-607568Y-2999028D01*
X-599694Y-2999028D01*
X-599694Y-2978200D01*
X-567182Y-2978200D01*
X-567182Y-2972866D01*
X-598678Y-2924606D01*
G37*
G36*
X4673Y-2928467D02*
G01*
X4673Y-2935579D01*
X32867Y-2935579D01*
X34899Y-2958185D01*
X32359Y-2956864D01*
X29667Y-2955899D01*
X26720Y-2955340D01*
X23469Y-2955137D01*
X18948Y-2955493D01*
X14732Y-2956509D01*
X10922Y-2958287D01*
X7620Y-2960776D01*
X4927Y-2964078D01*
X2844Y-2968142D01*
X1574Y-2973019D01*
X1117Y-2978759D01*
X1676Y-2984550D01*
X3149Y-2989630D01*
X5486Y-2993948D01*
X8534Y-2997555D01*
X12141Y-3000451D01*
X16256Y-3002483D01*
X20624Y-3003753D01*
X25247Y-3004159D01*
X33020Y-3003346D01*
X39319Y-3001111D01*
X44450Y-2997962D01*
X48615Y-2994253D01*
X44551Y-2988919D01*
X41046Y-2992069D01*
X36880Y-2994761D01*
X31851Y-2996641D01*
X25755Y-2997301D01*
X19456Y-2996031D01*
X14325Y-2992374D01*
X10820Y-2986633D01*
X9499Y-2979013D01*
X10668Y-2971698D01*
X13868Y-2966161D01*
X18948Y-2962706D01*
X25501Y-2961487D01*
X29006Y-2961792D01*
X32105Y-2962605D01*
X35001Y-2963976D01*
X37947Y-2965805D01*
X42519Y-2963011D01*
X40233Y-2928467D01*
G37*
G36*
X64871Y-2928467D02*
G01*
X64871Y-2938119D01*
X72491Y-2938119D01*
X78587Y-2949092D01*
X96367Y-2975457D01*
X72745Y-2975457D01*
X72694Y-2948330D01*
X72339Y-2941320D01*
X71983Y-2938119D01*
X64871Y-2938119D01*
X64871Y-2975457D01*
X54711Y-2975457D01*
X54711Y-2982061D01*
X64871Y-2982061D01*
X64871Y-3002889D01*
X72745Y-3002889D01*
X72745Y-2982061D01*
X105257Y-2982061D01*
X105257Y-2976727D01*
X73761Y-2928467D01*
G37*
G36*
X25704Y-3185769D02*
G01*
X20523Y-3186328D01*
X15951Y-3187852D01*
X12039Y-3190189D01*
X8686Y-3193135D01*
X13512Y-3198469D01*
X16002Y-3196082D01*
X18897Y-3194253D01*
X22098Y-3193084D01*
X25450Y-3192627D01*
X29260Y-3193034D01*
X32867Y-3194304D01*
X36169Y-3196488D01*
X39065Y-3199688D01*
X41503Y-3203956D01*
X43434Y-3209493D01*
X44704Y-3216249D01*
X45262Y-3224377D01*
X41402Y-3220669D01*
X37084Y-3217875D01*
X32562Y-3216097D01*
X27990Y-3215487D01*
X23469Y-3215894D01*
X19405Y-3216960D01*
X15900Y-3218789D01*
X12954Y-3221329D01*
X10566Y-3224631D01*
X8839Y-3228594D01*
X7772Y-3233267D01*
X7416Y-3238601D01*
X15290Y-3238601D01*
X16154Y-3231692D01*
X18745Y-3226308D01*
X23114Y-3222853D01*
X29260Y-3221583D01*
X33020Y-3222142D01*
X37033Y-3223869D01*
X41097Y-3226968D01*
X45008Y-3231489D01*
X43332Y-3242005D01*
X39979Y-3249726D01*
X35001Y-3254502D01*
X28498Y-3256127D01*
X23215Y-3254857D01*
X19050Y-3251301D01*
X16256Y-3245764D01*
X15290Y-3238601D01*
X7416Y-3238601D01*
X7823Y-3243834D01*
X9093Y-3248507D01*
X11074Y-3252622D01*
X13665Y-3256127D01*
X16814Y-3258921D01*
X20370Y-3261004D01*
X24282Y-3262325D01*
X28498Y-3262731D01*
X33629Y-3262172D01*
X38303Y-3260445D01*
X42468Y-3257550D01*
X46024Y-3253536D01*
X48920Y-3248355D01*
X51054Y-3242056D01*
X52425Y-3234690D01*
X52882Y-3226155D01*
X52273Y-3215995D01*
X50647Y-3207410D01*
X48006Y-3200450D01*
X44602Y-3194913D01*
X40538Y-3190798D01*
X35966Y-3187954D01*
X30937Y-3186328D01*
G37*
G36*
X72186Y-3187039D02*
G01*
X72186Y-3196691D01*
X79806Y-3196691D01*
X85902Y-3207613D01*
X103682Y-3234029D01*
X80060Y-3234029D01*
X80010Y-3206902D01*
X79298Y-3196691D01*
X72186Y-3196691D01*
X72186Y-3234029D01*
X62026Y-3234029D01*
X62026Y-3240633D01*
X72186Y-3240633D01*
X72186Y-3261461D01*
X80060Y-3261461D01*
X80060Y-3240633D01*
X112572Y-3240633D01*
X112572Y-3235299D01*
X81076Y-3187039D01*
G37*
G36*
X-689203Y-3138627D02*
G01*
X-689203Y-3145739D01*
X-666343Y-3145739D01*
X-666343Y-3213049D01*
X-657961Y-3213049D01*
X-657961Y-3145739D01*
X-635101Y-3145739D01*
X-635101Y-3138627D01*
G37*
G36*
X-602843Y-3138627D02*
G01*
X-608330Y-3138881D01*
X-613308Y-3139694D01*
X-617677Y-3141116D01*
X-621385Y-3143199D01*
X-624382Y-3145993D01*
X-626618Y-3149549D01*
X-628040Y-3153918D01*
X-628497Y-3159201D01*
X-620115Y-3159201D01*
X-618896Y-3152749D01*
X-615340Y-3148533D01*
X-609498Y-3146196D01*
X-601573Y-3145485D01*
X-588619Y-3145485D01*
X-588619Y-3173933D01*
X-601573Y-3173933D01*
X-609498Y-3173018D01*
X-615340Y-3170377D01*
X-618896Y-3165754D01*
X-620115Y-3159201D01*
X-628497Y-3159201D01*
X-627329Y-3167024D01*
X-623874Y-3173120D01*
X-618439Y-3177438D01*
X-611225Y-3180029D01*
X-630529Y-3213049D01*
X-621131Y-3213049D01*
X-602589Y-3181045D01*
X-588619Y-3181045D01*
X-588619Y-3213049D01*
X-580237Y-3213049D01*
X-580237Y-3138627D01*
G37*
G36*
X-604774Y-3437991D02*
G01*
X-611936Y-3438804D01*
X-617728Y-3440887D01*
X-622452Y-3443782D01*
X-626110Y-3447135D01*
X-621588Y-3452469D01*
X-618490Y-3449777D01*
X-614832Y-3447491D01*
X-610412Y-3445967D01*
X-605028Y-3445357D01*
X-599541Y-3445916D01*
X-594563Y-3447542D01*
X-590296Y-3450132D01*
X-586689Y-3453739D01*
X-583793Y-3458159D01*
X-581660Y-3463493D01*
X-580339Y-3469538D01*
X-579882Y-3476345D01*
X-580339Y-3483152D01*
X-581609Y-3489299D01*
X-583641Y-3494633D01*
X-586486Y-3499104D01*
X-590042Y-3502761D01*
X-594360Y-3505403D01*
X-599389Y-3507028D01*
X-605028Y-3507587D01*
X-609193Y-3507282D01*
X-613105Y-3506368D01*
X-616559Y-3504946D01*
X-619252Y-3503015D01*
X-619252Y-3482695D01*
X-602996Y-3482695D01*
X-602996Y-3475583D01*
X-627126Y-3475583D01*
X-627126Y-3506571D01*
X-622960Y-3509924D01*
X-617626Y-3512565D01*
X-611378Y-3514344D01*
X-604266Y-3514953D01*
X-597306Y-3514293D01*
X-591007Y-3512312D01*
X-585368Y-3509111D01*
X-580542Y-3504742D01*
X-576630Y-3499256D01*
X-573735Y-3492652D01*
X-571906Y-3485134D01*
X-571246Y-3476599D01*
X-571550Y-3470859D01*
X-572414Y-3465474D01*
X-573735Y-3460496D01*
X-575614Y-3455974D01*
X-577951Y-3451910D01*
X-580694Y-3448354D01*
X-583844Y-3445256D01*
X-587400Y-3442715D01*
X-591312Y-3440684D01*
X-595528Y-3439210D01*
X-600049Y-3438296D01*
G37*
G36*
X31089Y-3476751D02*
G01*
X26111Y-3477310D01*
X21640Y-3479088D01*
X17780Y-3482035D01*
X14528Y-3486150D01*
X11938Y-3491534D01*
X10058Y-3498087D01*
X8839Y-3505860D01*
X8483Y-3514851D01*
X16357Y-3514851D01*
X16611Y-3507282D01*
X17424Y-3500831D01*
X18745Y-3495395D01*
X20472Y-3490976D01*
X22606Y-3487623D01*
X25146Y-3485235D01*
X27940Y-3483813D01*
X31089Y-3483356D01*
X34239Y-3483813D01*
X37134Y-3485235D01*
X39624Y-3487623D01*
X41757Y-3490976D01*
X43484Y-3495395D01*
X44754Y-3500831D01*
X45516Y-3507282D01*
X45821Y-3514851D01*
X45516Y-3522624D01*
X44754Y-3529329D01*
X43484Y-3534867D01*
X41757Y-3539337D01*
X39624Y-3542792D01*
X37134Y-3545179D01*
X34239Y-3546652D01*
X31089Y-3547110D01*
X27940Y-3546652D01*
X25146Y-3545179D01*
X22606Y-3542792D01*
X20472Y-3539337D01*
X18745Y-3534867D01*
X17424Y-3529329D01*
X16611Y-3522624D01*
X16357Y-3514851D01*
X8483Y-3514851D01*
X8839Y-3524046D01*
X10058Y-3531971D01*
X11938Y-3538626D01*
X14528Y-3544062D01*
X17780Y-3548329D01*
X21640Y-3551326D01*
X26111Y-3553104D01*
X31089Y-3553714D01*
X36068Y-3553104D01*
X40538Y-3551326D01*
X44450Y-3548329D01*
X47752Y-3544062D01*
X50393Y-3538626D01*
X52324Y-3531971D01*
X53543Y-3524046D01*
X53949Y-3514851D01*
X53543Y-3505860D01*
X52324Y-3498087D01*
X50393Y-3491534D01*
X47752Y-3486150D01*
X44450Y-3482035D01*
X40538Y-3479088D01*
X36068Y-3477310D01*
G37*
G36*
X-586181Y-3694531D02*
G01*
X-594614Y-3695750D01*
X-601268Y-3699306D01*
X-605688Y-3705047D01*
X-607263Y-3712819D01*
X-606298Y-3719220D01*
X-603554Y-3724351D01*
X-599338Y-3728262D01*
X-593801Y-3731107D01*
X-593801Y-3731361D01*
X-600049Y-3733749D01*
X-605129Y-3737813D01*
X-608533Y-3743401D01*
X-609803Y-3750411D01*
X-609295Y-3755085D01*
X-607974Y-3759250D01*
X-605790Y-3762857D01*
X-602945Y-3765905D01*
X-599490Y-3768293D01*
X-595528Y-3770071D01*
X-591159Y-3771137D01*
X-586435Y-3771493D01*
X-578459Y-3770629D01*
X-572008Y-3768394D01*
X-566877Y-3765143D01*
X-562813Y-3761333D01*
X-567131Y-3755999D01*
X-570636Y-3759250D01*
X-574802Y-3762044D01*
X-579831Y-3763924D01*
X-585927Y-3764635D01*
X-592074Y-3763619D01*
X-597001Y-3760724D01*
X-600252Y-3756151D01*
X-601421Y-3750157D01*
X-600151Y-3743858D01*
X-596087Y-3738981D01*
X-588772Y-3735781D01*
X-577799Y-3734663D01*
X-577799Y-3728313D01*
X-587603Y-3727196D01*
X-594106Y-3724097D01*
X-597763Y-3719423D01*
X-598881Y-3713581D01*
X-597916Y-3708552D01*
X-595325Y-3704691D01*
X-591159Y-3702151D01*
X-585673Y-3701135D01*
X-581253Y-3701796D01*
X-577138Y-3703421D01*
X-573430Y-3705758D01*
X-570179Y-3708755D01*
X-565607Y-3703167D01*
X-569823Y-3699764D01*
X-574649Y-3697020D01*
X-580034Y-3695192D01*
G37*
G36*
X-673049Y-3695801D02*
G01*
X-649173Y-3770223D01*
X-639521Y-3770223D01*
X-615645Y-3695801D01*
X-624535Y-3695801D01*
X-644347Y-3761587D01*
X-644855Y-3761587D01*
X-664413Y-3695801D01*
G37*
G36*
X98196Y-3694531D02*
G01*
X89763Y-3695750D01*
X83058Y-3699306D01*
X78689Y-3705047D01*
X77114Y-3712819D01*
X78079Y-3719220D01*
X80772Y-3724351D01*
X84937Y-3728262D01*
X90322Y-3731107D01*
X90322Y-3731361D01*
X84226Y-3733749D01*
X79197Y-3737813D01*
X75793Y-3743451D01*
X74574Y-3750411D01*
X75031Y-3755085D01*
X76403Y-3759250D01*
X78536Y-3762857D01*
X81381Y-3765905D01*
X84836Y-3768293D01*
X88798Y-3770071D01*
X93218Y-3771137D01*
X97942Y-3771493D01*
X105867Y-3770629D01*
X112318Y-3768394D01*
X117449Y-3765143D01*
X121564Y-3761333D01*
X117246Y-3755999D01*
X113741Y-3759250D01*
X109524Y-3762044D01*
X104495Y-3763924D01*
X98450Y-3764635D01*
X92151Y-3763619D01*
X87274Y-3760724D01*
X84074Y-3756151D01*
X82956Y-3750157D01*
X84226Y-3743858D01*
X88290Y-3738981D01*
X95605Y-3735781D01*
X106578Y-3734663D01*
X106578Y-3728313D01*
X96621Y-3727196D01*
X90119Y-3724097D01*
X86563Y-3719423D01*
X85496Y-3713581D01*
X86410Y-3708552D01*
X89001Y-3704691D01*
X93065Y-3702151D01*
X98450Y-3701135D01*
X102920Y-3701796D01*
X107086Y-3703421D01*
X110845Y-3705758D01*
X114198Y-3708755D01*
X118770Y-3703167D01*
X114401Y-3699764D01*
X109626Y-3697020D01*
X104241Y-3695192D01*
G37*
G36*
X11328Y-3695801D02*
G01*
X34950Y-3770223D01*
X44602Y-3770223D01*
X68478Y-3695801D01*
X59842Y-3695801D01*
X45313Y-3743299D01*
X40030Y-3761587D01*
X39522Y-3761587D01*
X19710Y-3695801D01*
G37*
G36*
X-415950Y-230784D02*
G01*
X-392074Y-305206D01*
X-382422Y-305206D01*
X-358546Y-230784D01*
X-367436Y-230784D01*
X-387248Y-296570D01*
X-387502Y-296570D01*
X-395122Y-271932D01*
X-407314Y-230784D01*
G37*
G36*
X-1041247Y-954836D02*
G01*
X-1011529Y-1047800D01*
X-999337Y-1047800D01*
X-969619Y-954836D01*
X-980541Y-954836D01*
X-1005433Y-1036878D01*
X-1005941Y-1036878D01*
X-1010615Y-1021638D01*
X-1015085Y-1006144D01*
X-1030579Y-954836D01*
G37*
G36*
X-957935Y-954836D02*
G01*
X-957935Y-963726D01*
X-922629Y-963726D01*
X-920089Y-991920D01*
X-923340Y-990244D01*
X-926744Y-988974D01*
X-930452Y-988161D01*
X-934567Y-987907D01*
X-940206Y-988314D01*
X-945489Y-989685D01*
X-950214Y-991920D01*
X-954328Y-995171D01*
X-957732Y-999337D01*
X-960323Y-1004468D01*
X-961948Y-1010666D01*
X-962507Y-1017828D01*
X-961847Y-1024991D01*
X-959967Y-1031290D01*
X-957071Y-1036726D01*
X-953262Y-1041247D01*
X-948740Y-1044854D01*
X-943660Y-1047445D01*
X-938225Y-1049070D01*
X-932535Y-1049578D01*
X-922731Y-1048512D01*
X-914755Y-1045667D01*
X-908303Y-1041653D01*
X-903071Y-1037132D01*
X-908405Y-1030274D01*
X-912723Y-1034287D01*
X-917854Y-1037590D01*
X-924052Y-1039876D01*
X-931519Y-1040688D01*
X-935634Y-1040333D01*
X-939444Y-1039164D01*
X-942949Y-1037234D01*
X-945997Y-1034643D01*
X-948537Y-1031341D01*
X-950468Y-1027430D01*
X-951687Y-1022908D01*
X-952093Y-1017828D01*
X-950671Y-1008634D01*
X-946658Y-1001776D01*
X-940308Y-997508D01*
X-932027Y-995984D01*
X-927658Y-996391D01*
X-923798Y-997458D01*
X-920089Y-999236D01*
X-916279Y-1001572D01*
X-910691Y-998016D01*
X-913485Y-954836D01*
G37*
G36*
X-982065Y-1068832D02*
G01*
X-942949Y-1192022D01*
X-935329Y-1192022D01*
X-974445Y-1068832D01*
G37*
G36*
X-1112621Y-1074928D02*
G01*
X-1120648Y-1075740D01*
X-1127912Y-1078026D01*
X-1134211Y-1081582D01*
X-1139545Y-1086104D01*
X-1133957Y-1092962D01*
X-1129538Y-1089355D01*
X-1124508Y-1086510D01*
X-1118920Y-1084732D01*
X-1112621Y-1084072D01*
X-1105204Y-1085088D01*
X-1099515Y-1087932D01*
X-1095857Y-1092454D01*
X-1094587Y-1098296D01*
X-1096010Y-1104392D01*
X-1099667Y-1108811D01*
X-1104646Y-1112062D01*
X-1110081Y-1114552D01*
X-1123543Y-1120140D01*
X-1131062Y-1124000D01*
X-1137208Y-1129080D01*
X-1141323Y-1135888D01*
X-1142847Y-1145032D01*
X-1142288Y-1150315D01*
X-1140663Y-1155242D01*
X-1137970Y-1159662D01*
X-1134364Y-1163574D01*
X-1129842Y-1166723D01*
X-1124508Y-1169162D01*
X-1118412Y-1170686D01*
X-1111605Y-1171194D01*
X-1102106Y-1170228D01*
X-1093470Y-1167434D01*
X-1085850Y-1163066D01*
X-1079347Y-1157224D01*
X-1085697Y-1150112D01*
X-1091133Y-1154938D01*
X-1097432Y-1158646D01*
X-1104290Y-1160983D01*
X-1111605Y-1161796D01*
X-1120190Y-1160678D01*
X-1126642Y-1157427D01*
X-1130757Y-1152398D01*
X-1132179Y-1145794D01*
X-1130909Y-1139494D01*
X-1127506Y-1134973D01*
X-1122426Y-1131570D01*
X-1116177Y-1128522D01*
X-1102715Y-1122680D01*
X-1096162Y-1119276D01*
X-1090066Y-1114501D01*
X-1085646Y-1107897D01*
X-1083919Y-1099058D01*
X-1084478Y-1094028D01*
X-1086104Y-1089406D01*
X-1088644Y-1085291D01*
X-1092098Y-1081786D01*
X-1096314Y-1078890D01*
X-1101191Y-1076756D01*
X-1106678Y-1075385D01*
G37*
G36*
X-901547Y-1074928D02*
G01*
X-909574Y-1075842D01*
X-916533Y-1078331D01*
X-922324Y-1081887D01*
X-926947Y-1086104D01*
X-921105Y-1092962D01*
X-917194Y-1089355D01*
X-912672Y-1086510D01*
X-907592Y-1084732D01*
X-901801Y-1084072D01*
X-895248Y-1084783D01*
X-889355Y-1086764D01*
X-884224Y-1090015D01*
X-879856Y-1094435D01*
X-876300Y-1099972D01*
X-873709Y-1106576D01*
X-872134Y-1114196D01*
X-871575Y-1122680D01*
X-872083Y-1131316D01*
X-873658Y-1138986D01*
X-876147Y-1145692D01*
X-879602Y-1151280D01*
X-883869Y-1155801D01*
X-888949Y-1159103D01*
X-894791Y-1161135D01*
X-901293Y-1161796D01*
X-907745Y-1161084D01*
X-913485Y-1159052D01*
X-918667Y-1155700D01*
X-923391Y-1151128D01*
X-929233Y-1157732D01*
X-923391Y-1163472D01*
X-916838Y-1167688D01*
X-909319Y-1170330D01*
X-900785Y-1171194D01*
X-895197Y-1170838D01*
X-889914Y-1169720D01*
X-884936Y-1167892D01*
X-880313Y-1165402D01*
X-876046Y-1162253D01*
X-872286Y-1158392D01*
X-868984Y-1153972D01*
X-866190Y-1148892D01*
X-863904Y-1143254D01*
X-862279Y-1137005D01*
X-861263Y-1130249D01*
X-860907Y-1122934D01*
X-861263Y-1115720D01*
X-862279Y-1108964D01*
X-863955Y-1102817D01*
X-866241Y-1097178D01*
X-869086Y-1092149D01*
X-872490Y-1087678D01*
X-876350Y-1083868D01*
X-880618Y-1080719D01*
X-885342Y-1078230D01*
X-890422Y-1076401D01*
X-895858Y-1075334D01*
G37*
G36*
X-1188313Y-1076452D02*
G01*
X-1195070Y-1076756D01*
X-1201216Y-1077772D01*
X-1206601Y-1079398D01*
X-1211224Y-1081786D01*
X-1214983Y-1084935D01*
X-1217726Y-1088898D01*
X-1219454Y-1093673D01*
X-1220063Y-1099312D01*
X-1219921Y-1100328D01*
X-1209649Y-1100328D01*
X-1208176Y-1093216D01*
X-1203858Y-1088390D01*
X-1196695Y-1085697D01*
X-1186789Y-1084834D01*
X-1171803Y-1084834D01*
X-1171803Y-1116330D01*
X-1186027Y-1116330D01*
X-1196797Y-1115212D01*
X-1204112Y-1112062D01*
X-1208328Y-1107033D01*
X-1209649Y-1100328D01*
X-1219921Y-1100328D01*
X-1219149Y-1105865D01*
X-1216406Y-1111656D01*
X-1212037Y-1116228D01*
X-1206093Y-1119378D01*
X-1206093Y-1119886D01*
X-1213916Y-1122578D01*
X-1220012Y-1127150D01*
X-1223975Y-1133703D01*
X-1225312Y-1141730D01*
X-1215237Y-1141730D01*
X-1214780Y-1137666D01*
X-1213459Y-1134110D01*
X-1211275Y-1131163D01*
X-1208278Y-1128725D01*
X-1204468Y-1126845D01*
X-1199896Y-1125524D01*
X-1194612Y-1124712D01*
X-1188567Y-1124458D01*
X-1171803Y-1124458D01*
X-1171803Y-1161034D01*
X-1188567Y-1161034D01*
X-1194460Y-1160780D01*
X-1199692Y-1159865D01*
X-1204264Y-1158443D01*
X-1208074Y-1156360D01*
X-1211173Y-1153668D01*
X-1213408Y-1150315D01*
X-1214780Y-1146352D01*
X-1215237Y-1141730D01*
X-1225312Y-1141730D01*
X-1224737Y-1148588D01*
X-1222857Y-1154125D01*
X-1219809Y-1158748D01*
X-1215694Y-1162608D01*
X-1210614Y-1165606D01*
X-1204620Y-1167739D01*
X-1197813Y-1169009D01*
X-1190345Y-1169416D01*
X-1161389Y-1169416D01*
X-1161389Y-1076452D01*
G37*
G36*
X-1062075Y-1076452D02*
G01*
X-1062075Y-1131570D01*
X-1061770Y-1138580D01*
X-1060907Y-1144828D01*
X-1059484Y-1150315D01*
X-1057605Y-1155039D01*
X-1055217Y-1159103D01*
X-1052423Y-1162558D01*
X-1049274Y-1165352D01*
X-1045768Y-1167536D01*
X-1041958Y-1169212D01*
X-1037844Y-1170330D01*
X-1033576Y-1170990D01*
X-1029055Y-1171194D01*
X-1024585Y-1170990D01*
X-1020267Y-1170330D01*
X-1016203Y-1169212D01*
X-1012444Y-1167536D01*
X-1008938Y-1165352D01*
X-1005840Y-1162558D01*
X-1003046Y-1159103D01*
X-1000709Y-1155039D01*
X-998829Y-1150315D01*
X-997458Y-1144828D01*
X-996594Y-1138580D01*
X-996289Y-1131570D01*
X-996289Y-1076452D01*
X-1006703Y-1076452D01*
X-1006703Y-1131824D01*
X-1007160Y-1139698D01*
X-1008481Y-1146149D01*
X-1010564Y-1151382D01*
X-1013307Y-1155395D01*
X-1016609Y-1158341D01*
X-1020419Y-1160322D01*
X-1024585Y-1161440D01*
X-1029055Y-1161796D01*
X-1033678Y-1161440D01*
X-1037996Y-1160322D01*
X-1041857Y-1158341D01*
X-1045260Y-1155395D01*
X-1048054Y-1151382D01*
X-1050137Y-1146149D01*
X-1051458Y-1139698D01*
X-1051915Y-1131824D01*
X-1051915Y-1076452D01*
G37*
G36*
X-802487Y-1076452D02*
G01*
X-809345Y-1076807D01*
X-815594Y-1077874D01*
X-821283Y-1079601D01*
X-826414Y-1081938D01*
X-830935Y-1084986D01*
X-834898Y-1088644D01*
X-838250Y-1092860D01*
X-840994Y-1097737D01*
X-843127Y-1103122D01*
X-844702Y-1109116D01*
X-845616Y-1115669D01*
X-845921Y-1122680D01*
X-834999Y-1122680D01*
X-834796Y-1116939D01*
X-834085Y-1111605D01*
X-832967Y-1106728D01*
X-831342Y-1102309D01*
X-829259Y-1098397D01*
X-826719Y-1094943D01*
X-823721Y-1091996D01*
X-820216Y-1089558D01*
X-816254Y-1087628D01*
X-811834Y-1086205D01*
X-806907Y-1085392D01*
X-801471Y-1085088D01*
X-790041Y-1085088D01*
X-790041Y-1160780D01*
X-801471Y-1160780D01*
X-806907Y-1160475D01*
X-811834Y-1159611D01*
X-816254Y-1158138D01*
X-820216Y-1156157D01*
X-823721Y-1153617D01*
X-826719Y-1150620D01*
X-829259Y-1147064D01*
X-831342Y-1143050D01*
X-832967Y-1138631D01*
X-834085Y-1133703D01*
X-834796Y-1128420D01*
X-834999Y-1122680D01*
X-845921Y-1122680D01*
X-845616Y-1129690D01*
X-844702Y-1136192D01*
X-843127Y-1142187D01*
X-840994Y-1147673D01*
X-838250Y-1152601D01*
X-834898Y-1156919D01*
X-830986Y-1160627D01*
X-826465Y-1163726D01*
X-821385Y-1166215D01*
X-815746Y-1167993D01*
X-809498Y-1169060D01*
X-802741Y-1169416D01*
X-779627Y-1169416D01*
X-779627Y-1076452D01*
G37*
G36*
X-1108049Y-625043D02*
G01*
X-1113993Y-625348D01*
X-1119682Y-626211D01*
X-1125118Y-627684D01*
X-1130300Y-629716D01*
X-1135126Y-632256D01*
X-1139647Y-635355D01*
X-1143863Y-638962D01*
X-1147724Y-643026D01*
X-1151178Y-647649D01*
X-1154226Y-652678D01*
X-1156868Y-658215D01*
X-1159103Y-664159D01*
X-1160830Y-670560D01*
X-1162151Y-677316D01*
X-1162913Y-684530D01*
X-1163167Y-692099D01*
X-1147927Y-692099D01*
X-1147622Y-684072D01*
X-1146657Y-676554D01*
X-1145082Y-669645D01*
X-1142949Y-663346D01*
X-1140256Y-657707D01*
X-1137056Y-652678D01*
X-1133297Y-648411D01*
X-1129131Y-644804D01*
X-1124458Y-642010D01*
X-1119378Y-639927D01*
X-1113891Y-638657D01*
X-1108049Y-638251D01*
X-1102207Y-638657D01*
X-1096721Y-639927D01*
X-1091641Y-642010D01*
X-1086967Y-644804D01*
X-1082802Y-648411D01*
X-1079042Y-652678D01*
X-1075842Y-657707D01*
X-1073150Y-663346D01*
X-1071016Y-669645D01*
X-1069441Y-676554D01*
X-1068476Y-684072D01*
X-1068171Y-692099D01*
X-1068476Y-700176D01*
X-1069441Y-707745D01*
X-1071016Y-714705D01*
X-1073150Y-721106D01*
X-1075842Y-726897D01*
X-1079042Y-732028D01*
X-1082802Y-736447D01*
X-1086967Y-740156D01*
X-1091641Y-743051D01*
X-1096721Y-745236D01*
X-1102207Y-746506D01*
X-1108049Y-746963D01*
X-1113891Y-746506D01*
X-1119378Y-745236D01*
X-1124458Y-743051D01*
X-1129131Y-740156D01*
X-1133297Y-736447D01*
X-1137056Y-732028D01*
X-1140256Y-726897D01*
X-1142949Y-721106D01*
X-1145082Y-714705D01*
X-1146657Y-707745D01*
X-1147622Y-700176D01*
X-1147927Y-692099D01*
X-1163167Y-692099D01*
X-1162913Y-699668D01*
X-1162151Y-706882D01*
X-1160830Y-713740D01*
X-1159103Y-720191D01*
X-1156868Y-726186D01*
X-1154226Y-731774D01*
X-1151178Y-736904D01*
X-1147724Y-741527D01*
X-1143863Y-745693D01*
X-1139647Y-749401D01*
X-1135126Y-752551D01*
X-1130300Y-755142D01*
X-1125118Y-757224D01*
X-1119682Y-758698D01*
X-1113993Y-759612D01*
X-1108049Y-759917D01*
X-1102106Y-759612D01*
X-1096416Y-758698D01*
X-1091031Y-757224D01*
X-1085850Y-755142D01*
X-1081024Y-752551D01*
X-1076502Y-749401D01*
X-1072337Y-745693D01*
X-1068527Y-741527D01*
X-1065072Y-736904D01*
X-1062024Y-731774D01*
X-1059434Y-726186D01*
X-1057249Y-720191D01*
X-1055471Y-713740D01*
X-1054201Y-706882D01*
X-1053439Y-699668D01*
X-1053185Y-692099D01*
X-1053439Y-684530D01*
X-1054201Y-677316D01*
X-1055471Y-670560D01*
X-1057249Y-664159D01*
X-1059434Y-658215D01*
X-1062024Y-652678D01*
X-1065072Y-647649D01*
X-1068527Y-643026D01*
X-1072337Y-638962D01*
X-1076502Y-635355D01*
X-1081024Y-632256D01*
X-1085850Y-629716D01*
X-1091031Y-627684D01*
X-1096416Y-626211D01*
X-1102106Y-625348D01*
G37*
G36*
X-985621Y-627583D02*
G01*
X-992733Y-627786D01*
X-999337Y-628446D01*
X-1005484Y-629513D01*
X-1011123Y-631139D01*
X-1016203Y-633222D01*
X-1020724Y-635914D01*
X-1024585Y-639165D01*
X-1027887Y-643026D01*
X-1030478Y-647496D01*
X-1032357Y-652678D01*
X-1033475Y-658571D01*
X-1033881Y-665175D01*
X-1019403Y-665175D01*
X-1018844Y-658469D01*
X-1017117Y-652881D01*
X-1014272Y-648411D01*
X-1010310Y-644906D01*
X-1005230Y-642315D01*
X-999032Y-640588D01*
X-991768Y-639572D01*
X-983335Y-639267D01*
X-964285Y-639267D01*
X-964285Y-692861D01*
X-984097Y-692861D01*
X-992479Y-692454D01*
X-999693Y-691235D01*
X-1005789Y-689203D01*
X-1010716Y-686257D01*
X-1014526Y-682447D01*
X-1017269Y-677672D01*
X-1018895Y-671931D01*
X-1019403Y-665175D01*
X-1033881Y-665175D01*
X-1033475Y-671626D01*
X-1032357Y-677468D01*
X-1030478Y-682752D01*
X-1027937Y-687476D01*
X-1024737Y-691642D01*
X-1020876Y-695198D01*
X-1016406Y-698246D01*
X-1011377Y-700684D01*
X-1005789Y-702614D01*
X-999744Y-703986D01*
X-993140Y-704799D01*
X-986129Y-705053D01*
X-964285Y-705053D01*
X-964285Y-757631D01*
X-949553Y-757631D01*
X-949553Y-627583D01*
G37*
G36*
X-913231Y-627583D02*
G01*
X-913231Y-757631D01*
X-898499Y-757631D01*
X-898499Y-627583D01*
G37*
G36*
X-817981Y-627583D02*
G01*
X-817981Y-745185D01*
X-875385Y-745185D01*
X-875385Y-757631D01*
X-802995Y-757631D01*
X-802995Y-627583D01*
G37*
G36*
X2776728Y-1150721D02*
G01*
X2768295Y-1151940D01*
X2761640Y-1155496D01*
X2757220Y-1161237D01*
X2755646Y-1169009D01*
X2756611Y-1175410D01*
X2759303Y-1180541D01*
X2763469Y-1184503D01*
X2768854Y-1187297D01*
X2768854Y-1187551D01*
X2762758Y-1189939D01*
X2757728Y-1194054D01*
X2754376Y-1199642D01*
X2753106Y-1206601D01*
X2753563Y-1211326D01*
X2754934Y-1215491D01*
X2757068Y-1219098D01*
X2759913Y-1222095D01*
X2763367Y-1224483D01*
X2767380Y-1226261D01*
X2771749Y-1227328D01*
X2776474Y-1227683D01*
X2784297Y-1226870D01*
X2790748Y-1224584D01*
X2795981Y-1221384D01*
X2800096Y-1217523D01*
X2795778Y-1212189D01*
X2792272Y-1215491D01*
X2788107Y-1218234D01*
X2783078Y-1220114D01*
X2776982Y-1220825D01*
X2770682Y-1219809D01*
X2765806Y-1216914D01*
X2762605Y-1212342D01*
X2761488Y-1206347D01*
X2762707Y-1200099D01*
X2766720Y-1195171D01*
X2773934Y-1191971D01*
X2784856Y-1190853D01*
X2784856Y-1184503D01*
X2775051Y-1183386D01*
X2768650Y-1180287D01*
X2765094Y-1175613D01*
X2764028Y-1169771D01*
X2764942Y-1164742D01*
X2767533Y-1160881D01*
X2771648Y-1158341D01*
X2776982Y-1157325D01*
X2781401Y-1158036D01*
X2785516Y-1159611D01*
X2789326Y-1161999D01*
X2792730Y-1164945D01*
X2797302Y-1159357D01*
X2792933Y-1155954D01*
X2788158Y-1153210D01*
X2782824Y-1151382D01*
G37*
G36*
X2824988Y-1151991D02*
G01*
X2824988Y-1219555D01*
X2809748Y-1219555D01*
X2809748Y-1226413D01*
X2849880Y-1226413D01*
X2849880Y-1219555D01*
X2833116Y-1219555D01*
X2833116Y-1162405D01*
X2846324Y-1162405D01*
X2846324Y-1157071D01*
X2841752Y-1156157D01*
X2837738Y-1154988D01*
X2834233Y-1153617D01*
X2831084Y-1151991D01*
G37*
G36*
X-687070Y-3234791D02*
G01*
X-687070Y-3309213D01*
X-678434Y-3309213D01*
X-650494Y-3260953D01*
X-642366Y-3245713D01*
X-641858Y-3245713D01*
X-642874Y-3268573D01*
X-642874Y-3309213D01*
X-634746Y-3309213D01*
X-634746Y-3234791D01*
X-643382Y-3234791D01*
X-671576Y-3283051D01*
X-679704Y-3298291D01*
X-680212Y-3298291D01*
X-679500Y-3286861D01*
X-679196Y-3275177D01*
X-679196Y-3234791D01*
G37*
G36*
X-617982Y-3234791D02*
G01*
X-617982Y-3241903D01*
X-583946Y-3241903D01*
X-583946Y-3266541D01*
X-612648Y-3266541D01*
X-612648Y-3273653D01*
X-583946Y-3273653D01*
X-583946Y-3302101D01*
X-618998Y-3302101D01*
X-618998Y-3309213D01*
X-575564Y-3309213D01*
X-575564Y-3234791D01*
G37*
G36*
X-5588Y-3381806D02*
G01*
X-5588Y-3388918D01*
X17272Y-3388918D01*
X17272Y-3456228D01*
X25654Y-3456228D01*
X25654Y-3388918D01*
X48260Y-3388918D01*
X48260Y-3381806D01*
G37*
G36*
X83312Y-3381806D02*
G01*
X77876Y-3382060D01*
X72948Y-3382822D01*
X68580Y-3384194D01*
X64922Y-3386074D01*
X61925Y-3388614D01*
X59740Y-3391763D01*
X58369Y-3395573D01*
X57912Y-3400094D01*
X58058Y-3401110D01*
X66294Y-3401110D01*
X67462Y-3395319D01*
X70866Y-3391458D01*
X76606Y-3389325D01*
X84582Y-3388664D01*
X96520Y-3388664D01*
X96520Y-3413810D01*
X85090Y-3413810D01*
X76504Y-3412947D01*
X70662Y-3410407D01*
X67360Y-3406394D01*
X66294Y-3401110D01*
X58058Y-3401110D01*
X58674Y-3405378D01*
X60858Y-3410000D01*
X64363Y-3413658D01*
X69088Y-3416096D01*
X69088Y-3416604D01*
X62839Y-3418687D01*
X57912Y-3422345D01*
X54762Y-3427577D01*
X53637Y-3434130D01*
X61722Y-3434130D01*
X63195Y-3427984D01*
X67360Y-3423615D01*
X74066Y-3421024D01*
X83058Y-3420160D01*
X96520Y-3420160D01*
X96520Y-3449624D01*
X83058Y-3449624D01*
X74168Y-3448710D01*
X67462Y-3445865D01*
X63195Y-3441039D01*
X61722Y-3434130D01*
X53637Y-3434130D01*
X54152Y-3439566D01*
X55676Y-3443986D01*
X58115Y-3447745D01*
X61417Y-3450844D01*
X65532Y-3453180D01*
X70307Y-3454908D01*
X75793Y-3455873D01*
X81788Y-3456228D01*
X104902Y-3456228D01*
X104902Y-3381806D01*
G37*
G36*
X38303Y-906729D02*
G01*
X29870Y-907948D01*
X23215Y-911504D01*
X18796Y-917244D01*
X17221Y-925017D01*
X18186Y-931418D01*
X20878Y-936548D01*
X25044Y-940511D01*
X30429Y-943305D01*
X30429Y-943559D01*
X24333Y-945946D01*
X19304Y-950061D01*
X15951Y-955649D01*
X14681Y-962609D01*
X15189Y-967333D01*
X16510Y-971499D01*
X18694Y-975106D01*
X21539Y-978103D01*
X24993Y-980490D01*
X28956Y-982268D01*
X33324Y-983335D01*
X38049Y-983691D01*
X45872Y-982878D01*
X52324Y-980592D01*
X57556Y-977392D01*
X61671Y-973531D01*
X57353Y-968197D01*
X53848Y-971499D01*
X49682Y-974242D01*
X44653Y-976121D01*
X38557Y-976833D01*
X32308Y-975817D01*
X27381Y-972921D01*
X24231Y-968349D01*
X23063Y-962355D01*
X24282Y-956056D01*
X28295Y-951179D01*
X35509Y-947978D01*
X46431Y-946861D01*
X46431Y-940511D01*
X36626Y-939393D01*
X30226Y-936294D01*
X26670Y-931621D01*
X25603Y-925779D01*
X26517Y-920750D01*
X29159Y-916889D01*
X33223Y-914349D01*
X38557Y-913333D01*
X42976Y-914044D01*
X47091Y-915619D01*
X50901Y-917956D01*
X54305Y-920953D01*
X58877Y-915365D01*
X54508Y-911961D01*
X49733Y-909218D01*
X44399Y-907389D01*
G37*
G36*
X94183Y-906729D02*
G01*
X85699Y-907948D01*
X78943Y-911504D01*
X74472Y-917244D01*
X72847Y-925017D01*
X73863Y-931418D01*
X76657Y-936548D01*
X80873Y-940511D01*
X86309Y-943305D01*
X86309Y-943559D01*
X80060Y-945946D01*
X74980Y-950061D01*
X71577Y-955649D01*
X70307Y-962609D01*
X70815Y-967333D01*
X72136Y-971499D01*
X74320Y-975106D01*
X77165Y-978103D01*
X80619Y-980490D01*
X84582Y-982268D01*
X88950Y-983335D01*
X93675Y-983691D01*
X101650Y-982878D01*
X108051Y-980592D01*
X113233Y-977392D01*
X117297Y-973531D01*
X112979Y-968197D01*
X109474Y-971499D01*
X105308Y-974242D01*
X100279Y-976121D01*
X94183Y-976833D01*
X88036Y-975817D01*
X83108Y-972921D01*
X79857Y-968349D01*
X78689Y-962355D01*
X79959Y-956056D01*
X84023Y-951179D01*
X91338Y-947978D01*
X102311Y-946861D01*
X102311Y-940511D01*
X92506Y-939393D01*
X86106Y-936294D01*
X82550Y-931621D01*
X81483Y-925779D01*
X82397Y-920750D01*
X84937Y-916889D01*
X89001Y-914349D01*
X94437Y-913333D01*
X98856Y-914044D01*
X102971Y-915619D01*
X106680Y-917956D01*
X109931Y-920953D01*
X114503Y-915365D01*
X110286Y-911961D01*
X105511Y-909218D01*
X100177Y-907389D01*
G37*
G36*
X79451Y-1150721D02*
G01*
X71018Y-1151940D01*
X64312Y-1155496D01*
X59943Y-1161237D01*
X58369Y-1169009D01*
X59334Y-1175410D01*
X62026Y-1180541D01*
X66192Y-1184503D01*
X71577Y-1187297D01*
X71577Y-1187551D01*
X65481Y-1189939D01*
X60452Y-1194054D01*
X57099Y-1199642D01*
X55829Y-1206601D01*
X56286Y-1211326D01*
X57658Y-1215491D01*
X59791Y-1219098D01*
X62636Y-1222095D01*
X66090Y-1224483D01*
X70104Y-1226261D01*
X74472Y-1227328D01*
X79197Y-1227683D01*
X87122Y-1226870D01*
X93573Y-1224584D01*
X98755Y-1221384D01*
X102819Y-1217523D01*
X98501Y-1212189D01*
X94996Y-1215491D01*
X90830Y-1218234D01*
X85801Y-1220114D01*
X79705Y-1220825D01*
X73406Y-1219809D01*
X68529Y-1216914D01*
X65328Y-1212342D01*
X64211Y-1206347D01*
X65481Y-1200099D01*
X69545Y-1195171D01*
X76860Y-1191971D01*
X87833Y-1190853D01*
X87833Y-1184503D01*
X77876Y-1183386D01*
X71374Y-1180287D01*
X67818Y-1175613D01*
X66751Y-1169771D01*
X67665Y-1164742D01*
X70256Y-1160881D01*
X74371Y-1158341D01*
X79705Y-1157325D01*
X84175Y-1158036D01*
X88341Y-1159611D01*
X92151Y-1161999D01*
X95453Y-1164945D01*
X100025Y-1159357D01*
X95656Y-1155954D01*
X90881Y-1153210D01*
X85547Y-1151382D01*
G37*
G36*
X7569Y-1151991D02*
G01*
X7569Y-1161643D01*
X15443Y-1161643D01*
X21285Y-1172565D01*
X39319Y-1198981D01*
X15443Y-1198981D01*
X15392Y-1171803D01*
X14935Y-1161643D01*
X7569Y-1161643D01*
X7569Y-1198981D01*
X-2590Y-1198981D01*
X-2590Y-1205585D01*
X7569Y-1205585D01*
X7569Y-1226413D01*
X15443Y-1226413D01*
X15443Y-1205585D01*
X48209Y-1205585D01*
X48209Y-1200251D01*
X16459Y-1151991D01*
G37*
G36*
X78587Y1043838D02*
G01*
X70510Y1043025D01*
X63195Y1040739D01*
X56794Y1037183D01*
X51409Y1032662D01*
X56997Y1025804D01*
X61620Y1029462D01*
X66649Y1032256D01*
X72288Y1034084D01*
X78587Y1034694D01*
X85902Y1033678D01*
X91592Y1030833D01*
X95300Y1026363D01*
X96621Y1020470D01*
X95199Y1014425D01*
X91541Y1009954D01*
X86563Y1006754D01*
X81127Y1004214D01*
X67665Y998626D01*
X60147Y994765D01*
X54000Y989736D01*
X49885Y982878D01*
X48361Y973734D01*
X48920Y968451D01*
X50546Y963574D01*
X53187Y959103D01*
X56743Y955243D01*
X61264Y952042D01*
X66598Y949655D01*
X72745Y948131D01*
X79603Y947572D01*
X89103Y948537D01*
X97637Y951331D01*
X105257Y955751D01*
X111861Y961542D01*
X105511Y968654D01*
X99923Y963828D01*
X93573Y960170D01*
X86664Y957783D01*
X79349Y956970D01*
X70815Y958138D01*
X64414Y961390D01*
X60452Y966419D01*
X59029Y972972D01*
X60248Y979271D01*
X63601Y983792D01*
X68580Y987247D01*
X74777Y990244D01*
X88239Y996086D01*
X94894Y999490D01*
X100990Y1004316D01*
X105562Y1010869D01*
X107289Y1019708D01*
X106730Y1024788D01*
X105156Y1029360D01*
X102565Y1033475D01*
X99161Y1037031D01*
X94945Y1039876D01*
X90068Y1042060D01*
X84582Y1043381D01*
G37*
G36*
X2895Y1042314D02*
G01*
X-3911Y1042009D01*
X-10109Y1041044D01*
X-15494Y1039368D01*
X-20116Y1036980D01*
X-23825Y1033830D01*
X-26568Y1029919D01*
X-28244Y1025093D01*
X-28854Y1019454D01*
X-28712Y1018438D01*
X-18440Y1018438D01*
X-17018Y1025601D01*
X-12700Y1030376D01*
X-5588Y1033119D01*
X4419Y1033932D01*
X19151Y1033932D01*
X19151Y1002436D01*
X4927Y1002436D01*
X-5791Y1003553D01*
X-13055Y1006754D01*
X-17119Y1011783D01*
X-18440Y1018438D01*
X-28712Y1018438D01*
X-27940Y1012901D01*
X-25298Y1007160D01*
X-21031Y1002537D01*
X-15138Y999388D01*
X-15138Y998880D01*
X-22961Y996238D01*
X-29057Y991616D01*
X-33020Y985062D01*
X-34357Y977036D01*
X-24028Y977036D01*
X-23571Y981151D01*
X-22250Y984656D01*
X-20066Y987653D01*
X-17119Y990092D01*
X-13309Y991920D01*
X-8788Y993241D01*
X-3556Y994054D01*
X2387Y994308D01*
X19151Y994308D01*
X19151Y957732D01*
X2387Y957732D01*
X-3454Y958037D01*
X-8686Y958900D01*
X-13208Y960374D01*
X-17018Y962456D01*
X-20015Y965149D01*
X-22199Y968451D01*
X-23571Y972413D01*
X-24028Y977036D01*
X-34357Y977036D01*
X-33782Y970178D01*
X-31851Y964692D01*
X-28752Y960018D01*
X-24587Y956208D01*
X-19456Y953211D01*
X-13411Y951077D01*
X-6604Y949807D01*
X863Y949350D01*
X29819Y949350D01*
X29819Y1042314D01*
G37*
G36*
X129133Y1042314D02*
G01*
X129133Y987196D01*
X129438Y980186D01*
X130302Y973937D01*
X131673Y968502D01*
X133553Y963726D01*
X135890Y959662D01*
X138684Y956259D01*
X141782Y953465D01*
X145288Y951230D01*
X149098Y949604D01*
X153111Y948436D01*
X157429Y947775D01*
X161899Y947572D01*
X166420Y947775D01*
X170688Y948436D01*
X174802Y949604D01*
X178612Y951230D01*
X182118Y953465D01*
X185267Y956259D01*
X188061Y959662D01*
X190449Y963726D01*
X192328Y968502D01*
X193751Y973937D01*
X194614Y980186D01*
X194919Y987196D01*
X194919Y1042314D01*
X184251Y1042314D01*
X184251Y986942D01*
X183794Y979119D01*
X182524Y972616D01*
X180492Y967435D01*
X177749Y963421D01*
X174447Y960424D01*
X170637Y958443D01*
X166420Y957326D01*
X161899Y956970D01*
X157378Y957326D01*
X153111Y958443D01*
X149199Y960424D01*
X145796Y963421D01*
X143002Y967435D01*
X140868Y972616D01*
X139496Y979119D01*
X139039Y986942D01*
X139039Y1042314D01*
G37*
G36*
X1718665Y699516D02*
G01*
X1718665Y684784D01*
X1776577Y684784D01*
X1776577Y699516D01*
G37*
G36*
X1739341Y-60452D02*
G01*
X1739341Y-99568D01*
X1703273Y-99568D01*
X1703273Y-110489D01*
X1739341Y-110489D01*
X1739341Y-149606D01*
X1751279Y-149606D01*
X1751279Y-110489D01*
X1787347Y-110489D01*
X1787347Y-99568D01*
X1751279Y-99568D01*
X1751279Y-60452D01*
G37*
D42*
X-620001Y-960000D02*
G01*
X-620001Y-879998D01*
X-600001Y-879998D01*
X-610003Y-1190002D02*
G01*
X-610003Y-1269997D01*
X-589998Y-1269997D01*
X25194Y-1454355D02*
G01*
X3350Y-1454454D01*
D10*
X-1317525Y-570026D02*
G01*
X-557519Y-570026D01*
X-1317500Y79999D02*
G01*
X-1317500Y-419999D01*
X-557519Y229974D02*
G01*
X-1317525Y229974D01*
X-817148Y-490067D02*
G01*
X-817148Y150012D01*
X-817117Y150022D02*
G01*
X-557474Y150022D01*
X-557514Y150020D02*
G01*
X-557514Y230030D01*
X-557529Y-570026D02*
G01*
X-557529Y-490024D01*
X-557529Y-490024D02*
G01*
X-817117Y-490024D01*
G75*
G01*
X2192701Y939998D02*
G02*
X2287290Y939998I47295J0D01*
G75*
G01*
X2287290Y939998D02*
G02*
X2192701Y939998I-47294J0D01*
G75*
G01*
X2223892Y939998D02*
G02*
X2256099Y939998I16104J0D01*
G75*
G01*
X2256099Y939998D02*
G02*
X2223892Y939998I-16103J0D01*
G75*
G01
X2390084Y309977D02*
G03X2390084Y309977I-650011J0D01*
G75*
G01
X1867073Y309977D02*
G03X1867073Y309977I-127000J0D01*
M02*
