G04 Layer: TopSilkLayer*
G04 EasyEDA v6.4.25, 2021-10-04T21:02:54--4:00*
G04 e5a6d802368343aa863876e234e9a9e8,96b9eb17c6bf4bf1aa34359f555252a9,10*
G04 Gerber Generator version 0.2*
G04 Scale: 100 percent, Rotated: No, Reflected: No *
G04 Dimensions in millimeters *
G04 leading zeros omitted , absolute positions ,4 integer and 5 decimal *
%FSLAX45Y45*%
%MOMM*%

%ADD10C,0.2540*%
%ADD42C,0.1000*%
%ADD43C,0.2000*%
%ADD44C,0.1524*%
%ADD45C,0.2032*%

%LPD*%
G36*
X-1312214Y201625D02*
G01*
X-1320698Y201015D01*
X-1328267Y199288D01*
X-1334820Y196545D01*
X-1340307Y192836D01*
X-1344726Y188214D01*
X-1347927Y182880D01*
X-1349857Y176784D01*
X-1350518Y170129D01*
X-1343152Y170129D01*
X-1342644Y175107D01*
X-1341018Y179578D01*
X-1338376Y183489D01*
X-1334820Y186791D01*
X-1330350Y189433D01*
X-1325067Y191363D01*
X-1318971Y192582D01*
X-1312214Y192989D01*
X-1305356Y192582D01*
X-1299260Y191363D01*
X-1293926Y189433D01*
X-1289405Y186791D01*
X-1285798Y183489D01*
X-1283157Y179578D01*
X-1281531Y175107D01*
X-1280972Y170129D01*
X-1281531Y165201D01*
X-1283157Y160782D01*
X-1285798Y156921D01*
X-1289405Y153670D01*
X-1293926Y151028D01*
X-1299260Y149098D01*
X-1305356Y147929D01*
X-1312214Y147523D01*
X-1318971Y147929D01*
X-1325067Y149098D01*
X-1330350Y151028D01*
X-1334820Y153670D01*
X-1338376Y156921D01*
X-1341018Y160782D01*
X-1342644Y165201D01*
X-1343152Y170129D01*
X-1350518Y170129D01*
X-1349857Y163525D01*
X-1347927Y157530D01*
X-1344726Y152196D01*
X-1340307Y147624D01*
X-1334820Y143916D01*
X-1328267Y141173D01*
X-1320698Y139446D01*
X-1312214Y138887D01*
X-1303731Y139446D01*
X-1296212Y141173D01*
X-1289608Y143916D01*
X-1284020Y147624D01*
X-1279550Y152196D01*
X-1276299Y157530D01*
X-1274267Y163525D01*
X-1273556Y170129D01*
X-1274267Y176784D01*
X-1276299Y182880D01*
X-1279550Y188214D01*
X-1284020Y192836D01*
X-1289608Y196545D01*
X-1296212Y199288D01*
X-1303731Y201015D01*
G37*
G36*
X-1327658Y127711D02*
G01*
X-1333195Y127203D01*
X-1337818Y125780D01*
X-1341526Y123444D01*
X-1344472Y120294D01*
X-1346657Y116332D01*
X-1348130Y111607D01*
X-1348994Y106273D01*
X-1349248Y100279D01*
X-1349248Y88087D01*
X-1342390Y88087D01*
X-1342390Y99009D01*
X-1341678Y107899D01*
X-1339240Y114350D01*
X-1334719Y118262D01*
X-1327658Y119583D01*
X-1320444Y118313D01*
X-1315466Y114554D01*
X-1312621Y108204D01*
X-1311656Y99263D01*
X-1311656Y88087D01*
X-1349248Y88087D01*
X-1349248Y79451D01*
X-1274826Y79451D01*
X-1274826Y88087D01*
X-1304798Y88087D01*
X-1304798Y100533D01*
X-1305153Y106426D01*
X-1306220Y111709D01*
X-1307947Y116382D01*
X-1310436Y120294D01*
X-1313637Y123444D01*
X-1317599Y125780D01*
X-1322273Y127203D01*
G37*
G36*
X-1349248Y58877D02*
G01*
X-1349248Y50495D01*
X-1274826Y50495D01*
X-1274826Y58877D01*
G37*
G36*
X-1281938Y37287D02*
G01*
X-1281938Y4267D01*
X-1349248Y4267D01*
X-1349248Y-4114D01*
X-1274826Y-4114D01*
X-1274826Y37287D01*
G37*
G36*
X2779014Y-3446729D02*
G01*
X2772918Y-3447389D01*
X2767482Y-3449269D01*
X2762707Y-3452012D01*
X2758440Y-3455365D01*
X2763012Y-3460953D01*
X2766263Y-3458006D01*
X2769971Y-3455619D01*
X2774086Y-3454044D01*
X2778506Y-3453333D01*
X2783992Y-3454349D01*
X2788158Y-3456889D01*
X2790799Y-3460750D01*
X2791714Y-3465779D01*
X2790596Y-3471621D01*
X2786989Y-3476294D01*
X2780436Y-3479393D01*
X2770632Y-3480511D01*
X2770632Y-3486861D01*
X2781604Y-3487978D01*
X2788920Y-3491179D01*
X2792984Y-3496106D01*
X2794254Y-3502355D01*
X2793085Y-3508400D01*
X2789834Y-3512921D01*
X2784906Y-3515817D01*
X2778760Y-3516833D01*
X2772664Y-3516122D01*
X2767634Y-3514242D01*
X2763469Y-3511499D01*
X2759964Y-3508197D01*
X2755646Y-3513531D01*
X2759710Y-3517392D01*
X2764891Y-3520643D01*
X2771343Y-3522878D01*
X2779268Y-3523691D01*
X2783992Y-3523335D01*
X2788361Y-3522268D01*
X2792374Y-3520490D01*
X2795828Y-3518103D01*
X2798673Y-3515106D01*
X2800807Y-3511499D01*
X2802178Y-3507333D01*
X2802636Y-3502609D01*
X2801366Y-3495649D01*
X2797962Y-3490061D01*
X2792882Y-3485946D01*
X2786634Y-3483559D01*
X2786634Y-3483305D01*
X2792171Y-3480511D01*
X2796387Y-3476548D01*
X2799130Y-3471418D01*
X2800096Y-3465017D01*
X2798521Y-3457244D01*
X2794101Y-3451504D01*
X2787446Y-3447948D01*
G37*
G36*
X2779217Y-3182975D02*
G01*
X2773070Y-3183636D01*
X2767685Y-3185464D01*
X2762859Y-3188208D01*
X2758643Y-3191611D01*
X2763215Y-3197199D01*
X2766466Y-3194202D01*
X2770174Y-3191865D01*
X2774289Y-3190240D01*
X2778709Y-3189579D01*
X2784195Y-3190595D01*
X2788361Y-3193135D01*
X2790952Y-3196996D01*
X2791917Y-3202025D01*
X2790799Y-3207867D01*
X2787142Y-3212541D01*
X2780639Y-3215640D01*
X2770835Y-3216757D01*
X2770835Y-3223107D01*
X2781808Y-3224225D01*
X2789123Y-3227425D01*
X2793187Y-3232302D01*
X2794457Y-3238601D01*
X2793288Y-3244596D01*
X2790037Y-3249168D01*
X2785110Y-3252063D01*
X2778963Y-3253079D01*
X2772867Y-3252368D01*
X2767838Y-3250438D01*
X2763672Y-3247694D01*
X2760167Y-3244443D01*
X2755849Y-3249777D01*
X2759913Y-3253587D01*
X2765044Y-3256838D01*
X2771495Y-3259074D01*
X2779471Y-3259937D01*
X2784195Y-3259582D01*
X2788564Y-3258464D01*
X2792526Y-3256737D01*
X2795981Y-3254349D01*
X2798826Y-3251301D01*
X2801010Y-3247694D01*
X2802331Y-3243529D01*
X2802839Y-3238855D01*
X2801569Y-3231845D01*
X2798165Y-3226257D01*
X2793085Y-3222193D01*
X2786837Y-3219805D01*
X2786837Y-3219551D01*
X2792323Y-3216706D01*
X2796590Y-3212795D01*
X2799334Y-3207664D01*
X2800299Y-3201263D01*
X2798673Y-3193440D01*
X2794304Y-3187700D01*
X2787650Y-3184194D01*
G37*
G36*
X2808681Y-3184245D02*
G01*
X2832557Y-3258667D01*
X2842209Y-3258667D01*
X2866085Y-3184245D01*
X2857449Y-3184245D01*
X2837891Y-3250031D01*
X2837383Y-3250031D01*
X2817571Y-3184245D01*
G37*
G36*
X2768346Y-2929991D02*
G01*
X2766060Y-2964535D01*
X2770632Y-2967329D01*
X2773730Y-2965500D01*
X2776575Y-2964129D01*
X2779623Y-2963316D01*
X2783078Y-2963011D01*
X2789682Y-2964230D01*
X2794711Y-2967685D01*
X2797962Y-2973222D01*
X2799080Y-2980537D01*
X2797810Y-2988106D01*
X2794304Y-2993898D01*
X2789123Y-2997555D01*
X2782824Y-2998825D01*
X2776778Y-2998114D01*
X2771749Y-2996285D01*
X2767685Y-2993593D01*
X2764282Y-2990443D01*
X2759964Y-2995777D01*
X2764180Y-2999486D01*
X2769311Y-3002635D01*
X2775712Y-3004870D01*
X2783586Y-3005683D01*
X2788158Y-3005277D01*
X2792476Y-3004007D01*
X2796540Y-3001924D01*
X2800096Y-2999079D01*
X2803144Y-2995472D01*
X2805480Y-2991104D01*
X2806954Y-2986074D01*
X2807462Y-2980283D01*
X2807055Y-2974543D01*
X2805734Y-2969615D01*
X2803702Y-2965551D01*
X2800959Y-2962300D01*
X2797657Y-2959811D01*
X2793898Y-2958033D01*
X2789682Y-2957017D01*
X2785110Y-2956661D01*
X2781858Y-2956864D01*
X2778963Y-2957423D01*
X2776220Y-2958388D01*
X2773680Y-2959709D01*
X2775712Y-2937103D01*
X2803906Y-2937103D01*
X2803906Y-2929991D01*
G37*
G36*
X2764993Y-2682595D02*
G01*
X2764993Y-2689707D01*
X2801315Y-2689707D01*
X2797860Y-2694736D01*
X2794812Y-2699715D01*
X2792069Y-2704744D01*
X2789682Y-2709773D01*
X2787599Y-2714955D01*
X2785821Y-2720187D01*
X2784297Y-2725623D01*
X2783027Y-2731312D01*
X2781198Y-2743454D01*
X2780233Y-2757017D01*
X2788869Y-2757017D01*
X2789732Y-2743403D01*
X2791256Y-2731160D01*
X2792374Y-2725470D01*
X2793796Y-2719933D01*
X2795574Y-2714548D01*
X2797708Y-2709265D01*
X2800299Y-2703982D01*
X2803296Y-2698648D01*
X2806852Y-2693212D01*
X2810967Y-2687675D01*
X2810967Y-2682595D01*
G37*
G36*
X2796794Y-2425344D02*
G01*
X2792018Y-2425649D01*
X2787548Y-2426512D01*
X2783332Y-2427986D01*
X2779420Y-2430018D01*
X2775864Y-2432608D01*
X2772714Y-2435656D01*
X2769971Y-2439263D01*
X2767634Y-2443327D01*
X2765755Y-2447848D01*
X2764383Y-2452776D01*
X2763570Y-2458161D01*
X2763266Y-2463952D01*
X2763926Y-2472436D01*
X2765704Y-2480005D01*
X2768650Y-2486558D01*
X2772562Y-2492044D01*
X2777388Y-2496464D01*
X2782976Y-2499664D01*
X2789326Y-2501595D01*
X2796286Y-2502306D01*
X2803398Y-2501646D01*
X2809646Y-2499918D01*
X2814929Y-2497226D01*
X2819146Y-2493924D01*
X2819146Y-2462936D01*
X2795016Y-2462936D01*
X2795016Y-2470048D01*
X2811272Y-2470048D01*
X2811272Y-2490368D01*
X2808579Y-2492248D01*
X2805125Y-2493670D01*
X2801213Y-2494584D01*
X2797048Y-2494940D01*
X2791409Y-2494381D01*
X2786380Y-2492705D01*
X2782062Y-2490063D01*
X2778506Y-2486456D01*
X2775661Y-2481935D01*
X2773578Y-2476601D01*
X2772359Y-2470505D01*
X2771902Y-2463698D01*
X2772359Y-2456891D01*
X2773680Y-2450795D01*
X2775813Y-2445512D01*
X2778658Y-2441041D01*
X2782316Y-2437485D01*
X2786583Y-2434844D01*
X2791510Y-2433218D01*
X2797048Y-2432710D01*
X2802432Y-2433269D01*
X2806852Y-2434793D01*
X2810510Y-2437079D01*
X2813558Y-2439822D01*
X2818130Y-2434488D01*
X2814472Y-2431135D01*
X2809748Y-2428189D01*
X2803906Y-2426106D01*
G37*
G36*
X2791053Y-2166721D02*
G01*
X2783078Y-2168093D01*
X2776728Y-2171903D01*
X2772511Y-2177846D01*
X2770987Y-2185517D01*
X2778607Y-2185517D01*
X2779522Y-2180488D01*
X2782011Y-2176526D01*
X2785872Y-2173986D01*
X2790799Y-2173071D01*
X2796387Y-2174138D01*
X2800553Y-2177084D01*
X2803093Y-2181453D01*
X2804007Y-2186787D01*
X2803499Y-2190902D01*
X2801924Y-2194864D01*
X2799384Y-2198624D01*
X2795879Y-2202027D01*
X2789428Y-2199335D01*
X2783890Y-2195982D01*
X2780030Y-2191512D01*
X2778607Y-2185517D01*
X2770987Y-2185517D01*
X2771800Y-2191004D01*
X2773934Y-2195626D01*
X2777083Y-2199487D01*
X2780893Y-2202535D01*
X2780893Y-2203043D01*
X2775966Y-2206345D01*
X2771546Y-2210968D01*
X2768396Y-2216708D01*
X2767267Y-2223109D01*
X2774797Y-2223109D01*
X2775559Y-2217826D01*
X2777744Y-2213102D01*
X2781096Y-2208987D01*
X2785465Y-2205583D01*
X2793136Y-2208834D01*
X2799638Y-2212543D01*
X2804109Y-2217420D01*
X2805785Y-2224125D01*
X2804668Y-2229408D01*
X2801620Y-2233574D01*
X2796895Y-2236317D01*
X2790799Y-2237333D01*
X2784449Y-2236266D01*
X2779369Y-2233269D01*
X2776016Y-2228748D01*
X2774797Y-2223109D01*
X2767267Y-2223109D01*
X2767177Y-2223617D01*
X2767634Y-2227732D01*
X2768904Y-2231542D01*
X2771038Y-2234895D01*
X2773832Y-2237790D01*
X2777286Y-2240178D01*
X2781300Y-2241956D01*
X2785821Y-2243023D01*
X2790799Y-2243429D01*
X2800146Y-2241956D01*
X2807360Y-2237892D01*
X2811983Y-2231847D01*
X2813659Y-2224379D01*
X2812592Y-2217572D01*
X2809798Y-2212238D01*
X2805836Y-2208072D01*
X2801213Y-2204821D01*
X2801213Y-2204313D01*
X2804566Y-2201214D01*
X2807766Y-2196998D01*
X2810154Y-2191969D01*
X2811119Y-2186279D01*
X2809748Y-2178405D01*
X2805734Y-2172208D01*
X2799435Y-2168194D01*
G37*
G36*
X2831033Y-1912721D02*
G01*
X2825953Y-1913331D01*
X2821432Y-1915058D01*
X2817520Y-1918004D01*
X2814269Y-1922170D01*
X2811627Y-1927504D01*
X2809748Y-1934057D01*
X2808579Y-1941830D01*
X2808173Y-1950821D01*
X2816047Y-1950821D01*
X2816301Y-1943252D01*
X2817114Y-1936800D01*
X2818434Y-1931365D01*
X2820212Y-1926996D01*
X2822397Y-1923592D01*
X2824937Y-1921205D01*
X2827832Y-1919782D01*
X2831033Y-1919325D01*
X2834132Y-1919782D01*
X2836926Y-1921205D01*
X2839415Y-1923592D01*
X2841498Y-1926996D01*
X2843174Y-1931365D01*
X2844444Y-1936800D01*
X2845206Y-1943252D01*
X2845511Y-1950821D01*
X2845206Y-1958644D01*
X2844444Y-1965299D01*
X2843174Y-1970836D01*
X2841498Y-1975357D01*
X2839415Y-1978761D01*
X2836926Y-1981200D01*
X2834132Y-1982622D01*
X2831033Y-1983079D01*
X2827832Y-1982622D01*
X2824937Y-1981200D01*
X2822397Y-1978761D01*
X2820212Y-1975357D01*
X2818434Y-1970836D01*
X2817114Y-1965299D01*
X2816301Y-1958644D01*
X2816047Y-1950821D01*
X2808173Y-1950821D01*
X2808579Y-1960016D01*
X2809748Y-1967941D01*
X2811627Y-1974596D01*
X2814269Y-1980082D01*
X2817520Y-1984298D01*
X2821432Y-1987296D01*
X2825953Y-1989074D01*
X2831033Y-1989683D01*
X2835910Y-1989074D01*
X2840329Y-1987296D01*
X2844190Y-1984298D01*
X2847441Y-1980082D01*
X2850083Y-1974596D01*
X2852013Y-1967941D01*
X2853232Y-1960016D01*
X2853639Y-1950821D01*
X2853232Y-1941830D01*
X2852013Y-1934057D01*
X2850083Y-1927504D01*
X2847441Y-1922170D01*
X2844190Y-1918004D01*
X2840329Y-1915058D01*
X2835910Y-1913331D01*
G37*
G36*
X2774899Y-1913991D02*
G01*
X2771851Y-1915617D01*
X2768346Y-1916988D01*
X2764383Y-1918157D01*
X2759913Y-1919071D01*
X2759913Y-1924405D01*
X2772867Y-1924405D01*
X2772867Y-1981555D01*
X2756357Y-1981555D01*
X2756357Y-1988413D01*
X2796235Y-1988413D01*
X2796235Y-1981555D01*
X2781249Y-1981555D01*
X2781249Y-1913991D01*
G37*
G36*
X2786837Y-1410614D02*
G01*
X2782062Y-1410919D01*
X2777540Y-1411782D01*
X2773324Y-1413256D01*
X2769412Y-1415288D01*
X2765907Y-1417878D01*
X2762707Y-1420926D01*
X2759964Y-1424533D01*
X2757627Y-1428597D01*
X2755798Y-1433118D01*
X2754426Y-1438046D01*
X2753563Y-1443431D01*
X2753309Y-1449222D01*
X2753918Y-1457706D01*
X2755747Y-1465275D01*
X2758643Y-1471828D01*
X2762554Y-1477314D01*
X2767380Y-1481734D01*
X2773019Y-1484934D01*
X2779369Y-1486916D01*
X2786329Y-1487576D01*
X2793390Y-1486916D01*
X2799638Y-1485188D01*
X2804972Y-1482547D01*
X2809189Y-1479194D01*
X2809189Y-1448206D01*
X2785059Y-1448206D01*
X2785059Y-1455318D01*
X2801315Y-1455318D01*
X2801315Y-1475638D01*
X2798572Y-1477518D01*
X2795117Y-1478940D01*
X2791206Y-1479854D01*
X2787091Y-1480210D01*
X2781401Y-1479651D01*
X2776372Y-1477975D01*
X2772105Y-1475333D01*
X2768498Y-1471726D01*
X2765653Y-1467205D01*
X2763621Y-1461871D01*
X2762351Y-1455775D01*
X2761945Y-1448968D01*
X2762351Y-1442161D01*
X2763672Y-1436065D01*
X2765806Y-1430782D01*
X2768701Y-1426311D01*
X2772308Y-1422755D01*
X2776626Y-1420114D01*
X2781554Y-1418539D01*
X2787091Y-1417980D01*
X2792425Y-1418539D01*
X2796844Y-1420114D01*
X2800502Y-1422349D01*
X2803601Y-1425092D01*
X2808173Y-1419758D01*
X2804464Y-1416405D01*
X2799791Y-1413459D01*
X2793949Y-1411376D01*
G37*
G36*
X2804210Y-907999D02*
G01*
X2801670Y-942543D01*
X2806242Y-945337D01*
X2809341Y-943457D01*
X2812338Y-942136D01*
X2815437Y-941273D01*
X2818942Y-941019D01*
X2825546Y-942238D01*
X2830576Y-945692D01*
X2833827Y-951179D01*
X2834944Y-958545D01*
X2833674Y-966114D01*
X2830118Y-971854D01*
X2824886Y-975563D01*
X2818434Y-976833D01*
X2812542Y-976121D01*
X2807563Y-974242D01*
X2803398Y-971600D01*
X2799892Y-968451D01*
X2795828Y-973785D01*
X2799943Y-977493D01*
X2805074Y-980643D01*
X2811424Y-982878D01*
X2819196Y-983691D01*
X2823819Y-983284D01*
X2828239Y-982014D01*
X2832303Y-979932D01*
X2835960Y-977087D01*
X2839008Y-973480D01*
X2841345Y-969111D01*
X2842818Y-964031D01*
X2843326Y-958291D01*
X2842869Y-952550D01*
X2841548Y-947623D01*
X2839466Y-943559D01*
X2836722Y-940308D01*
X2833420Y-937768D01*
X2829610Y-936040D01*
X2825445Y-935024D01*
X2820974Y-934669D01*
X2817723Y-934872D01*
X2814777Y-935431D01*
X2811983Y-936396D01*
X2809290Y-937717D01*
X2811322Y-915111D01*
X2839770Y-915111D01*
X2839770Y-907999D01*
G37*
G36*
X2764840Y-907999D02*
G01*
X2761792Y-909624D01*
X2758338Y-910996D01*
X2754376Y-912164D01*
X2749854Y-913079D01*
X2749854Y-918413D01*
X2762808Y-918413D01*
X2762808Y-975563D01*
X2746298Y-975563D01*
X2746298Y-982421D01*
X2786176Y-982421D01*
X2786176Y-975563D01*
X2771190Y-975563D01*
X2771190Y-907999D01*
G37*
G36*
X2152345Y-3182975D02*
G01*
X2121678Y-3229965D01*
X2129485Y-3229965D01*
X2147519Y-3203549D01*
X2153361Y-3192627D01*
X2153869Y-3192627D01*
X2153361Y-3202787D01*
X2153361Y-3229965D01*
X2121678Y-3229965D01*
X2120849Y-3231235D01*
X2120849Y-3236569D01*
X2153361Y-3236569D01*
X2153361Y-3257397D01*
X2161235Y-3257397D01*
X2161235Y-3236569D01*
X2171395Y-3236569D01*
X2171395Y-3229965D01*
X2161235Y-3229965D01*
X2161235Y-3182975D01*
G37*
G36*
X2145690Y-2929991D02*
G01*
X2140915Y-2930296D01*
X2136444Y-2931210D01*
X2132228Y-2932684D01*
X2128316Y-2934716D01*
X2124760Y-2937256D01*
X2121611Y-2940354D01*
X2118868Y-2943910D01*
X2116531Y-2947974D01*
X2114651Y-2952496D01*
X2113280Y-2957474D01*
X2112467Y-2962808D01*
X2112162Y-2968599D01*
X2112822Y-2977083D01*
X2114600Y-2984652D01*
X2117547Y-2991205D01*
X2121458Y-2996742D01*
X2126284Y-3001111D01*
X2131872Y-3004312D01*
X2138222Y-3006293D01*
X2145182Y-3006953D01*
X2152243Y-3006344D01*
X2158542Y-3004566D01*
X2163826Y-3001924D01*
X2168042Y-2998571D01*
X2168042Y-2967583D01*
X2143912Y-2967583D01*
X2143912Y-2974695D01*
X2160168Y-2974695D01*
X2160168Y-2995015D01*
X2157476Y-2996895D01*
X2154021Y-2998368D01*
X2150110Y-2999282D01*
X2145944Y-2999587D01*
X2140305Y-2999028D01*
X2135276Y-2997403D01*
X2130958Y-2994710D01*
X2127402Y-2991104D01*
X2124557Y-2986582D01*
X2122474Y-2981248D01*
X2121255Y-2975152D01*
X2120798Y-2968345D01*
X2121255Y-2961538D01*
X2122576Y-2955493D01*
X2124659Y-2950159D01*
X2127554Y-2945688D01*
X2131212Y-2942132D01*
X2135479Y-2939542D01*
X2140407Y-2937916D01*
X2145944Y-2937357D01*
X2151329Y-2937916D01*
X2155748Y-2939491D01*
X2159406Y-2941777D01*
X2162454Y-2944469D01*
X2167026Y-2939135D01*
X2163368Y-2935782D01*
X2158644Y-2932836D01*
X2152802Y-2930804D01*
G37*
G36*
X2142439Y-2682595D02*
G01*
X2136089Y-2683357D01*
X2130501Y-2685542D01*
X2125522Y-2688996D01*
X2120849Y-2693517D01*
X2125675Y-2698089D01*
X2129129Y-2694635D01*
X2132939Y-2691790D01*
X2137105Y-2689910D01*
X2141677Y-2689199D01*
X2147925Y-2690368D01*
X2152294Y-2693568D01*
X2154834Y-2698496D01*
X2155647Y-2704693D01*
X2155139Y-2709621D01*
X2153666Y-2714802D01*
X2151075Y-2720289D01*
X2147468Y-2726080D01*
X2142693Y-2732227D01*
X2136800Y-2738729D01*
X2129688Y-2745740D01*
X2121357Y-2753207D01*
X2121357Y-2758287D01*
X2167331Y-2758287D01*
X2167331Y-2751175D01*
X2143048Y-2751175D01*
X2133803Y-2751683D01*
X2140356Y-2745384D01*
X2146198Y-2739186D01*
X2151329Y-2733192D01*
X2155647Y-2727299D01*
X2159101Y-2721457D01*
X2161641Y-2715717D01*
X2163216Y-2710078D01*
X2163775Y-2704439D01*
X2163419Y-2699664D01*
X2162302Y-2695448D01*
X2160524Y-2691688D01*
X2158034Y-2688539D01*
X2154986Y-2685999D01*
X2151329Y-2684119D01*
X2147163Y-2682951D01*
G37*
G36*
X2141829Y-2421686D02*
G01*
X2136546Y-2422194D01*
X2131568Y-2423871D01*
X2126945Y-2426716D01*
X2122881Y-2430830D01*
X2119477Y-2436368D01*
X2116886Y-2443327D01*
X2115210Y-2451862D01*
X2114651Y-2462072D01*
X2114939Y-2467406D01*
X2122525Y-2467406D01*
X2126488Y-2462885D01*
X2130552Y-2459786D01*
X2134565Y-2458059D01*
X2138273Y-2457500D01*
X2144522Y-2458720D01*
X2148840Y-2462225D01*
X2151380Y-2467559D01*
X2152243Y-2474518D01*
X2151227Y-2481630D01*
X2148484Y-2487168D01*
X2144420Y-2490774D01*
X2139289Y-2492044D01*
X2132634Y-2490419D01*
X2127554Y-2485644D01*
X2124151Y-2477922D01*
X2122525Y-2467406D01*
X2114939Y-2467406D01*
X2115108Y-2470556D01*
X2116429Y-2477973D01*
X2118614Y-2484272D01*
X2121509Y-2489403D01*
X2125116Y-2493467D01*
X2129332Y-2496312D01*
X2134057Y-2498090D01*
X2139289Y-2498648D01*
X2143353Y-2498191D01*
X2147214Y-2496921D01*
X2150770Y-2494838D01*
X2153869Y-2491994D01*
X2156460Y-2488539D01*
X2158390Y-2484424D01*
X2159660Y-2479700D01*
X2160117Y-2474518D01*
X2159711Y-2469134D01*
X2158644Y-2464460D01*
X2156917Y-2460498D01*
X2154580Y-2457246D01*
X2151634Y-2454706D01*
X2148078Y-2452878D01*
X2144064Y-2451760D01*
X2139543Y-2451404D01*
X2135022Y-2452014D01*
X2130552Y-2453741D01*
X2126284Y-2456535D01*
X2122525Y-2460294D01*
X2122982Y-2452166D01*
X2124202Y-2445359D01*
X2126081Y-2439873D01*
X2128469Y-2435555D01*
X2131364Y-2432354D01*
X2134666Y-2430170D01*
X2138222Y-2428951D01*
X2142083Y-2428544D01*
X2145436Y-2428951D01*
X2148586Y-2430119D01*
X2151481Y-2431999D01*
X2154021Y-2434386D01*
X2158847Y-2429052D01*
X2155545Y-2426106D01*
X2151634Y-2423769D01*
X2147112Y-2422245D01*
G37*
G36*
X2092452Y-2166721D02*
G01*
X2086051Y-2167483D01*
X2080514Y-2169718D01*
X2075484Y-2173173D01*
X2070862Y-2177643D01*
X2075688Y-2182215D01*
X2079091Y-2178812D01*
X2082901Y-2175967D01*
X2087118Y-2174036D01*
X2091689Y-2173325D01*
X2097938Y-2174494D01*
X2102307Y-2177745D01*
X2104847Y-2182672D01*
X2105660Y-2188819D01*
X2105152Y-2193798D01*
X2103628Y-2198979D01*
X2101088Y-2204415D01*
X2097481Y-2210206D01*
X2092706Y-2216353D01*
X2086813Y-2222906D01*
X2079701Y-2229866D01*
X2071370Y-2237333D01*
X2071370Y-2242413D01*
X2117344Y-2242413D01*
X2117344Y-2235301D01*
X2093061Y-2235352D01*
X2083816Y-2235809D01*
X2090318Y-2229510D01*
X2096211Y-2223363D01*
X2101342Y-2217318D01*
X2105660Y-2211425D01*
X2109114Y-2205634D01*
X2111654Y-2199894D01*
X2113229Y-2194204D01*
X2113788Y-2188565D01*
X2113381Y-2183841D01*
X2112314Y-2179574D01*
X2110486Y-2175865D01*
X2108047Y-2172716D01*
X2104999Y-2170125D01*
X2101342Y-2168296D01*
X2097125Y-2167128D01*
G37*
G36*
X2150110Y-2167991D02*
G01*
X2147062Y-2169617D01*
X2143556Y-2170988D01*
X2139594Y-2172157D01*
X2135124Y-2173071D01*
X2135124Y-2178405D01*
X2148332Y-2178405D01*
X2148332Y-2235555D01*
X2131568Y-2235555D01*
X2131568Y-2242413D01*
X2171700Y-2242413D01*
X2171700Y-2235555D01*
X2156460Y-2235555D01*
X2156460Y-2167991D01*
G37*
G36*
X2137613Y-1912721D02*
G01*
X2133498Y-1913178D01*
X2129637Y-1914448D01*
X2126081Y-1916531D01*
X2122982Y-1919325D01*
X2120392Y-1922780D01*
X2118461Y-1926894D01*
X2117191Y-1931517D01*
X2116785Y-1936597D01*
X2124659Y-1936597D01*
X2125624Y-1929638D01*
X2128367Y-1924151D01*
X2132482Y-1920595D01*
X2137613Y-1919325D01*
X2144369Y-1920951D01*
X2149500Y-1925624D01*
X2152853Y-1933244D01*
X2154377Y-1943709D01*
X2150567Y-1948281D01*
X2146554Y-1951482D01*
X2142439Y-1953310D01*
X2138375Y-1953869D01*
X2132330Y-1952650D01*
X2128062Y-1949145D01*
X2125472Y-1943709D01*
X2124659Y-1936597D01*
X2116785Y-1936597D01*
X2117140Y-1942033D01*
X2118207Y-1946808D01*
X2119934Y-1950821D01*
X2122271Y-1954072D01*
X2125167Y-1956663D01*
X2128672Y-1958492D01*
X2132634Y-1959610D01*
X2137105Y-1959965D01*
X2141931Y-1959305D01*
X2146503Y-1957476D01*
X2150770Y-1954530D01*
X2154631Y-1950567D01*
X2153970Y-1958898D01*
X2152650Y-1965807D01*
X2150770Y-1971395D01*
X2148433Y-1975764D01*
X2145639Y-1978964D01*
X2142490Y-1981200D01*
X2139137Y-1982419D01*
X2135581Y-1982825D01*
X2131872Y-1982470D01*
X2128469Y-1981352D01*
X2125421Y-1979523D01*
X2122881Y-1976983D01*
X2118309Y-1982317D01*
X2121611Y-1985314D01*
X2125573Y-1987600D01*
X2130196Y-1989124D01*
X2135581Y-1989683D01*
X2140712Y-1989124D01*
X2145639Y-1987448D01*
X2150211Y-1984451D01*
X2154275Y-1980184D01*
X2157628Y-1974443D01*
X2160219Y-1967179D01*
X2161895Y-1958339D01*
X2162505Y-1947773D01*
X2161997Y-1939543D01*
X2160625Y-1932432D01*
X2158441Y-1926437D01*
X2155444Y-1921510D01*
X2151837Y-1917649D01*
X2147570Y-1914906D01*
X2142794Y-1913280D01*
G37*
G36*
X2141778Y-1663344D02*
G01*
X2135428Y-1664106D01*
X2129840Y-1666341D01*
X2124862Y-1669745D01*
X2120188Y-1674266D01*
X2125014Y-1678838D01*
X2128469Y-1675384D01*
X2132279Y-1672589D01*
X2136444Y-1670659D01*
X2141016Y-1669948D01*
X2147265Y-1671116D01*
X2151634Y-1674368D01*
X2154174Y-1679244D01*
X2154986Y-1685442D01*
X2154478Y-1690420D01*
X2153005Y-1695602D01*
X2150465Y-1701038D01*
X2146808Y-1706829D01*
X2142032Y-1712975D01*
X2136140Y-1719529D01*
X2129028Y-1726488D01*
X2120696Y-1733956D01*
X2120696Y-1739036D01*
X2166670Y-1739036D01*
X2166670Y-1731924D01*
X2142490Y-1731975D01*
X2133142Y-1732432D01*
X2139696Y-1726133D01*
X2145538Y-1719986D01*
X2150668Y-1713941D01*
X2154986Y-1708048D01*
X2158441Y-1702206D01*
X2161032Y-1696516D01*
X2162606Y-1690827D01*
X2163114Y-1685188D01*
X2162759Y-1680464D01*
X2161641Y-1676196D01*
X2159863Y-1672488D01*
X2157425Y-1669288D01*
X2154326Y-1666748D01*
X2150719Y-1664919D01*
X2146503Y-1663750D01*
G37*
G36*
X2057196Y-1664614D02*
G01*
X2057196Y-1671472D01*
X2074722Y-1671472D01*
X2081072Y-1671980D01*
X2086559Y-1673504D01*
X2091182Y-1675993D01*
X2094941Y-1679397D01*
X2097887Y-1683715D01*
X2099970Y-1688846D01*
X2101240Y-1694738D01*
X2101646Y-1701444D01*
X2101240Y-1708251D01*
X2099970Y-1714296D01*
X2097887Y-1719529D01*
X2094941Y-1723948D01*
X2091182Y-1727454D01*
X2086559Y-1730044D01*
X2081072Y-1731619D01*
X2074722Y-1732178D01*
X2065578Y-1732178D01*
X2065578Y-1671472D01*
X2057196Y-1671472D01*
X2057196Y-1739036D01*
X2075738Y-1739036D01*
X2081174Y-1738731D01*
X2086152Y-1737868D01*
X2090674Y-1736445D01*
X2094738Y-1734464D01*
X2098344Y-1731975D01*
X2101494Y-1728978D01*
X2104186Y-1725523D01*
X2106371Y-1721561D01*
X2108098Y-1717192D01*
X2109317Y-1712315D01*
X2110028Y-1707083D01*
X2110282Y-1701444D01*
X2110028Y-1695805D01*
X2109317Y-1690573D01*
X2108047Y-1685848D01*
X2106371Y-1681480D01*
X2104136Y-1677670D01*
X2101443Y-1674266D01*
X2098294Y-1671370D01*
X2094687Y-1668983D01*
X2090572Y-1667052D01*
X2086000Y-1665732D01*
X2080971Y-1664868D01*
X2075484Y-1664614D01*
G37*
G36*
X2140915Y-1410614D02*
G01*
X2137867Y-1412240D01*
X2134362Y-1413611D01*
X2130399Y-1414780D01*
X2125929Y-1415694D01*
X2125929Y-1421028D01*
X2139137Y-1421028D01*
X2139137Y-1478178D01*
X2122373Y-1478178D01*
X2122373Y-1485036D01*
X2162505Y-1485036D01*
X2162505Y-1478178D01*
X2147265Y-1478178D01*
X2147265Y-1410614D01*
G37*
G36*
X2085289Y-1410614D02*
G01*
X2082241Y-1412240D01*
X2078736Y-1413611D01*
X2074773Y-1414780D01*
X2070303Y-1415694D01*
X2070303Y-1421028D01*
X2083257Y-1421028D01*
X2083257Y-1478178D01*
X2066747Y-1478178D01*
X2066747Y-1485036D01*
X2106625Y-1485036D01*
X2106625Y-1478178D01*
X2091639Y-1478178D01*
X2091639Y-1410614D01*
G37*
G36*
X2140813Y-907999D02*
G01*
X2109899Y-954989D01*
X2117902Y-954989D01*
X2135936Y-928573D01*
X2141829Y-917651D01*
X2142286Y-917651D01*
X2141829Y-927811D01*
X2141829Y-954989D01*
X2109899Y-954989D01*
X2109063Y-956259D01*
X2109063Y-961593D01*
X2141829Y-961593D01*
X2141829Y-982421D01*
X2149449Y-982421D01*
X2149449Y-961593D01*
X2159609Y-961593D01*
X2159609Y-954989D01*
X2149449Y-954989D01*
X2149449Y-907999D01*
G37*
G36*
X2079091Y-907999D02*
G01*
X2075992Y-909624D01*
X2072538Y-910996D01*
X2068575Y-912164D01*
X2064054Y-913079D01*
X2064054Y-918413D01*
X2077059Y-918413D01*
X2077059Y-975563D01*
X2060549Y-975563D01*
X2060549Y-982421D01*
X2100427Y-982421D01*
X2100427Y-975563D01*
X2085441Y-975563D01*
X2085441Y-907999D01*
G37*
G36*
X-663854Y-3694785D02*
G01*
X-669950Y-3695496D01*
X-675335Y-3697325D01*
X-680161Y-3700068D01*
X-684428Y-3703421D01*
X-679856Y-3709009D01*
X-676554Y-3706063D01*
X-672846Y-3703675D01*
X-668782Y-3702100D01*
X-664362Y-3701389D01*
X-658825Y-3702405D01*
X-654710Y-3704945D01*
X-652068Y-3708857D01*
X-651154Y-3713835D01*
X-652272Y-3719677D01*
X-655878Y-3724351D01*
X-662381Y-3727450D01*
X-672236Y-3728567D01*
X-672236Y-3734917D01*
X-661263Y-3736086D01*
X-653948Y-3739235D01*
X-649833Y-3744163D01*
X-648614Y-3750411D01*
X-649782Y-3756456D01*
X-652983Y-3761028D01*
X-657910Y-3763924D01*
X-664108Y-3764889D01*
X-670153Y-3764229D01*
X-675182Y-3762298D01*
X-679399Y-3759555D01*
X-682904Y-3756253D01*
X-687222Y-3761587D01*
X-683107Y-3765448D01*
X-677976Y-3768699D01*
X-671525Y-3770934D01*
X-663600Y-3771747D01*
X-658876Y-3771392D01*
X-654456Y-3770325D01*
X-650494Y-3768598D01*
X-647039Y-3766210D01*
X-644194Y-3763162D01*
X-642061Y-3759555D01*
X-640689Y-3755390D01*
X-640232Y-3750665D01*
X-641451Y-3743706D01*
X-644855Y-3738118D01*
X-649986Y-3734054D01*
X-656234Y-3731615D01*
X-656234Y-3731361D01*
X-650697Y-3728567D01*
X-646430Y-3724605D01*
X-643737Y-3719474D01*
X-642772Y-3713073D01*
X-644347Y-3705301D01*
X-648716Y-3699560D01*
X-655421Y-3696004D01*
G37*
G36*
X-634390Y-3696055D02*
G01*
X-610514Y-3770477D01*
X-600862Y-3770477D01*
X-576986Y-3696055D01*
X-585622Y-3696055D01*
X-605180Y-3761892D01*
X-605688Y-3761892D01*
X-611073Y-3743553D01*
X-625500Y-3696055D01*
G37*
G36*
X-616813Y-3442106D02*
G01*
X-621588Y-3442411D01*
X-626059Y-3443325D01*
X-630275Y-3444798D01*
X-634187Y-3446830D01*
X-637743Y-3449370D01*
X-640892Y-3452469D01*
X-643686Y-3456025D01*
X-645972Y-3460089D01*
X-647852Y-3464610D01*
X-649224Y-3469589D01*
X-650036Y-3474974D01*
X-650341Y-3480714D01*
X-649681Y-3489248D01*
X-647903Y-3496767D01*
X-644956Y-3503371D01*
X-641045Y-3508857D01*
X-636219Y-3513226D01*
X-630631Y-3516426D01*
X-624281Y-3518408D01*
X-617321Y-3519068D01*
X-610260Y-3518458D01*
X-603961Y-3516680D01*
X-598678Y-3514039D01*
X-594461Y-3510686D01*
X-594461Y-3479698D01*
X-618591Y-3479698D01*
X-618591Y-3486810D01*
X-602335Y-3486810D01*
X-602335Y-3507130D01*
X-605028Y-3509060D01*
X-608482Y-3510483D01*
X-612394Y-3511397D01*
X-616559Y-3511702D01*
X-622249Y-3511143D01*
X-627227Y-3509518D01*
X-631545Y-3506876D01*
X-635101Y-3503218D01*
X-637946Y-3498748D01*
X-640029Y-3493414D01*
X-641248Y-3487267D01*
X-641705Y-3480460D01*
X-641248Y-3473653D01*
X-639927Y-3467608D01*
X-637844Y-3462274D01*
X-634949Y-3457854D01*
X-631291Y-3454247D01*
X-627024Y-3451656D01*
X-622096Y-3450031D01*
X-616559Y-3449472D01*
X-611174Y-3450082D01*
X-606755Y-3451606D01*
X-603097Y-3453892D01*
X-600049Y-3456584D01*
X-595477Y-3451250D01*
X-599135Y-3447897D01*
X-603859Y-3444951D01*
X-609701Y-3442919D01*
G37*
G36*
X-631444Y-3141421D02*
G01*
X-631444Y-3148533D01*
X-608838Y-3148533D01*
X-608838Y-3215843D01*
X-600456Y-3215843D01*
X-600456Y-3148533D01*
X-577596Y-3148533D01*
X-577596Y-3141421D01*
G37*
G36*
X-686562Y-3141421D02*
G01*
X-686562Y-3148279D01*
X-665226Y-3148279D01*
X-657301Y-3148990D01*
X-651510Y-3151327D01*
X-647903Y-3155543D01*
X-646684Y-3161995D01*
X-647903Y-3168599D01*
X-651510Y-3173171D01*
X-657301Y-3175863D01*
X-665226Y-3176727D01*
X-678180Y-3176727D01*
X-678180Y-3148279D01*
X-686562Y-3148279D01*
X-686562Y-3215843D01*
X-678180Y-3215843D01*
X-678180Y-3183839D01*
X-664210Y-3183839D01*
X-645668Y-3215843D01*
X-636270Y-3215843D01*
X-655320Y-3182823D01*
X-648258Y-3180232D01*
X-642772Y-3175914D01*
X-639267Y-3169869D01*
X-638048Y-3161995D01*
X-638556Y-3156712D01*
X-639978Y-3152343D01*
X-642213Y-3148787D01*
X-645312Y-3145993D01*
X-649071Y-3143910D01*
X-653491Y-3142488D01*
X-658469Y-3141675D01*
X-663956Y-3141421D01*
G37*
G36*
X66598Y-901953D02*
G01*
X60655Y-902614D01*
X55270Y-904494D01*
X50444Y-907237D01*
X46024Y-910590D01*
X50596Y-916178D01*
X54051Y-913231D01*
X57810Y-910844D01*
X61925Y-909269D01*
X66344Y-908558D01*
X71780Y-909574D01*
X75895Y-912114D01*
X78435Y-915974D01*
X79298Y-921003D01*
X78232Y-926846D01*
X74726Y-931519D01*
X68275Y-934618D01*
X58470Y-935736D01*
X58470Y-942086D01*
X69443Y-943203D01*
X76758Y-946403D01*
X80822Y-951331D01*
X82092Y-957580D01*
X80924Y-963625D01*
X77673Y-968146D01*
X72694Y-971042D01*
X66344Y-972058D01*
X60401Y-971346D01*
X55422Y-969467D01*
X51206Y-966724D01*
X47548Y-963421D01*
X43484Y-968756D01*
X47447Y-972616D01*
X52628Y-975868D01*
X59029Y-978103D01*
X66852Y-978916D01*
X71678Y-978560D01*
X76098Y-977493D01*
X80060Y-975715D01*
X83515Y-973328D01*
X86309Y-970330D01*
X88442Y-966724D01*
X89763Y-962558D01*
X90220Y-957834D01*
X89001Y-950874D01*
X85598Y-945286D01*
X80568Y-941171D01*
X74472Y-938784D01*
X74472Y-938530D01*
X79857Y-935736D01*
X84023Y-931773D01*
X86715Y-926642D01*
X87680Y-920242D01*
X86106Y-912469D01*
X81737Y-906729D01*
X75031Y-903173D01*
G37*
G36*
X10972Y-901953D02*
G01*
X4876Y-902614D01*
X-558Y-904494D01*
X-5334Y-907237D01*
X-9601Y-910590D01*
X-5029Y-916178D01*
X-1727Y-913231D01*
X1981Y-910844D01*
X6045Y-909269D01*
X10464Y-908558D01*
X15951Y-909574D01*
X20116Y-912114D01*
X22758Y-915974D01*
X23672Y-921003D01*
X22555Y-926846D01*
X18948Y-931519D01*
X12446Y-934618D01*
X2590Y-935736D01*
X2590Y-942086D01*
X13563Y-943203D01*
X20878Y-946403D01*
X24942Y-951331D01*
X26212Y-957580D01*
X25044Y-963625D01*
X21793Y-968146D01*
X16916Y-971042D01*
X10718Y-972058D01*
X4622Y-971346D01*
X-406Y-969467D01*
X-4572Y-966724D01*
X-8077Y-963421D01*
X-12395Y-968756D01*
X-8280Y-972616D01*
X-3149Y-975868D01*
X3302Y-978103D01*
X11226Y-978916D01*
X15951Y-978560D01*
X20370Y-977493D01*
X24333Y-975715D01*
X27787Y-973328D01*
X30632Y-970330D01*
X32766Y-966724D01*
X34137Y-962558D01*
X34594Y-957834D01*
X33375Y-950874D01*
X29921Y-945286D01*
X24841Y-941171D01*
X18592Y-938784D01*
X18592Y-938530D01*
X24130Y-935736D01*
X28397Y-931773D01*
X31089Y-926642D01*
X32054Y-920242D01*
X30480Y-912469D01*
X26111Y-906729D01*
X19405Y-903173D01*
G37*
G36*
X-642670Y-1076807D02*
G01*
X-618794Y-1151229D01*
X-609142Y-1151229D01*
X-585520Y-1076807D01*
X-593902Y-1076807D01*
X-613714Y-1142593D01*
X-613968Y-1142593D01*
X-617829Y-1130249D01*
X-621334Y-1117955D01*
X-633780Y-1076807D01*
G37*
G36*
X-631748Y-989482D02*
G01*
X-634034Y-1024026D01*
X-629462Y-1026820D01*
X-626414Y-1024940D01*
X-623519Y-1023619D01*
X-620522Y-1022756D01*
X-617016Y-1022502D01*
X-610463Y-1023721D01*
X-605434Y-1027176D01*
X-602183Y-1032662D01*
X-601014Y-1040028D01*
X-602335Y-1047597D01*
X-605840Y-1053338D01*
X-610971Y-1057046D01*
X-617270Y-1058316D01*
X-623366Y-1057605D01*
X-628345Y-1055725D01*
X-632460Y-1053033D01*
X-635812Y-1049934D01*
X-640130Y-1055268D01*
X-635965Y-1058976D01*
X-630834Y-1062126D01*
X-624433Y-1064310D01*
X-616508Y-1065174D01*
X-611987Y-1064717D01*
X-607669Y-1063498D01*
X-603605Y-1061415D01*
X-599998Y-1058570D01*
X-597001Y-1054963D01*
X-594664Y-1050594D01*
X-593191Y-1045514D01*
X-592632Y-1039774D01*
X-593090Y-1034034D01*
X-594410Y-1029106D01*
X-596442Y-1025042D01*
X-599135Y-1021740D01*
X-602437Y-1019251D01*
X-606247Y-1017524D01*
X-610463Y-1016508D01*
X-614984Y-1016152D01*
X-618236Y-1016355D01*
X-621182Y-1016914D01*
X-623874Y-1017879D01*
X-626414Y-1019200D01*
X-624382Y-996594D01*
X-596188Y-996594D01*
X-596188Y-989482D01*
G37*
G36*
X-602386Y-2924606D02*
G01*
X-633300Y-2971596D01*
X-625246Y-2971596D01*
X-607212Y-2945180D01*
X-601370Y-2934258D01*
X-600862Y-2934258D01*
X-601370Y-2947466D01*
X-601370Y-2971596D01*
X-633300Y-2971596D01*
X-634136Y-2972866D01*
X-634136Y-2978200D01*
X-601370Y-2978200D01*
X-601370Y-2999028D01*
X-593750Y-2999028D01*
X-593750Y-2978200D01*
X-583590Y-2978200D01*
X-583590Y-2971596D01*
X-593750Y-2971596D01*
X-593750Y-2924606D01*
G37*
G36*
X-658266Y-2924606D02*
G01*
X-688933Y-2971596D01*
X-681126Y-2971596D01*
X-663092Y-2945180D01*
X-657250Y-2934258D01*
X-656742Y-2934258D01*
X-657250Y-2947466D01*
X-657250Y-2971596D01*
X-688933Y-2971596D01*
X-689762Y-2972866D01*
X-689762Y-2978200D01*
X-657250Y-2978200D01*
X-657250Y-2999028D01*
X-649376Y-2999028D01*
X-649376Y-2978200D01*
X-639216Y-2978200D01*
X-639216Y-2971596D01*
X-649376Y-2971596D01*
X-649376Y-2924606D01*
G37*
G36*
X-604367Y-2679344D02*
G01*
X-610362Y-2680004D01*
X-615696Y-2681833D01*
X-620572Y-2684576D01*
X-624941Y-2687980D01*
X-620369Y-2693568D01*
X-616966Y-2690571D01*
X-613156Y-2688234D01*
X-609041Y-2686659D01*
X-604621Y-2685948D01*
X-599186Y-2686964D01*
X-595122Y-2689504D01*
X-592582Y-2693365D01*
X-591667Y-2698394D01*
X-592785Y-2704236D01*
X-596290Y-2708910D01*
X-602742Y-2712008D01*
X-612495Y-2713126D01*
X-612495Y-2719476D01*
X-601522Y-2720594D01*
X-594207Y-2723794D01*
X-590143Y-2728671D01*
X-588873Y-2734970D01*
X-590042Y-2740964D01*
X-593344Y-2745536D01*
X-598322Y-2748432D01*
X-604621Y-2749448D01*
X-610565Y-2748737D01*
X-615543Y-2746857D01*
X-619760Y-2744063D01*
X-623417Y-2740812D01*
X-627481Y-2746146D01*
X-623519Y-2749956D01*
X-618388Y-2753207D01*
X-611936Y-2755442D01*
X-604113Y-2756306D01*
X-599338Y-2755950D01*
X-594918Y-2754884D01*
X-590956Y-2753106D01*
X-587502Y-2750718D01*
X-584657Y-2747721D01*
X-582574Y-2744063D01*
X-581202Y-2739898D01*
X-580745Y-2735224D01*
X-582015Y-2728264D01*
X-585419Y-2722626D01*
X-590397Y-2718562D01*
X-596493Y-2716174D01*
X-596493Y-2715920D01*
X-591108Y-2713075D01*
X-586943Y-2709164D01*
X-584250Y-2704033D01*
X-583285Y-2697632D01*
X-584860Y-2689860D01*
X-589280Y-2684119D01*
X-595934Y-2680563D01*
G37*
G36*
X-652881Y-2680614D02*
G01*
X-683548Y-2727604D01*
X-675741Y-2727604D01*
X-657707Y-2701188D01*
X-651865Y-2690266D01*
X-651357Y-2690266D01*
X-651865Y-2703474D01*
X-651865Y-2727604D01*
X-683548Y-2727604D01*
X-684377Y-2728874D01*
X-684377Y-2734208D01*
X-651865Y-2734208D01*
X-651865Y-2755036D01*
X-643991Y-2755036D01*
X-643991Y-2734208D01*
X-633831Y-2734208D01*
X-633831Y-2727604D01*
X-643991Y-2727604D01*
X-643991Y-2680614D01*
G37*
G36*
X-602335Y-2415489D02*
G01*
X-605383Y-2417064D01*
X-608888Y-2418486D01*
X-612851Y-2419654D01*
X-617321Y-2420569D01*
X-617321Y-2425903D01*
X-604113Y-2425903D01*
X-604113Y-2483053D01*
X-620877Y-2483053D01*
X-620877Y-2489911D01*
X-580745Y-2489911D01*
X-580745Y-2483053D01*
X-595985Y-2483053D01*
X-595985Y-2415489D01*
G37*
G36*
X-652119Y-2415489D02*
G01*
X-682786Y-2462479D01*
X-674979Y-2462479D01*
X-656945Y-2436063D01*
X-651103Y-2425141D01*
X-650595Y-2425141D01*
X-651103Y-2438349D01*
X-651103Y-2462479D01*
X-682786Y-2462479D01*
X-683615Y-2463749D01*
X-683615Y-2469083D01*
X-651103Y-2469083D01*
X-651103Y-2489911D01*
X-643229Y-2489911D01*
X-643229Y-2469083D01*
X-633069Y-2469083D01*
X-633069Y-2462479D01*
X-643229Y-2462479D01*
X-643229Y-2415489D01*
G37*
G36*
X-997051Y-2540406D02*
G01*
X-997051Y-2614828D01*
X-988923Y-2614828D01*
X-989025Y-2568346D01*
X-989939Y-2551328D01*
X-989431Y-2551328D01*
X-981303Y-2566568D01*
X-953363Y-2614828D01*
X-944727Y-2614828D01*
X-944727Y-2540406D01*
X-952855Y-2540406D01*
X-952855Y-2580792D01*
X-952398Y-2592425D01*
X-951585Y-2603906D01*
X-952093Y-2603906D01*
X-960221Y-2588666D01*
X-988415Y-2540406D01*
G37*
G36*
X-1056233Y-2540406D02*
G01*
X-1056233Y-2614828D01*
X-1012799Y-2614828D01*
X-1012799Y-2607716D01*
X-1047851Y-2607716D01*
X-1047851Y-2579268D01*
X-1019403Y-2579268D01*
X-1019403Y-2572156D01*
X-1047851Y-2572156D01*
X-1047851Y-2547518D01*
X-1013815Y-2547518D01*
X-1013815Y-2540406D01*
G37*
G36*
X11277Y-1144422D02*
G01*
X5181Y-1145082D01*
X-254Y-1146911D01*
X-5029Y-1149654D01*
X-9296Y-1153058D01*
X-4724Y-1158646D01*
X-1422Y-1155649D01*
X2286Y-1153312D01*
X6350Y-1151686D01*
X10769Y-1151026D01*
X16256Y-1152042D01*
X20421Y-1154582D01*
X23063Y-1158443D01*
X23977Y-1163472D01*
X22860Y-1169314D01*
X19253Y-1173988D01*
X12750Y-1177086D01*
X2895Y-1178204D01*
X2895Y-1184554D01*
X13868Y-1185672D01*
X21183Y-1188872D01*
X25247Y-1193749D01*
X26517Y-1200048D01*
X25349Y-1206042D01*
X22098Y-1210614D01*
X17221Y-1213510D01*
X11023Y-1214526D01*
X4978Y-1213815D01*
X-101Y-1211884D01*
X-4267Y-1209141D01*
X-7772Y-1205890D01*
X-12090Y-1211224D01*
X-7975Y-1215034D01*
X-2844Y-1218285D01*
X3606Y-1220520D01*
X11531Y-1221384D01*
X16256Y-1221028D01*
X20675Y-1219911D01*
X24638Y-1218184D01*
X28092Y-1215796D01*
X30937Y-1212748D01*
X33070Y-1209141D01*
X34442Y-1204976D01*
X34899Y-1200302D01*
X33680Y-1193292D01*
X30226Y-1187704D01*
X25146Y-1183640D01*
X18897Y-1181252D01*
X18897Y-1180998D01*
X24434Y-1178153D01*
X28702Y-1174242D01*
X31394Y-1169111D01*
X32359Y-1162710D01*
X30784Y-1154887D01*
X26416Y-1149146D01*
X19710Y-1145641D01*
G37*
G36*
X74269Y-1145692D02*
G01*
X43355Y-1192682D01*
X51409Y-1192682D01*
X69443Y-1166266D01*
X75285Y-1155344D01*
X75793Y-1155344D01*
X75285Y-1168552D01*
X75285Y-1192682D01*
X43355Y-1192682D01*
X42519Y-1193952D01*
X42519Y-1199286D01*
X75285Y-1199286D01*
X75285Y-1220114D01*
X82905Y-1220114D01*
X82905Y-1199286D01*
X93065Y-1199286D01*
X93065Y-1192682D01*
X82905Y-1192682D01*
X82905Y-1145692D01*
G37*
G36*
X-8737Y-1415999D02*
G01*
X-8737Y-1460195D01*
X-8229Y-1468323D01*
X-6705Y-1475079D01*
X-4267Y-1480566D01*
X-1066Y-1484782D01*
X2794Y-1487982D01*
X7213Y-1490116D01*
X12141Y-1491335D01*
X17424Y-1491691D01*
X22809Y-1491335D01*
X27736Y-1490116D01*
X32258Y-1487982D01*
X36169Y-1484782D01*
X39370Y-1480566D01*
X41757Y-1475079D01*
X43281Y-1468323D01*
X43840Y-1460195D01*
X43840Y-1415999D01*
X35712Y-1415999D01*
X35712Y-1460449D01*
X35356Y-1466748D01*
X34290Y-1471879D01*
X32613Y-1476044D01*
X30378Y-1479245D01*
X27686Y-1481582D01*
X24587Y-1483156D01*
X21132Y-1484071D01*
X17424Y-1484325D01*
X10464Y-1483156D01*
X4826Y-1479245D01*
X1016Y-1471879D01*
X-355Y-1460449D01*
X-355Y-1415999D01*
G37*
G36*
X78587Y-1664817D02*
G01*
X73304Y-1665376D01*
X68326Y-1667002D01*
X63652Y-1669846D01*
X59537Y-1673961D01*
X56083Y-1679498D01*
X53441Y-1686458D01*
X51765Y-1695043D01*
X51155Y-1705203D01*
X51441Y-1710537D01*
X59283Y-1710537D01*
X63195Y-1706016D01*
X67259Y-1702917D01*
X71272Y-1701190D01*
X75031Y-1700631D01*
X81178Y-1701850D01*
X85547Y-1705356D01*
X88138Y-1710689D01*
X89001Y-1717649D01*
X87985Y-1724812D01*
X85140Y-1730349D01*
X80975Y-1733905D01*
X75793Y-1735175D01*
X69189Y-1733550D01*
X64211Y-1728774D01*
X60909Y-1721053D01*
X59283Y-1710537D01*
X51441Y-1710537D01*
X51612Y-1713738D01*
X52984Y-1721104D01*
X55219Y-1727403D01*
X58166Y-1732534D01*
X61772Y-1736598D01*
X65938Y-1739442D01*
X70662Y-1741220D01*
X75793Y-1741779D01*
X79959Y-1741322D01*
X83921Y-1740052D01*
X87477Y-1737969D01*
X90627Y-1735175D01*
X93218Y-1731670D01*
X95199Y-1727555D01*
X96418Y-1722831D01*
X96875Y-1717649D01*
X96520Y-1712315D01*
X95402Y-1707642D01*
X93675Y-1703628D01*
X91236Y-1700377D01*
X88290Y-1697837D01*
X84785Y-1696008D01*
X80772Y-1694891D01*
X76301Y-1694535D01*
X71729Y-1695145D01*
X67208Y-1696872D01*
X62890Y-1699666D01*
X59029Y-1703425D01*
X59588Y-1695297D01*
X60858Y-1688490D01*
X62788Y-1683004D01*
X65227Y-1678686D01*
X68122Y-1675485D01*
X71424Y-1673301D01*
X75031Y-1672082D01*
X78841Y-1671675D01*
X82092Y-1672082D01*
X85293Y-1673250D01*
X88239Y-1675130D01*
X90779Y-1677517D01*
X95351Y-1672183D01*
X92049Y-1669237D01*
X88188Y-1666900D01*
X83769Y-1665376D01*
G37*
G36*
X16103Y-1664817D02*
G01*
X10007Y-1665478D01*
X4572Y-1667357D01*
X-203Y-1670100D01*
X-4470Y-1673453D01*
X101Y-1679041D01*
X3403Y-1676095D01*
X7112Y-1673707D01*
X11176Y-1672132D01*
X15595Y-1671421D01*
X21082Y-1672437D01*
X25247Y-1674977D01*
X27889Y-1678838D01*
X28803Y-1683867D01*
X27686Y-1689709D01*
X24079Y-1694383D01*
X17576Y-1697482D01*
X7721Y-1698599D01*
X7721Y-1704949D01*
X18694Y-1706118D01*
X26009Y-1709267D01*
X30073Y-1714195D01*
X31343Y-1720443D01*
X30175Y-1726488D01*
X26924Y-1731010D01*
X22047Y-1733905D01*
X15849Y-1734921D01*
X9753Y-1734210D01*
X4724Y-1732330D01*
X558Y-1729587D01*
X-2946Y-1726285D01*
X-7264Y-1731619D01*
X-3200Y-1735480D01*
X1981Y-1738731D01*
X8432Y-1740966D01*
X16357Y-1741779D01*
X21082Y-1741424D01*
X25501Y-1740357D01*
X29464Y-1738579D01*
X32918Y-1736191D01*
X35763Y-1733194D01*
X37896Y-1729587D01*
X39268Y-1725422D01*
X39725Y-1720697D01*
X38455Y-1713738D01*
X35052Y-1708150D01*
X29971Y-1704086D01*
X23723Y-1701647D01*
X23723Y-1701393D01*
X29260Y-1698599D01*
X33528Y-1694637D01*
X36220Y-1689506D01*
X37185Y-1683105D01*
X35610Y-1675333D01*
X31242Y-1669592D01*
X24536Y-1666036D01*
G37*
G36*
X15341Y-1910638D02*
G01*
X9194Y-1911299D01*
X3810Y-1913128D01*
X-1016Y-1915871D01*
X-5232Y-1919274D01*
X-660Y-1924862D01*
X2590Y-1921916D01*
X6299Y-1919528D01*
X10414Y-1917954D01*
X14833Y-1917242D01*
X20320Y-1918258D01*
X24485Y-1920798D01*
X27127Y-1924659D01*
X28041Y-1929688D01*
X26924Y-1935530D01*
X23317Y-1940204D01*
X16764Y-1943303D01*
X6959Y-1944420D01*
X6959Y-1950770D01*
X17932Y-1951888D01*
X25247Y-1955088D01*
X29311Y-1960016D01*
X30581Y-1966264D01*
X29413Y-1972259D01*
X26162Y-1976831D01*
X21234Y-1979726D01*
X15087Y-1980742D01*
X8991Y-1980031D01*
X3962Y-1978152D01*
X-203Y-1975408D01*
X-3708Y-1972106D01*
X-8026Y-1977440D01*
X-3962Y-1981301D01*
X1219Y-1984502D01*
X7620Y-1986788D01*
X15595Y-1987600D01*
X20320Y-1987245D01*
X24688Y-1986178D01*
X28651Y-1984400D01*
X32105Y-1982012D01*
X34950Y-1979015D01*
X37134Y-1975408D01*
X38455Y-1971243D01*
X38963Y-1966518D01*
X37693Y-1959559D01*
X34290Y-1953971D01*
X29209Y-1949856D01*
X22961Y-1947468D01*
X22961Y-1947214D01*
X28498Y-1944420D01*
X32715Y-1940458D01*
X35458Y-1935327D01*
X36423Y-1928926D01*
X34848Y-1921154D01*
X30429Y-1915414D01*
X23774Y-1911857D01*
G37*
G36*
X72999Y-1910892D02*
G01*
X65024Y-1912264D01*
X58674Y-1916125D01*
X54457Y-1922018D01*
X52933Y-1929688D01*
X60553Y-1929688D01*
X61467Y-1924659D01*
X64109Y-1920697D01*
X68021Y-1918157D01*
X72999Y-1917242D01*
X78536Y-1918309D01*
X82600Y-1921256D01*
X85090Y-1925624D01*
X85953Y-1930958D01*
X85394Y-1935073D01*
X83870Y-1939036D01*
X81330Y-1942795D01*
X77825Y-1946198D01*
X71475Y-1943506D01*
X65938Y-1940153D01*
X62026Y-1935683D01*
X60553Y-1929688D01*
X52933Y-1929688D01*
X53746Y-1935175D01*
X55981Y-1939798D01*
X59232Y-1943658D01*
X63093Y-1946706D01*
X63093Y-1947214D01*
X58064Y-1950516D01*
X53644Y-1955139D01*
X50546Y-1960880D01*
X49463Y-1967280D01*
X56743Y-1967280D01*
X57556Y-1961997D01*
X59791Y-1957273D01*
X63246Y-1953158D01*
X67665Y-1949754D01*
X75336Y-1953006D01*
X81788Y-1956765D01*
X86309Y-1961642D01*
X87985Y-1968296D01*
X86868Y-1973580D01*
X83820Y-1977745D01*
X79095Y-1980539D01*
X72999Y-1981504D01*
X66497Y-1980438D01*
X61315Y-1977440D01*
X57962Y-1972919D01*
X56743Y-1967280D01*
X49463Y-1967280D01*
X49377Y-1967788D01*
X51104Y-1975713D01*
X55981Y-1981962D01*
X63398Y-1986127D01*
X72745Y-1987600D01*
X82143Y-1986127D01*
X89408Y-1982063D01*
X94183Y-1976018D01*
X95859Y-1968550D01*
X94792Y-1961743D01*
X91948Y-1956409D01*
X87934Y-1952243D01*
X83159Y-1948992D01*
X83159Y-1948484D01*
X86563Y-1945386D01*
X89865Y-1941169D01*
X92303Y-1936140D01*
X93319Y-1930450D01*
X91897Y-1922576D01*
X87884Y-1916379D01*
X81534Y-1912366D01*
G37*
G36*
X74015Y-2157018D02*
G01*
X68935Y-2157577D01*
X64465Y-2159355D01*
X60553Y-2162302D01*
X57251Y-2166416D01*
X54660Y-2171801D01*
X52730Y-2178354D01*
X51562Y-2186127D01*
X51155Y-2195118D01*
X59029Y-2195118D01*
X59283Y-2187549D01*
X60096Y-2181098D01*
X61417Y-2175662D01*
X63195Y-2171242D01*
X65379Y-2167890D01*
X67919Y-2165502D01*
X70815Y-2164080D01*
X74015Y-2163622D01*
X77114Y-2164080D01*
X79908Y-2165502D01*
X82397Y-2167890D01*
X84480Y-2171242D01*
X86207Y-2175662D01*
X87426Y-2181098D01*
X88239Y-2187549D01*
X88493Y-2195118D01*
X88239Y-2202891D01*
X87426Y-2209596D01*
X86207Y-2215134D01*
X84480Y-2219604D01*
X82397Y-2223058D01*
X79908Y-2225446D01*
X77114Y-2226919D01*
X74015Y-2227376D01*
X70815Y-2226919D01*
X67919Y-2225446D01*
X65379Y-2223058D01*
X63195Y-2219604D01*
X61417Y-2215134D01*
X60096Y-2209596D01*
X59283Y-2202891D01*
X59029Y-2195118D01*
X51155Y-2195118D01*
X51562Y-2204262D01*
X52730Y-2212238D01*
X54660Y-2218893D01*
X57251Y-2224328D01*
X60553Y-2228545D01*
X64465Y-2231593D01*
X68935Y-2233371D01*
X74015Y-2233980D01*
X78943Y-2233371D01*
X83312Y-2231593D01*
X87172Y-2228545D01*
X90474Y-2224328D01*
X93065Y-2218893D01*
X94996Y-2212238D01*
X96215Y-2204262D01*
X96621Y-2195118D01*
X96215Y-2186127D01*
X94996Y-2178354D01*
X93065Y-2171801D01*
X90474Y-2166416D01*
X87172Y-2162302D01*
X83312Y-2159355D01*
X78943Y-2157577D01*
G37*
G36*
X23723Y-2158288D02*
G01*
X-6943Y-2205278D01*
X863Y-2205278D01*
X18897Y-2178862D01*
X24739Y-2167940D01*
X25247Y-2167940D01*
X24739Y-2181148D01*
X24739Y-2205278D01*
X-6943Y-2205278D01*
X-7772Y-2206548D01*
X-7772Y-2211882D01*
X24739Y-2211882D01*
X24739Y-2232710D01*
X32613Y-2232710D01*
X32613Y-2211882D01*
X42773Y-2211882D01*
X42773Y-2205278D01*
X32613Y-2205278D01*
X32613Y-2158288D01*
G37*
G36*
X64008Y-2415286D02*
G01*
X57454Y-2416098D01*
X51866Y-2418283D01*
X46888Y-2421737D01*
X42418Y-2426208D01*
X47244Y-2430780D01*
X50647Y-2427376D01*
X54406Y-2424531D01*
X58521Y-2422601D01*
X62991Y-2421890D01*
X69240Y-2423058D01*
X73710Y-2426309D01*
X76352Y-2431237D01*
X77216Y-2437384D01*
X76708Y-2442362D01*
X75133Y-2447544D01*
X72593Y-2453030D01*
X68884Y-2458770D01*
X64109Y-2464917D01*
X58216Y-2471470D01*
X51155Y-2478430D01*
X42926Y-2485898D01*
X42926Y-2490978D01*
X88900Y-2490978D01*
X88900Y-2483866D01*
X64566Y-2483916D01*
X55372Y-2484374D01*
X61823Y-2478074D01*
X67665Y-2471928D01*
X72745Y-2465933D01*
X77114Y-2459990D01*
X80568Y-2454198D01*
X83159Y-2448458D01*
X84785Y-2442768D01*
X85344Y-2437130D01*
X84937Y-2432405D01*
X83820Y-2428138D01*
X82042Y-2424430D01*
X79603Y-2421280D01*
X76555Y-2418740D01*
X72898Y-2416860D01*
X68681Y-2415692D01*
G37*
G36*
X16002Y-2416556D02*
G01*
X-14665Y-2463546D01*
X-6858Y-2463546D01*
X11176Y-2437130D01*
X17018Y-2426208D01*
X17526Y-2426208D01*
X17018Y-2436418D01*
X17018Y-2463546D01*
X-14665Y-2463546D01*
X-15494Y-2464816D01*
X-15494Y-2470150D01*
X17018Y-2470150D01*
X17018Y-2490978D01*
X24892Y-2490978D01*
X24892Y-2470150D01*
X35052Y-2470150D01*
X35052Y-2463546D01*
X24892Y-2463546D01*
X24892Y-2416556D01*
G37*
G36*
X40284Y-2678531D02*
G01*
X35509Y-2678836D01*
X31038Y-2679700D01*
X26822Y-2681173D01*
X22910Y-2683205D01*
X19354Y-2685796D01*
X16205Y-2688844D01*
X13411Y-2692450D01*
X11125Y-2696514D01*
X9245Y-2701036D01*
X7873Y-2705963D01*
X7061Y-2711348D01*
X6756Y-2717139D01*
X7366Y-2725623D01*
X9194Y-2733192D01*
X12141Y-2739745D01*
X16052Y-2745232D01*
X20828Y-2749651D01*
X26466Y-2752852D01*
X32816Y-2754833D01*
X39776Y-2755493D01*
X46837Y-2754833D01*
X53136Y-2753106D01*
X58419Y-2750464D01*
X62636Y-2747111D01*
X62636Y-2716123D01*
X38506Y-2716123D01*
X38506Y-2723235D01*
X54762Y-2723235D01*
X54762Y-2743555D01*
X52069Y-2745435D01*
X48615Y-2746857D01*
X44704Y-2747772D01*
X40538Y-2748127D01*
X34848Y-2747568D01*
X29870Y-2745892D01*
X25552Y-2743250D01*
X21945Y-2739644D01*
X19151Y-2735122D01*
X17068Y-2729788D01*
X15798Y-2723692D01*
X15392Y-2716885D01*
X15849Y-2710078D01*
X17170Y-2703982D01*
X19253Y-2698699D01*
X22148Y-2694228D01*
X25755Y-2690672D01*
X30073Y-2688031D01*
X35001Y-2686456D01*
X40538Y-2685897D01*
X45923Y-2686456D01*
X50342Y-2688031D01*
X53949Y-2690266D01*
X57048Y-2693009D01*
X61620Y-2687675D01*
X57912Y-2684322D01*
X53238Y-2681376D01*
X47396Y-2679293D01*
G37*
G36*
X57607Y-2929483D02*
G01*
X55067Y-2964027D01*
X59639Y-2966821D01*
X62687Y-2964942D01*
X65684Y-2963621D01*
X68783Y-2962757D01*
X72339Y-2962503D01*
X78892Y-2963672D01*
X83921Y-2967177D01*
X87172Y-2972663D01*
X88341Y-2980029D01*
X87020Y-2987598D01*
X83515Y-2993339D01*
X78232Y-2996996D01*
X71831Y-2998317D01*
X65887Y-2997606D01*
X60909Y-2995726D01*
X56794Y-2993034D01*
X53289Y-2989935D01*
X49225Y-2995269D01*
X53289Y-2998927D01*
X58419Y-3002127D01*
X64769Y-3004312D01*
X72593Y-3005175D01*
X77165Y-3004718D01*
X81584Y-3003499D01*
X85699Y-3001416D01*
X89306Y-2998571D01*
X92354Y-2994964D01*
X94691Y-2990596D01*
X96164Y-2985516D01*
X96723Y-2979775D01*
X96215Y-2973984D01*
X94945Y-2969107D01*
X92862Y-2965043D01*
X90119Y-2961741D01*
X86766Y-2959252D01*
X83007Y-2957525D01*
X78790Y-2956458D01*
X74371Y-2956153D01*
X71069Y-2956306D01*
X68122Y-2956915D01*
X65328Y-2957830D01*
X62687Y-2959201D01*
X64719Y-2936595D01*
X93167Y-2936595D01*
X93167Y-2929483D01*
G37*
G36*
X24079Y-2929483D02*
G01*
X-6587Y-2976473D01*
X1219Y-2976473D01*
X19253Y-2950057D01*
X25095Y-2939135D01*
X25603Y-2939135D01*
X25095Y-2949295D01*
X25095Y-2976473D01*
X-6587Y-2976473D01*
X-7416Y-2977743D01*
X-7416Y-2983077D01*
X25095Y-2983077D01*
X25095Y-3003905D01*
X32969Y-3003905D01*
X32969Y-2983077D01*
X43129Y-2983077D01*
X43129Y-2976473D01*
X32969Y-2976473D01*
X32969Y-2929483D01*
G37*
G36*
X73507Y-3176625D02*
G01*
X68275Y-3177133D01*
X63246Y-3178810D01*
X58572Y-3181654D01*
X54457Y-3185769D01*
X51003Y-3191306D01*
X48361Y-3198266D01*
X46685Y-3206800D01*
X46075Y-3217011D01*
X46363Y-3222345D01*
X54203Y-3222345D01*
X58115Y-3217773D01*
X62179Y-3214725D01*
X66192Y-3212998D01*
X69951Y-3212439D01*
X76098Y-3213658D01*
X80467Y-3217113D01*
X83058Y-3222498D01*
X83921Y-3229457D01*
X82905Y-3236569D01*
X80060Y-3242106D01*
X75895Y-3245713D01*
X70713Y-3246983D01*
X64109Y-3245358D01*
X59131Y-3240582D01*
X55829Y-3232861D01*
X54203Y-3222345D01*
X46363Y-3222345D01*
X46532Y-3225495D01*
X47955Y-3232912D01*
X50139Y-3239211D01*
X53086Y-3244342D01*
X56692Y-3248355D01*
X60858Y-3251250D01*
X65582Y-3253028D01*
X70713Y-3253587D01*
X74930Y-3253130D01*
X78841Y-3251860D01*
X82397Y-3249777D01*
X85547Y-3246932D01*
X88138Y-3243478D01*
X90119Y-3239312D01*
X91338Y-3234639D01*
X91795Y-3229457D01*
X91440Y-3224072D01*
X90322Y-3219399D01*
X88595Y-3215436D01*
X86156Y-3212185D01*
X83210Y-3209645D01*
X79705Y-3207816D01*
X75692Y-3206699D01*
X71221Y-3206343D01*
X66649Y-3206953D01*
X62128Y-3208680D01*
X57810Y-3211474D01*
X53949Y-3215233D01*
X54508Y-3207105D01*
X55778Y-3200298D01*
X57708Y-3194812D01*
X60147Y-3190494D01*
X63042Y-3187293D01*
X66344Y-3185109D01*
X69951Y-3183890D01*
X73761Y-3183483D01*
X77012Y-3183890D01*
X80213Y-3185058D01*
X83159Y-3186887D01*
X85699Y-3189325D01*
X90271Y-3183991D01*
X86969Y-3180994D01*
X83108Y-3178708D01*
X78689Y-3177184D01*
G37*
G36*
X18135Y-3177895D02*
G01*
X-12531Y-3224885D01*
X-4724Y-3224885D01*
X13309Y-3198469D01*
X19151Y-3187547D01*
X19659Y-3187547D01*
X19151Y-3200755D01*
X19151Y-3224885D01*
X-12531Y-3224885D01*
X-13360Y-3226155D01*
X-13360Y-3231489D01*
X19151Y-3231489D01*
X19151Y-3252317D01*
X27025Y-3252317D01*
X27025Y-3231489D01*
X37185Y-3231489D01*
X37185Y-3224885D01*
X27025Y-3224885D01*
X27025Y-3177895D01*
G37*
G36*
X21945Y-3442106D02*
G01*
X16916Y-3442715D01*
X12446Y-3444494D01*
X8534Y-3447440D01*
X5283Y-3451555D01*
X2641Y-3456889D01*
X660Y-3463442D01*
X-508Y-3471214D01*
X-914Y-3480206D01*
X7213Y-3480206D01*
X7467Y-3472687D01*
X8229Y-3466185D01*
X9499Y-3460750D01*
X11226Y-3456381D01*
X13360Y-3452977D01*
X15900Y-3450590D01*
X18745Y-3449218D01*
X21945Y-3448710D01*
X25044Y-3449218D01*
X27889Y-3450590D01*
X30378Y-3452977D01*
X32512Y-3456381D01*
X34290Y-3460750D01*
X35560Y-3466185D01*
X36372Y-3472687D01*
X36677Y-3480206D01*
X36372Y-3488029D01*
X35560Y-3494684D01*
X34290Y-3500272D01*
X32512Y-3504742D01*
X30378Y-3508146D01*
X27889Y-3510584D01*
X25044Y-3512007D01*
X21945Y-3512464D01*
X18745Y-3512007D01*
X15900Y-3510584D01*
X13360Y-3508146D01*
X11226Y-3504742D01*
X9499Y-3500272D01*
X8229Y-3494684D01*
X7467Y-3488029D01*
X7213Y-3480206D01*
X-914Y-3480206D01*
X-508Y-3489401D01*
X660Y-3497326D01*
X2641Y-3504031D01*
X5283Y-3509467D01*
X8534Y-3513683D01*
X12446Y-3516680D01*
X16916Y-3518509D01*
X21945Y-3519068D01*
X26924Y-3518509D01*
X31343Y-3516680D01*
X35204Y-3513683D01*
X38455Y-3509467D01*
X41046Y-3504031D01*
X42976Y-3497326D01*
X44145Y-3489401D01*
X44551Y-3480206D01*
X44145Y-3471214D01*
X42976Y-3463442D01*
X41046Y-3456889D01*
X38455Y-3451555D01*
X35204Y-3447440D01*
X31343Y-3444494D01*
X26924Y-3442715D01*
G37*
G36*
X22301Y-3694785D02*
G01*
X16205Y-3695496D01*
X10769Y-3697325D01*
X5994Y-3700068D01*
X1727Y-3703421D01*
X6299Y-3709009D01*
X9550Y-3706063D01*
X13258Y-3703675D01*
X17373Y-3702100D01*
X21793Y-3701389D01*
X27279Y-3702405D01*
X31445Y-3704945D01*
X34086Y-3708857D01*
X35001Y-3713835D01*
X33883Y-3719677D01*
X30276Y-3724351D01*
X23723Y-3727450D01*
X13919Y-3728567D01*
X13919Y-3734917D01*
X24892Y-3736086D01*
X32207Y-3739235D01*
X36271Y-3744163D01*
X37541Y-3750411D01*
X36372Y-3756456D01*
X33121Y-3761028D01*
X28194Y-3763924D01*
X22047Y-3764889D01*
X15951Y-3764229D01*
X10922Y-3762298D01*
X6756Y-3759555D01*
X3251Y-3756253D01*
X-1066Y-3761587D01*
X2997Y-3765448D01*
X8178Y-3768699D01*
X14630Y-3770934D01*
X22555Y-3771747D01*
X27279Y-3771392D01*
X31648Y-3770325D01*
X35661Y-3768598D01*
X39116Y-3766210D01*
X41960Y-3763162D01*
X44094Y-3759555D01*
X45466Y-3755390D01*
X45923Y-3750665D01*
X44653Y-3743706D01*
X41249Y-3738118D01*
X36169Y-3734054D01*
X29921Y-3731615D01*
X29921Y-3731361D01*
X35458Y-3728567D01*
X39674Y-3724605D01*
X42418Y-3719474D01*
X43383Y-3713073D01*
X41808Y-3705301D01*
X37388Y-3699560D01*
X30733Y-3696004D01*
G37*
G36*
X51765Y-3696055D02*
G01*
X75641Y-3770477D01*
X85293Y-3770477D01*
X109169Y-3696055D01*
X100533Y-3696055D01*
X80975Y-3761892D01*
X80467Y-3761892D01*
X60655Y-3696055D01*
G37*
G36*
X-681634Y-1405026D02*
G01*
X-681634Y-1449222D01*
X-681126Y-1457350D01*
X-679602Y-1464106D01*
X-677214Y-1469542D01*
X-674014Y-1473809D01*
X-670153Y-1476959D01*
X-665683Y-1479092D01*
X-660755Y-1480312D01*
X-655472Y-1480718D01*
X-650138Y-1480312D01*
X-645160Y-1479092D01*
X-640638Y-1476959D01*
X-636778Y-1473809D01*
X-633526Y-1469542D01*
X-631139Y-1464106D01*
X-629615Y-1457350D01*
X-629056Y-1449222D01*
X-629056Y-1405026D01*
X-637184Y-1405026D01*
X-637184Y-1449476D01*
X-637590Y-1455724D01*
X-638606Y-1460906D01*
X-640334Y-1465072D01*
X-642518Y-1468272D01*
X-645261Y-1470609D01*
X-648360Y-1472184D01*
X-651764Y-1473047D01*
X-655472Y-1473352D01*
X-662432Y-1472184D01*
X-668070Y-1468272D01*
X-671880Y-1460906D01*
X-673252Y-1449476D01*
X-673252Y-1405026D01*
G37*
G36*
X-594512Y-1416710D02*
G01*
X-594512Y-1438808D01*
X-615086Y-1438808D01*
X-615086Y-1445158D01*
X-594512Y-1445158D01*
X-594512Y-1467510D01*
X-587654Y-1467510D01*
X-587654Y-1445158D01*
X-567080Y-1445158D01*
X-567080Y-1438808D01*
X-587654Y-1438808D01*
X-587654Y-1416710D01*
G37*
G36*
X-659434Y-1664817D02*
G01*
X-665581Y-1665478D01*
X-670966Y-1667357D01*
X-675792Y-1670100D01*
X-680008Y-1673453D01*
X-675436Y-1679041D01*
X-672185Y-1676095D01*
X-668477Y-1673707D01*
X-664362Y-1672132D01*
X-659942Y-1671421D01*
X-654456Y-1672437D01*
X-650290Y-1674977D01*
X-647700Y-1678889D01*
X-646734Y-1683867D01*
X-647852Y-1689709D01*
X-651510Y-1694383D01*
X-658012Y-1697482D01*
X-667816Y-1698599D01*
X-667816Y-1704949D01*
X-656844Y-1706118D01*
X-649528Y-1709267D01*
X-645464Y-1714195D01*
X-644194Y-1720443D01*
X-645363Y-1726488D01*
X-648614Y-1731010D01*
X-653542Y-1733905D01*
X-659688Y-1734921D01*
X-665784Y-1734210D01*
X-670814Y-1732330D01*
X-674979Y-1729587D01*
X-678484Y-1726285D01*
X-682802Y-1731619D01*
X-678738Y-1735480D01*
X-673608Y-1738731D01*
X-667156Y-1740966D01*
X-659180Y-1741779D01*
X-654456Y-1741424D01*
X-650087Y-1740357D01*
X-646125Y-1738579D01*
X-642670Y-1736191D01*
X-639826Y-1733194D01*
X-637641Y-1729587D01*
X-636320Y-1725422D01*
X-635812Y-1720697D01*
X-637082Y-1713738D01*
X-640486Y-1708150D01*
X-645566Y-1704086D01*
X-651814Y-1701647D01*
X-651814Y-1701393D01*
X-646277Y-1698599D01*
X-642061Y-1694637D01*
X-639318Y-1689506D01*
X-638352Y-1683105D01*
X-639927Y-1675333D01*
X-644347Y-1669592D01*
X-651002Y-1666036D01*
G37*
G36*
X-618794Y-1666087D02*
G01*
X-621334Y-1700631D01*
X-616762Y-1703425D01*
X-613714Y-1701596D01*
X-610717Y-1700225D01*
X-607618Y-1699412D01*
X-604062Y-1699107D01*
X-597509Y-1700326D01*
X-592480Y-1703781D01*
X-589229Y-1709318D01*
X-588060Y-1716633D01*
X-589381Y-1724202D01*
X-592886Y-1729993D01*
X-598170Y-1733651D01*
X-604570Y-1734921D01*
X-610514Y-1734210D01*
X-615492Y-1732381D01*
X-619607Y-1729689D01*
X-623112Y-1726539D01*
X-627176Y-1731873D01*
X-623112Y-1735582D01*
X-617982Y-1738731D01*
X-611632Y-1740966D01*
X-603808Y-1741779D01*
X-599236Y-1741373D01*
X-594817Y-1740103D01*
X-590702Y-1738020D01*
X-587095Y-1735175D01*
X-584047Y-1731568D01*
X-581710Y-1727200D01*
X-580237Y-1722170D01*
X-579678Y-1716379D01*
X-580136Y-1710639D01*
X-581456Y-1705711D01*
X-583539Y-1701647D01*
X-586282Y-1698396D01*
X-589635Y-1695907D01*
X-593394Y-1694129D01*
X-597611Y-1693113D01*
X-602030Y-1692757D01*
X-605282Y-1692960D01*
X-608279Y-1693519D01*
X-611073Y-1694484D01*
X-613714Y-1695805D01*
X-611682Y-1673199D01*
X-583234Y-1673199D01*
X-583234Y-1666087D01*
G37*
G36*
X-660095Y-1910638D02*
G01*
X-666191Y-1911299D01*
X-671626Y-1913128D01*
X-676402Y-1915871D01*
X-680669Y-1919274D01*
X-676097Y-1924862D01*
X-672795Y-1921916D01*
X-669086Y-1919528D01*
X-665022Y-1917954D01*
X-660603Y-1917242D01*
X-655116Y-1918258D01*
X-650951Y-1920798D01*
X-648309Y-1924659D01*
X-647395Y-1929688D01*
X-648512Y-1935530D01*
X-652119Y-1940204D01*
X-658622Y-1943303D01*
X-668477Y-1944420D01*
X-668477Y-1950770D01*
X-657504Y-1951888D01*
X-650189Y-1955088D01*
X-646125Y-1960016D01*
X-644855Y-1966264D01*
X-646023Y-1972259D01*
X-649274Y-1976831D01*
X-654151Y-1979726D01*
X-660349Y-1980742D01*
X-666445Y-1980031D01*
X-671474Y-1978152D01*
X-675640Y-1975408D01*
X-679145Y-1972106D01*
X-683463Y-1977440D01*
X-679399Y-1981301D01*
X-674217Y-1984502D01*
X-667766Y-1986788D01*
X-659841Y-1987600D01*
X-655116Y-1987245D01*
X-650697Y-1986178D01*
X-646734Y-1984400D01*
X-643280Y-1982012D01*
X-640435Y-1979015D01*
X-638302Y-1975408D01*
X-636930Y-1971243D01*
X-636473Y-1966518D01*
X-637743Y-1959559D01*
X-641146Y-1953971D01*
X-646226Y-1949856D01*
X-652475Y-1947468D01*
X-652475Y-1947214D01*
X-646938Y-1944420D01*
X-642670Y-1940458D01*
X-639978Y-1935327D01*
X-639013Y-1928926D01*
X-640588Y-1921154D01*
X-644956Y-1915414D01*
X-651662Y-1911857D01*
G37*
G36*
X-625805Y-1911908D02*
G01*
X-625805Y-1919020D01*
X-589229Y-1919020D01*
X-592734Y-1924050D01*
X-595833Y-1929079D01*
X-598576Y-1934057D01*
X-601014Y-1939137D01*
X-603097Y-1944268D01*
X-604926Y-1949551D01*
X-607669Y-1960625D01*
X-609396Y-1972818D01*
X-610311Y-1986330D01*
X-601675Y-1986330D01*
X-600913Y-1972716D01*
X-600303Y-1966468D01*
X-599440Y-1960524D01*
X-598322Y-1954784D01*
X-596950Y-1949297D01*
X-595172Y-1943912D01*
X-593039Y-1938578D01*
X-590499Y-1933295D01*
X-587451Y-1927961D01*
X-583895Y-1922576D01*
X-579831Y-1916988D01*
X-579831Y-1911908D01*
G37*
G36*
X-608838Y-2158238D02*
G01*
X-613003Y-2158695D01*
X-616915Y-2160016D01*
X-620420Y-2162048D01*
X-623519Y-2164842D01*
X-626059Y-2168347D01*
X-627989Y-2172411D01*
X-629208Y-2177034D01*
X-629666Y-2182164D01*
X-621792Y-2182164D01*
X-620776Y-2175154D01*
X-618083Y-2169718D01*
X-613968Y-2166162D01*
X-608838Y-2164842D01*
X-602081Y-2166467D01*
X-597001Y-2171141D01*
X-593699Y-2178812D01*
X-592074Y-2189226D01*
X-595985Y-2193848D01*
X-600049Y-2196998D01*
X-604113Y-2198827D01*
X-608076Y-2199386D01*
X-614172Y-2198166D01*
X-618439Y-2194661D01*
X-620979Y-2189226D01*
X-621792Y-2182164D01*
X-629666Y-2182164D01*
X-629310Y-2187600D01*
X-628243Y-2192324D01*
X-626516Y-2196338D01*
X-624179Y-2199640D01*
X-621233Y-2202180D01*
X-617778Y-2204059D01*
X-613765Y-2205126D01*
X-609346Y-2205482D01*
X-604621Y-2204872D01*
X-600049Y-2202992D01*
X-595782Y-2200046D01*
X-592074Y-2196084D01*
X-592632Y-2204415D01*
X-593852Y-2211324D01*
X-595680Y-2216912D01*
X-598068Y-2221280D01*
X-600862Y-2224532D01*
X-604012Y-2226716D01*
X-607466Y-2227986D01*
X-611124Y-2228342D01*
X-614680Y-2227986D01*
X-617982Y-2226868D01*
X-621030Y-2225040D01*
X-623570Y-2222500D01*
X-628396Y-2227834D01*
X-625043Y-2230831D01*
X-621030Y-2233168D01*
X-616356Y-2234692D01*
X-610870Y-2235200D01*
X-605790Y-2234692D01*
X-600913Y-2232964D01*
X-596392Y-2230018D01*
X-592378Y-2225700D01*
X-589026Y-2219960D01*
X-586435Y-2212746D01*
X-584758Y-2203856D01*
X-584200Y-2193290D01*
X-584657Y-2185111D01*
X-586028Y-2177999D01*
X-588213Y-2171954D01*
X-591159Y-2167026D01*
X-594766Y-2163216D01*
X-598982Y-2160473D01*
X-603707Y-2158796D01*
G37*
G36*
X-663702Y-2158238D02*
G01*
X-669798Y-2158949D01*
X-675233Y-2160778D01*
X-680008Y-2163521D01*
X-684276Y-2166874D01*
X-679704Y-2172462D01*
X-676402Y-2169515D01*
X-672693Y-2167128D01*
X-668629Y-2165553D01*
X-664210Y-2164842D01*
X-658723Y-2165858D01*
X-654558Y-2168448D01*
X-651916Y-2172309D01*
X-651002Y-2177288D01*
X-652119Y-2183130D01*
X-655726Y-2187803D01*
X-662228Y-2190902D01*
X-672084Y-2192020D01*
X-672084Y-2198370D01*
X-661111Y-2199538D01*
X-653796Y-2202688D01*
X-649732Y-2207615D01*
X-648462Y-2213914D01*
X-649630Y-2219909D01*
X-652881Y-2224481D01*
X-657758Y-2227376D01*
X-663956Y-2228342D01*
X-670001Y-2227681D01*
X-675030Y-2225751D01*
X-679246Y-2223008D01*
X-682752Y-2219706D01*
X-687070Y-2225040D01*
X-682955Y-2228900D01*
X-677824Y-2232152D01*
X-671372Y-2234387D01*
X-663448Y-2235200D01*
X-658723Y-2234844D01*
X-654304Y-2233777D01*
X-650341Y-2232050D01*
X-646887Y-2229612D01*
X-644042Y-2226614D01*
X-641908Y-2223008D01*
X-640537Y-2218842D01*
X-640080Y-2214118D01*
X-641299Y-2207158D01*
X-644753Y-2201570D01*
X-649833Y-2197506D01*
X-656082Y-2195068D01*
X-656082Y-2194864D01*
X-650544Y-2192020D01*
X-646277Y-2188057D01*
X-643585Y-2182926D01*
X-642620Y-2176526D01*
X-644194Y-2168753D01*
X-648563Y-2163013D01*
X-655269Y-2159457D01*
G37*
G36*
X2138324Y-1150721D02*
G01*
X2131822Y-1151534D01*
X2126183Y-1153718D01*
X2121255Y-1157173D01*
X2116734Y-1161643D01*
X2121560Y-1166215D01*
X2124964Y-1162812D01*
X2128774Y-1159967D01*
X2132888Y-1158036D01*
X2137308Y-1157325D01*
X2143607Y-1158494D01*
X2148027Y-1161745D01*
X2150668Y-1166672D01*
X2151532Y-1172819D01*
X2151024Y-1177798D01*
X2149500Y-1182979D01*
X2146909Y-1188466D01*
X2143252Y-1194206D01*
X2138476Y-1200353D01*
X2132584Y-1206906D01*
X2125472Y-1213866D01*
X2117242Y-1221333D01*
X2117242Y-1226413D01*
X2163216Y-1226413D01*
X2163216Y-1219301D01*
X2138883Y-1219352D01*
X2129688Y-1219809D01*
X2136140Y-1213510D01*
X2141982Y-1207363D01*
X2147112Y-1201369D01*
X2151430Y-1195425D01*
X2154936Y-1189634D01*
X2157526Y-1183894D01*
X2159101Y-1178204D01*
X2159660Y-1172565D01*
X2159304Y-1167841D01*
X2158187Y-1163574D01*
X2156409Y-1159865D01*
X2153920Y-1156716D01*
X2150872Y-1154176D01*
X2147214Y-1152296D01*
X2143048Y-1151128D01*
G37*
G36*
X2084476Y-1151991D02*
G01*
X2081428Y-1153617D01*
X2077923Y-1155039D01*
X2073960Y-1156208D01*
X2069490Y-1157071D01*
X2069490Y-1162405D01*
X2082444Y-1162405D01*
X2082444Y-1219555D01*
X2065934Y-1219555D01*
X2065934Y-1226413D01*
X2105812Y-1226413D01*
X2105812Y-1219555D01*
X2090826Y-1219555D01*
X2090826Y-1151991D01*
G37*
G36*
X2140661Y-3446729D02*
G01*
X2137613Y-3448354D01*
X2134158Y-3449726D01*
X2130196Y-3450894D01*
X2125675Y-3451809D01*
X2125675Y-3457143D01*
X2138629Y-3457143D01*
X2138629Y-3514293D01*
X2122119Y-3514293D01*
X2122119Y-3521151D01*
X2161997Y-3521151D01*
X2161997Y-3514293D01*
X2147011Y-3514293D01*
X2147011Y-3446729D01*
G37*
G36*
X2074011Y-3695344D02*
G01*
X2067915Y-3696004D01*
X2062480Y-3697833D01*
X2057704Y-3700576D01*
X2053437Y-3703980D01*
X2058009Y-3709568D01*
X2061260Y-3706571D01*
X2064969Y-3704234D01*
X2069084Y-3702608D01*
X2073503Y-3701948D01*
X2078989Y-3702964D01*
X2083155Y-3705504D01*
X2085797Y-3709365D01*
X2086711Y-3714394D01*
X2085593Y-3720236D01*
X2081987Y-3724910D01*
X2075434Y-3728008D01*
X2065629Y-3729126D01*
X2065629Y-3735476D01*
X2076602Y-3736594D01*
X2083917Y-3739794D01*
X2087981Y-3744671D01*
X2089251Y-3750970D01*
X2088083Y-3756964D01*
X2084832Y-3761536D01*
X2079904Y-3764432D01*
X2073757Y-3765448D01*
X2067661Y-3764737D01*
X2062632Y-3762806D01*
X2058466Y-3760063D01*
X2054961Y-3756812D01*
X2050643Y-3762146D01*
X2054707Y-3765956D01*
X2059889Y-3769207D01*
X2066340Y-3771442D01*
X2074265Y-3772306D01*
X2078989Y-3771950D01*
X2083358Y-3770833D01*
X2087372Y-3769106D01*
X2090826Y-3766718D01*
X2093671Y-3763670D01*
X2095804Y-3760063D01*
X2097176Y-3755898D01*
X2097633Y-3751224D01*
X2096363Y-3744214D01*
X2092960Y-3738626D01*
X2087880Y-3734562D01*
X2081631Y-3732174D01*
X2081631Y-3731920D01*
X2087168Y-3729075D01*
X2091385Y-3725164D01*
X2094128Y-3720033D01*
X2095093Y-3713632D01*
X2093518Y-3705809D01*
X2089099Y-3700068D01*
X2082444Y-3696563D01*
G37*
G36*
X2103475Y-3696614D02*
G01*
X2127351Y-3771036D01*
X2137003Y-3771036D01*
X2160879Y-3696614D01*
X2152243Y-3696614D01*
X2132685Y-3762400D01*
X2132177Y-3762400D01*
X2112365Y-3696614D01*
G37*
G36*
X2839567Y-1664563D02*
G01*
X2836519Y-1666189D01*
X2833065Y-1667611D01*
X2829102Y-1668780D01*
X2824581Y-1669643D01*
X2824581Y-1674977D01*
X2837535Y-1674977D01*
X2837535Y-1732127D01*
X2821025Y-1732127D01*
X2821025Y-1738985D01*
X2860903Y-1738985D01*
X2860903Y-1732127D01*
X2845917Y-1732127D01*
X2845917Y-1664563D01*
G37*
G36*
X2752953Y-1664563D02*
G01*
X2752953Y-1671421D01*
X2770479Y-1671421D01*
X2776829Y-1671980D01*
X2782316Y-1673504D01*
X2786938Y-1675942D01*
X2790698Y-1679397D01*
X2793644Y-1683664D01*
X2795727Y-1688795D01*
X2796997Y-1694738D01*
X2797403Y-1701393D01*
X2796997Y-1708200D01*
X2795727Y-1714246D01*
X2793644Y-1719529D01*
X2790698Y-1723898D01*
X2786938Y-1727454D01*
X2782316Y-1730044D01*
X2776829Y-1731619D01*
X2770479Y-1732127D01*
X2761335Y-1732127D01*
X2761335Y-1671421D01*
X2752953Y-1671421D01*
X2752953Y-1738985D01*
X2771495Y-1738985D01*
X2776931Y-1738731D01*
X2781909Y-1737817D01*
X2786430Y-1736394D01*
X2790494Y-1734464D01*
X2794101Y-1731975D01*
X2797251Y-1728978D01*
X2799943Y-1725472D01*
X2802128Y-1721561D01*
X2803855Y-1717141D01*
X2805074Y-1712315D01*
X2805785Y-1707083D01*
X2806039Y-1701393D01*
X2805785Y-1695754D01*
X2805074Y-1690573D01*
X2803855Y-1685798D01*
X2802128Y-1681480D01*
X2799892Y-1677619D01*
X2797251Y-1674215D01*
X2794050Y-1671320D01*
X2790444Y-1668932D01*
X2786329Y-1667052D01*
X2781757Y-1665681D01*
X2776728Y-1664868D01*
X2771241Y-1664563D01*
G37*
G36*
X2819196Y-1149908D02*
G01*
X2813253Y-1150620D01*
X2807868Y-1152448D01*
X2803042Y-1155192D01*
X2798622Y-1158544D01*
X2803194Y-1164132D01*
X2806649Y-1161186D01*
X2810408Y-1158849D01*
X2814523Y-1157224D01*
X2818942Y-1156512D01*
X2824429Y-1157528D01*
X2828493Y-1160068D01*
X2831033Y-1163980D01*
X2831896Y-1168958D01*
X2830830Y-1174800D01*
X2827324Y-1179474D01*
X2820873Y-1182573D01*
X2811068Y-1183690D01*
X2811068Y-1190040D01*
X2822041Y-1191209D01*
X2829356Y-1194358D01*
X2833420Y-1199286D01*
X2834690Y-1205534D01*
X2833522Y-1211580D01*
X2830271Y-1216152D01*
X2825292Y-1219047D01*
X2818942Y-1220012D01*
X2812999Y-1219352D01*
X2808020Y-1217422D01*
X2803804Y-1214678D01*
X2800146Y-1211376D01*
X2796082Y-1216710D01*
X2800045Y-1220571D01*
X2805226Y-1223822D01*
X2811627Y-1226058D01*
X2819450Y-1226870D01*
X2824276Y-1226515D01*
X2828696Y-1225448D01*
X2832658Y-1223721D01*
X2836113Y-1221282D01*
X2838907Y-1218285D01*
X2841040Y-1214678D01*
X2842361Y-1210513D01*
X2842818Y-1205788D01*
X2841599Y-1198829D01*
X2838196Y-1193241D01*
X2833166Y-1189177D01*
X2827070Y-1186738D01*
X2827070Y-1186484D01*
X2832455Y-1183690D01*
X2836621Y-1179728D01*
X2839313Y-1174597D01*
X2840278Y-1168196D01*
X2838704Y-1160424D01*
X2834335Y-1154684D01*
X2827629Y-1151128D01*
G37*
G36*
X2764840Y-1151178D02*
G01*
X2761792Y-1152804D01*
X2758338Y-1154226D01*
X2754376Y-1155395D01*
X2749854Y-1156258D01*
X2749854Y-1161592D01*
X2762808Y-1161592D01*
X2762808Y-1218742D01*
X2746298Y-1218742D01*
X2746298Y-1225600D01*
X2786176Y-1225600D01*
X2786176Y-1218742D01*
X2771190Y-1218742D01*
X2771190Y-1151178D01*
G37*
G36*
X2779166Y-3697224D02*
G01*
X2773070Y-3697884D01*
X2767634Y-3699713D01*
X2762859Y-3702456D01*
X2758592Y-3705860D01*
X2763164Y-3711448D01*
X2766466Y-3708450D01*
X2770174Y-3706114D01*
X2774238Y-3704488D01*
X2778658Y-3703828D01*
X2784144Y-3704844D01*
X2788310Y-3707384D01*
X2790952Y-3711244D01*
X2791866Y-3716274D01*
X2790748Y-3722115D01*
X2787142Y-3726789D01*
X2780639Y-3729888D01*
X2770784Y-3731006D01*
X2770784Y-3737356D01*
X2781757Y-3738473D01*
X2789072Y-3741674D01*
X2793136Y-3746550D01*
X2794406Y-3752850D01*
X2793238Y-3758844D01*
X2789986Y-3763416D01*
X2785110Y-3766312D01*
X2778912Y-3767328D01*
X2772867Y-3766616D01*
X2767838Y-3764686D01*
X2763621Y-3761943D01*
X2760116Y-3758692D01*
X2755798Y-3764026D01*
X2759913Y-3767836D01*
X2765044Y-3771087D01*
X2771495Y-3773322D01*
X2779420Y-3774186D01*
X2784144Y-3773830D01*
X2788564Y-3772712D01*
X2792526Y-3770985D01*
X2795981Y-3768598D01*
X2798826Y-3765550D01*
X2800959Y-3761943D01*
X2802331Y-3757777D01*
X2802788Y-3753104D01*
X2801569Y-3746093D01*
X2798114Y-3740505D01*
X2793034Y-3736441D01*
X2786786Y-3734054D01*
X2786786Y-3733800D01*
X2792323Y-3730955D01*
X2796590Y-3727043D01*
X2799283Y-3721912D01*
X2800248Y-3715512D01*
X2798673Y-3707688D01*
X2794304Y-3701948D01*
X2787599Y-3698443D01*
G37*
G36*
X2808630Y-3698494D02*
G01*
X2832506Y-3772915D01*
X2842158Y-3772915D01*
X2866034Y-3698494D01*
X2857398Y-3698494D01*
X2837840Y-3764279D01*
X2837332Y-3764279D01*
X2817520Y-3698494D01*
G37*
G36*
X-744778Y-143814D02*
G01*
X-725982Y-191820D01*
X-718870Y-191820D01*
X-700074Y-143814D01*
X-707440Y-143814D01*
X-716330Y-168452D01*
X-722172Y-183438D01*
X-722680Y-183438D01*
X-737412Y-143814D01*
G37*
G36*
X-1084783Y-143814D02*
G01*
X-1065987Y-191770D01*
X-1058875Y-191770D01*
X-1040079Y-143814D01*
X-1047445Y-143814D01*
X-1056335Y-168402D01*
X-1062177Y-183438D01*
X-1062685Y-183438D01*
X-1077417Y-143814D01*
G37*
G36*
X552754Y801420D02*
G01*
X552754Y794816D01*
X578662Y794816D01*
X578662Y801420D01*
G37*
G36*
X-634390Y-3237026D02*
G01*
X-634390Y-3311448D01*
X-626262Y-3311448D01*
X-626262Y-3270808D01*
X-627278Y-3247948D01*
X-626770Y-3247948D01*
X-618642Y-3263188D01*
X-590702Y-3311448D01*
X-582066Y-3311448D01*
X-582066Y-3237026D01*
X-590194Y-3237026D01*
X-590092Y-3283204D01*
X-588924Y-3300526D01*
X-589432Y-3300526D01*
X-597560Y-3285286D01*
X-625754Y-3237026D01*
G37*
G36*
X-693572Y-3237026D02*
G01*
X-693572Y-3311448D01*
X-650138Y-3311448D01*
X-650138Y-3304336D01*
X-685190Y-3304336D01*
X-685190Y-3275888D01*
X-656742Y-3275888D01*
X-656742Y-3268776D01*
X-685190Y-3268776D01*
X-685190Y-3244138D01*
X-651154Y-3244138D01*
X-651154Y-3237026D01*
G37*
G36*
X2221179Y-262585D02*
G01*
X2212035Y-264007D01*
X2204821Y-268071D01*
X2200046Y-274167D01*
X2198319Y-281889D01*
X2199690Y-289052D01*
X2203246Y-294386D01*
X2208072Y-298196D01*
X2213305Y-300939D01*
X2229205Y-308051D01*
X2233269Y-310743D01*
X2235962Y-314350D01*
X2236927Y-319481D01*
X2235758Y-324662D01*
X2232507Y-328676D01*
X2227275Y-331266D01*
X2220417Y-332181D01*
X2214575Y-331520D01*
X2209038Y-329692D01*
X2204008Y-326694D01*
X2199589Y-322783D01*
X2194509Y-328625D01*
X2199741Y-333095D01*
X2205837Y-336550D01*
X2212746Y-338785D01*
X2220417Y-339547D01*
X2225852Y-339140D01*
X2230729Y-337921D01*
X2234996Y-336042D01*
X2238603Y-333502D01*
X2241448Y-330454D01*
X2243582Y-326898D01*
X2244852Y-322986D01*
X2245309Y-318719D01*
X2244090Y-311556D01*
X2240788Y-306171D01*
X2235911Y-302056D01*
X2229815Y-298907D01*
X2214829Y-292303D01*
X2210816Y-289763D01*
X2207869Y-286258D01*
X2206701Y-281381D01*
X2207768Y-276606D01*
X2210714Y-272999D01*
X2215286Y-270764D01*
X2221179Y-269951D01*
X2226259Y-270459D01*
X2230780Y-271881D01*
X2234844Y-274116D01*
X2238451Y-277063D01*
X2242769Y-271729D01*
X2238502Y-268071D01*
X2233422Y-265176D01*
X2227580Y-263245D01*
G37*
G36*
X2260295Y-263855D02*
G01*
X2260295Y-270713D01*
X2277821Y-270713D01*
X2284171Y-271221D01*
X2289606Y-272745D01*
X2294178Y-275234D01*
X2297938Y-278638D01*
X2300833Y-282956D01*
X2302865Y-288086D01*
X2304084Y-293979D01*
X2304491Y-300685D01*
X2304084Y-307492D01*
X2302865Y-313537D01*
X2300833Y-318770D01*
X2297938Y-323189D01*
X2294178Y-326745D01*
X2289606Y-329285D01*
X2284171Y-330860D01*
X2277821Y-331419D01*
X2268677Y-331419D01*
X2268677Y-270713D01*
X2260295Y-270713D01*
X2260295Y-338277D01*
X2278837Y-338277D01*
X2284272Y-337972D01*
X2289251Y-337108D01*
X2293721Y-335686D01*
X2297785Y-333705D01*
X2301341Y-331216D01*
X2304491Y-328269D01*
X2307082Y-324764D01*
X2309266Y-320802D01*
X2310942Y-316433D01*
X2312162Y-311607D01*
X2312873Y-306324D01*
X2313127Y-300685D01*
X2312873Y-295046D01*
X2312162Y-289864D01*
X2310942Y-285089D01*
X2309266Y-280771D01*
X2307082Y-276910D01*
X2304440Y-273507D01*
X2301290Y-270611D01*
X2297684Y-268224D01*
X2293620Y-266344D01*
X2289098Y-264972D01*
X2284069Y-264160D01*
X2278583Y-263855D01*
G37*
G36*
X-929944Y-4082287D02*
G01*
X-935024Y-4082897D01*
X-939546Y-4084675D01*
X-943457Y-4087622D01*
X-946708Y-4091736D01*
X-949350Y-4097070D01*
X-951230Y-4103624D01*
X-952398Y-4111396D01*
X-952804Y-4120387D01*
X-944930Y-4120387D01*
X-944676Y-4112869D01*
X-943864Y-4106367D01*
X-942543Y-4100931D01*
X-940765Y-4096562D01*
X-938580Y-4093210D01*
X-936040Y-4090822D01*
X-933145Y-4089400D01*
X-929944Y-4088892D01*
X-926846Y-4089400D01*
X-924052Y-4090822D01*
X-921562Y-4093210D01*
X-919480Y-4096562D01*
X-917752Y-4100931D01*
X-916533Y-4106367D01*
X-915720Y-4112869D01*
X-915466Y-4120387D01*
X-915720Y-4128211D01*
X-916533Y-4134865D01*
X-917752Y-4140454D01*
X-919480Y-4144924D01*
X-921562Y-4148328D01*
X-924052Y-4150766D01*
X-926846Y-4152188D01*
X-929944Y-4152646D01*
X-933145Y-4152188D01*
X-936040Y-4150766D01*
X-938580Y-4148328D01*
X-940765Y-4144924D01*
X-942543Y-4140454D01*
X-943864Y-4134865D01*
X-944676Y-4128211D01*
X-944930Y-4120387D01*
X-952804Y-4120387D01*
X-952398Y-4129582D01*
X-951230Y-4137507D01*
X-949350Y-4144213D01*
X-946708Y-4149648D01*
X-943457Y-4153865D01*
X-939546Y-4156862D01*
X-935024Y-4158691D01*
X-929944Y-4159250D01*
X-925017Y-4158691D01*
X-920648Y-4156862D01*
X-916787Y-4153865D01*
X-913485Y-4149648D01*
X-910894Y-4144213D01*
X-908964Y-4137507D01*
X-907745Y-4129582D01*
X-907338Y-4120387D01*
X-907745Y-4111396D01*
X-908964Y-4103624D01*
X-910894Y-4097070D01*
X-913485Y-4091736D01*
X-916787Y-4087622D01*
X-920648Y-4084675D01*
X-925017Y-4082897D01*
G37*
G36*
X-995476Y-4082287D02*
G01*
X-1002080Y-4082999D01*
X-1008126Y-4084929D01*
X-1013460Y-4088129D01*
X-1018082Y-4092498D01*
X-1021842Y-4097985D01*
X-1024636Y-4104487D01*
X-1026363Y-4112006D01*
X-1026972Y-4120387D01*
X-1018336Y-4120387D01*
X-1017930Y-4113682D01*
X-1016711Y-4107687D01*
X-1014730Y-4102404D01*
X-1012037Y-4097985D01*
X-1008735Y-4094429D01*
X-1004824Y-4091838D01*
X-1000404Y-4090212D01*
X-995476Y-4089654D01*
X-990549Y-4090212D01*
X-986129Y-4091838D01*
X-982218Y-4094429D01*
X-978916Y-4097985D01*
X-976223Y-4102404D01*
X-974242Y-4107687D01*
X-973023Y-4113682D01*
X-972616Y-4120387D01*
X-973023Y-4127296D01*
X-974242Y-4133494D01*
X-976223Y-4138879D01*
X-978916Y-4143400D01*
X-982218Y-4147007D01*
X-986129Y-4149699D01*
X-990549Y-4151325D01*
X-995476Y-4151884D01*
X-1000404Y-4151325D01*
X-1004824Y-4149699D01*
X-1008735Y-4147007D01*
X-1012037Y-4143400D01*
X-1014730Y-4138879D01*
X-1016711Y-4133494D01*
X-1017930Y-4127296D01*
X-1018336Y-4120387D01*
X-1026972Y-4120387D01*
X-1026363Y-4128922D01*
X-1024636Y-4136542D01*
X-1021842Y-4143197D01*
X-1018082Y-4148785D01*
X-1013460Y-4153255D01*
X-1008126Y-4156557D01*
X-1002080Y-4158589D01*
X-995476Y-4159250D01*
X-988821Y-4158589D01*
X-982726Y-4156557D01*
X-977392Y-4153255D01*
X-972769Y-4148785D01*
X-969060Y-4143197D01*
X-966317Y-4136542D01*
X-964590Y-4128922D01*
X-963980Y-4120387D01*
X-964590Y-4112006D01*
X-966317Y-4104487D01*
X-969060Y-4097985D01*
X-972769Y-4092498D01*
X-977392Y-4088129D01*
X-982726Y-4084929D01*
X-988821Y-4082999D01*
G37*
G36*
X-1051610Y-4083558D02*
G01*
X-1051610Y-4157979D01*
X-1043228Y-4157979D01*
X-1043228Y-4083558D01*
G37*
G36*
X-174802Y-113792D02*
G01*
X-156006Y-161798D01*
X-148894Y-161798D01*
X-130098Y-113792D01*
X-137464Y-113792D01*
X-146354Y-138430D01*
X-152196Y-153416D01*
X-152704Y-153416D01*
X-167436Y-113792D01*
G37*
G36*
X-933805Y-595223D02*
G01*
X-981811Y-614019D01*
X-981811Y-621131D01*
X-933805Y-639927D01*
X-933805Y-632561D01*
X-958443Y-623671D01*
X-973429Y-617829D01*
X-973429Y-617321D01*
X-933805Y-602589D01*
G37*
G36*
X-187553Y-633933D02*
G01*
X-187553Y-642823D01*
X-159105Y-642823D01*
X-159105Y-726897D01*
X-148437Y-726897D01*
X-148437Y-642823D01*
X-120243Y-642823D01*
X-120243Y-633933D01*
G37*
G36*
X-248005Y-633933D02*
G01*
X-248005Y-726897D01*
X-237337Y-726897D01*
X-237337Y-684479D01*
X-201777Y-684479D01*
X-201777Y-675589D01*
X-237337Y-675589D01*
X-237337Y-642823D01*
X-195173Y-642823D01*
X-195173Y-633933D01*
G37*
G36*
X-322173Y-633933D02*
G01*
X-322173Y-726897D01*
X-267817Y-726897D01*
X-267817Y-718007D01*
X-311505Y-718007D01*
X-311505Y-682193D01*
X-275945Y-682193D01*
X-275945Y-673303D01*
X-311505Y-673303D01*
X-311505Y-642823D01*
X-269341Y-642823D01*
X-269341Y-633933D01*
G37*
G36*
X-390245Y-633933D02*
G01*
X-390245Y-726897D01*
X-338429Y-726897D01*
X-338429Y-718007D01*
X-379577Y-718007D01*
X-379577Y-633933D01*
G37*
G36*
X2446629Y-633933D02*
G01*
X2440635Y-634288D01*
X2434945Y-635406D01*
X2429662Y-637235D01*
X2424785Y-639724D01*
X2420315Y-642874D01*
X2416302Y-646684D01*
X2412847Y-651154D01*
X2409952Y-656183D01*
X2407615Y-661822D01*
X2405888Y-667969D01*
X2404821Y-674725D01*
X2404465Y-681939D01*
X2404821Y-689254D01*
X2405837Y-696010D01*
X2407513Y-702259D01*
X2409799Y-707898D01*
X2412644Y-712978D01*
X2416048Y-717397D01*
X2419959Y-721258D01*
X2424328Y-724408D01*
X2429154Y-726897D01*
X2434336Y-728726D01*
X2439924Y-729843D01*
X2445867Y-730199D01*
X2454706Y-729386D01*
X2462479Y-727100D01*
X2469083Y-723646D01*
X2474315Y-719277D01*
X2474315Y-680923D01*
X2444343Y-680923D01*
X2444343Y-689559D01*
X2464409Y-689559D01*
X2464409Y-714959D01*
X2461056Y-717397D01*
X2456789Y-719226D01*
X2452014Y-720394D01*
X2446883Y-720801D01*
X2439720Y-720090D01*
X2433370Y-718108D01*
X2427935Y-714806D01*
X2423414Y-710285D01*
X2419858Y-704646D01*
X2417267Y-697992D01*
X2415692Y-690321D01*
X2415133Y-681685D01*
X2415743Y-673201D01*
X2417419Y-665581D01*
X2420112Y-658977D01*
X2423769Y-653440D01*
X2428392Y-649020D01*
X2433777Y-645769D01*
X2439974Y-643737D01*
X2446883Y-643077D01*
X2453487Y-643788D01*
X2458974Y-645718D01*
X2463495Y-648563D01*
X2467203Y-651967D01*
X2473045Y-645109D01*
X2468473Y-641096D01*
X2462631Y-637540D01*
X2455367Y-634949D01*
G37*
G36*
X2579471Y-635457D02*
G01*
X2579471Y-644347D01*
X2607919Y-644347D01*
X2607919Y-728421D01*
X2618587Y-728421D01*
X2618587Y-644347D01*
X2646781Y-644347D01*
X2646781Y-635457D01*
G37*
G36*
X2496667Y-635457D02*
G01*
X2496667Y-728421D01*
X2507335Y-728421D01*
X2507335Y-683971D01*
X2552039Y-683971D01*
X2552039Y-728421D01*
X2562707Y-728421D01*
X2562707Y-635457D01*
X2552039Y-635457D01*
X2552039Y-674827D01*
X2507335Y-674827D01*
X2507335Y-635457D01*
G37*
G36*
X2373477Y-635457D02*
G01*
X2373477Y-728421D01*
X2383891Y-728421D01*
X2383891Y-635457D01*
G37*
G36*
X2293721Y-635457D02*
G01*
X2293721Y-644093D01*
X2320391Y-644093D01*
X2330399Y-645007D01*
X2337714Y-647954D01*
X2342235Y-653338D01*
X2343759Y-661365D01*
X2342235Y-669391D01*
X2337714Y-675081D01*
X2330399Y-678535D01*
X2320391Y-679653D01*
X2304389Y-679653D01*
X2304389Y-644093D01*
X2293721Y-644093D01*
X2293721Y-728421D01*
X2304389Y-728421D01*
X2304389Y-688289D01*
X2321661Y-688289D01*
X2344775Y-728421D01*
X2356713Y-728421D01*
X2332837Y-687273D01*
X2337511Y-685901D01*
X2341676Y-683971D01*
X2345385Y-681583D01*
X2348484Y-678586D01*
X2351024Y-675132D01*
X2352903Y-671118D01*
X2354072Y-666496D01*
X2354427Y-661365D01*
X2353818Y-654812D01*
X2352090Y-649274D01*
X2349246Y-644804D01*
X2345436Y-641248D01*
X2340762Y-638657D01*
X2335276Y-636828D01*
X2329027Y-635812D01*
X2322169Y-635457D01*
G37*
G36*
X1171498Y531926D02*
G01*
X1166469Y531368D01*
X1161948Y529590D01*
X1158036Y526643D01*
X1154734Y522528D01*
X1152144Y517194D01*
X1150213Y510641D01*
X1149045Y502869D01*
X1148638Y493826D01*
X1156512Y493826D01*
X1156817Y501396D01*
X1157630Y507898D01*
X1158900Y513283D01*
X1160678Y517702D01*
X1162862Y521055D01*
X1165402Y523443D01*
X1168298Y524865D01*
X1171498Y525322D01*
X1174597Y524865D01*
X1177442Y523443D01*
X1179880Y521055D01*
X1182014Y517702D01*
X1183690Y513283D01*
X1184960Y507898D01*
X1185722Y501396D01*
X1185976Y493826D01*
X1185722Y486054D01*
X1184960Y479399D01*
X1183690Y473811D01*
X1182014Y469341D01*
X1179880Y465886D01*
X1177442Y463499D01*
X1174597Y462076D01*
X1171498Y461568D01*
X1168298Y462076D01*
X1165402Y463499D01*
X1162862Y465886D01*
X1160678Y469341D01*
X1158900Y473811D01*
X1157630Y479399D01*
X1156817Y486054D01*
X1156512Y493826D01*
X1148638Y493826D01*
X1149045Y484682D01*
X1150213Y476758D01*
X1152144Y470052D01*
X1154734Y464616D01*
X1158036Y460400D01*
X1161948Y457403D01*
X1166469Y455574D01*
X1171498Y454964D01*
X1176426Y455574D01*
X1180846Y457403D01*
X1184706Y460400D01*
X1187958Y464616D01*
X1190599Y470052D01*
X1192530Y476758D01*
X1193698Y484682D01*
X1194104Y493826D01*
X1193698Y502869D01*
X1192530Y510641D01*
X1190599Y517194D01*
X1187958Y522528D01*
X1184706Y526643D01*
X1180846Y529590D01*
X1176426Y531368D01*
G37*
G36*
X1058214Y531926D02*
G01*
X1052169Y531266D01*
X1046784Y529437D01*
X1042009Y526694D01*
X1037640Y523290D01*
X1042212Y517702D01*
X1045667Y520700D01*
X1049426Y523036D01*
X1053541Y524662D01*
X1057960Y525322D01*
X1063345Y524306D01*
X1067409Y521766D01*
X1070000Y517906D01*
X1070914Y512876D01*
X1069848Y507034D01*
X1066342Y502412D01*
X1059891Y499313D01*
X1050086Y498144D01*
X1050086Y491794D01*
X1061059Y490677D01*
X1068273Y487476D01*
X1072235Y482600D01*
X1073454Y476300D01*
X1072337Y470306D01*
X1069136Y465734D01*
X1064260Y462838D01*
X1057960Y461822D01*
X1051915Y462534D01*
X1046886Y464464D01*
X1042669Y467207D01*
X1039164Y470458D01*
X1034846Y465124D01*
X1038961Y461314D01*
X1044194Y458063D01*
X1050645Y455828D01*
X1058468Y454964D01*
X1063193Y455371D01*
X1067612Y456438D01*
X1071575Y458165D01*
X1075029Y460552D01*
X1077874Y463600D01*
X1080008Y467207D01*
X1081379Y471373D01*
X1081836Y476046D01*
X1080617Y483057D01*
X1077214Y488645D01*
X1072184Y492709D01*
X1066088Y495096D01*
X1066088Y495350D01*
X1071473Y498195D01*
X1075639Y502158D01*
X1078331Y507288D01*
X1079296Y513638D01*
X1077722Y521462D01*
X1073353Y527202D01*
X1066647Y530707D01*
G37*
G36*
X932738Y531926D02*
G01*
X925982Y531266D01*
X919734Y529285D01*
X914196Y526034D01*
X909472Y521614D01*
X905560Y516026D01*
X902665Y509422D01*
X900887Y501853D01*
X900226Y493318D01*
X900836Y484835D01*
X902614Y477266D01*
X905459Y470712D01*
X909269Y465226D01*
X913993Y460806D01*
X919429Y457606D01*
X925525Y455676D01*
X932230Y454964D01*
X939037Y455676D01*
X944981Y457758D01*
X950214Y461111D01*
X954836Y465632D01*
X950010Y470966D01*
X946302Y467258D01*
X942238Y464566D01*
X937666Y462889D01*
X932484Y462330D01*
X927303Y462889D01*
X922680Y464566D01*
X918667Y467207D01*
X915263Y470814D01*
X912520Y475335D01*
X910539Y480669D01*
X909319Y486765D01*
X908862Y493572D01*
X909319Y500380D01*
X910590Y506476D01*
X912621Y511759D01*
X915365Y516229D01*
X918819Y519785D01*
X922934Y522427D01*
X927557Y524052D01*
X932738Y524560D01*
X937412Y524052D01*
X941527Y522630D01*
X945134Y520395D01*
X948232Y517448D01*
X953058Y522782D01*
X949350Y526288D01*
X944727Y529183D01*
X939190Y531215D01*
G37*
G36*
X1209598Y530656D02*
G01*
X1209598Y523798D01*
X1229918Y523798D01*
X1237945Y523138D01*
X1243634Y521004D01*
X1247089Y517194D01*
X1248206Y511352D01*
X1247190Y506069D01*
X1243888Y502056D01*
X1238046Y499567D01*
X1229410Y498652D01*
X1217980Y498652D01*
X1217980Y523798D01*
X1209598Y523798D01*
X1209598Y492302D01*
X1231442Y492302D01*
X1240485Y491439D01*
X1247190Y488848D01*
X1251356Y484479D01*
X1252778Y478332D01*
X1251305Y471424D01*
X1247089Y466598D01*
X1240383Y463804D01*
X1231442Y462838D01*
X1217980Y462838D01*
X1217980Y492302D01*
X1209598Y492302D01*
X1209598Y456234D01*
X1232712Y456234D01*
X1238758Y456590D01*
X1244193Y457606D01*
X1249019Y459282D01*
X1253134Y461670D01*
X1256436Y464718D01*
X1258874Y468477D01*
X1260398Y472948D01*
X1260906Y478078D01*
X1259789Y484936D01*
X1256588Y490118D01*
X1251712Y493776D01*
X1245412Y495858D01*
X1245412Y496366D01*
X1250188Y498805D01*
X1253693Y502462D01*
X1255877Y507085D01*
X1256588Y512368D01*
X1256131Y516890D01*
X1254760Y520700D01*
X1252524Y523849D01*
X1249527Y526389D01*
X1245819Y528320D01*
X1241501Y529640D01*
X1236573Y530402D01*
X1231188Y530656D01*
G37*
G36*
X1121206Y530656D02*
G01*
X1090539Y483666D01*
X1098346Y483666D01*
X1116380Y510082D01*
X1122222Y521004D01*
X1122730Y521004D01*
X1122222Y507796D01*
X1122222Y483666D01*
X1090539Y483666D01*
X1089710Y482396D01*
X1089710Y477062D01*
X1122222Y477062D01*
X1122222Y456234D01*
X1130096Y456234D01*
X1130096Y477062D01*
X1140256Y477062D01*
X1140256Y483666D01*
X1130096Y483666D01*
X1130096Y530656D01*
G37*
G36*
X968806Y530656D02*
G01*
X968806Y456234D01*
X977442Y456234D01*
X977442Y491794D01*
X1013256Y491794D01*
X1013256Y456234D01*
X1021638Y456234D01*
X1021638Y530656D01*
X1013256Y530656D01*
X1013256Y499160D01*
X977442Y499160D01*
X977442Y530656D01*
G37*
G36*
X1738731Y-60452D02*
G01*
X1738731Y-99568D01*
X1702663Y-99568D01*
X1702663Y-110489D01*
X1738731Y-110489D01*
X1738731Y-149606D01*
X1750669Y-149606D01*
X1750669Y-110489D01*
X1786737Y-110489D01*
X1786737Y-99568D01*
X1750669Y-99568D01*
X1750669Y-60452D01*
G37*
G36*
X1713382Y699516D02*
G01*
X1713382Y684784D01*
X1771294Y684784D01*
X1771294Y699516D01*
G37*
G36*
X182880Y-559409D02*
G01*
X182880Y-566521D01*
X205486Y-566521D01*
X205486Y-633831D01*
X213867Y-633831D01*
X213867Y-566521D01*
X236728Y-566521D01*
X236728Y-559409D01*
G37*
G36*
X123189Y-559409D02*
G01*
X123189Y-566267D01*
X140716Y-566267D01*
X147066Y-566775D01*
X152552Y-568299D01*
X157175Y-570788D01*
X160934Y-574192D01*
X163880Y-578510D01*
X165963Y-583641D01*
X167233Y-589534D01*
X167640Y-596239D01*
X167233Y-603046D01*
X165963Y-609092D01*
X163880Y-614324D01*
X160934Y-618744D01*
X157175Y-622249D01*
X152552Y-624840D01*
X147066Y-626414D01*
X140716Y-626973D01*
X131572Y-626973D01*
X131572Y-566267D01*
X123189Y-566267D01*
X123189Y-633831D01*
X141732Y-633831D01*
X147167Y-633526D01*
X152146Y-632663D01*
X156667Y-631240D01*
X160731Y-629259D01*
X164338Y-626770D01*
X167487Y-623773D01*
X170180Y-620318D01*
X172364Y-616356D01*
X174040Y-611987D01*
X175310Y-607110D01*
X176022Y-601878D01*
X176276Y-596239D01*
X176022Y-590600D01*
X175310Y-585368D01*
X174040Y-580644D01*
X172364Y-576275D01*
X170129Y-572414D01*
X167436Y-569061D01*
X164287Y-566166D01*
X160680Y-563778D01*
X156565Y-561848D01*
X151993Y-560527D01*
X146964Y-559663D01*
X141478Y-559409D01*
G37*
G36*
X865327Y-588619D02*
G01*
X865327Y-595731D01*
X887933Y-595731D01*
X887933Y-663041D01*
X896315Y-663041D01*
X896315Y-595731D01*
X919175Y-595731D01*
X919175Y-588619D01*
G37*
G36*
X810209Y-588619D02*
G01*
X810209Y-595477D01*
X831545Y-595477D01*
X839469Y-596188D01*
X845261Y-598525D01*
X848868Y-602742D01*
X850087Y-609193D01*
X848868Y-615746D01*
X845261Y-620369D01*
X839469Y-623011D01*
X831545Y-623925D01*
X818591Y-623925D01*
X818591Y-595477D01*
X810209Y-595477D01*
X810209Y-663041D01*
X818591Y-663041D01*
X818591Y-631037D01*
X832561Y-631037D01*
X851103Y-663041D01*
X860501Y-663041D01*
X841451Y-630021D01*
X848512Y-627430D01*
X853998Y-623112D01*
X857453Y-617016D01*
X858723Y-609193D01*
X858215Y-603910D01*
X856792Y-599541D01*
X854506Y-595985D01*
X851458Y-593191D01*
X847699Y-591108D01*
X843280Y-589686D01*
X838301Y-588873D01*
X832815Y-588619D01*
G37*
G36*
X-971397Y-3397199D02*
G01*
X-971397Y-3404311D01*
X-948791Y-3404311D01*
X-948791Y-3471621D01*
X-940155Y-3471621D01*
X-940155Y-3404311D01*
X-917295Y-3404311D01*
X-917295Y-3397199D01*
G37*
G36*
X-1027785Y-3397199D02*
G01*
X-1027785Y-3404057D01*
X-1007465Y-3404057D01*
X-999591Y-3404717D01*
X-993851Y-3406851D01*
X-990346Y-3410712D01*
X-989177Y-3416503D01*
X-990244Y-3421837D01*
X-993546Y-3425799D01*
X-999388Y-3428339D01*
X-1007973Y-3429203D01*
X-1019403Y-3429203D01*
X-1019403Y-3404057D01*
X-1027785Y-3404057D01*
X-1027785Y-3435553D01*
X-1005941Y-3435553D01*
X-997000Y-3436416D01*
X-990346Y-3439007D01*
X-986282Y-3443376D01*
X-984859Y-3449523D01*
X-986332Y-3456482D01*
X-990447Y-3461308D01*
X-997102Y-3464102D01*
X-1005941Y-3465017D01*
X-1019403Y-3465017D01*
X-1019403Y-3435553D01*
X-1027785Y-3435553D01*
X-1027785Y-3471621D01*
X-1004671Y-3471621D01*
X-998677Y-3471316D01*
X-993190Y-3470300D01*
X-988415Y-3468624D01*
X-984300Y-3466236D01*
X-980998Y-3463188D01*
X-978560Y-3459429D01*
X-977036Y-3454958D01*
X-976477Y-3449777D01*
X-977646Y-3442970D01*
X-980795Y-3437737D01*
X-985723Y-3434130D01*
X-991971Y-3431997D01*
X-991971Y-3431489D01*
X-987247Y-3429050D01*
X-983742Y-3425393D01*
X-981557Y-3420770D01*
X-980795Y-3415487D01*
X-981303Y-3411016D01*
X-982675Y-3407156D01*
X-984910Y-3404006D01*
X-987907Y-3401517D01*
X-991565Y-3399586D01*
X-995934Y-3398265D01*
X-1000810Y-3397453D01*
X-1006195Y-3397199D01*
G37*
G36*
X-756615Y-1273149D02*
G01*
X-763422Y-1273810D01*
X-769620Y-1275791D01*
X-775157Y-1279042D01*
X-779932Y-1283462D01*
X-783793Y-1288999D01*
X-786688Y-1295603D01*
X-788517Y-1303223D01*
X-789127Y-1311757D01*
X-788517Y-1320241D01*
X-786739Y-1327810D01*
X-783894Y-1334363D01*
X-780084Y-1339850D01*
X-775411Y-1344269D01*
X-769924Y-1347470D01*
X-763828Y-1349400D01*
X-757123Y-1350060D01*
X-750366Y-1349400D01*
X-744372Y-1347317D01*
X-739140Y-1343964D01*
X-734517Y-1339392D01*
X-739343Y-1334058D01*
X-743102Y-1337767D01*
X-747166Y-1340510D01*
X-751687Y-1342136D01*
X-756869Y-1342694D01*
X-762050Y-1342136D01*
X-766673Y-1340510D01*
X-770686Y-1337868D01*
X-774090Y-1334262D01*
X-776833Y-1329740D01*
X-778814Y-1324406D01*
X-780084Y-1318310D01*
X-780491Y-1311452D01*
X-780084Y-1304696D01*
X-778814Y-1298600D01*
X-776732Y-1293317D01*
X-773988Y-1288846D01*
X-770534Y-1285290D01*
X-766470Y-1282649D01*
X-761796Y-1281023D01*
X-756615Y-1280515D01*
X-751941Y-1280972D01*
X-747826Y-1282446D01*
X-744220Y-1284681D01*
X-741121Y-1287576D01*
X-736295Y-1282242D01*
X-740003Y-1278788D01*
X-744626Y-1275892D01*
X-750214Y-1273860D01*
G37*
G36*
X-720547Y-1274368D02*
G01*
X-720547Y-1348790D01*
X-711911Y-1348790D01*
X-711911Y-1313230D01*
X-676097Y-1313230D01*
X-676097Y-1348790D01*
X-667715Y-1348790D01*
X-667715Y-1274368D01*
X-676097Y-1274368D01*
X-676097Y-1305915D01*
X-711911Y-1305915D01*
X-711911Y-1274368D01*
G37*
G36*
X-114401Y-391414D02*
G01*
X-117449Y-392988D01*
X-120954Y-394411D01*
X-124917Y-395579D01*
X-129387Y-396494D01*
X-129387Y-401828D01*
X-116433Y-401828D01*
X-116433Y-458978D01*
X-132943Y-458978D01*
X-132943Y-465835D01*
X-93065Y-465835D01*
X-93065Y-458978D01*
X-108051Y-458978D01*
X-108051Y-391414D01*
G37*
G36*
X-201015Y-391414D02*
G01*
X-201015Y-398272D01*
X-183489Y-398272D01*
X-177139Y-398780D01*
X-171653Y-400304D01*
X-167030Y-402793D01*
X-163271Y-406196D01*
X-160324Y-410464D01*
X-158242Y-415594D01*
X-156972Y-421538D01*
X-156565Y-428243D01*
X-156972Y-435000D01*
X-158242Y-441045D01*
X-160324Y-446328D01*
X-163271Y-450748D01*
X-167030Y-454253D01*
X-171653Y-456844D01*
X-177139Y-458419D01*
X-183489Y-458978D01*
X-192633Y-458978D01*
X-192633Y-398272D01*
X-201015Y-398272D01*
X-201015Y-465835D01*
X-182473Y-465835D01*
X-177038Y-465531D01*
X-172059Y-464667D01*
X-167538Y-463245D01*
X-163474Y-461264D01*
X-159867Y-458774D01*
X-156718Y-455777D01*
X-154076Y-452323D01*
X-151841Y-448360D01*
X-150164Y-443941D01*
X-148894Y-439115D01*
X-148183Y-433882D01*
X-147929Y-428243D01*
X-148183Y-422605D01*
X-148894Y-417372D01*
X-150164Y-412597D01*
X-151892Y-408279D01*
X-154076Y-404418D01*
X-156768Y-401066D01*
X-159918Y-398170D01*
X-163525Y-395732D01*
X-167640Y-393852D01*
X-172212Y-392480D01*
X-177241Y-391668D01*
X-182727Y-391414D01*
G37*
G36*
X-925830Y-425551D02*
G01*
X-932332Y-426313D01*
X-937971Y-428548D01*
X-943000Y-432003D01*
X-947674Y-436473D01*
X-942594Y-441045D01*
X-939292Y-437642D01*
X-935482Y-434797D01*
X-931316Y-432866D01*
X-926846Y-432155D01*
X-920546Y-433324D01*
X-916127Y-436575D01*
X-913485Y-441502D01*
X-912621Y-447649D01*
X-913130Y-452628D01*
X-914653Y-457809D01*
X-917244Y-463296D01*
X-920953Y-469036D01*
X-925728Y-475183D01*
X-931671Y-481736D01*
X-938834Y-488696D01*
X-947166Y-496163D01*
X-947166Y-501243D01*
X-900937Y-501243D01*
X-900937Y-494131D01*
X-925220Y-494182D01*
X-934466Y-494639D01*
X-928014Y-488340D01*
X-922172Y-482193D01*
X-917041Y-476148D01*
X-912723Y-470255D01*
X-909218Y-464464D01*
X-906627Y-458724D01*
X-905052Y-453034D01*
X-904494Y-447395D01*
X-904849Y-442671D01*
X-905967Y-438404D01*
X-907745Y-434695D01*
X-910183Y-431546D01*
X-913282Y-429006D01*
X-916940Y-427126D01*
X-921105Y-425958D01*
G37*
G36*
X-1010666Y-426821D02*
G01*
X-1010666Y-433679D01*
X-993140Y-433679D01*
X-986790Y-434187D01*
X-981303Y-435711D01*
X-976680Y-438200D01*
X-972921Y-441604D01*
X-969975Y-445922D01*
X-967892Y-451053D01*
X-966622Y-456996D01*
X-966216Y-463651D01*
X-966622Y-470458D01*
X-967892Y-476504D01*
X-969975Y-481736D01*
X-972921Y-486156D01*
X-976680Y-489712D01*
X-981303Y-492251D01*
X-986790Y-493826D01*
X-993140Y-494385D01*
X-1002284Y-494385D01*
X-1002284Y-433679D01*
X-1010666Y-433679D01*
X-1010666Y-501243D01*
X-992124Y-501243D01*
X-986688Y-500938D01*
X-981710Y-500075D01*
X-977188Y-498652D01*
X-973124Y-496671D01*
X-969518Y-494233D01*
X-966368Y-491235D01*
X-963676Y-487730D01*
X-961491Y-483768D01*
X-959815Y-479399D01*
X-958545Y-474573D01*
X-957834Y-469290D01*
X-957580Y-463651D01*
X-957834Y-458012D01*
X-958545Y-452831D01*
X-959815Y-448056D01*
X-961491Y-443738D01*
X-963726Y-439877D01*
X-966419Y-436473D01*
X-969568Y-433578D01*
X-973175Y-431190D01*
X-977290Y-429310D01*
X-981862Y-427939D01*
X-986891Y-427126D01*
X-992378Y-426821D01*
G37*
G36*
X985316Y-259384D02*
G01*
X978916Y-260197D01*
X973277Y-262382D01*
X968248Y-265836D01*
X963726Y-270306D01*
X968552Y-274878D01*
X971956Y-271475D01*
X975766Y-268630D01*
X979881Y-266700D01*
X984300Y-265988D01*
X990600Y-267157D01*
X995019Y-270408D01*
X997661Y-275336D01*
X998524Y-281482D01*
X998016Y-286461D01*
X996492Y-291642D01*
X993902Y-297129D01*
X990244Y-302920D01*
X985469Y-309067D01*
X979525Y-315569D01*
X972464Y-322580D01*
X964234Y-329996D01*
X964234Y-335076D01*
X1010208Y-335076D01*
X1010208Y-327964D01*
X985926Y-328015D01*
X976680Y-328472D01*
X983234Y-322173D01*
X989076Y-316026D01*
X994206Y-310032D01*
X998524Y-304088D01*
X1001979Y-298297D01*
X1004519Y-292557D01*
X1006094Y-286867D01*
X1006652Y-281228D01*
X1006246Y-276504D01*
X1005179Y-272288D01*
X1003401Y-268528D01*
X1000912Y-265379D01*
X997864Y-262839D01*
X994206Y-260959D01*
X990041Y-259791D01*
G37*
G36*
X906322Y-260654D02*
G01*
X906322Y-267512D01*
X927658Y-267512D01*
X935583Y-268274D01*
X941374Y-270560D01*
X944981Y-274828D01*
X946200Y-281228D01*
X944981Y-287832D01*
X941374Y-292404D01*
X935583Y-295097D01*
X927658Y-295960D01*
X914704Y-295960D01*
X914704Y-267512D01*
X906322Y-267512D01*
X906322Y-335076D01*
X914704Y-335076D01*
X914704Y-303072D01*
X928674Y-303072D01*
X947216Y-335076D01*
X956614Y-335076D01*
X937564Y-302056D01*
X944626Y-299516D01*
X950112Y-295198D01*
X953617Y-289102D01*
X954836Y-281228D01*
X954328Y-275996D01*
X952906Y-271627D01*
X950671Y-268020D01*
X947572Y-265226D01*
X943813Y-263144D01*
X939393Y-261772D01*
X934415Y-260959D01*
X928928Y-260654D01*
G37*
G36*
X126441Y-253390D02*
G01*
X95526Y-300380D01*
X103581Y-300380D01*
X121615Y-273964D01*
X127457Y-263042D01*
X127965Y-263042D01*
X127457Y-276250D01*
X127457Y-300380D01*
X95526Y-300380D01*
X94691Y-301650D01*
X94691Y-306984D01*
X127457Y-306984D01*
X127457Y-327812D01*
X135331Y-327812D01*
X135331Y-306984D01*
X145491Y-306984D01*
X145491Y-300380D01*
X135331Y-300380D01*
X135331Y-253390D01*
G37*
G36*
X39573Y-253390D02*
G01*
X39573Y-260248D01*
X60909Y-260248D01*
X68834Y-260959D01*
X74676Y-263296D01*
X78232Y-267512D01*
X79451Y-273964D01*
X78232Y-280568D01*
X74676Y-285140D01*
X68834Y-287832D01*
X60909Y-288696D01*
X47955Y-288696D01*
X47955Y-260248D01*
X39573Y-260248D01*
X39573Y-327812D01*
X47955Y-327812D01*
X47955Y-295808D01*
X61925Y-295808D01*
X80467Y-327812D01*
X89865Y-327812D01*
X70815Y-294792D01*
X77927Y-292201D01*
X83362Y-287883D01*
X86868Y-281838D01*
X88087Y-273964D01*
X87579Y-268732D01*
X86207Y-264312D01*
X83921Y-260756D01*
X80873Y-257962D01*
X77063Y-255879D01*
X72644Y-254457D01*
X67665Y-253644D01*
X62179Y-253390D01*
G37*
G36*
X-935380Y-3010509D02*
G01*
X-941781Y-3011271D01*
X-947318Y-3013506D01*
X-952347Y-3016961D01*
X-956970Y-3021431D01*
X-952144Y-3026003D01*
X-948740Y-3022498D01*
X-944930Y-3019653D01*
X-940714Y-3017774D01*
X-936142Y-3017113D01*
X-929894Y-3018282D01*
X-925576Y-3021533D01*
X-923036Y-3026460D01*
X-922172Y-3032607D01*
X-922680Y-3037484D01*
X-924204Y-3042666D01*
X-926744Y-3048101D01*
X-930402Y-3053892D01*
X-935126Y-3060090D01*
X-941069Y-3066643D01*
X-948131Y-3073654D01*
X-956462Y-3081121D01*
X-956462Y-3086201D01*
X-910488Y-3086201D01*
X-910488Y-3079089D01*
X-934669Y-3079140D01*
X-944016Y-3079597D01*
X-937514Y-3073298D01*
X-931621Y-3067151D01*
X-926541Y-3061106D01*
X-922172Y-3055162D01*
X-918718Y-3049320D01*
X-916178Y-3043580D01*
X-914603Y-3037840D01*
X-914044Y-3032099D01*
X-915517Y-3023158D01*
X-919784Y-3016351D01*
X-926490Y-3012033D01*
G37*
G36*
X-989228Y-3011779D02*
G01*
X-992327Y-3013405D01*
X-995781Y-3014776D01*
X-999744Y-3015945D01*
X-1004214Y-3016859D01*
X-1004214Y-3022193D01*
X-991006Y-3022193D01*
X-991006Y-3079343D01*
X-1007770Y-3079343D01*
X-1007770Y-3086201D01*
X-967638Y-3086201D01*
X-967638Y-3079343D01*
X-982878Y-3079343D01*
X-982878Y-3011779D01*
G37*
G36*
X-1070000Y-3011779D02*
G01*
X-1070000Y-3018637D01*
X-1048664Y-3018637D01*
X-1040739Y-3019348D01*
X-1034948Y-3021685D01*
X-1031341Y-3025902D01*
X-1030122Y-3032353D01*
X-1031341Y-3038856D01*
X-1034948Y-3043428D01*
X-1040739Y-3046171D01*
X-1048664Y-3047085D01*
X-1061618Y-3047085D01*
X-1061618Y-3018637D01*
X-1070000Y-3018637D01*
X-1070000Y-3086201D01*
X-1061618Y-3086201D01*
X-1061618Y-3053943D01*
X-1047648Y-3053943D01*
X-1029106Y-3086201D01*
X-1019708Y-3086201D01*
X-1039012Y-3053181D01*
X-1031849Y-3050590D01*
X-1026414Y-3046272D01*
X-1022959Y-3040227D01*
X-1021740Y-3032353D01*
X-1022248Y-3027121D01*
X-1023619Y-3022701D01*
X-1025855Y-3019145D01*
X-1028852Y-3016351D01*
X-1032611Y-3014268D01*
X-1036980Y-3012846D01*
X-1041958Y-3012033D01*
X-1047394Y-3011779D01*
G37*
G36*
X3244850Y-732993D02*
G01*
X3244850Y-739851D01*
X3266186Y-739851D01*
X3274110Y-740562D01*
X3279952Y-742899D01*
X3283508Y-747166D01*
X3284728Y-753567D01*
X3283508Y-760171D01*
X3279952Y-764743D01*
X3274110Y-767435D01*
X3266186Y-768299D01*
X3253232Y-768299D01*
X3253232Y-739851D01*
X3244850Y-739851D01*
X3244850Y-807415D01*
X3253232Y-807415D01*
X3253232Y-775411D01*
X3267202Y-775411D01*
X3285744Y-807415D01*
X3295142Y-807415D01*
X3275838Y-774395D01*
X3283051Y-771855D01*
X3288487Y-767537D01*
X3291890Y-761441D01*
X3293110Y-753567D01*
X3292652Y-748334D01*
X3291230Y-743966D01*
X3288995Y-740359D01*
X3285998Y-737565D01*
X3282289Y-735482D01*
X3277920Y-734060D01*
X3272942Y-733247D01*
X3267456Y-732993D01*
G37*
G36*
X3177032Y-732993D02*
G01*
X3200908Y-807415D01*
X3210560Y-807415D01*
X3234182Y-732993D01*
X3225800Y-732993D01*
X3205988Y-798779D01*
X3205734Y-798779D01*
X3201873Y-786485D01*
X3198368Y-774141D01*
X3185922Y-732993D01*
G37*
G36*
X-950366Y-1500784D02*
G01*
X-953414Y-1502359D01*
X-956868Y-1503680D01*
X-960831Y-1504848D01*
X-965352Y-1505864D01*
X-965352Y-1511198D01*
X-952144Y-1511198D01*
X-952144Y-1568094D01*
X-968908Y-1568094D01*
X-968908Y-1574952D01*
X-928776Y-1574952D01*
X-928776Y-1568094D01*
X-944016Y-1568094D01*
X-944016Y-1500784D01*
G37*
G36*
X-1031392Y-1500784D02*
G01*
X-1031392Y-1507388D01*
X-1009802Y-1507388D01*
X-1001826Y-1508150D01*
X-996035Y-1510538D01*
X-992479Y-1514856D01*
X-991260Y-1521358D01*
X-992479Y-1527810D01*
X-996035Y-1532432D01*
X-1001826Y-1535176D01*
X-1009802Y-1536090D01*
X-1022756Y-1536090D01*
X-1022756Y-1507388D01*
X-1031392Y-1507388D01*
X-1031392Y-1574952D01*
X-1022756Y-1574952D01*
X-1022756Y-1542948D01*
X-1009040Y-1542948D01*
X-990244Y-1574952D01*
X-980846Y-1574952D01*
X-1000150Y-1542186D01*
X-993038Y-1539595D01*
X-987602Y-1535277D01*
X-984097Y-1529181D01*
X-982878Y-1521358D01*
X-983335Y-1516075D01*
X-984707Y-1511706D01*
X-986942Y-1508150D01*
X-989990Y-1505356D01*
X-993698Y-1503273D01*
X-998067Y-1501851D01*
X-1003046Y-1501038D01*
X-1008532Y-1500784D01*
G37*
G36*
X1195273Y-627786D02*
G01*
X1189329Y-628396D01*
X1183995Y-630174D01*
X1179220Y-632917D01*
X1174953Y-636422D01*
X1179525Y-641756D01*
X1182827Y-638759D01*
X1186535Y-636422D01*
X1190599Y-634898D01*
X1195019Y-634390D01*
X1200505Y-635304D01*
X1204569Y-637794D01*
X1207109Y-641654D01*
X1207973Y-646582D01*
X1206906Y-652424D01*
X1203401Y-657098D01*
X1196949Y-660196D01*
X1187145Y-661314D01*
X1187145Y-667918D01*
X1198168Y-668985D01*
X1205433Y-672084D01*
X1209548Y-676910D01*
X1210767Y-683158D01*
X1209598Y-689305D01*
X1206398Y-693928D01*
X1201470Y-696874D01*
X1195273Y-697890D01*
X1189228Y-697128D01*
X1184198Y-695198D01*
X1180033Y-692404D01*
X1176477Y-689254D01*
X1172159Y-694588D01*
X1176274Y-698296D01*
X1181404Y-701548D01*
X1187856Y-703884D01*
X1195781Y-704748D01*
X1200505Y-704392D01*
X1204925Y-703275D01*
X1208887Y-701548D01*
X1212342Y-699160D01*
X1215186Y-696112D01*
X1217320Y-692505D01*
X1218692Y-688340D01*
X1219149Y-683666D01*
X1217930Y-676554D01*
X1214526Y-670966D01*
X1209395Y-666953D01*
X1203147Y-664616D01*
X1203147Y-664108D01*
X1208582Y-661365D01*
X1212850Y-657453D01*
X1215644Y-652322D01*
X1216609Y-646074D01*
X1215034Y-638251D01*
X1210513Y-632510D01*
X1203756Y-629005D01*
G37*
G36*
X1115771Y-629056D02*
G01*
X1115771Y-635914D01*
X1137107Y-635914D01*
X1145082Y-636625D01*
X1150874Y-638962D01*
X1154430Y-643178D01*
X1155649Y-649630D01*
X1154430Y-656082D01*
X1150874Y-660704D01*
X1145082Y-663448D01*
X1137107Y-664362D01*
X1124153Y-664362D01*
X1124153Y-635914D01*
X1115771Y-635914D01*
X1115771Y-703478D01*
X1124153Y-703478D01*
X1124153Y-671220D01*
X1138123Y-671220D01*
X1156665Y-703478D01*
X1166063Y-703478D01*
X1147013Y-670458D01*
X1154125Y-667867D01*
X1159560Y-663549D01*
X1163066Y-657453D01*
X1164285Y-649630D01*
X1163828Y-644347D01*
X1162405Y-639978D01*
X1160119Y-636422D01*
X1157071Y-633628D01*
X1153312Y-631545D01*
X1148892Y-630123D01*
X1143863Y-629310D01*
X1138377Y-629056D01*
G37*
G36*
X1289608Y-243027D02*
G01*
X1282801Y-243687D01*
X1276604Y-245668D01*
X1271066Y-248920D01*
X1266291Y-253339D01*
X1262430Y-258927D01*
X1259535Y-265531D01*
X1257706Y-273100D01*
X1257096Y-281635D01*
X1257706Y-290118D01*
X1259484Y-297688D01*
X1262329Y-304241D01*
X1266139Y-309778D01*
X1270812Y-314147D01*
X1276299Y-317347D01*
X1282395Y-319328D01*
X1289100Y-319989D01*
X1295857Y-319278D01*
X1301851Y-317195D01*
X1307084Y-313893D01*
X1311706Y-309321D01*
X1306880Y-303987D01*
X1303121Y-307695D01*
X1299057Y-310388D01*
X1294536Y-312064D01*
X1289354Y-312623D01*
X1284173Y-312064D01*
X1279550Y-310388D01*
X1275537Y-307746D01*
X1272133Y-304139D01*
X1269390Y-299618D01*
X1267409Y-294284D01*
X1266139Y-288188D01*
X1265732Y-281381D01*
X1266139Y-274574D01*
X1267409Y-268478D01*
X1269492Y-263194D01*
X1272235Y-258724D01*
X1275689Y-255168D01*
X1279753Y-252526D01*
X1284427Y-250952D01*
X1289608Y-250393D01*
X1294282Y-250901D01*
X1298397Y-252323D01*
X1302004Y-254558D01*
X1305102Y-257505D01*
X1309928Y-252171D01*
X1306220Y-248716D01*
X1301597Y-245770D01*
X1296009Y-243789D01*
G37*
G36*
X1382318Y-244297D02*
G01*
X1380032Y-278841D01*
X1384604Y-281635D01*
X1387703Y-279755D01*
X1390650Y-278434D01*
X1393799Y-277571D01*
X1397304Y-277317D01*
X1403858Y-278485D01*
X1408785Y-281990D01*
X1411935Y-287477D01*
X1413052Y-294843D01*
X1411782Y-302412D01*
X1408277Y-308152D01*
X1403096Y-311810D01*
X1396796Y-313131D01*
X1390751Y-312420D01*
X1385824Y-310540D01*
X1381709Y-307848D01*
X1378254Y-304749D01*
X1373936Y-310083D01*
X1378102Y-313740D01*
X1383284Y-316941D01*
X1389634Y-319125D01*
X1397558Y-319989D01*
X1402080Y-319532D01*
X1406448Y-318312D01*
X1410462Y-316230D01*
X1414068Y-313385D01*
X1417116Y-309778D01*
X1419402Y-305409D01*
X1420926Y-300329D01*
X1421434Y-294589D01*
X1420977Y-288798D01*
X1419707Y-283921D01*
X1417675Y-279857D01*
X1414932Y-276555D01*
X1411681Y-274066D01*
X1407922Y-272338D01*
X1403807Y-271272D01*
X1399336Y-270967D01*
X1395984Y-271170D01*
X1393037Y-271729D01*
X1390294Y-272694D01*
X1387652Y-274015D01*
X1389684Y-251409D01*
X1417878Y-251409D01*
X1417878Y-244297D01*
G37*
G36*
X1342948Y-244297D02*
G01*
X1339900Y-245922D01*
X1336395Y-247294D01*
X1332433Y-248462D01*
X1327962Y-249377D01*
X1327962Y-254711D01*
X1341170Y-254711D01*
X1341170Y-311861D01*
X1324406Y-311861D01*
X1324406Y-318719D01*
X1364538Y-318719D01*
X1364538Y-311861D01*
X1349298Y-311861D01*
X1349298Y-244297D01*
G37*
G36*
X-1153210Y907135D02*
G01*
X-1160018Y906475D01*
X-1166215Y904443D01*
X-1171752Y901242D01*
X-1176528Y896772D01*
X-1180388Y891235D01*
X-1183284Y884631D01*
X-1185113Y877062D01*
X-1185722Y868527D01*
X-1185113Y860044D01*
X-1183335Y852474D01*
X-1180490Y845921D01*
X-1176680Y840384D01*
X-1172006Y836015D01*
X-1166571Y832815D01*
X-1160424Y830834D01*
X-1153718Y830173D01*
X-1146962Y830884D01*
X-1141018Y832916D01*
X-1135786Y836269D01*
X-1131112Y840841D01*
X-1135938Y846175D01*
X-1139698Y842467D01*
X-1143762Y839774D01*
X-1148334Y838098D01*
X-1153464Y837539D01*
X-1158646Y838098D01*
X-1163269Y839724D01*
X-1167333Y842416D01*
X-1170736Y846023D01*
X-1173429Y850544D01*
X-1175461Y855878D01*
X-1176680Y861974D01*
X-1177086Y868781D01*
X-1176680Y875588D01*
X-1175410Y881684D01*
X-1173378Y886968D01*
X-1170584Y891438D01*
X-1167130Y894994D01*
X-1163066Y897585D01*
X-1158392Y899210D01*
X-1153210Y899769D01*
X-1148537Y899261D01*
X-1144422Y897839D01*
X-1140815Y895603D01*
X-1137716Y892657D01*
X-1132890Y897991D01*
X-1136599Y901446D01*
X-1141272Y904392D01*
X-1146810Y906373D01*
G37*
G36*
X-1043990Y905865D02*
G01*
X-1047038Y904240D01*
X-1050544Y902868D01*
X-1054506Y901700D01*
X-1058976Y900785D01*
X-1058976Y895451D01*
X-1046022Y895451D01*
X-1046022Y838301D01*
X-1062532Y838301D01*
X-1062532Y831443D01*
X-1022654Y831443D01*
X-1022654Y838301D01*
X-1037640Y838301D01*
X-1037640Y905865D01*
G37*
G36*
X-1099870Y905865D02*
G01*
X-1102918Y904240D01*
X-1106424Y902868D01*
X-1110386Y901700D01*
X-1114856Y900785D01*
X-1114856Y895451D01*
X-1101648Y895451D01*
X-1101648Y838301D01*
X-1118412Y838301D01*
X-1118412Y831443D01*
X-1078280Y831443D01*
X-1078280Y838301D01*
X-1093520Y838301D01*
X-1093520Y905865D01*
G37*
G36*
X-1093470Y215595D02*
G01*
X-1098245Y215290D01*
X-1102766Y214375D01*
X-1107033Y212902D01*
X-1110945Y210870D01*
X-1114501Y208330D01*
X-1117701Y205232D01*
X-1120495Y201676D01*
X-1122883Y197612D01*
X-1124762Y193090D01*
X-1126134Y188112D01*
X-1126998Y182778D01*
X-1127252Y176987D01*
X-1126642Y168503D01*
X-1124813Y160934D01*
X-1121918Y154381D01*
X-1117955Y148844D01*
X-1113129Y144475D01*
X-1107440Y141274D01*
X-1101039Y139293D01*
X-1093978Y138633D01*
X-1086967Y139242D01*
X-1080770Y141020D01*
X-1075588Y143662D01*
X-1071372Y147015D01*
X-1071372Y178003D01*
X-1095248Y178003D01*
X-1095248Y170891D01*
X-1079246Y170891D01*
X-1079246Y150571D01*
X-1081938Y148691D01*
X-1085291Y147218D01*
X-1089101Y146304D01*
X-1093216Y145999D01*
X-1099007Y146558D01*
X-1104087Y148183D01*
X-1108405Y150876D01*
X-1112012Y154482D01*
X-1114907Y159004D01*
X-1116939Y164338D01*
X-1118209Y170434D01*
X-1118616Y177241D01*
X-1118158Y184048D01*
X-1116838Y190093D01*
X-1114704Y195427D01*
X-1111758Y199898D01*
X-1108100Y203454D01*
X-1103731Y206044D01*
X-1098753Y207670D01*
X-1093216Y208229D01*
X-1088034Y207670D01*
X-1083665Y206095D01*
X-1080058Y203809D01*
X-1076960Y201117D01*
X-1072134Y206451D01*
X-1075893Y209804D01*
X-1080617Y212750D01*
X-1086459Y214782D01*
G37*
G36*
X-1155954Y215595D02*
G01*
X-1162761Y214934D01*
X-1168958Y212902D01*
X-1174496Y209651D01*
X-1179271Y205232D01*
X-1183132Y199694D01*
X-1186027Y193090D01*
X-1187856Y185521D01*
X-1188466Y176987D01*
X-1187856Y168503D01*
X-1186078Y160934D01*
X-1183233Y154381D01*
X-1179423Y148844D01*
X-1174750Y144475D01*
X-1169314Y141274D01*
X-1163167Y139293D01*
X-1156462Y138633D01*
X-1149705Y139344D01*
X-1143762Y141376D01*
X-1138529Y144729D01*
X-1133856Y149301D01*
X-1138682Y154635D01*
X-1142441Y150926D01*
X-1146505Y148234D01*
X-1151077Y146558D01*
X-1156208Y145999D01*
X-1161389Y146558D01*
X-1166012Y148183D01*
X-1170076Y150876D01*
X-1173480Y154482D01*
X-1176172Y159004D01*
X-1178204Y164338D01*
X-1179423Y170434D01*
X-1179830Y177241D01*
X-1179423Y184048D01*
X-1178153Y190093D01*
X-1176121Y195427D01*
X-1173327Y199898D01*
X-1169873Y203454D01*
X-1165809Y206044D01*
X-1161135Y207670D01*
X-1155954Y208229D01*
X-1151280Y207721D01*
X-1147165Y206298D01*
X-1143558Y204063D01*
X-1140460Y201117D01*
X-1135634Y206451D01*
X-1139342Y209905D01*
X-1144016Y212852D01*
X-1149553Y214833D01*
G37*
G36*
X-990650Y-1871268D02*
G01*
X-999845Y-1872742D01*
X-1007160Y-1876755D01*
X-1012037Y-1882851D01*
X-1013764Y-1890572D01*
X-1012342Y-1897735D01*
X-1008735Y-1903069D01*
X-1003808Y-1906930D01*
X-998524Y-1909622D01*
X-982878Y-1916785D01*
X-978865Y-1919427D01*
X-976172Y-1923034D01*
X-975156Y-1928215D01*
X-976274Y-1933397D01*
X-979474Y-1937410D01*
X-984605Y-1940001D01*
X-991412Y-1940915D01*
X-997254Y-1940255D01*
X-1002792Y-1938375D01*
X-1007871Y-1935429D01*
X-1012240Y-1931466D01*
X-1017320Y-1937308D01*
X-1012088Y-1941830D01*
X-1005992Y-1945284D01*
X-999083Y-1947468D01*
X-991412Y-1948230D01*
X-985977Y-1947824D01*
X-981100Y-1946656D01*
X-976833Y-1944725D01*
X-973277Y-1942236D01*
X-970381Y-1939137D01*
X-968298Y-1935632D01*
X-966978Y-1931670D01*
X-966520Y-1927402D01*
X-967740Y-1920239D01*
X-971042Y-1914855D01*
X-975969Y-1910791D01*
X-982014Y-1907590D01*
X-997102Y-1901037D01*
X-1001115Y-1898446D01*
X-1004011Y-1894992D01*
X-1005128Y-1890115D01*
X-1004112Y-1885289D01*
X-1001166Y-1881733D01*
X-996594Y-1879447D01*
X-990650Y-1878634D01*
X-985672Y-1879142D01*
X-981202Y-1880616D01*
X-977239Y-1882851D01*
X-973632Y-1885746D01*
X-969060Y-1880412D01*
X-973328Y-1876755D01*
X-978458Y-1873859D01*
X-984250Y-1871980D01*
G37*
G36*
X-960932Y-1872538D02*
G01*
X-960932Y-1879650D01*
X-938326Y-1879650D01*
X-938326Y-1946960D01*
X-929944Y-1946960D01*
X-929944Y-1879650D01*
X-907084Y-1879650D01*
X-907084Y-1872538D01*
G37*
G36*
X-1073962Y-1872538D02*
G01*
X-1073962Y-1879396D01*
X-1052626Y-1879396D01*
X-1044702Y-1880158D01*
X-1038910Y-1882444D01*
X-1035303Y-1886712D01*
X-1034084Y-1893112D01*
X-1035303Y-1899716D01*
X-1038910Y-1904288D01*
X-1044702Y-1906981D01*
X-1052626Y-1907844D01*
X-1065580Y-1907844D01*
X-1065580Y-1879396D01*
X-1073962Y-1879396D01*
X-1073962Y-1946960D01*
X-1065580Y-1946960D01*
X-1065580Y-1915007D01*
X-1051610Y-1915007D01*
X-1033068Y-1946960D01*
X-1023670Y-1946960D01*
X-1042720Y-1913940D01*
X-1035659Y-1911400D01*
X-1030173Y-1907082D01*
X-1026718Y-1900986D01*
X-1025448Y-1893112D01*
X-1025956Y-1887880D01*
X-1027379Y-1883511D01*
X-1029665Y-1879955D01*
X-1032713Y-1877161D01*
X-1036472Y-1875078D01*
X-1040892Y-1873656D01*
X-1045870Y-1872843D01*
X-1051356Y-1872538D01*
G37*
G36*
X3543554Y-3194659D02*
G01*
X3534562Y-3195066D01*
X3526790Y-3196234D01*
X3520236Y-3198114D01*
X3514902Y-3200704D01*
X3510737Y-3203956D01*
X3507790Y-3207816D01*
X3506063Y-3212287D01*
X3505454Y-3217265D01*
X3512058Y-3217265D01*
X3512565Y-3214065D01*
X3513937Y-3211220D01*
X3516325Y-3208680D01*
X3519728Y-3206546D01*
X3524097Y-3204870D01*
X3529533Y-3203600D01*
X3536035Y-3202787D01*
X3543554Y-3202533D01*
X3551377Y-3202787D01*
X3558032Y-3203600D01*
X3563620Y-3204870D01*
X3568090Y-3206546D01*
X3571494Y-3208680D01*
X3573932Y-3211220D01*
X3575354Y-3214065D01*
X3575812Y-3217265D01*
X3575354Y-3220466D01*
X3573932Y-3223310D01*
X3571494Y-3225850D01*
X3568090Y-3227984D01*
X3563620Y-3229660D01*
X3558032Y-3230930D01*
X3551377Y-3231743D01*
X3543554Y-3231997D01*
X3536035Y-3231743D01*
X3529533Y-3230930D01*
X3524097Y-3229660D01*
X3519728Y-3227984D01*
X3516325Y-3225850D01*
X3513937Y-3223310D01*
X3512565Y-3220466D01*
X3512058Y-3217265D01*
X3505454Y-3217265D01*
X3506063Y-3222244D01*
X3507790Y-3226714D01*
X3510737Y-3230626D01*
X3514902Y-3233928D01*
X3520236Y-3236569D01*
X3526790Y-3238500D01*
X3534562Y-3239719D01*
X3543554Y-3240125D01*
X3552748Y-3239719D01*
X3560673Y-3238500D01*
X3567379Y-3236569D01*
X3572814Y-3233928D01*
X3577031Y-3230626D01*
X3580028Y-3226714D01*
X3581857Y-3222244D01*
X3582415Y-3217265D01*
X3581857Y-3212287D01*
X3580028Y-3207816D01*
X3577031Y-3203956D01*
X3572814Y-3200704D01*
X3567379Y-3198114D01*
X3560673Y-3196234D01*
X3552748Y-3195066D01*
G37*
G36*
X3574287Y-3251809D02*
G01*
X3574287Y-3267049D01*
X3506724Y-3267049D01*
X3506724Y-3273399D01*
X3508349Y-3276447D01*
X3509772Y-3279952D01*
X3510940Y-3283915D01*
X3511804Y-3288385D01*
X3517137Y-3288385D01*
X3517137Y-3275177D01*
X3574287Y-3275177D01*
X3574287Y-3291941D01*
X3581146Y-3291941D01*
X3581146Y-3251809D01*
G37*
G36*
X3571748Y-3304641D02*
G01*
X3566414Y-3309467D01*
X3570122Y-3313226D01*
X3572865Y-3317290D01*
X3574491Y-3321812D01*
X3575050Y-3326993D01*
X3574491Y-3332175D01*
X3572865Y-3336798D01*
X3570224Y-3340811D01*
X3566566Y-3344214D01*
X3562096Y-3346958D01*
X3556762Y-3348939D01*
X3550615Y-3350209D01*
X3543808Y-3350615D01*
X3537000Y-3350158D01*
X3530955Y-3348939D01*
X3525621Y-3346856D01*
X3521201Y-3344113D01*
X3517595Y-3340658D01*
X3515004Y-3336594D01*
X3513378Y-3331921D01*
X3512820Y-3326739D01*
X3513328Y-3322065D01*
X3514750Y-3317951D01*
X3517036Y-3314344D01*
X3519932Y-3311245D01*
X3514598Y-3306419D01*
X3511143Y-3310128D01*
X3508248Y-3314750D01*
X3506215Y-3320287D01*
X3505454Y-3326739D01*
X3506165Y-3333546D01*
X3508146Y-3339744D01*
X3511397Y-3345281D01*
X3515817Y-3350056D01*
X3521354Y-3353917D01*
X3527958Y-3356813D01*
X3535578Y-3358642D01*
X3544062Y-3359251D01*
X3552596Y-3358642D01*
X3560165Y-3356864D01*
X3566718Y-3354019D01*
X3572205Y-3350209D01*
X3576574Y-3345535D01*
X3579774Y-3340049D01*
X3581755Y-3333953D01*
X3582415Y-3327247D01*
X3581704Y-3320440D01*
X3579672Y-3314496D01*
X3576320Y-3309264D01*
G37*
G36*
X3569157Y-2157882D02*
G01*
X3569208Y-2182215D01*
X3569563Y-2188464D01*
X3569919Y-2191410D01*
X3563518Y-2184958D01*
X3557320Y-2179116D01*
X3551224Y-2174036D01*
X3545281Y-2169668D01*
X3539439Y-2166162D01*
X3533698Y-2163622D01*
X3528060Y-2161997D01*
X3522421Y-2161438D01*
X3517696Y-2161844D01*
X3513429Y-2162911D01*
X3509670Y-2164740D01*
X3506520Y-2167178D01*
X3503980Y-2170226D01*
X3502101Y-2173884D01*
X3500932Y-2178100D01*
X3500577Y-2182774D01*
X3501339Y-2189327D01*
X3503523Y-2194915D01*
X3506978Y-2199843D01*
X3511499Y-2204364D01*
X3516071Y-2199538D01*
X3512667Y-2196134D01*
X3509924Y-2192324D01*
X3508095Y-2188210D01*
X3507435Y-2183790D01*
X3508603Y-2177491D01*
X3511804Y-2173071D01*
X3516629Y-2170430D01*
X3522675Y-2169566D01*
X3527602Y-2170074D01*
X3532835Y-2171598D01*
X3538270Y-2174189D01*
X3544112Y-2177846D01*
X3550259Y-2182622D01*
X3556863Y-2188565D01*
X3563874Y-2195626D01*
X3571443Y-2203856D01*
X3576269Y-2203856D01*
X3576269Y-2157882D01*
G37*
G36*
X3566871Y-2212238D02*
G01*
X3561791Y-2217064D01*
X3565347Y-2220823D01*
X3567988Y-2224887D01*
X3569614Y-2229459D01*
X3570173Y-2234590D01*
X3569614Y-2239772D01*
X3567988Y-2244394D01*
X3565347Y-2248458D01*
X3561791Y-2251862D01*
X3557270Y-2254554D01*
X3551936Y-2256586D01*
X3545789Y-2257806D01*
X3538931Y-2258212D01*
X3532124Y-2257806D01*
X3526028Y-2256536D01*
X3520744Y-2254504D01*
X3516274Y-2251710D01*
X3512718Y-2248255D01*
X3510076Y-2244191D01*
X3508451Y-2239518D01*
X3507943Y-2234336D01*
X3508451Y-2229662D01*
X3509975Y-2225548D01*
X3512210Y-2221941D01*
X3515055Y-2218842D01*
X3509721Y-2214016D01*
X3506215Y-2217724D01*
X3503320Y-2222398D01*
X3501288Y-2227935D01*
X3500577Y-2234336D01*
X3501237Y-2241143D01*
X3503218Y-2247341D01*
X3506470Y-2252878D01*
X3510889Y-2257653D01*
X3516477Y-2261514D01*
X3523081Y-2264410D01*
X3530650Y-2266238D01*
X3539185Y-2266848D01*
X3547719Y-2266238D01*
X3555339Y-2264460D01*
X3561892Y-2261616D01*
X3567379Y-2257806D01*
X3571748Y-2253132D01*
X3574897Y-2247696D01*
X3576878Y-2241550D01*
X3577539Y-2234844D01*
X3576828Y-2228088D01*
X3574745Y-2222144D01*
X3571392Y-2216912D01*
G37*
G36*
X3557066Y-2865678D02*
G01*
X3551326Y-2866136D01*
X3546398Y-2867406D01*
X3542334Y-2869438D01*
X3539083Y-2872130D01*
X3536594Y-2875432D01*
X3534816Y-2879191D01*
X3533800Y-2883306D01*
X3533444Y-2887776D01*
X3533648Y-2891129D01*
X3534206Y-2894076D01*
X3535172Y-2896819D01*
X3536492Y-2899460D01*
X3513886Y-2897428D01*
X3513886Y-2869234D01*
X3506774Y-2869234D01*
X3506774Y-2904794D01*
X3541318Y-2907080D01*
X3544112Y-2902508D01*
X3542284Y-2899410D01*
X3540912Y-2896412D01*
X3540099Y-2893314D01*
X3539794Y-2889808D01*
X3541014Y-2883204D01*
X3544468Y-2878175D01*
X3550005Y-2874924D01*
X3557320Y-2873806D01*
X3564890Y-2875127D01*
X3570681Y-2878734D01*
X3574338Y-2883966D01*
X3575608Y-2890316D01*
X3574897Y-2896362D01*
X3573068Y-2901289D01*
X3570376Y-2905353D01*
X3567226Y-2908858D01*
X3572560Y-2912922D01*
X3576269Y-2908858D01*
X3579418Y-2903778D01*
X3581654Y-2897428D01*
X3582466Y-2889554D01*
X3582060Y-2885033D01*
X3580790Y-2880664D01*
X3578707Y-2876651D01*
X3575862Y-2873044D01*
X3572256Y-2869996D01*
X3567887Y-2867660D01*
X3562858Y-2866186D01*
G37*
G36*
X3571798Y-2919526D02*
G01*
X3566464Y-2924352D01*
X3570173Y-2928112D01*
X3572865Y-2932226D01*
X3574542Y-2936798D01*
X3575100Y-2941878D01*
X3574542Y-2947111D01*
X3572916Y-2951835D01*
X3570274Y-2955899D01*
X3566617Y-2959303D01*
X3562146Y-2962097D01*
X3556812Y-2964078D01*
X3550665Y-2965297D01*
X3543858Y-2965754D01*
X3537051Y-2965297D01*
X3531006Y-2964027D01*
X3525672Y-2961944D01*
X3521252Y-2959100D01*
X3517646Y-2955594D01*
X3515055Y-2951480D01*
X3513429Y-2946806D01*
X3512870Y-2941624D01*
X3513378Y-2936951D01*
X3514801Y-2932836D01*
X3517087Y-2929229D01*
X3519982Y-2926130D01*
X3514648Y-2921558D01*
X3511194Y-2925165D01*
X3508298Y-2929788D01*
X3506266Y-2935274D01*
X3505504Y-2941624D01*
X3506215Y-2948432D01*
X3508197Y-2954680D01*
X3511448Y-2960217D01*
X3515868Y-2965043D01*
X3521405Y-2968955D01*
X3528009Y-2971901D01*
X3535629Y-2973730D01*
X3544112Y-2974390D01*
X3552647Y-2973730D01*
X3560165Y-2971952D01*
X3566769Y-2969056D01*
X3572256Y-2965246D01*
X3576624Y-2960522D01*
X3579825Y-2955086D01*
X3581806Y-2948990D01*
X3582466Y-2942386D01*
X3581755Y-2935528D01*
X3579723Y-2929534D01*
X3576370Y-2924200D01*
G37*
G36*
X3553764Y-3897629D02*
G01*
X3553764Y-3907790D01*
X3506774Y-3907790D01*
X3506774Y-3914901D01*
X3516426Y-3914901D01*
X3523132Y-3915460D01*
X3529634Y-3915664D01*
X3553764Y-3915664D01*
X3553764Y-3939286D01*
X3527348Y-3921506D01*
X3516426Y-3915410D01*
X3516426Y-3914901D01*
X3506774Y-3914901D01*
X3506774Y-3916679D01*
X3555034Y-3948176D01*
X3560368Y-3948176D01*
X3560368Y-3915664D01*
X3581196Y-3915664D01*
X3581196Y-3907790D01*
X3560368Y-3907790D01*
X3560368Y-3897629D01*
G37*
G36*
X3574338Y-3956812D02*
G01*
X3574338Y-3972051D01*
X3506774Y-3972051D01*
X3506774Y-3978401D01*
X3508400Y-3981450D01*
X3509772Y-3984955D01*
X3510940Y-3988917D01*
X3511854Y-3993387D01*
X3517188Y-3993387D01*
X3517188Y-3980179D01*
X3574338Y-3980179D01*
X3574338Y-3996944D01*
X3581196Y-3996944D01*
X3581196Y-3956812D01*
G37*
G36*
X3571798Y-4009644D02*
G01*
X3566464Y-4014470D01*
X3570173Y-4018178D01*
X3572865Y-4022293D01*
X3574542Y-4026814D01*
X3575100Y-4031996D01*
X3574542Y-4037177D01*
X3572916Y-4041800D01*
X3570224Y-4045813D01*
X3566617Y-4049217D01*
X3562096Y-4051960D01*
X3556762Y-4053941D01*
X3550665Y-4055211D01*
X3543858Y-4055618D01*
X3537051Y-4055160D01*
X3530955Y-4053941D01*
X3525672Y-4051858D01*
X3521201Y-4049115D01*
X3517646Y-4045661D01*
X3515055Y-4041597D01*
X3513429Y-4036923D01*
X3512870Y-4031742D01*
X3513378Y-4027068D01*
X3514801Y-4022953D01*
X3517036Y-4019346D01*
X3519982Y-4016248D01*
X3514648Y-4011422D01*
X3511194Y-4015130D01*
X3508248Y-4019753D01*
X3506266Y-4025290D01*
X3505504Y-4031742D01*
X3506165Y-4038549D01*
X3508197Y-4044746D01*
X3511397Y-4050284D01*
X3515868Y-4055059D01*
X3521405Y-4058920D01*
X3528009Y-4061815D01*
X3535578Y-4063644D01*
X3544112Y-4064254D01*
X3552596Y-4063644D01*
X3560165Y-4061866D01*
X3566718Y-4059021D01*
X3572256Y-4055211D01*
X3576624Y-4050537D01*
X3579825Y-4045051D01*
X3581806Y-4038955D01*
X3582466Y-4032250D01*
X3581755Y-4025442D01*
X3579723Y-4019499D01*
X3576370Y-4014266D01*
G37*
G36*
X3551428Y-1803400D02*
G01*
X3551428Y-1813560D01*
X3504437Y-1813560D01*
X3504437Y-1820672D01*
X3514090Y-1820672D01*
X3527298Y-1821434D01*
X3551428Y-1821434D01*
X3551428Y-1845056D01*
X3524758Y-1827022D01*
X3514090Y-1821180D01*
X3514090Y-1820672D01*
X3504437Y-1820672D01*
X3504437Y-1822450D01*
X3552698Y-1853946D01*
X3558032Y-1853946D01*
X3558032Y-1821434D01*
X3578860Y-1821434D01*
X3578860Y-1813560D01*
X3558032Y-1813560D01*
X3558032Y-1803400D01*
G37*
G36*
X3569462Y-1859534D02*
G01*
X3564128Y-1864360D01*
X3567836Y-1868119D01*
X3570528Y-1872234D01*
X3572205Y-1876806D01*
X3572764Y-1881886D01*
X3572205Y-1887118D01*
X3570528Y-1891842D01*
X3567887Y-1895906D01*
X3564280Y-1899361D01*
X3559759Y-1902104D01*
X3554425Y-1904085D01*
X3548329Y-1905304D01*
X3541522Y-1905762D01*
X3534613Y-1905304D01*
X3528517Y-1904034D01*
X3523234Y-1901952D01*
X3518763Y-1899107D01*
X3515207Y-1895602D01*
X3512667Y-1891487D01*
X3511042Y-1886813D01*
X3510534Y-1881632D01*
X3511042Y-1876958D01*
X3512464Y-1872843D01*
X3514699Y-1869236D01*
X3517646Y-1866138D01*
X3512058Y-1861566D01*
X3508705Y-1865172D01*
X3505860Y-1869795D01*
X3503879Y-1875332D01*
X3503168Y-1881632D01*
X3503828Y-1888439D01*
X3505809Y-1894687D01*
X3509010Y-1900224D01*
X3513378Y-1905050D01*
X3518865Y-1908962D01*
X3525418Y-1911908D01*
X3532987Y-1913737D01*
X3541522Y-1914398D01*
X3550107Y-1913737D01*
X3557727Y-1911959D01*
X3564331Y-1909064D01*
X3569868Y-1905254D01*
X3574237Y-1900529D01*
X3577488Y-1895093D01*
X3579418Y-1888998D01*
X3580129Y-1882393D01*
X3579418Y-1875586D01*
X3577336Y-1869541D01*
X3573983Y-1864207D01*
G37*
G36*
X-974140Y-1035558D02*
G01*
X-974140Y-1042669D01*
X-937564Y-1042669D01*
X-941069Y-1047699D01*
X-944168Y-1052677D01*
X-946912Y-1057706D01*
X-949299Y-1062736D01*
X-951382Y-1067917D01*
X-953160Y-1073150D01*
X-954684Y-1078585D01*
X-956919Y-1090218D01*
X-958240Y-1103020D01*
X-958646Y-1109980D01*
X-950010Y-1109980D01*
X-949198Y-1096365D01*
X-947674Y-1084122D01*
X-946556Y-1078433D01*
X-945184Y-1072896D01*
X-943406Y-1067511D01*
X-941273Y-1062228D01*
X-938682Y-1056944D01*
X-935634Y-1051610D01*
X-932078Y-1046175D01*
X-927912Y-1040637D01*
X-927912Y-1035558D01*
G37*
G36*
X-1032306Y-1035558D02*
G01*
X-1032306Y-1042416D01*
X-1010970Y-1042416D01*
X-1003046Y-1043127D01*
X-997254Y-1045464D01*
X-993648Y-1049680D01*
X-992428Y-1056132D01*
X-993648Y-1062685D01*
X-997254Y-1067308D01*
X-1003046Y-1069949D01*
X-1010970Y-1070864D01*
X-1023924Y-1070864D01*
X-1023924Y-1042416D01*
X-1032306Y-1042416D01*
X-1032306Y-1109980D01*
X-1023924Y-1109980D01*
X-1023924Y-1077976D01*
X-1009954Y-1077976D01*
X-991412Y-1109980D01*
X-982014Y-1109980D01*
X-1001064Y-1076960D01*
X-994003Y-1074369D01*
X-988517Y-1070051D01*
X-985062Y-1063955D01*
X-983792Y-1056132D01*
X-984300Y-1050848D01*
X-985723Y-1046480D01*
X-988009Y-1042924D01*
X-991057Y-1040130D01*
X-994816Y-1038047D01*
X-999236Y-1036624D01*
X-1004214Y-1035812D01*
X-1009700Y-1035558D01*
G37*
G36*
X-440842Y-414375D02*
G01*
X-445058Y-414832D01*
X-448919Y-416102D01*
X-452475Y-418185D01*
X-455574Y-420979D01*
X-458114Y-424434D01*
X-460044Y-428498D01*
X-461264Y-433120D01*
X-461670Y-438251D01*
X-453796Y-438251D01*
X-452831Y-431292D01*
X-450088Y-425805D01*
X-445973Y-422249D01*
X-440842Y-420979D01*
X-434085Y-422554D01*
X-428955Y-427278D01*
X-425602Y-434898D01*
X-424078Y-445363D01*
X-427939Y-449935D01*
X-432003Y-453135D01*
X-436118Y-454914D01*
X-440080Y-455523D01*
X-446074Y-454304D01*
X-450392Y-450799D01*
X-452932Y-445363D01*
X-453796Y-438251D01*
X-461670Y-438251D01*
X-461314Y-443687D01*
X-460248Y-448462D01*
X-458520Y-452475D01*
X-456184Y-455726D01*
X-453288Y-458317D01*
X-449783Y-460146D01*
X-445820Y-461264D01*
X-441350Y-461619D01*
X-436626Y-460959D01*
X-432054Y-459130D01*
X-427735Y-456133D01*
X-423824Y-452221D01*
X-424484Y-460552D01*
X-425805Y-467461D01*
X-427685Y-473049D01*
X-430072Y-477418D01*
X-432866Y-480618D01*
X-436067Y-482854D01*
X-439521Y-484073D01*
X-443128Y-484479D01*
X-446684Y-484124D01*
X-450037Y-483006D01*
X-453034Y-481177D01*
X-455574Y-478637D01*
X-460400Y-483971D01*
X-457047Y-486968D01*
X-453085Y-489254D01*
X-448360Y-490778D01*
X-442874Y-491337D01*
X-437743Y-490778D01*
X-432816Y-489102D01*
X-428294Y-486105D01*
X-424332Y-481838D01*
X-420979Y-476097D01*
X-418439Y-468833D01*
X-416814Y-459993D01*
X-416204Y-449427D01*
X-416712Y-441198D01*
X-418033Y-434085D01*
X-420217Y-428091D01*
X-423113Y-423164D01*
X-426720Y-419303D01*
X-430885Y-416559D01*
X-435660Y-414934D01*
G37*
G36*
X-519582Y-415645D02*
G01*
X-519582Y-422503D01*
X-498246Y-422503D01*
X-490321Y-423214D01*
X-484530Y-425551D01*
X-480923Y-429768D01*
X-479704Y-436219D01*
X-480923Y-442823D01*
X-484530Y-447395D01*
X-490321Y-450088D01*
X-498246Y-450951D01*
X-511200Y-450951D01*
X-511200Y-422503D01*
X-519582Y-422503D01*
X-519582Y-490067D01*
X-511200Y-490067D01*
X-511200Y-458063D01*
X-497230Y-458063D01*
X-478688Y-490067D01*
X-469290Y-490067D01*
X-488340Y-457047D01*
X-481279Y-454456D01*
X-475792Y-450138D01*
X-472338Y-444093D01*
X-471068Y-436219D01*
X-471576Y-430987D01*
X-472998Y-426567D01*
X-475284Y-423011D01*
X-478332Y-420217D01*
X-482092Y-418134D01*
X-486511Y-416712D01*
X-491490Y-415899D01*
X-496976Y-415645D01*
G37*
G36*
X3540506Y-3565093D02*
G01*
X3532276Y-3565601D01*
X3525164Y-3566972D01*
X3519170Y-3569157D01*
X3514242Y-3572103D01*
X3510381Y-3575710D01*
X3507638Y-3579876D01*
X3506012Y-3584600D01*
X3505454Y-3589731D01*
X3512058Y-3589731D01*
X3513683Y-3582974D01*
X3518357Y-3577945D01*
X3525977Y-3574592D01*
X3536442Y-3572967D01*
X3541014Y-3576929D01*
X3544214Y-3580993D01*
X3546043Y-3585057D01*
X3546601Y-3588969D01*
X3545382Y-3595115D01*
X3541877Y-3599383D01*
X3536442Y-3601872D01*
X3529329Y-3602685D01*
X3522370Y-3601720D01*
X3516884Y-3598976D01*
X3513328Y-3594862D01*
X3512058Y-3589731D01*
X3505454Y-3589731D01*
X3505911Y-3593947D01*
X3507181Y-3597808D01*
X3509264Y-3601364D01*
X3512058Y-3604463D01*
X3515512Y-3607003D01*
X3519627Y-3608933D01*
X3524250Y-3610152D01*
X3529329Y-3610559D01*
X3534765Y-3610203D01*
X3539540Y-3609136D01*
X3543554Y-3607409D01*
X3546856Y-3605072D01*
X3549396Y-3602177D01*
X3551224Y-3598672D01*
X3552342Y-3594709D01*
X3552698Y-3590239D01*
X3552037Y-3585514D01*
X3550208Y-3580942D01*
X3547262Y-3576726D01*
X3543300Y-3572967D01*
X3551631Y-3573526D01*
X3558540Y-3574796D01*
X3564128Y-3576624D01*
X3568496Y-3578961D01*
X3571697Y-3581806D01*
X3573932Y-3584956D01*
X3575151Y-3588410D01*
X3575558Y-3592017D01*
X3575202Y-3595573D01*
X3574084Y-3598926D01*
X3572256Y-3601923D01*
X3569715Y-3604463D01*
X3575050Y-3609289D01*
X3578047Y-3605936D01*
X3580384Y-3601974D01*
X3581857Y-3597249D01*
X3582415Y-3591763D01*
X3581857Y-3586683D01*
X3580180Y-3581806D01*
X3577183Y-3577336D01*
X3572916Y-3573322D01*
X3567176Y-3569919D01*
X3559911Y-3567328D01*
X3551072Y-3565702D01*
G37*
G36*
X3571748Y-3618941D02*
G01*
X3566414Y-3623767D01*
X3570122Y-3627526D01*
X3572814Y-3631590D01*
X3574491Y-3636162D01*
X3575050Y-3641293D01*
X3574491Y-3646474D01*
X3572865Y-3651097D01*
X3570173Y-3655161D01*
X3566566Y-3658565D01*
X3562096Y-3661257D01*
X3556711Y-3663289D01*
X3550615Y-3664508D01*
X3543808Y-3664915D01*
X3537000Y-3664508D01*
X3530955Y-3663238D01*
X3525621Y-3661206D01*
X3521201Y-3658412D01*
X3517595Y-3654958D01*
X3515004Y-3650894D01*
X3513378Y-3646220D01*
X3512820Y-3641039D01*
X3513328Y-3636365D01*
X3514750Y-3632250D01*
X3516985Y-3628644D01*
X3519932Y-3625545D01*
X3514598Y-3620719D01*
X3511143Y-3624427D01*
X3508248Y-3629101D01*
X3506215Y-3634638D01*
X3505454Y-3641039D01*
X3506165Y-3647846D01*
X3508146Y-3654044D01*
X3511397Y-3659581D01*
X3515817Y-3664356D01*
X3521354Y-3668217D01*
X3527958Y-3671112D01*
X3535578Y-3672941D01*
X3544062Y-3673551D01*
X3552596Y-3672941D01*
X3560114Y-3671163D01*
X3566718Y-3668318D01*
X3572205Y-3664508D01*
X3576574Y-3659835D01*
X3579774Y-3654399D01*
X3581755Y-3648252D01*
X3582415Y-3641547D01*
X3581704Y-3634790D01*
X3579672Y-3628847D01*
X3576320Y-3623614D01*
G37*
G36*
X3563416Y-2514041D02*
G01*
X3556609Y-2515108D01*
X3551275Y-2517902D01*
X3547110Y-2521966D01*
X3543858Y-2526741D01*
X3543350Y-2526741D01*
X3540251Y-2523337D01*
X3536086Y-2520035D01*
X3531006Y-2517546D01*
X3525316Y-2516581D01*
X3517442Y-2517952D01*
X3511296Y-2521966D01*
X3507232Y-2528366D01*
X3505758Y-2536901D01*
X3512108Y-2536901D01*
X3513175Y-2531364D01*
X3516122Y-2527300D01*
X3520490Y-2524810D01*
X3525824Y-2523947D01*
X3529990Y-2524455D01*
X3533952Y-2526030D01*
X3537661Y-2528570D01*
X3541064Y-2532075D01*
X3538423Y-2538425D01*
X3536081Y-2542235D01*
X3544620Y-2542235D01*
X3547872Y-2534564D01*
X3551631Y-2528062D01*
X3556508Y-2523591D01*
X3563162Y-2521915D01*
X3568446Y-2522982D01*
X3572662Y-2526080D01*
X3575405Y-2530805D01*
X3576370Y-2536901D01*
X3575304Y-2543403D01*
X3572306Y-2548534D01*
X3567836Y-2551938D01*
X3562146Y-2553157D01*
X3556914Y-2552344D01*
X3552190Y-2550058D01*
X3548075Y-2546604D01*
X3544620Y-2542235D01*
X3536081Y-2542235D01*
X3535019Y-2543962D01*
X3530549Y-2547874D01*
X3524554Y-2549347D01*
X3519525Y-2548382D01*
X3515614Y-2545791D01*
X3513023Y-2541828D01*
X3512108Y-2536901D01*
X3505758Y-2536901D01*
X3507130Y-2544876D01*
X3510991Y-2551226D01*
X3516934Y-2555443D01*
X3524554Y-2556967D01*
X3530041Y-2556154D01*
X3534714Y-2553868D01*
X3538524Y-2550668D01*
X3541572Y-2546807D01*
X3542080Y-2546807D01*
X3545433Y-2551836D01*
X3550005Y-2556256D01*
X3555796Y-2559354D01*
X3562654Y-2560523D01*
X3570579Y-2558745D01*
X3576878Y-2553868D01*
X3580993Y-2546502D01*
X3582466Y-2537155D01*
X3580993Y-2527757D01*
X3576980Y-2520442D01*
X3570935Y-2515717D01*
G37*
G36*
X3571798Y-2568905D02*
G01*
X3566464Y-2573731D01*
X3570173Y-2577490D01*
X3572916Y-2581554D01*
X3574542Y-2586075D01*
X3575100Y-2591257D01*
X3574542Y-2596438D01*
X3572916Y-2601061D01*
X3570274Y-2605074D01*
X3566668Y-2608478D01*
X3562146Y-2611221D01*
X3556812Y-2613202D01*
X3550665Y-2614472D01*
X3543858Y-2614879D01*
X3537102Y-2614422D01*
X3531006Y-2613202D01*
X3525723Y-2611120D01*
X3521252Y-2608376D01*
X3517696Y-2604922D01*
X3515055Y-2600858D01*
X3513429Y-2596184D01*
X3512870Y-2591003D01*
X3513378Y-2586329D01*
X3514851Y-2582214D01*
X3517087Y-2578608D01*
X3519982Y-2575509D01*
X3514648Y-2570683D01*
X3511194Y-2574391D01*
X3508298Y-2579014D01*
X3506266Y-2584602D01*
X3505504Y-2591003D01*
X3506215Y-2597810D01*
X3508197Y-2604008D01*
X3511448Y-2609545D01*
X3515868Y-2614320D01*
X3521405Y-2618181D01*
X3528009Y-2621076D01*
X3535629Y-2622905D01*
X3544112Y-2623515D01*
X3552647Y-2622905D01*
X3560216Y-2621127D01*
X3566769Y-2618282D01*
X3572256Y-2614472D01*
X3576624Y-2609799D01*
X3579876Y-2604312D01*
X3581806Y-2598216D01*
X3582466Y-2591511D01*
X3581806Y-2584704D01*
X3579723Y-2578760D01*
X3576370Y-2573528D01*
G37*
G36*
X1817116Y-634390D02*
G01*
X1811172Y-635050D01*
X1805838Y-636828D01*
X1801063Y-639521D01*
X1796796Y-643026D01*
X1801368Y-648360D01*
X1804670Y-645414D01*
X1808378Y-643077D01*
X1812442Y-641553D01*
X1816862Y-640994D01*
X1822297Y-641908D01*
X1826412Y-644448D01*
X1828952Y-648309D01*
X1829816Y-653186D01*
X1828749Y-659028D01*
X1825193Y-663702D01*
X1818792Y-666800D01*
X1808988Y-667918D01*
X1808988Y-674522D01*
X1819960Y-675640D01*
X1827275Y-678738D01*
X1831339Y-683514D01*
X1832610Y-689762D01*
X1831441Y-695909D01*
X1828190Y-700582D01*
X1823313Y-703478D01*
X1817116Y-704494D01*
X1811020Y-703783D01*
X1805990Y-701802D01*
X1801825Y-699058D01*
X1798320Y-695858D01*
X1794002Y-701192D01*
X1798066Y-704951D01*
X1803247Y-708202D01*
X1809699Y-710488D01*
X1817624Y-711352D01*
X1822348Y-710996D01*
X1826768Y-709930D01*
X1830730Y-708152D01*
X1834184Y-705764D01*
X1837029Y-702767D01*
X1839163Y-699160D01*
X1840534Y-694994D01*
X1840992Y-690270D01*
X1839722Y-683209D01*
X1836318Y-677621D01*
X1831238Y-673608D01*
X1824989Y-671220D01*
X1824989Y-670712D01*
X1830425Y-668020D01*
X1834692Y-664108D01*
X1837436Y-658977D01*
X1838452Y-652678D01*
X1836826Y-644906D01*
X1832356Y-639165D01*
X1825599Y-635609D01*
G37*
G36*
X1709420Y-634390D02*
G01*
X1702612Y-635050D01*
X1696364Y-637032D01*
X1690776Y-640232D01*
X1686001Y-644601D01*
X1682089Y-650138D01*
X1679143Y-656691D01*
X1677314Y-664260D01*
X1676654Y-672744D01*
X1677263Y-681329D01*
X1679092Y-688949D01*
X1681937Y-695553D01*
X1685798Y-701090D01*
X1690522Y-705510D01*
X1695957Y-708710D01*
X1702054Y-710692D01*
X1708657Y-711352D01*
X1715465Y-710641D01*
X1721510Y-708609D01*
X1726742Y-705256D01*
X1731264Y-700684D01*
X1726692Y-695350D01*
X1722932Y-699058D01*
X1718767Y-701751D01*
X1714246Y-703427D01*
X1709166Y-703986D01*
X1703933Y-703427D01*
X1699209Y-701802D01*
X1695145Y-699109D01*
X1691690Y-695502D01*
X1688947Y-690930D01*
X1686966Y-685546D01*
X1685696Y-679399D01*
X1685289Y-672490D01*
X1685747Y-665734D01*
X1687017Y-659638D01*
X1689100Y-654405D01*
X1691944Y-649986D01*
X1695450Y-646480D01*
X1699564Y-643890D01*
X1704238Y-642315D01*
X1709420Y-641756D01*
X1714093Y-642264D01*
X1718208Y-643686D01*
X1721815Y-645922D01*
X1724914Y-648868D01*
X1729486Y-643280D01*
X1725777Y-639978D01*
X1721154Y-637133D01*
X1715719Y-635152D01*
G37*
G36*
X1762760Y-635660D02*
G01*
X1759712Y-637235D01*
X1756206Y-638606D01*
X1747774Y-640740D01*
X1747774Y-646074D01*
X1760728Y-646074D01*
X1760728Y-702970D01*
X1744218Y-702970D01*
X1744218Y-710082D01*
X1784096Y-710082D01*
X1784096Y-702970D01*
X1769110Y-702970D01*
X1769110Y-635660D01*
G37*
G36*
X2917799Y-540512D02*
G01*
X2911805Y-541172D01*
X2906420Y-543052D01*
X2901594Y-545846D01*
X2897225Y-549402D01*
X2901797Y-554736D01*
X2905201Y-551738D01*
X2908960Y-549402D01*
X2913075Y-547878D01*
X2917545Y-547370D01*
X2922981Y-548233D01*
X2927045Y-550672D01*
X2929585Y-554532D01*
X2930499Y-559562D01*
X2929382Y-565353D01*
X2925876Y-570026D01*
X2919425Y-573125D01*
X2909620Y-574294D01*
X2909620Y-580898D01*
X2920644Y-581964D01*
X2927959Y-585063D01*
X2932023Y-589889D01*
X2933293Y-596138D01*
X2932074Y-602132D01*
X2928823Y-606704D01*
X2923844Y-609600D01*
X2917545Y-610616D01*
X2911602Y-609904D01*
X2906623Y-607974D01*
X2902356Y-605231D01*
X2898749Y-601980D01*
X2894634Y-607314D01*
X2898648Y-611124D01*
X2903778Y-614375D01*
X2910179Y-616610D01*
X2918002Y-617474D01*
X2922828Y-617067D01*
X2927248Y-616000D01*
X2931210Y-614273D01*
X2934665Y-611886D01*
X2937510Y-608838D01*
X2939592Y-605231D01*
X2940913Y-601065D01*
X2941370Y-596392D01*
X2940151Y-589381D01*
X2936748Y-583793D01*
X2931769Y-579729D01*
X2925673Y-577342D01*
X2925673Y-577088D01*
X2931058Y-574344D01*
X2935224Y-570433D01*
X2937916Y-565302D01*
X2938881Y-559054D01*
X2937256Y-551180D01*
X2932887Y-545388D01*
X2926232Y-541731D01*
G37*
G36*
X2865729Y-540512D02*
G01*
X2858922Y-541172D01*
X2852674Y-543153D01*
X2847136Y-546404D01*
X2842412Y-550824D01*
X2838500Y-556412D01*
X2835605Y-563016D01*
X2833827Y-570585D01*
X2833217Y-579120D01*
X2833827Y-587654D01*
X2835605Y-595274D01*
X2838450Y-601827D01*
X2842260Y-607314D01*
X2846933Y-611682D01*
X2852369Y-614832D01*
X2858516Y-616813D01*
X2865170Y-617474D01*
X2871978Y-616762D01*
X2877921Y-614680D01*
X2883154Y-611327D01*
X2887827Y-606806D01*
X2883001Y-601726D01*
X2879242Y-605282D01*
X2875178Y-607872D01*
X2870606Y-609549D01*
X2865475Y-610108D01*
X2860294Y-609549D01*
X2855671Y-607923D01*
X2851607Y-605282D01*
X2848203Y-601726D01*
X2845460Y-597204D01*
X2843479Y-591870D01*
X2842260Y-585724D01*
X2841802Y-578866D01*
X2842260Y-572058D01*
X2843530Y-565962D01*
X2845562Y-560679D01*
X2848356Y-556209D01*
X2851810Y-552653D01*
X2855874Y-550011D01*
X2860497Y-548386D01*
X2865729Y-547878D01*
X2870352Y-548386D01*
X2874518Y-549910D01*
X2878074Y-552145D01*
X2881223Y-554990D01*
X2886049Y-549656D01*
X2882290Y-546150D01*
X2877667Y-543255D01*
X2872130Y-541223D01*
G37*
G36*
X-1014831Y-2661361D02*
G01*
X-1021638Y-2662021D01*
X-1027836Y-2664053D01*
X-1033373Y-2667304D01*
X-1038148Y-2671724D01*
X-1042009Y-2677261D01*
X-1044905Y-2683865D01*
X-1046734Y-2691434D01*
X-1047343Y-2699969D01*
X-1046734Y-2708452D01*
X-1044956Y-2716022D01*
X-1042111Y-2722575D01*
X-1038301Y-2728112D01*
X-1033627Y-2732481D01*
X-1028141Y-2735681D01*
X-1022045Y-2737662D01*
X-1015339Y-2738323D01*
X-1008532Y-2737612D01*
X-1002588Y-2735580D01*
X-997356Y-2732227D01*
X-992733Y-2727655D01*
X-997559Y-2722321D01*
X-1001268Y-2726029D01*
X-1005382Y-2728722D01*
X-1009903Y-2730398D01*
X-1015085Y-2730957D01*
X-1020267Y-2730398D01*
X-1024890Y-2728772D01*
X-1028903Y-2726080D01*
X-1032306Y-2722473D01*
X-1035050Y-2717952D01*
X-1037031Y-2712618D01*
X-1038301Y-2706522D01*
X-1038707Y-2699715D01*
X-1038250Y-2692908D01*
X-1036980Y-2686812D01*
X-1034948Y-2681528D01*
X-1032205Y-2677058D01*
X-1028750Y-2673502D01*
X-1024686Y-2670911D01*
X-1020013Y-2669286D01*
X-1014831Y-2668727D01*
X-1010158Y-2669235D01*
X-1006043Y-2670657D01*
X-1002436Y-2672892D01*
X-999337Y-2675839D01*
X-994511Y-2670505D01*
X-998219Y-2667050D01*
X-1002842Y-2664104D01*
X-1008380Y-2662123D01*
G37*
G36*
X-961491Y-2662631D02*
G01*
X-964539Y-2664256D01*
X-968044Y-2665628D01*
X-972007Y-2666796D01*
X-976477Y-2667711D01*
X-976477Y-2673045D01*
X-963269Y-2673045D01*
X-963269Y-2730195D01*
X-980033Y-2730195D01*
X-980033Y-2737053D01*
X-939901Y-2737053D01*
X-939901Y-2730195D01*
X-955141Y-2730195D01*
X-955141Y-2662631D01*
G37*
G36*
X-859993Y-109982D02*
G01*
X-859993Y-129997D01*
X-700024Y-129997D01*
X-700024Y-109982D01*
G37*
G36*
X-789990Y-119989D02*
G01*
X-789990Y-179984D01*
X-770026Y-179984D01*
X-770026Y-119989D01*
G37*
G36*
X-244246Y-283006D02*
G01*
X-244246Y-313486D01*
X-214731Y-313486D01*
X-214731Y-283006D01*
G37*
G36*
X-85242Y-283006D02*
G01*
X-85242Y-313486D01*
X-55778Y-313486D01*
X-55778Y-283006D01*
G37*
G36*
X-1123492Y-515772D02*
G01*
X-1123492Y-545236D01*
X-1093012Y-545236D01*
X-1093012Y-515772D01*
G37*
G36*
X-1123492Y-674725D02*
G01*
X-1123492Y-704240D01*
X-1093012Y-704240D01*
X-1093012Y-674725D01*
G37*
G36*
X-1210005Y-109982D02*
G01*
X-1210005Y-129997D01*
X-1049985Y-129997D01*
X-1049985Y-109982D01*
G37*
G36*
X-1140002Y-119989D02*
G01*
X-1140002Y-179984D01*
X-1119987Y-179984D01*
X-1119987Y-119989D01*
G37*
D42*
X-610003Y-1190002D02*
G01*
X-610003Y-1269997D01*
X-589998Y-1269997D01*
X-620001Y-960000D02*
G01*
X-620001Y-879998D01*
X-600001Y-879998D01*
X84729Y-1454612D02*
G01*
X62885Y-1454711D01*
X40015Y-2360010D02*
G01*
X40010Y-2340010D01*
X30076Y-2359985D02*
G01*
X24234Y-2348301D01*
X19911Y-2339919D01*
X50012Y-2360010D02*
G01*
X60015Y-2340010D01*
D10*
X455998Y-443489D02*
G01*
X455998Y-524997D01*
X390009Y-524997D01*
X229989Y-524997D02*
G01*
X164000Y-524997D01*
X229989Y-524997D01*
X164000Y-524997D01*
X164000Y-443489D01*
D43*
X339996Y-370006D02*
G01*
X280001Y-370006D01*
D10*
X856000Y-453489D02*
G01*
X856000Y-534997D01*
X790011Y-534997D01*
X629991Y-534997D02*
G01*
X564001Y-534997D01*
X629991Y-534997D01*
X564001Y-534997D01*
X564001Y-453489D01*
D43*
X739998Y-380006D02*
G01*
X680003Y-380006D01*
D10*
X585000Y674999D02*
G01*
X585000Y304998D01*
X585000Y304998D02*
G01*
X1575000Y304998D01*
X1575000Y413799D01*
X1575300Y553499D02*
G01*
X1575300Y674999D01*
X1575000Y674999D01*
X585000Y674999D01*
X-1235036Y-4034993D02*
G01*
X-1235036Y-3524994D01*
X-725040Y-3524996D02*
G01*
X-725037Y-4034993D01*
X-1235036Y-4034993D02*
G01*
X-1223162Y-4034993D01*
X-1106931Y-4034993D02*
G01*
X-853145Y-4034993D01*
X-736914Y-4034993D02*
G01*
X-725037Y-4034993D01*
X-1235036Y-3524994D02*
G01*
X-1223162Y-3524994D01*
X-1106931Y-3524994D02*
G01*
X-853145Y-3524994D01*
X-736914Y-3524994D02*
G01*
X-725040Y-3524994D01*
X-1180038Y-3879994D02*
G01*
X-1180038Y-3679995D01*
X-1180038Y-3679995D01*
X-1080038Y-3579995D01*
X-880038Y-3579995D01*
X-780039Y-3679995D01*
X-780039Y-3879994D01*
X-880038Y-3979994D01*
X-1080038Y-3979994D01*
X-1080038Y-3979994D01*
X-1180038Y-3879994D01*
X-1080005Y-1465005D02*
G01*
X-900003Y-1465005D01*
X-1080005Y-1350007D02*
G01*
X-1080005Y-1270005D01*
X-1080005Y-1155004D02*
G01*
X-900003Y-1155004D01*
X475381Y982271D02*
G01*
X216301Y982271D01*
X190901Y956871D01*
X190901Y845111D01*
X168041Y822251D01*
X-19918Y822251D01*
X-55478Y857811D01*
X-55478Y951791D01*
X-78338Y974651D01*
X-303199Y974651D01*
X56281Y1106731D02*
G01*
X56281Y1043231D01*
X71521Y1027991D01*
X117241Y1027991D01*
X127401Y1017831D01*
X127401Y934011D01*
X117241Y923851D01*
X81681Y923851D01*
X61361Y903531D01*
X61361Y895911D01*
X61361Y822251D01*
X389359Y187251D02*
G01*
X330489Y187251D01*
X-154477Y187251D02*
G01*
X-209359Y187251D01*
X479262Y428876D02*
G01*
X479262Y621291D01*
X479262Y903881D02*
G01*
X479262Y1122250D01*
X-303199Y427936D02*
G01*
X-303199Y622231D01*
X-303199Y902942D02*
G01*
X-303199Y1122250D01*
X479262Y1122250D02*
G01*
X-303199Y1122250D01*
X-900000Y-50010D02*
G01*
X-900000Y109987D01*
X-660001Y-50010D02*
G01*
X-660001Y109987D01*
X-900000Y-230012D02*
G01*
X-900000Y-380011D01*
X-660001Y-230012D02*
G01*
X-660001Y-380011D01*
X-900000Y109987D02*
G01*
X-660001Y109987D01*
X-850000Y-420009D02*
G01*
X-710001Y-420011D01*
X-850000Y-420009D02*
G01*
X-860003Y-420009D01*
X-900000Y-380011D01*
X-710001Y-420011D02*
G01*
X-700001Y-420011D01*
X-660001Y-380011D01*
D44*
X-236618Y-290619D02*
G01*
X-236618Y-9380D01*
X-236618Y-9380D02*
G01*
X-219819Y-9380D01*
X-63380Y-290619D02*
G01*
X-63380Y-9380D01*
X-63380Y-9380D02*
G01*
X-80180Y-9380D01*
X-236618Y-254929D02*
G01*
X-63380Y-254929D01*
X-1100620Y-523382D02*
G01*
X-819381Y-523382D01*
X-819381Y-523382D02*
G01*
X-819381Y-540181D01*
X-1100620Y-696620D02*
G01*
X-819381Y-696620D01*
X-819381Y-696620D02*
G01*
X-819381Y-679820D01*
X-1064930Y-523382D02*
G01*
X-1064930Y-696620D01*
X885121Y-227909D02*
G01*
X1021113Y-227909D01*
X1021113Y-12090D01*
X885121Y-12090D01*
X694880Y-227909D02*
G01*
X558888Y-227909D01*
X558888Y-12090D01*
X694880Y-12090D01*
X154879Y-12090D02*
G01*
X18887Y-12090D01*
X18887Y-227909D01*
X154879Y-227909D01*
X345119Y-12090D02*
G01*
X481111Y-12090D01*
X481111Y-227909D01*
X345119Y-227909D01*
X-1085121Y-3122091D02*
G01*
X-1221112Y-3122091D01*
X-1221112Y-3337910D01*
X-1085121Y-3337910D01*
X-894880Y-3122091D02*
G01*
X-758888Y-3122091D01*
X-758888Y-3337910D01*
X-894880Y-3337910D01*
X2909879Y-1100361D02*
G01*
X3590122Y-1100361D01*
X3590122Y-1379639D01*
X2909879Y-1379639D01*
X2909879Y-1100361D01*
X-894880Y-1807911D02*
G01*
X-758888Y-1807911D01*
X-758888Y-1592092D01*
X-894880Y-1592092D01*
X-1085121Y-1807911D02*
G01*
X-1221112Y-1807911D01*
X-1221112Y-1592092D01*
X-1085121Y-1592092D01*
D10*
X-505005Y145003D02*
G01*
X-855002Y145003D01*
X-855004Y1054999D02*
G01*
X-505002Y1054999D01*
X-629201Y854001D02*
G01*
X-629201Y676201D01*
X-730801Y676201D01*
X-730801Y854001D01*
X-629201Y854001D01*
X-505005Y1054999D02*
G01*
X-505005Y967003D01*
X-505005Y740999D02*
G01*
X-505005Y713003D01*
X-505005Y486999D02*
G01*
X-505005Y459003D01*
X-505005Y232999D02*
G01*
X-505005Y145003D01*
X-855004Y145003D02*
G01*
X-855004Y232999D01*
X-855004Y459003D02*
G01*
X-855004Y486999D01*
X-855004Y713003D02*
G01*
X-855004Y740999D01*
X-855004Y967003D02*
G01*
X-855004Y1054999D01*
X-781601Y473001D02*
G01*
X-781601Y509978D01*
X-781601Y690024D02*
G01*
X-781601Y763978D01*
X-578401Y473001D02*
G01*
X-578401Y509978D01*
X-578401Y690024D02*
G01*
X-578401Y763978D01*
X-611032Y904801D02*
G01*
X-748969Y904801D01*
X-578401Y473001D02*
G01*
X-781601Y473001D01*
X1420004Y-609998D02*
G01*
X1420004Y-369999D01*
X1070005Y-369999D02*
G01*
X920005Y-369999D01*
X1070005Y-609998D02*
G01*
X920005Y-609998D01*
X1270005Y-369999D02*
G01*
X1420004Y-369999D01*
X1270005Y-609998D02*
G01*
X1420004Y-609998D01*
X920005Y-609998D02*
G01*
X920005Y-369999D01*
X1600001Y0D02*
G01*
X1600001Y-199999D01*
X1250000Y19999D02*
G01*
X1130000Y19999D01*
X1250000Y-219999D02*
G01*
X1130000Y-219999D01*
X1450002Y19999D02*
G01*
X1569999Y19999D01*
X1450002Y-219999D02*
G01*
X1569999Y-219999D01*
X1100000Y0D02*
G01*
X1100000Y-199999D01*
X1120000Y19999D02*
G01*
X1130000Y19999D01*
X1120000Y-219999D02*
G01*
X1130000Y-219999D01*
X1580001Y19999D02*
G01*
X1569999Y19999D01*
X1580001Y-219999D02*
G01*
X1569999Y-219999D01*
X-1010000Y299999D02*
G01*
X-1210000Y299999D01*
X-990000Y650001D02*
G01*
X-990000Y770001D01*
X-1230000Y650001D02*
G01*
X-1230000Y770001D01*
X-990000Y449999D02*
G01*
X-990000Y330001D01*
X-1230000Y449999D02*
G01*
X-1230000Y330001D01*
X-1010000Y800000D02*
G01*
X-1210000Y800000D01*
X-990000Y780000D02*
G01*
X-990000Y770001D01*
X-1230000Y780000D02*
G01*
X-1230000Y770001D01*
X-990000Y319999D02*
G01*
X-990000Y330001D01*
X-1230000Y319999D02*
G01*
X-1230000Y330001D01*
D45*
X-539094Y-3860500D02*
G01*
X-31094Y-3860500D01*
X-31094Y-812500D01*
X-539094Y-812500D01*
X-539094Y-3860500D01*
X2705021Y-814407D02*
G01*
X2197021Y-814407D01*
X2197021Y-3862407D01*
X2705021Y-3862407D01*
X2705021Y-814407D01*
D10*
X-1250000Y-50010D02*
G01*
X-1250000Y109987D01*
X-1010000Y-50010D02*
G01*
X-1010000Y109987D01*
X-1250000Y-230012D02*
G01*
X-1250000Y-380011D01*
X-1010000Y-230012D02*
G01*
X-1010000Y-380011D01*
X-1250000Y109987D02*
G01*
X-1010000Y109987D01*
X-1200000Y-420009D02*
G01*
X-1060000Y-420011D01*
X-1200000Y-420009D02*
G01*
X-1210002Y-420009D01*
X-1250000Y-380011D01*
X-1060000Y-420011D02*
G01*
X-1050000Y-420011D01*
X-1010000Y-380011D01*
X-1254998Y-2504998D02*
G01*
X-1254998Y-1994999D01*
X-745002Y-1995002D02*
G01*
X-744999Y-2504998D01*
X-1254998Y-2504998D02*
G01*
X-1243124Y-2504998D01*
X-1126893Y-2504998D02*
G01*
X-873107Y-2504998D01*
X-756876Y-2504998D02*
G01*
X-744999Y-2504998D01*
X-1254998Y-1994999D02*
G01*
X-1243124Y-1994999D01*
X-1126893Y-1994999D02*
G01*
X-873107Y-1994999D01*
X-756876Y-1994999D02*
G01*
X-745002Y-1994999D01*
X-1200000Y-2350000D02*
G01*
X-1200000Y-2150000D01*
X-1200000Y-2150000D01*
X-1100000Y-2050000D01*
X-900000Y-2050000D01*
X-800000Y-2150000D01*
X-800000Y-2350000D01*
X-900000Y-2450000D01*
X-1100000Y-2450000D01*
X-1100000Y-2450000D01*
X-1200000Y-2350000D01*
X2980006Y-3373330D02*
G01*
X2980006Y-3173331D01*
X3330008Y-3393330D02*
G01*
X3450008Y-3393330D01*
X3330008Y-3153331D02*
G01*
X3450008Y-3153331D01*
X3130006Y-3393330D02*
G01*
X3010009Y-3393330D01*
X3130006Y-3153331D02*
G01*
X3010009Y-3153331D01*
X3480008Y-3373330D02*
G01*
X3480008Y-3173331D01*
X3460008Y-3393330D02*
G01*
X3450008Y-3393330D01*
X3460008Y-3153331D02*
G01*
X3450008Y-3153331D01*
X3000006Y-3393330D02*
G01*
X3010009Y-3393330D01*
X3000006Y-3153331D02*
G01*
X3010009Y-3153331D01*
X2980006Y-2313332D02*
G01*
X2980006Y-2113333D01*
X3330008Y-2333332D02*
G01*
X3450008Y-2333332D01*
X3330008Y-2093333D02*
G01*
X3450008Y-2093333D01*
X3130006Y-2333332D02*
G01*
X3010009Y-2333332D01*
X3130006Y-2093333D02*
G01*
X3010009Y-2093333D01*
X3480008Y-2313332D02*
G01*
X3480008Y-2113333D01*
X3460008Y-2333332D02*
G01*
X3450008Y-2333332D01*
X3460008Y-2093333D02*
G01*
X3450008Y-2093333D01*
X3000006Y-2333332D02*
G01*
X3010009Y-2333332D01*
X3000006Y-2093333D02*
G01*
X3010009Y-2093333D01*
X2980006Y-3019996D02*
G01*
X2980006Y-2819996D01*
X3330008Y-3039996D02*
G01*
X3450008Y-3039996D01*
X3330008Y-2799996D02*
G01*
X3450008Y-2799996D01*
X3130006Y-3039996D02*
G01*
X3010009Y-3039996D01*
X3130006Y-2799996D02*
G01*
X3010009Y-2799996D01*
X3480008Y-3019996D02*
G01*
X3480008Y-2819996D01*
X3460008Y-3039996D02*
G01*
X3450008Y-3039996D01*
X3460008Y-2799996D02*
G01*
X3450008Y-2799996D01*
X3000006Y-3039996D02*
G01*
X3010009Y-3039996D01*
X3000006Y-2799996D02*
G01*
X3010009Y-2799996D01*
X2979999Y-4080001D02*
G01*
X2979999Y-3880002D01*
X3330000Y-4100001D02*
G01*
X3450000Y-4100001D01*
X3330000Y-3860002D02*
G01*
X3450000Y-3860002D01*
X3129998Y-4100001D02*
G01*
X3010001Y-4100001D01*
X3129998Y-3860002D02*
G01*
X3010001Y-3860002D01*
X3480000Y-4080001D02*
G01*
X3480000Y-3880002D01*
X3460000Y-4100001D02*
G01*
X3450000Y-4100001D01*
X3460000Y-3860002D02*
G01*
X3450000Y-3860002D01*
X2999999Y-4100001D02*
G01*
X3010001Y-4100001D01*
X2999999Y-3860002D02*
G01*
X3010001Y-3860002D01*
X3480000Y-1760001D02*
G01*
X3480000Y-1960001D01*
X3129998Y-1740001D02*
G01*
X3009999Y-1740001D01*
X3129998Y-1980001D02*
G01*
X3009999Y-1980001D01*
X3330000Y-1740001D02*
G01*
X3449998Y-1740001D01*
X3330000Y-1980001D02*
G01*
X3449998Y-1980001D01*
X2979999Y-1760001D02*
G01*
X2979999Y-1960001D01*
X2999999Y-1740001D02*
G01*
X3009999Y-1740001D01*
X2999999Y-1980001D02*
G01*
X3009999Y-1980001D01*
X3460000Y-1740001D02*
G01*
X3449998Y-1740001D01*
X3460000Y-1980001D02*
G01*
X3449998Y-1980001D01*
X-729995Y-1020000D02*
G01*
X-729995Y-780000D01*
X-1079995Y-780000D02*
G01*
X-1229994Y-780000D01*
X-1079995Y-1020000D02*
G01*
X-1229994Y-1020000D01*
X-879995Y-780000D02*
G01*
X-729995Y-780000D01*
X-879995Y-1020000D02*
G01*
X-729995Y-1020000D01*
X-1229994Y-1020000D02*
G01*
X-1229994Y-780000D01*
X-579998Y-390004D02*
G01*
X-339999Y-390004D01*
X-339999Y-40004D02*
G01*
X-339999Y109994D01*
X-579998Y-40004D02*
G01*
X-579998Y109994D01*
X-339999Y-240004D02*
G01*
X-339999Y-390004D01*
X-579998Y-240004D02*
G01*
X-579998Y-390004D01*
X-579998Y109994D02*
G01*
X-339999Y109994D01*
X2979999Y-3726667D02*
G01*
X2979999Y-3526668D01*
X3330000Y-3746667D02*
G01*
X3450000Y-3746667D01*
X3330000Y-3506668D02*
G01*
X3450000Y-3506668D01*
X3129998Y-3746667D02*
G01*
X3010001Y-3746667D01*
X3129998Y-3506668D02*
G01*
X3010001Y-3506668D01*
X3480000Y-3726667D02*
G01*
X3480000Y-3526668D01*
X3460000Y-3746667D02*
G01*
X3450000Y-3746667D01*
X3460000Y-3506668D02*
G01*
X3450000Y-3506668D01*
X2999999Y-3746667D02*
G01*
X3010001Y-3746667D01*
X2999999Y-3506668D02*
G01*
X3010001Y-3506668D01*
X2980006Y-2666664D02*
G01*
X2980006Y-2466665D01*
X3330008Y-2686664D02*
G01*
X3450008Y-2686664D01*
X3330008Y-2446665D02*
G01*
X3450008Y-2446665D01*
X3130006Y-2686664D02*
G01*
X3010009Y-2686664D01*
X3130006Y-2446665D02*
G01*
X3010009Y-2446665D01*
X3480008Y-2666664D02*
G01*
X3480008Y-2466665D01*
X3460008Y-2686664D02*
G01*
X3450008Y-2686664D01*
X3460008Y-2446665D02*
G01*
X3450008Y-2446665D01*
X3000006Y-2686664D02*
G01*
X3010009Y-2686664D01*
X3000006Y-2446665D02*
G01*
X3010009Y-2446665D01*
X1948314Y1260500D02*
G01*
X2199774Y1260500D01*
X2753494Y1158900D02*
G01*
X3446914Y1158900D01*
X3446914Y902360D01*
X1945774Y1263040D02*
G01*
X1945774Y902360D01*
X1945774Y640740D02*
G01*
X1945774Y-98399D01*
X2100714Y-238099D02*
G01*
X2410594Y-238099D01*
X3446914Y-78079D02*
G01*
X3446914Y640740D01*
X1979998Y-3920009D02*
G01*
X180002Y-3920009D01*
X180002Y-820016D01*
X1979998Y-820016D01*
X1979998Y-3920009D01*
X1979998Y-3920009D02*
G01*
X180002Y-3920009D01*
X180002Y-3290013D01*
X1979998Y-3290013D01*
X1979998Y-3920009D01*
X1499999Y-589998D02*
G01*
X1499999Y-389999D01*
X1850001Y-609998D02*
G01*
X1970001Y-609998D01*
X1850001Y-369999D02*
G01*
X1970001Y-369999D01*
X1649999Y-609998D02*
G01*
X1530002Y-609998D01*
X1649999Y-369999D02*
G01*
X1530002Y-369999D01*
X2000001Y-589998D02*
G01*
X2000001Y-389999D01*
X1980001Y-609998D02*
G01*
X1970001Y-609998D01*
X1980001Y-369999D02*
G01*
X1970001Y-369999D01*
X1519999Y-609998D02*
G01*
X1530002Y-609998D01*
X1519999Y-369999D02*
G01*
X1530002Y-369999D01*
X3480003Y-480001D02*
G01*
X3480003Y-680001D01*
X3130001Y-460001D02*
G01*
X3010001Y-460001D01*
X3130001Y-700001D02*
G01*
X3010001Y-700001D01*
X3330003Y-460001D02*
G01*
X3450000Y-460001D01*
X3330003Y-700001D02*
G01*
X3450000Y-700001D01*
X2980001Y-480001D02*
G01*
X2980001Y-680001D01*
X3000001Y-460001D02*
G01*
X3010001Y-460001D01*
X3000001Y-700001D02*
G01*
X3010001Y-700001D01*
X3460003Y-460001D02*
G01*
X3450000Y-460001D01*
X3460003Y-700001D02*
G01*
X3450000Y-700001D01*
X-1240002Y-2970001D02*
G01*
X-1240002Y-2770002D01*
X-890000Y-2990001D02*
G01*
X-770001Y-2990001D01*
X-890000Y-2750002D02*
G01*
X-770001Y-2750002D01*
X-1090002Y-2990001D02*
G01*
X-1210000Y-2990001D01*
X-1090002Y-2750002D02*
G01*
X-1210000Y-2750002D01*
X-740001Y-2970001D02*
G01*
X-740001Y-2770002D01*
X-760001Y-2990001D02*
G01*
X-770001Y-2990001D01*
X-760001Y-2750002D02*
G01*
X-770001Y-2750002D01*
X-1220002Y-2990001D02*
G01*
X-1210000Y-2990001D01*
X-1220002Y-2750002D02*
G01*
X-1210000Y-2750002D01*
G75*
G01*
X1575300Y413799D02*
G02*
X1575300Y553499I0J69850D01*
G75*
G01*
X1100000Y0D02*
G02*
X1120000Y20000I20000J0D01*
G75*
G01*
X1100000Y-200000D02*
G03*
X1120000Y-220000I20000J0D01*
G75*
G01*
X1600002Y0D02*
G03*
X1580002Y20000I-20000J0D01*
G75*
G01*
X1600002Y-200000D02*
G02*
X1580002Y-220000I-20000J0D01*
G75*
G01*
X-1010001Y800001D02*
G02*
X-990001Y780001I0J-20000D01*
G75*
G01*
X-1210000Y800001D02*
G03*
X-1230000Y780001I0J-20000D01*
G75*
G01*
X-1010001Y299999D02*
G03*
X-990001Y319999I0J20000D01*
G75*
G01*
X-1210000Y299999D02*
G02*
X-1230000Y319999I0J20000D01*
G75*
G01*
X3480008Y-3373331D02*
G02*
X3460008Y-3393331I-20000J0D01*
G75*
G01*
X3480008Y-3173331D02*
G03*
X3460008Y-3153331I-20000J0D01*
G75*
G01*
X2980007Y-3373331D02*
G03*
X3000007Y-3393331I20000J0D01*
G75*
G01*
X2980007Y-3173331D02*
G02*
X3000007Y-3153331I20000J0D01*
G75*
G01*
X3480008Y-2313333D02*
G02*
X3460008Y-2333333I-20000J0D01*
G75*
G01*
X3480008Y-2113333D02*
G03*
X3460008Y-2093333I-20000J0D01*
G75*
G01*
X2980007Y-2313333D02*
G03*
X3000007Y-2333333I20000J0D01*
G75*
G01*
X2980007Y-2113333D02*
G02*
X3000007Y-2093333I20000J0D01*
G75*
G01*
X3480008Y-3019997D02*
G02*
X3460008Y-3039996I-20000J0D01*
G75*
G01*
X3480008Y-2819997D02*
G03*
X3460008Y-2799997I-20000J0D01*
G75*
G01*
X2980007Y-3019997D02*
G03*
X3000007Y-3039996I20000J0D01*
G75*
G01*
X2980007Y-2819997D02*
G02*
X3000007Y-2799997I20000J0D01*
G75*
G01*
X3480001Y-4080002D02*
G02*
X3460001Y-4100002I-20000J0D01*
G75*
G01*
X3480001Y-3880002D02*
G03*
X3460001Y-3860002I-20000J0D01*
G75*
G01*
X2979999Y-4080002D02*
G03*
X2999999Y-4100002I20000J0D01*
G75*
G01*
X2979999Y-3880002D02*
G02*
X2999999Y-3860002I20000J0D01*
G75*
G01*
X2979999Y-1760002D02*
G02*
X2999999Y-1740002I20000J0D01*
G75*
G01*
X2979999Y-1960001D02*
G03*
X2999999Y-1980001I20000J0D01*
G75*
G01*
X3480001Y-1760002D02*
G03*
X3460001Y-1740002I-20000J0D01*
G75*
G01*
X3480001Y-1960001D02*
G02*
X3460001Y-1980001I-20000J0D01*
G75*
G01*
X3480001Y-3726668D02*
G02*
X3460001Y-3746668I-20000J0D01*
G75*
G01*
X3480001Y-3526668D02*
G03*
X3460001Y-3506668I-20000J0D01*
G75*
G01*
X2979999Y-3726668D02*
G03*
X2999999Y-3746668I20000J0D01*
G75*
G01*
X2979999Y-3526668D02*
G02*
X2999999Y-3506668I20000J0D01*
G75*
G01*
X3480008Y-2666665D02*
G02*
X3460008Y-2686665I-20000J0D01*
G75*
G01*
X3480008Y-2466665D02*
G03*
X3460008Y-2446665I-20000J0D01*
G75*
G01*
X2980007Y-2666665D02*
G03*
X3000007Y-2686665I20000J0D01*
G75*
G01*
X2980007Y-2466665D02*
G02*
X3000007Y-2446665I20000J0D01*
G75*
G01*
X2200206Y1260498D02*
G02*
X2300196Y1242098I7J-280848D01*
G75*
G01*
X2300196Y1242098D02*
G03*
X2752303Y1158898I452113J1186800D01*
G75*
G01*
X2000001Y-589999D02*
G02*
X1980001Y-609999I-20000J0D01*
G75*
G01*
X2000001Y-389999D02*
G03*
X1980001Y-369999I-20000J0D01*
G75*
G01*
X1500000Y-589999D02*
G03*
X1519999Y-609999I20000J0D01*
G75*
G01*
X1500000Y-389999D02*
G02*
X1519999Y-369999I20000J0D01*
G75*
G01*
X2980002Y-480002D02*
G02*
X3000002Y-460002I20000J0D01*
G75*
G01*
X2980002Y-680001D02*
G03*
X3000002Y-700001I20000J0D01*
G75*
G01*
X3480003Y-480002D02*
G03*
X3460003Y-460002I-20000J0D01*
G75*
G01*
X3480003Y-680001D02*
G02*
X3460003Y-700001I-20000J0D01*
G75*
G01*
X-740001Y-2970002D02*
G02*
X-760001Y-2990002I-20000J0D01*
G75*
G01*
X-740001Y-2770002D02*
G03*
X-760001Y-2750002I-20000J0D01*
G75*
G01*
X-1240003Y-2970002D02*
G03*
X-1220003Y-2990002I20000J0D01*
G75*
G01*
X-1240003Y-2770002D02*
G02*
X-1220003Y-2750002I20000J0D01*
D42*
G75*
G01
X59990Y-2380010D02*
G03X59990Y-2380010I-19990J0D01*
D43*
G75*
G01
X3579998Y-3740003D02*
G03X3579998Y-3740003I-19990J0D01*
G75*
G01
X-389997Y-4220012D02*
G03X-389997Y-4220012I-19990J0D01*
D10*
G75*
G01
X-860049Y-3780008D02*
G03X-860049Y-3780008I-119990J0D01*
G75*
G01
X-909300Y-3780008D02*
G03X-909300Y-3780008I-70714J0D01*
G75*
G01
X-824921Y-1475110D02*
G03X-824921Y-1475110I-12700J0D01*
G75*
G01
X-880013Y-2250013D02*
G03X-880013Y-2250013I-119990J0D01*
G75*
G01
X-929289Y-2250013D02*
G03X-929289Y-2250013I-70714J0D01*
G36*
X-910010Y780003D02*
G01*
X-900003Y780003D01*
X-900003Y769995D01*
X-910010Y769995D01*
G37*
M02*
