M48
METRIC,LZ,000.000
;FILE_FORMAT=3:3
;TYPE=PLATED
;Layer: Drill PTH
;EasyEDA v6.4.25, 2021-10-04T21:02:54--4:00
;e5a6d802368343aa863876e234e9a9e8,96b9eb17c6bf4bf1aa34359f555252a9,10
;Gerber Generator version 0.2
;Holesize 1 = 0.305 mm
T01C0.305
;Holesize 2 = 0.320 mm
T02C0.320
;Holesize 3 = 0.501 mm
T03C0.501
;Holesize 4 = 0.800 mm
T04C0.800
;Holesize 5 = 0.889 mm
T05C0.889
;Holesize 6 = 1.000 mm
T06C1.000
;Holesize 7 = 1.200 mm
T07C1.200
%
G05
G90
T01
X015200Y005100
X017900Y-018600
X-006300Y-038700
X025100Y-023500
X-011800Y-024300
X024600Y-013300
X024300Y-031200
X001000Y-033200
X022300Y008400
X-002700Y-031200
X018400Y-002300
X027400Y-006000
X002900Y007700
X006500Y-010500
X002000Y000400
X011800Y-031200
X010000Y-031200
X-012800Y-040500
X-011600Y-039400
X-010900Y-036100
X-007100Y-015200
X-007100Y-015900
X035500Y004900
X005100Y-010500
X001000Y-035200
X014025Y-033800
X010575Y-033800
X007125Y-033800
X030100Y000700
X033700Y001900
X032300Y006300
X033700Y002700
X031500Y006300
X033700Y003500
X030700Y006300
X019600Y-034500
X030500Y-013200
X029700Y-013200
X032600Y-040200
X032600Y-039400
X032600Y-036600
X032600Y-035800
X032600Y-033100
X032600Y-032300
X032600Y-028700
X032600Y-029500
X032600Y-026000
X032600Y-025200
X032600Y-022500
X032600Y-021700
X032600Y-019000
X032600Y-018200
X021300Y-013000
X017800Y-013500
X018000Y-011600
X019200Y-033700
X020000Y-032900
X020900Y-026500
X010900Y-031200
X008200Y-026400
X019200Y-032900
X020000Y-033700
X-009600Y-016600
X009000Y-026400
X023300Y001800
X-011700Y-036100
X010500Y006200
X030100Y-000100
X030100Y-000900
X-011800Y-020700
X027800Y-025900
X018700Y-037300
X002900Y-037400
X008850Y-033800
X012300Y-033800
X016600Y-011200
X024500Y-020100
X026400Y-028400
X-009600Y-012600
X009900Y-012100
X011300Y-012000
X011500Y-013200
X010500Y-011400
X010600Y-012700
X012000Y-012600
X-006800Y005900
X-006800Y008500
X030100Y001500
X006200Y-006500
X017100Y-023200
X026400Y-005100
X017500Y008600
X002100Y004900
X005300Y-024800
X005300Y-025700
X023000Y-005900
X022400Y001800
X021200Y-008600
X-000300Y-010500
X-006100Y-020800
X035500Y002900
X035500Y000900
X032000Y-005700
X032000Y-006500
X032000Y-004900
X-001200Y007700
X017500Y007500
X019000Y005800
X015200Y005900
X019300Y002200
X-006800Y003400
X015100Y003600
X005700Y-011200
X005200Y-006500
X-002200Y-007900
X-003400Y-007900
X015500Y-012200
X029100Y-036100
X-000000Y-007400
X-003400Y-006100
X003800Y-021500
X-006700Y-035400
X027800Y-038400
X021400Y-038500
X024600Y-018100
X023100Y-007700
X000300Y-038600
X035500Y003900
X035500Y001900
X029000Y-014800
X029000Y-015600
X011800Y-002700
X011000Y-002700
X020700Y-004400
X020700Y-005300
X-008600Y-004700
X024900Y-004800
X023500Y-000800
X000400Y-005700
X002300Y-000800
X016200Y-023200
X017100Y-024100
X016200Y-024100
X005100Y-021500
X-006100Y-026200
X-006100Y-028400
X002900Y004900
X-011400Y005500
X-011900Y006000
X014400Y005900
X014400Y005100
X005100Y-005500
X-005100Y-006700
X-000300Y-013000
X-005100Y-010600
X018000Y-005300
X018000Y-004500
X001100Y-038600
X020600Y-038500
X-001000Y-039800
X-001900Y-039800
X-001900Y-040600
X-001100Y-040600
X022900Y-039800
X023800Y-039800
X023800Y-040700
X022900Y-040700
X-009600Y-017300
X-011800Y-026800
X011700Y-005900
X-011800Y-015000
X-008200Y-010900
X027000Y-004500
X014700Y-006800
X010000Y-019500
X011800Y-019500
X011800Y-018600
X010000Y-018600
X-009600Y-013300
X-007800Y-004700
X019000Y005000
X035400Y-020200
X035300Y-023600
X035300Y-027200
X035400Y-034500
X035400Y-030600
X033500Y-041600
X034400Y-041600
X030100Y-012600
X-011800Y-023400
X-011800Y-021600
X-010300Y-028200
X035500Y-038300
X-006100Y-018300
X-010300Y-029400
T02
X012740Y-025150
X011240Y-025150
X010490Y-024400
X010490Y-022900
X011240Y-022150
X012740Y-022150
X012740Y-023650
X011240Y-023650
X011990Y-024450
X011990Y-022890
X013490Y-024420
X013490Y-022890
T03
X034900Y-003600
X-006300Y-004800
X-009500Y-001300
X-003300Y-005000
X-010200Y005400
T04
X004620Y007076G85X004620Y008176
X004620Y002326G85X004620Y003426
X-002820Y002326G85X-002820Y003426
X-000720Y001974
X000880Y001974
X000080Y003178
X001680Y003178
X002480Y001974
X-002820Y007076G85X-002820Y008176
T05
X-001581Y-037335
X-004121Y-037335
X-001581Y-034795
X-004121Y-034795
X-001581Y-032255
X-004121Y-032255
X-001581Y-029715
X-004121Y-029715
X-001581Y-027175
X-004121Y-027175
X-001581Y-024635
X-004121Y-024635
X-001581Y-022095
X-004121Y-022095
X-001581Y-019555
X-004121Y-019555
X-001581Y-017015
X-004121Y-017015
X-001581Y-014475
X-004121Y-014475
X-001581Y-011935
X-004121Y-011935
X-001581Y-009395
X-004121Y-009395
X023240Y-009414
X025780Y-009414
X023240Y-011954
X025780Y-011954
X023240Y-014494
X025780Y-014494
X023240Y-017034
X025780Y-017034
X023240Y-019574
X025780Y-019574
X023240Y-022114
X025780Y-022114
X023240Y-024654
X025780Y-024654
X023240Y-027194
X025780Y-027194
X023240Y-029734
X025780Y-029734
X023240Y-032274
X025780Y-032274
X023240Y-034814
X025780Y-034814
X023240Y-037354
X025780Y-037354
T06
X017400Y000600
X017400Y005600
T07
X-005100Y008540
X-005100Y006000
X-005100Y003460
X-008500Y008540
X-008500Y006000
X-008500Y003460
M30
